<svg height="17" viewBox="0 0 17 17" width="17" xmlns="http://www.w3.org/2000/svg" xmlns:xlink="http://www.w3.org/1999/xlink"><mask id="a" fill="#fff"><path d="m16.7688047 14.6975881-3.3105937-3.3100283c-.149425-.1493995-.3519789-.2323992-.5644945-.2323992h-.5412505c.9164733-1.17195583 1.4610444-2.64603063 1.4610444-4.24958497 0-3.81466654-3.0914371-6.90557563-6.90675521-6.90557563-3.81531813 0-6.90675519 3.09090909-6.90675519 6.90557563 0 3.81466657 3.09143706 6.90557567 6.90675519 6.90557567 1.60382825 0 3.07815484-.5444781 4.25031091-1.4607949v.5411581c0 .2124793.0830139.4149985.2324389.564398l3.3105937 3.3100283c.3121322.3120789.8168566.3120789 1.1256682 0l.9397172-.9395567c.3121322-.3120789.3121322-.8167171.0033206-1.128796zm-9.7688047-3.6975881c-2.209375 0-4-1.7875-4-4 0-2.209375 1.7875-4 4-4 2.209375 0 4 1.7875 4 4 0 2.209375-1.7875 4-4 4z" fill="#fff" fill-rule="evenodd"/></mask><g fill="#006993" fill-rule="evenodd" mask="url(#a)"><path d="m0 0h24v24h-24z"/></g></svg>