<svg height="136.648" viewBox="0 0 305.189439 136.648" width="305.189439" xmlns="http://www.w3.org/2000/svg"><g fill="none"><g fill="#006993" transform="translate(2.176 0)"><path d="m17.792 0c2.304 0 4.352.32533333 6.144.976s3.3066667 1.53066667 4.544 2.64 2.176 2.39466667 2.816 3.856.96 3.0026667.96 4.624c0 1.472-.1493333 2.768-.448 3.888s-.7413333 2.0906667-1.328 2.912-1.312 1.52-2.176 2.096-1.8506667 1.056-2.96 1.44c5.1626667 1.792 7.744 5.3013333 7.744 10.528 0 2.4746667-.448 4.6293333-1.344 6.464s-2.096 3.36-3.6 4.576-3.248 2.128-5.232 2.736-4.0533333.912-6.208.912c-2.2186667 0-4.192-.24-5.92-.72s-3.264-1.2266667-4.608-2.24-2.52266667-2.3093333-3.536-3.888-1.89333333-3.456-2.64-5.632l4.416-1.792c.384-.1706667.76266667-.288 1.136-.352s.74133333-.096 1.104-.096c.68266667 0 1.296.1333333 1.84.4s.95466667.656 1.232 1.168c.96 1.7706667 1.9786667 3.056 3.056 3.856s2.3413333 1.2 3.792 1.2c1.1093333 0 2.0746667-.1866667 2.896-.56s1.504-.8533333 2.048-1.44.9546667-1.2533333 1.232-2 .416-1.504.416-2.272c0-1.0026667-.0693333-1.904-.208-2.704s-.528-1.488-1.168-2.064-1.6053333-1.0186667-2.896-1.328-3.088-.464-5.392-.464v-6.848c1.9413333 0 3.5093333-.1493333 4.704-.448s2.1173333-.7093333 2.768-1.232 1.0826667-1.1573333 1.296-1.904.32-1.568.32-2.464c0-1.8346667-.4426667-3.248-1.328-4.24s-2.2346667-1.488-4.048-1.488c-.7466667 0-1.4293333.10666667-2.048.32s-1.1733333.50133333-1.664.864-.912.7893333-1.264 1.28-.6346667 1.024-.848 1.6c-.3413333.96-.7733333 1.6533333-1.296 2.08-.52266667.4266667-1.232.64-2.128.64-.21333333 0-.44266667-.0106667-.688-.032s-.496-.0533333-.752-.096l-5.248-.928c.34133333-2.3253333.99733333-4.352 1.968-6.08s2.176-3.168 3.616-4.32 3.088-2.01066667 4.944-2.576 3.8506667-.848 5.984-.848z"/><path d="m70.592 23.808c0 4.0746667-.4373333 7.6053333-1.312 10.592s-2.0853333 5.4613333-3.632 7.424-3.3813333 3.424-5.504 4.384-4.4213333 1.44-6.896 1.44-4.7626667-.48-6.864-1.44-3.92-2.4213333-5.456-4.384-2.736-4.4373333-3.6-7.424-1.296-6.5173333-1.296-10.592.432-7.6053333 1.296-10.592 2.064-5.46133333 3.6-7.424 3.3546667-3.41866667 5.456-4.368 4.3893333-1.424 6.864-1.424 4.7733333.47466667 6.896 1.424 3.9573333 2.40533333 5.504 4.368 2.7573333 4.4373333 3.632 7.424 1.312 6.5173333 1.312 10.592zm-10.24 0c0-3.2213333-.2026667-5.8613333-.608-7.92s-.944-3.6746667-1.616-4.848c-.672-1.17333333-1.4346667-1.97866667-2.288-2.416s-1.7173333-.656-2.592-.656-1.7333333.21866667-2.576.656-1.5893333 1.24266667-2.24 2.416c-.6506667 1.1733333-1.1733333 2.7893333-1.568 4.848s-.592 4.6986667-.592 7.92c0 3.2426667.1973333 5.888.592 7.936s.9173333 3.664 1.568 4.848 1.3973333 1.9946667 2.24 2.432 1.7013333.656 2.576.656 1.7386667-.2186667 2.592-.656 1.616-1.248 2.288-2.432 1.2106667-2.8 1.616-4.848.608-4.6933333.608-7.936z"/><path d="m86.084 7.16c0 1.01333333-.1836667 1.938-.551 2.774s-.855 1.5548333-1.463 2.1565-1.3141667 1.0671667-2.1185 1.3965-1.6435.494-2.5175.494c-.9626667 0-1.8461667-.1646667-2.6505-.494s-1.501-.7948333-2.09-1.3965-1.0481667-1.3205-1.3775-2.1565-.494-1.76066667-.494-2.774c0-1.05133333.1646667-2.0045.494-2.8595s.7885-1.5865 1.3775-2.1945 1.2856667-1.07983333 2.09-1.4155 1.6878333-.5035 2.6505-.5035 1.8525.16783333 2.6695.5035 1.52.8075 2.109 1.4155 1.0481667 1.3395 1.3775 2.1945.494 1.80816667.494 2.8595zm-4.522 0c0-.646-.0538333-1.18116667-.1615-1.6055s-.2565-.76316667-.4465-1.0165-.4148333-.43066667-.6745-.532-.5415-.152-.8455-.152-.5826667.05066667-.836.152-.4686667.27866667-.646.532-.3166667.59216667-.418 1.0165-.152.9595-.152 1.6055c0 .608.0506667 1.11466667.152 1.52s.2406667.72833333.418.969.3926667.4116667.646.513.532.152.836.152.5858333-.0506667.8455-.152.4845-.27233333.6745-.513.3388333-.56366667.4465-.969.1615-.912.1615-1.52zm13.224-5.833c.19-.21533333.4243333-.41483333.703-.5985s.665-.2755 1.159-.2755h4.294l-20.862 26.847c-.19.2406667-.4275.4401667-.7125.5985s-.6301667.2375-1.0355.2375h-4.408zm7.22 20.311c0 1.0133333-.183667 1.9411667-.551 2.7835s-.855 1.5643333-1.463 2.166-1.3141667 1.0671667-2.1185 1.3965-1.6435.494-2.5175.494c-.9626667 0-1.8461667-.1646667-2.6505-.494s-1.501-.7948333-2.09-1.3965-1.0481667-1.3236667-1.3775-2.166-.494-1.7701667-.494-2.7835c0-1.0513333.1646667-2.0045.494-2.8595s.7885-1.5865 1.3775-2.1945 1.2856667-1.0798333 2.09-1.4155 1.6878333-.5035 2.6505-.5035 1.8525.1678333 2.6695.5035 1.52.8075 2.109 1.4155 1.048167 1.3395 1.3775 2.1945.494 1.8081667.494 2.8595zm-4.522 0c0-.6333333-.0538333-1.1621667-.1615-1.5865s-.2565-.7631667-.4465-1.0165-.4148333-.4306667-.6745-.532-.5415-.152-.8455-.152-.5826667.0506667-.836.152-.4686667.2786667-.646.532-.3166667.5921667-.418 1.0165-.152.9531667-.152 1.5865c0 .608.0506667 1.1146667.152 1.52s.2406667.7283333.418.969.3926667.4116667.646.513.532.152.836.152.5858333-.0506667.8455-.152.4845-.2723333.6745-.513.3388333-.5636667.4465-.969.1615-.912.1615-1.52z"/></g><g fill="#006993" transform="translate(0 89)"><path d="m31.04 29.024h4.8v5.568c0 .4906667-.1653333.9173333-.496 1.28s-.8053333.544-1.424.544h-2.88v10.72h-8.64v-10.72h-18.752c-.61866667 0-1.17866667-.192-1.68-.576s-.816-.864-.944-1.44l-1.024-4.896 21.568-28.992h9.472zm-8.64-12.16c0-.7466667.0266667-1.552.08-2.416s.1333333-1.7546667.24-2.672l-12.32 17.248h12z"/><path d="m72.768 23.808c0 4.0746667-.4373333 7.6053333-1.312 10.592s-2.0853333 5.4613333-3.632 7.424-3.3813333 3.424-5.504 4.384-4.4213333 1.44-6.896 1.44-4.7626667-.48-6.864-1.44-3.92-2.4213333-5.456-4.384-2.736-4.4373333-3.6-7.424-1.296-6.5173333-1.296-10.592.432-7.6053333 1.296-10.592 2.064-5.46133333 3.6-7.424 3.3546667-3.41866667 5.456-4.368 4.3893333-1.424 6.864-1.424 4.7733333.47466667 6.896 1.424 3.9573333 2.40533333 5.504 4.368 2.7573333 4.4373333 3.632 7.424 1.312 6.5173333 1.312 10.592zm-10.24 0c0-3.2213333-.2026667-5.8613333-.608-7.92s-.944-3.6746667-1.616-4.848c-.672-1.17333333-1.4346667-1.97866667-2.288-2.416s-1.7173333-.656-2.592-.656-1.7333333.21866667-2.576.656-1.5893333 1.24266667-2.24 2.416c-.6506667 1.1733333-1.1733333 2.7893333-1.568 4.848s-.592 4.6986667-.592 7.92c0 3.2426667.1973333 5.888.592 7.936s.9173333 3.664 1.568 4.848 1.3973333 1.9946667 2.24 2.432 1.7013333.656 2.576.656 1.7386667-.2186667 2.592-.656 1.616-1.248 2.288-2.432 1.2106667-2.8 1.616-4.848.608-4.6933333.608-7.936z"/><path d="m88.26 7.16c0 1.01333333-.1836667 1.938-.551 2.774s-.855 1.5548333-1.463 2.1565-1.3141667 1.0671667-2.1185 1.3965-1.6435.494-2.5175.494c-.9626667 0-1.8461667-.1646667-2.6505-.494s-1.501-.7948333-2.09-1.3965-1.0481667-1.3205-1.3775-2.1565-.494-1.76066667-.494-2.774c0-1.05133333.1646667-2.0045.494-2.8595s.7885-1.5865 1.3775-2.1945 1.2856667-1.07983333 2.09-1.4155 1.6878333-.5035 2.6505-.5035 1.8525.16783333 2.6695.5035 1.52.8075 2.109 1.4155 1.0481667 1.3395 1.3775 2.1945.494 1.80816667.494 2.8595zm-4.522 0c0-.646-.0538333-1.18116667-.1615-1.6055s-.2565-.76316667-.4465-1.0165-.4148333-.43066667-.6745-.532-.5415-.152-.8455-.152-.5826667.05066667-.836.152-.4686667.27866667-.646.532-.3166667.59216667-.418 1.0165-.152.9595-.152 1.6055c0 .608.0506667 1.11466667.152 1.52s.2406667.72833333.418.969.3926667.4116667.646.513.532.152.836.152.5858333-.0506667.8455-.152.4845-.27233333.6745-.513.3388333-.56366667.4465-.969.1615-.912.1615-1.52zm13.224-5.833c.19-.21533333.4243333-.41483333.703-.5985s.665-.2755 1.159-.2755h4.294l-20.862 26.847c-.19.2406667-.4275.4401667-.7125.5985s-.6301667.2375-1.0355.2375h-4.408zm7.22 20.311c0 1.0133333-.183667 1.9411667-.551 2.7835s-.855 1.5643333-1.463 2.166-1.314167 1.0671667-2.1185 1.3965c-.8043333.3293333-1.6435.494-2.5175.494-.9626667 0-1.8461667-.1646667-2.6505-.494s-1.501-.7948333-2.09-1.3965-1.0481667-1.3236667-1.3775-2.166-.494-1.7701667-.494-2.7835c0-1.0513333.1646667-2.0045.494-2.8595s.7885-1.5865 1.3775-2.1945 1.2856667-1.0798333 2.09-1.4155 1.6878333-.5035 2.6505-.5035 1.8525.1678333 2.6695.5035 1.52.8075 2.109 1.4155 1.048167 1.3395 1.3775 2.1945.494 1.8081667.494 2.8595zm-4.522 0c0-.6333333-.0538333-1.1621667-.1615-1.5865s-.2565-.7631667-.4465-1.0165-.4148333-.4306667-.6745-.532-.5415-.152-.8455-.152-.5826667.0506667-.836.152-.4686667.2786667-.646.532-.3166667.5921667-.418 1.0165-.152.9531667-.152 1.5865c0 .608.0506667 1.1146667.152 1.52s.2406667.7283333.418.969.3926667.4116667.646.513.532.152.836.152.5858333-.0506667.8455-.152.4845-.2723333.6745-.513.3388333-.5636667.4465-.969.1615-.912.1615-1.52z"/></g><g fill="#4a4a4a"><g transform="translate(136.931502 36.511046)"><path d="m5.87213135 16.8458786c1.10257466 0 2.06184387-.2489128 2.87780761-.7467384.81596375-.4978257 1.45042674-1.2045848 1.90338894-2.1202774.4529623-.9156927.6794434-2.0023283.6794434-3.2599068v-.0224609c0-1.26003524-.2264811-2.34664158-.6794434-3.25981907-.4529622-.91317749-1.08868277-1.61680731-1.90716167-2.11088944s-1.77900569-.7411232-2.88158035-.7411232c-1.09520467 0-2.05266063.24704107-2.87236786.7411232-.81970724.49408213-1.45604197 1.19771195-1.90900421 2.11088944s-.67944336 1.99978383-.67944336 3.25981907v.0224609c0 1.2525482.22648112 2.3379262.67944336 3.256134s1.08929697 1.6262245 1.90900421 2.1240502c.81970723.4978256 1.77967834.7467384 2.87991333.7467384zm.00754547-1.7294922c-.71336873 0-1.32952372-.1733996-1.84846497-.5201988-.51894124-.3467992-.92007955-.8482806-1.20341491-1.5044441-.28333537-.6561636-.42500306-1.4470927-.42500306-2.3727875v-.0224609c0-.92815149.14166769-1.71779383.42500306-2.36892705.28333536-.65113322.68447367-1.14948527 1.20341491-1.49505615.51894125-.34557088 1.13006592-.51835632 1.83337403-.51835632.71325175 0 1.32937749.17152786 1.84837722.51458359.51899974.34305572.91888047.84140777 1.19964219 1.49505615.28076171.65364838.42114257 1.44454829.42114257 2.37269978v.0224609c0 .9256948-.14038086 1.7166239-.42114257 2.3727875-.28076172.6561635-.67812729 1.1576449-1.19209671 1.5044441-.51396943.3467992-1.12758001.5201988-1.84083176.5201988z"/><path d="m14.2337897 16.6249542h1.9541016v-10.20217893h2.5022888v-1.6171875h-2.5173797v-1.38222504c0-.60586039.1402931-1.05835469.4208793-1.35748291.2805863-.29912821.7161471-.44869232 1.3066826-.44869232.1571096 0 .3104757.00374349.4600983.01123047s.2843297.01994578.4041214.0373764v-1.5761261c-.161789-.02737426-.3506305-.04916254-.5665245-.06536483-.2158941-.01620229-.4360873-.02430344-.6605797-.02430344-.73349 0-1.3446439.1228625-1.8334618.36858749-.4888178.245725-.85606.61989848-1.1017265 1.12252045s-.3684998 1.13810857-.3684998 1.90645981v1.40802002h-1.7533569v1.6171875h1.7533569z"/><path d="m26.0568343 20.5922928h1.9541016v-5.9067001h.0891418c.2397004.4443054.5460816.8274574.9191437 1.149456.3730622.3219986.8010191.5709699 1.2838707.7469139.4828517.175944.9987806.263916 1.5477867.263916.9954173 0 1.8655447-.2520129 2.6103821-.7560387.7448375-.5040257 1.325634-1.213885 1.7423897-2.1295776s.6251335-1.9936129.6251335-3.2337608v-.0149155c0-1.23769124-.2071203-2.31564077-.6213608-3.23384857-.4142405-.91820781-.9962946-1.62993876-1.7461624-2.13519287-.7498677-.50525411-1.6275991-.75788117-2.633194-.75788117-.5564931 0-1.0717786.08861542-1.5458564.26584625-.4740779.17723084-.8945186.42745972-1.2613221.75068665-.3668034.32322693-.6737403.71196492-.9208107 1.16621399h-.0891418v-1.96182251h-1.9541016zm5.3674622-5.4759064c-.6834208 0-1.2820867-.1809158-1.7959976-.5427475-.513911-.3618316-.9156634-.8714434-1.2052574-1.5288353-.2895941-.6573918-.4343911-1.4301592-.4343911-2.3183021v-.0149155c0-.8955129.1435395-1.67138036.4306183-2.32760239.2870789-.65622202.6888314-1.16524887 1.2052574-1.52708053.5164261-.36183167 1.1163496-.5427475 1.7997704-.5427475.7058818 0 1.3133214.17652893 1.822319.52958679s.9001046.85766856 1.1733208 1.51383209c.2732162.65616354.4098244 1.44083405.4098244 2.35401154v.0149155c0 .9006602-.1366082 1.6796862-.4098244 2.3370781-.2732162.6573918-.6643232 1.1638743-1.1733208 1.5194473s-1.1164372.5333595-1.822319.5333595z"/><path d="m42.4342206 16.8458786c.5314585 0 1.0293134-.084287 1.4935646-.252861s.8817088-.4089178 1.2523728-.7210312c.3706639-.3121135.6732139-.6815491.90765-1.1083069h.0889663v1.8612747h1.9541016v-8.14454649c0-.79829915-.1815885-1.48870976-.5447655-2.07123184-.363177-.58252207-.8822644-1.032238-1.5572624-1.34914779s-1.4839427-.47536469-2.4268341-.47536469c-.8963318 0-1.6788966.14801407-2.3476944.44404221-.6687978.29602813-1.1995837.69810231-1.5923576 1.20622253-.392774.50812022-.6264789 1.0828921-.7011147 1.72431564l-.0112305.10528565h1.9088288l.0187759-.07913971c.1270447-.50689189.4214058-.91215388.8830833-1.21578598.4616776-.3036321 1.0631803-.45544815 1.8045083-.45544815.8454437 0 1.4921315.20156352 1.9400634.60469055.447932.40312703.6718979.96646373.6718979 1.69001007v3.5542679c0 .5664368-.1453527 1.0754928-.436058 1.5271683-.2907054.4516754-.6855266.8078918-1.1844635 1.0686493-.498937.2607574-1.06397.3911361-1.6950989.3911361-.703776 0-1.2738978-.166556-1.7103653-.4996681s-.6547012-.7889697-.6547012-1.3675728v-.0224609c0-.5637462.2140223-1.0103328.6420669-1.3397599.4280447-.329427 1.0546697-.5178298 1.8798752-.5652084l4.1357956-.2544403v-1.53085326l-4.36409.2544403c-.9056905.05240886-1.6791598.22209426-2.3204078.50905606-.6412481.2869619-1.1302707.6780688-1.4670677 1.1733208-.3367971.495252-.5051957 1.0845884-.5051957 1.7680092v.0224609c0 .7136027.1677259 1.3374202.5031777 1.8714524.3354517.5340321.799469.9470443 1.3920517 1.2390365s1.2732251.4379883 2.0419273.4379883z"/><path d="m54.8295736 16.8055191c.1946614 0 .386837-.0099729.5765266-.0299187.1896896-.0199457.3554268-.0398623.4972115-.0597496v-1.609291c-.1141765.0099436-.2280019.0199165-.3414765.0299186-.1134745.0100022-.2386474.0150032-.3755188.0150032-.5583648 0-.9723129-.1251144-1.2418441-.3753433-.2695313-.2502289-.4042969-.7007929-.4042969-1.3516922v-7.00167083h2.3631363v-1.6171875h-2.3631363v-3.14839173h-2.0214844v3.14839173h-1.7733612v1.6171875h1.7733612v7.17100523c0 1.1278432.2700577 1.9450938.810173 2.4517517.5401154.5066579 1.3736852.7599869 2.5007096.7599869z"/><path d="m58.2610178 16.6249542h1.9541016v-11.81936643h-1.9541016zm.9807358-13.9134979c.3541107 0 .6533851-.12409083.8978233-.37227249s.3666573-.54564286.3666573-.89238358c0-.35411072-.1222191-.65338516-.3666573-.89782333s-.5437126-.36665726-.8978233-.36665726c-.3467407 0-.6442019.12221909-.8923836.36665726s-.3722725.54371261-.3722725.89782333c0 .34674072.1240908.64420192.3722725.89238358s.5456429.37227249.8923836.37227249z"/><path d="m67.96088 16.8458786c.6608429 0 1.2688383-.0892003 1.8239861-.267601s1.0448723-.425471 1.4691734-.7412109c.4243012-.31574.7718608-.6777179 1.0426789-1.0859337.270818-.4082159.4561208-.8409106.5559082-1.2980843l.0224609-.1049347h-1.9314651l-.0373765.1010742c-.109848.3050944-.2957941.5837504-.5578384.835968-.2620443.2522177-.5901845.4531963-.9844208.6029358-.3942362.1497396-.8469645.2246094-1.3581848.2246094-.7136027 0-1.3323898-.1578115-1.8563614-.4734344-.5239715-.315623-.9281807-.7696966-1.2126274-1.3622208s-.4266701-1.3067118-.4266701-2.1425629v-.7598114c0-.88077287.1447093-1.62303667.4341278-2.22679135.2894186-.60375468.684269-1.05970001 1.1845513-1.36783599.5002823-.30813599 1.0660464-.46220398 1.6972923-.46220398.631129 0 1.1899618.14658101 1.6764984.43974304.4865367.29316203.8682849.73913447 1.1452446 1.33791733.2769598.59878285.4154396 1.35850652.4154396 2.27917095v.7598114l.9809113-1.41872402h-8.529892v1.53839872h9.5067673v-.73349c0-1.18025205-.2077344-2.21637977-.6232033-3.10838315-.4154688-.89200338-1.0105959-1.58627446-1.7853813-2.08281326s-1.6998367-.7448082-2.7751541-.7448082c-1.0729777 0-2.0074463.25949987-2.8034058.7784996-.7959594.51899974-1.4129041 1.241347-1.8508339 2.16704178-.4379298.92569479-.6568947 1.998614-.6568947 3.21875763v.0112305c0 1.2351176.2177074 2.3086509.653122 3.2206001s1.0592321 1.6174507 1.8714523 2.1165047c.8122203.4990539 1.782252.7485809 2.9100952.7485809z"/><path d="m75.2344305 16.6249542h1.9541016v-6.96868131c0-.68096415.1266352-1.27097321.3799057-1.77002716.2532704-.49905396.6107152-.88583247 1.0723342-1.16033554.4616191-.27450308 1.0043081-.41175461 1.6280671-.41175461.9204305 0 1.60584.25637054 2.0562286.76911163s.6755829 1.26781464.6755829 2.26522064v7.27646635h1.9541015v-7.66514585c0-1.36695862-.3574447-2.4378891-1.0723342-3.21279144-.7148896-.77490235-1.7259242-1.16235352-3.033104-1.16235352-.8859202 0-1.6246745.17781576-2.2162628.53344727s-1.0433807.82263183-1.3553772 1.40100097h-.0891418v-1.71352386h-1.9541016z"/><path d="m91.638751 16.8055191c.1946614 0 .386837-.0099729.5765266-.0299187.1896896-.0199457.3554268-.0398623.4972115-.0597496v-1.609291c-.1141765.0099436-.2280019.0199165-.3414765.0299186-.1134745.0100022-.2386474.0150032-.3755188.0150032-.5583648 0-.9723129-.1251144-1.2418441-.3753433-.2695313-.2502289-.4042969-.7007929-.4042969-1.3516922v-7.00167083h2.3631363v-1.6171875h-2.3631363v-3.14839173h-2.0214844v3.14839173h-1.7733612v1.6171875h1.7733612v7.17100523c0 1.1278432.2700577 1.9450938.810173 2.4517517.5401154.5066579 1.3736852.7599869 2.5007096.7599869z"/><path d="m99.1200075 16.8458786c.8856865 0 1.6783995-.1497103 2.3781395-.449131s1.251671-.7154452 1.655792-1.2480736c.404122-.5326284.606182-1.1457418.606182-1.8393402v-.0149155c0-.5614064-.110959-1.0454572-.332878-1.4521522-.221919-.4066951-.57173-.7535235-1.049434-1.0404854-.477705-.2869619-1.105938-.5228017-1.884701-.7075195l-1.8567125-.44921878c-.4414978-.10961405-.8019257-.24303436-1.0812836-.40026093-.2793579-.15722656-.483846-.34194437-.6134644-.55415344-.1296183-.21220906-.1944275-.45050557-.1944275-.71488952v-.01491547c0-.34931437.0972138-.65496445.2916413-.91695023s.4687551-.46594747.8229828-.61188507.7684097-.2189064 1.242546-.2189064c.7286937 0 1.3100459.16485977 1.7440569.49457932.434011.32971954.697049.76434453.789116 1.30387496l.007545.05299378h1.882683l-.007721-.0982666c-.059545-.65382386-.277018-1.23538081-.65242-1.74467087s-.883083-.909434-1.523045-1.20043182c-.639961-.29099783-1.3854709-.43649674-2.2365299-.43649674-.843455 0-1.5945218.14845276-2.2532005.44535828s-1.1744614.70611572-1.547348 1.22763061c-.3728867.5215149-.55933 1.1191864-.55933 1.79301453v.01123047c0 .56631978.1185633 1.05972926.35569 1.48022842.2371267.42049917.5977593.7748731 1.0818977 1.0631218.4841385.2882487 1.0967547.5222168 1.8378487.7019043l1.8602219.4492187c.6933641.1696269 1.1795791.3872465 1.4586451.6528588.279065.2656123.418598.6068255.418598 1.0236397v.0149154c0 .3568014-.107216.6680082-.321648.9336205-.214431.2656123-.515548.471358-.903351.6172371-.387802.1458791-.8499472.2188186-1.386436.2188186-.7862498 0-1.4063823-.1597709-1.8603974-.4793129-.4540151-.3195419-.7482299-.7578519-.8826446-1.3149299l-.015091-.0754547h-1.9688415l.0075455.0679092c.0799001.6864624.3175239 1.2868538.7128715 1.8011742.3953476.5143203.929877.9144058 1.6035881 1.2002563.6737112.2858505 1.4648158.4287758 2.3733139.4287758z"/><path d="m3.3084259 45.6249542h1.97673798l2.65003967-9.1470413h.08896637l2.66127018 9.1470413h1.9804229l3.3010559-11.8193664h-1.9353256l-2.3506775 9.559761h-.0891418l-2.66864015-9.559761h-1.87566376l-2.66127014 9.559761h-.08896637l-2.35067749-9.559761h-1.94655609z"/><path d="m17.881781 45.6249542h1.9541016v-11.8193664h-1.9541016zm.9807358-13.9134979c.3541107 0 .6533852-.1240908.8978234-.3722725.2444381-.2481817.3666572-.5456428.3666572-.8923836 0-.3541107-.1222191-.6533851-.3666572-.8978233-.2444382-.2444382-.5437127-.3666573-.8978234-.3666573-.3467407 0-.6442019.1222191-.8923836.3666573-.2481816.2444382-.3722724.5437126-.3722724.8978233 0 .3467408.1240908.6442019.3722724.8923836.2481817.2481817.5456429.3722725.8923836.3722725z"/><path d="m26.6921551 45.8055191c.1946614 0 .386837-.0099729.5765266-.0299187.1896896-.0199457.3554268-.0398623.4972115-.0597496v-1.609291c-.1141765.0099436-.228002.0199165-.3414765.0299186-.1134745.0100022-.2386474.0150032-.3755188.0150032-.5583648 0-.9723129-.1251144-1.2418442-.3753433-.2695312-.2502289-.4042968-.7007929-.4042968-1.3516922v-7.0016708h2.3631363v-1.6171875h-2.3631363v-3.1483918h-2.0214844v3.1483918h-1.7733612v1.6171875h1.7733612v7.1710052c0 1.1278432.2700577 1.9450938.810173 2.4517517.5401154.5066579 1.3736852.7599869 2.5007096.7599869z"/><path d="m30.1304429 45.6249542h1.9541015v-6.9307785c0-.6810811.1266353-1.2736638.3799057-1.7777481.2532705-.5040843.6094577-.8971507 1.0685616-1.1791992s.995505-.4230728 1.6092033-.4230728c.9304911 0 1.6423391.2853241 2.1355438.8559723.4932048.5706482.7398072 1.389946.7398072 2.4578933v6.996933h1.9541015v-7.378067c0-.9482727-.172259-1.7706706-.516777-2.4671936s-.8299726-1.2364922-1.4563637-1.6199074-1.3673973-.5751228-2.2230186-.5751228c-.8758596 0-1.617129.1815885-2.2238083.5447655-.6066793.3631769-1.0660172.8717359-1.3780136 1.5256767h-.0891419v-6.4673462h-1.9541015z"/><path d="m52.7605297 45.8458786c.9128265 0 1.7148984-.1697731 2.4062157-.5093193.6913172-.3395462 1.2528991-.8020426 1.6847458-1.3874893.4318466-.5854467.7100054-1.2463188.8344764-1.9826164l.0149155-.0933533-1.9240952.003685-.0224609.0824737c-.1843669.6587372-.5285339 1.1829427-1.0325012 1.5726166s-1.158961.5845108-1.9649811.5845108c-.6885681 0-1.292352-.1771138-1.8113518-.5313415-.5189997-.3542277-.9232381-.8600083-1.2127151-1.5173417-.2894771-.6573333-.4342156-1.4426473-.4342156-2.3559417v-.0149155c0-.8931732.1428668-1.6672567.4286003-2.3222504.2857336-.6549937.6868426-1.1621488 1.2033272-1.5214653s1.1202393-.5389747 1.8112641-.5389747c.8634592 0 1.5445989.2171809 2.0434188.6515426.49882.4343618.8205847.9459916.9652939 1.5348893l.018776.0715942h1.9202346l-.0112304-.0826492c-.0946401-.6834208-.346536-1.3215396-.7556877-1.9143563-.4091517-.5928166-.9642996-1.0727729-1.6654435-1.4398689-.7011439-.3670959-1.5395978-.5506439-2.5153617-.5506439-1.0953217 0-2.0509644.2501411-2.8669281.7504234-.8159638.5002823-1.4491692 1.2070414-1.8996163 2.1202774s-.6756706 1.9886996-.6756706 3.2263909v.0149154c0 1.2500916.2233225 2.3354696.6699676 3.2561341.4466451.9206644 1.0792071 1.6330096 1.897686 2.1370353.8184789.5040258 1.7829247.7560387 2.8933373.7560387z"/><path d="m59.8436982 45.6249542h1.9541016v-11.8193664h-1.9541016zm.9807358-13.9134979c.3541107 0 .6533851-.1240908.8978233-.3722725s.3666573-.5456428.3666573-.8923836c0-.3541107-.1222191-.6533851-.3666573-.8978233s-.5437126-.3666573-.8978233-.3666573c-.3467407 0-.6442019.1222191-.8923836.3666573s-.3722725.5437126-.3722725.8978233c0 .3467408.1240908.6442019.3722725.8923836s.5456429.3722725.8923836.3722725z"/><path d="m64.6926998 45.6249542h1.9541016v-7.3055954c0-.5914713.1139717-1.1017558.3419151-1.5308532.2279435-.4290975.5475146-.759636.9587136-.9916153.4111989-.2319794.887207-.3479691 1.4280243-.3479691.2322133 0 .443779.0106163.6346969.0318489.190918.0212326.344635.0480512.4611511.0804558v-1.8979492c-.0822397-.014974-.1999549-.0318197-.3531455-.0505371-.1531907-.0187175-.3183429-.0280762-.4954567-.0280762-.7103272 0-1.3173282.1910642-1.821003.5731926s-.8589261.903965-1.0657539 1.5655098h-.0891419v-1.917778h-1.9541016z"/><path d="m72.2256862 45.6249542h1.9541016v-7.3055954c0-.5914713.1139717-1.1017558.3419151-1.5308532.2279434-.4290975.5475146-.759636.9587135-.9916153.411199-.2319794.887207-.3479691 1.4280243-.3479691.2322133 0 .443779.0106163.634697.0318489.1909179.0212326.344635.0480512.4611511.0804558v-1.8979492c-.0822398-.014974-.199955-.0318197-.3531456-.0505371-.1531906-.0187175-.3183429-.0280762-.4954567-.0280762-.7103272 0-1.3173281.1910642-1.821003.5731926-.5036748.3821284-.8589261.903965-1.0657539 1.5655098h-.0891418v-1.917778h-1.9541016z"/><path d="m79.8634318 45.6249542h1.9541015v-6.9307785c0-.6810811.1266352-1.2736638.3799057-1.7777481s.6094577-.8971507 1.0685616-1.1791992.995505-.4230728 1.6092033-.4230728c.9304911 0 1.6423391.2853241 2.1355438.8559723.4932048.5706482.7398072 1.389946.7398072 2.4578933v6.996933h1.9541015v-7.378067c0-.9482727-.172259-1.7706706-.516777-2.4671936s-.8299726-1.2364922-1.4563637-1.6199074-1.3673973-.5751228-2.2230186-.5751228c-.8758596 0-1.617129.1815885-2.2238083.5447655-.6066793.3631769-1.0660172.8717359-1.3780136 1.5256767h-.0891419v-6.4673462h-1.9541015z"/><path d="m97.3118033 45.8458786c1.1025747 0 2.0618439-.2489128 2.8778077-.7467384.815964-.4978257 1.450427-1.2045848 1.903389-2.1202774.452962-.9156927.679443-2.0023283.679443-3.2599068v-.0224609c0-1.2600352-.226481-2.3466416-.679443-3.2598191s-1.088683-1.6168073-1.907162-2.1108894c-.8184787-.4940821-1.7790055-.7411232-2.8815801-.7411232-1.0952047 0-2.0526607.2470411-2.8723679.7411232s-1.456042 1.1977119-1.9090042 2.1108894-.6794434 1.9997839-.6794434 3.2598191v.0224609c0 1.2525482.2264812 2.3379262.6794434 3.256134s1.089297 1.6262245 1.9090042 2.1240502c.8197072.4978256 1.7796784.7467384 2.8799133.7467384zm.0075455-1.7294922c-.7133687 0-1.3295237-.1733996-1.848465-.5201988-.5189412-.3467992-.9200795-.8482806-1.2034149-1.5044441-.2833353-.6561636-.425003-1.4470927-.425003-2.3727875v-.0224609c0-.9281515.1416677-1.7177938.425003-2.368927.2833354-.6511333.6844737-1.1494853 1.2034149-1.4950562.5189413-.3455709 1.130066-.5183563 1.8333741-.5183563.7132517 0 1.3293775.1715278 1.8483772.5145836.5189997.3430557.9188809.8414077 1.1996419 1.4950561.280762.6536484.421143 1.4445483.421143 2.3726998v.0224609c0 .9256948-.140381 1.7166239-.421143 2.3727875-.280761.6561635-.678127 1.1576449-1.1920964 1.5044441-.5139695.3467992-1.12758.5201988-1.8408318.5201988z"/><path d="m109.133499 45.8458786c.885686 0 1.678399-.1497103 2.378139-.449131.699741-.2994207 1.251671-.7154452 1.655793-1.2480736.404121-.5326284.606182-1.1457418.606182-1.8393402v-.0149155c0-.5614064-.11096-1.0454572-.332878-1.4521522-.221919-.4066951-.571731-.7535235-1.049435-1.0404854s-1.105938-.5228017-1.884701-.7075195l-1.856712-.4492188c-.441498-.109614-.801926-.2430343-1.081284-.4002609s-.483846-.3419444-.613464-.5541534c-.129618-.2122091-.194428-.4505056-.194428-.7148896v-.0149154c0-.3493144.097214-.6549645.291642-.9169503.194427-.2619857.468755-.4659474.822983-.611885.354227-.1459376.768409-.2189064 1.242546-.2189064.728693 0 1.310045.1648597 1.744056.4945793.434011.3297195.69705.7643445.789116 1.3038749l.007546.0529938h1.882682l-.00772-.0982666c-.059545-.6538238-.277019-1.2353808-.652421-1.7446709-.375401-.50929-.883083-.909434-1.523044-1.2004318s-1.385471-.4364967-2.23653-.4364967c-.843455 0-1.594522.1484527-2.253201.4453583-.658679.2969055-1.174461.7061157-1.547348 1.2276306s-.55933 1.1191864-.55933 1.7930145v.0112305c0 .5663198.118563 1.0597292.35569 1.4802284s.597759.7748731 1.081898 1.0631218c.484138.2882487 1.096755.5222168 1.837848.7019043l1.860222.4492187c.693365.1696269 1.17958.3872465 1.458645.6528588.279066.2656123.418598.6068255.418598 1.0236397v.0149154c0 .3568014-.107216.6680082-.321647.9336205-.214432.2656123-.515549.471358-.903351.6172371s-.849948.2188186-1.386437.2188186c-.786249 0-1.406382-.1597709-1.860397-.4793129-.454015-.3195419-.74823-.7578519-.882645-1.3149299l-.015091-.0754547h-1.968841l.007545.0679092c.079901.6864624.317524 1.2868538.712872 1.8011742.395348.5143203.929877.9144058 1.603588 1.2002563s1.464816.4287758 2.373314.4287758z"/><path d="m116.122622 45.6249542h1.954101v-11.8193664h-1.954101zm.980736-13.9134979c.35411 0 .653385-.1240908.897823-.3722725s.366657-.5456428.366657-.8923836c0-.3541107-.122219-.6533851-.366657-.8978233s-.543713-.3666573-.897823-.3666573c-.346741 0-.644202.1222191-.892384.3666573s-.372272.5437126-.372272.8978233c0 .3467408.12409.6442019.372272.8923836s.545643.3722725.892384.3722725z"/><path d="m125.119352 45.8458786c.885686 0 1.678399-.1497103 2.378139-.449131s1.251671-.7154452 1.655792-1.2480736c.404122-.5326284.606182-1.1457418.606182-1.8393402v-.0149155c0-.5614064-.110959-1.0454572-.332878-1.4521522-.221919-.4066951-.57173-.7535235-1.049434-1.0404854-.477705-.2869619-1.105938-.5228017-1.884701-.7075195l-1.856713-.4492188c-.441497-.109614-.801925-.2430343-1.081283-.4002609s-.483846-.3419444-.613464-.5541534c-.129619-.2122091-.194428-.4505056-.194428-.7148896v-.0149154c0-.3493144.097214-.6549645.291641-.9169503.194428-.2619857.468755-.4659474.822983-.611885s.76841-.2189064 1.242546-.2189064c.728694 0 1.310046.1648597 1.744057.4945793.434011.3297195.697049.7643445.789116 1.3038749l.007545.0529938h1.882683l-.007721-.0982666c-.059545-.6538238-.277018-1.2353808-.65242-1.7446709-.375402-.50929-.883083-.909434-1.523045-1.2004318-.639961-.2909978-1.385471-.4364967-2.23653-.4364967-.843455 0-1.594522.1484527-2.2532.4453583-.658679.2969055-1.174462.7061157-1.547348 1.2276306-.372887.5215149-.55933 1.1191864-.55933 1.7930145v.0112305c0 .5663198.118563 1.0597292.35569 1.4802284.237126.4204992.597759.7748731 1.081897 1.0631218.484139.2882487 1.096755.5222168 1.837849.7019043l1.860222.4492187c.693364.1696269 1.179579.3872465 1.458645.6528588.279065.2656123.418598.6068255.418598 1.0236397v.0149154c0 .3568014-.107216.6680082-.321648.9336205s-.515548.471358-.903351.6172371c-.387802.1458791-.849947.2188186-1.386436.2188186-.78625 0-1.406382-.1597709-1.860397-.4793129-.454015-.3195419-.74823-.7578519-.882645-1.3149299l-.015091-.0754547h-1.968842l.007546.0679092c.0799.6864624.317524 1.2868538.712871 1.8011742.395348.5143203.929877.9144058 1.603589 1.2002563.673711.2858505 1.464815.4287758 2.373314.4287758z"/><path d="m5.40448761 74.8458786c.56152344 0 1.07809575-.0886154 1.54971695-.2658463.47162119-.1772308.89209111-.4274597 1.26140976-.7506866.36931864-.3232269.67499796-.7119649.91703796-1.166214h.08896637v1.9618225h1.95410155v-16.4371948h-1.95410155v6.5571899h-.08896637c-.23233032-.4443054-.53686905-.8274574-.91361618-1.149456s-.80528895-.5709699-1.28562546-.7469139c-.4803365-.175944-.99752299-.263916-1.55155944-.263916-.99050395 0-1.85943222.2520129-2.60678482.7560387-.7473526.5040257-1.32940674 1.2138849-1.74616242 2.1295776-.41675568.9156926-.62513351 1.9936129-.62513351 3.2337608v.0149155c0 1.2376912.20712026 2.3162549.62136078 3.2356911.41424051.9194361.99690882 1.6311671 1.74800491 2.1351928.75109609.5040258 1.62821325.7560387 2.63135147.7560387zm.40394592-1.7294922c-.70354207 0-1.31042607-.1765289-1.82065201-.5295868-.51022593-.3530578-.90194702-.8595403-1.17516326-1.5194473-.27321625-.659907-.40982438-1.4427058-.40982438-2.3483963v-.0149155c0-.9081471.13660813-1.6890449.40982438-2.3426933.27321624-.6536484.66493733-1.1582591 1.17516326-1.5138321.51022594-.355573 1.11710994-.5333595 1.82065201-.5333595.68330384 0 1.28194046.1809158 1.79590988.5427475.51396943.3618316.9157219.8708585 1.20525742 1.5270805s.43430328 1.4295743.43430328 2.3200569v.0149155c0 .8881429-.14351018 1.6621679-.43053054 2.3220749-.28702037.659907-.68877284 1.1707764-1.20525742 1.532608-.51648458.3618317-1.11637878.5427475-1.79968262.5427475z"/><path d="m18.928467 74.8458786c.6608429 0 1.2688383-.0892003 1.8239861-.267601s1.0448723-.425471 1.4691734-.7412109c.4243012-.31574.7718608-.6777179 1.0426789-1.0859337.270818-.4082159.4561208-.8409106.5559082-1.2980843l.0224609-.1049347h-1.9314652l-.0373764.1010742c-.109848.3050944-.2957941.5837504-.5578384.835968-.2620443.2522177-.5901845.4531963-.9844208.6029358-.3942362.1497396-.8469645.2246094-1.3581848.2246094-.7136027 0-1.3323898-.1578115-1.8563614-.4734344-.5239715-.315623-.9281807-.7696966-1.2126274-1.3622208s-.4266701-1.3067118-.4266701-2.1425629v-.7598114c0-.8807729.1447093-1.6230367.4341278-2.2267913.2894186-.6037547.684269-1.0597001 1.1845513-1.367836.5002823-.308136 1.0660464-.462204 1.6972923-.462204.631129 0 1.1899618.146581 1.6764984.439743.4865367.293162.8682849.7391345 1.1452446 1.3379173.2769598.5987829.4154396 1.3585066.4154396 2.279171v.7598114l.9809113-1.418724h-8.529892v1.5383987h9.5067673v-.73349c0-1.180252-.2077344-2.2163798-.6232033-3.1083831-.4154688-.8920034-1.0105959-1.5862745-1.7853813-2.0828133s-1.6998367-.7448082-2.7751541-.7448082c-1.0729777 0-2.0074463.2594999-2.8034058.7784996s-1.4129041 1.241347-1.8508339 2.1670418-.6568947 1.998614-.6568947 3.2187576v.0112305c0 1.2351176.2177074 2.3086509.653122 3.2206001s1.0592321 1.6174507 1.8714523 2.1165047c.8122203.4990539 1.782252.7485809 2.9100952.7485809z"/><path d="m29.5367648 74.6249542h1.9916534l4.3525086-11.8193664h-2.0437698l-3.26017 9.7233047h-.0889664l-3.2526245-9.7233047h-2.0586853z"/><path d="m42.503461 74.8458786c.6608429 0 1.2688382-.0892003 1.8239861-.267601.5551478-.1784007 1.0448722-.425471 1.4691734-.7412109.4243011-.31574.7718607-.6777179 1.0426788-1.0859337.2708181-.4082159.4561208-.8409106.5559082-1.2980843l.022461-.1049347h-1.9314652l-.0373764.1010742c-.109848.3050944-.2957942.5837504-.5578384.835968-.2620443.2522177-.5901846.4531963-.9844208.6029358-.3942363.1497396-.8469645.2246094-1.3581848.2246094-.7136027 0-1.3323899-.1578115-1.8563614-.4734344-.5239716-.315623-.9281807-.7696966-1.2126274-1.3622208s-.4266701-1.3067118-.4266701-2.1425629v-.7598114c0-.8807729.1447093-1.6230367.4341278-2.2267913.2894185-.6037547.684269-1.0597001 1.1845513-1.367836.5002822-.308136 1.0660463-.462204 1.6972923-.462204.6311289 0 1.1899617.146581 1.6764984.439743s.8682849.7391345 1.1452446 1.3379173c.2769597.5987829.4154396 1.3585066.4154396 2.279171v.7598114l.9809113-1.418724h-8.529892v1.5383987h9.5067673v-.73349c0-1.180252-.2077345-2.2163798-.6232033-3.1083831-.4154689-.8920034-1.010596-1.5862745-1.7853813-2.0828133-.7747854-.4965388-1.6998368-.7448082-2.7751542-.7448082-1.0729777 0-2.0074462.2594999-2.8034057.7784996s-1.4129041 1.241347-1.8508339 2.1670418-.6568947 1.998614-.6568947 3.2187576v.0112305c0 1.2351176.2177073 2.3086509.653122 3.2206001.4354146.9119492 1.059232 1.6174507 1.8714523 2.1165047.8122202.4990539 1.782252.7485809 2.9100952.7485809z"/><path d="m49.8817707 74.6249542h1.9541015v-16.4371948h-1.9541015z"/><path d="m59.6223653 74.8458786c1.1025747 0 2.0618439-.2489128 2.8778076-.7467384.8159638-.4978257 1.4504268-1.2045848 1.903389-2.1202774.4529622-.9156927.6794433-2.0023283.6794433-3.2599068v-.0224609c0-1.2600352-.2264811-2.3466416-.6794433-3.2598191s-1.0886828-1.6168073-1.9071617-2.1108894-1.7790057-.7411232-2.8815804-.7411232c-1.0952046 0-2.0526606.2470411-2.8723678.7411232-.8197073.4940821-1.456042 1.1977119-1.9090042 2.1108894-.4529623.9131775-.6794434 1.9997839-.6794434 3.2598191v.0224609c0 1.2525482.2264811 2.3379262.6794434 3.256134.4529622.9182078 1.0892969 1.6262245 1.9090042 2.1240502.8197072.4978256 1.7796783.7467384 2.8799133.7467384zm.0075455-1.7294922c-.7133688 0-1.3295238-.1733996-1.848465-.5201988s-.9200795-.8482806-1.2034149-1.5044441c-.2833354-.6561636-.4250031-1.4470927-.4250031-2.3727875v-.0224609c0-.9281515.1416677-1.7177938.4250031-2.368927.2833354-.6511333.6844737-1.1494853 1.2034149-1.4950562s1.1300659-.5183563 1.833374-.5183563c.7132518 0 1.3293775.1715278 1.8483773.5145836.5189997.3430557.9188804.8414077 1.1996421 1.4950561.2807618.6536484.4211426 1.4445483.4211426 2.3726998v.0224609c0 .9256948-.1403808 1.7166239-.4211426 2.3727875-.2807617.6561635-.6781273 1.1576449-1.1920967 1.5044441s-1.12758.5201988-1.8408317.5201988z"/><path d="m67.296333 78.5922928h1.9541015v-5.9067001h.0891419c.2397003.4443054.5460815.8274574.9191436 1.149456.3730622.3219986.8010191.5709699 1.2838707.7469139.4828517.175944.9987806.263916 1.5477867.263916.9954173 0 1.8655447-.2520129 2.6103821-.7560387.7448375-.5040257 1.325634-1.213885 1.7423897-2.1295776s.6251335-1.9936129.6251335-3.2337608v-.0149155c0-1.2376912-.2071202-2.3156408-.6213608-3.2338486-.4142405-.9182078-.9962946-1.6299387-1.7461624-2.1351928-.7498677-.5052542-1.6275991-.7578812-2.6331939-.7578812-.5564932 0-1.0717787.0886154-1.5458565.2658462-.4740779.1772309-.8945185.4274598-1.261322.7506867s-.6737404.7119649-.9208107 1.166214h-.0891419v-1.9618225h-1.9541015zm5.3674621-5.4759064c-.6834208 0-1.2820867-.1809158-1.7959976-.5427475-.5139109-.3618316-.9156634-.8714434-1.2052574-1.5288353-.289594-.6573918-.434391-1.4301592-.434391-2.3183021v-.0149155c0-.8955129.1435394-1.6713804.4306182-2.3276024.2870789-.656222.6888314-1.1652489 1.2052575-1.5270805.516426-.3618317 1.1163495-.5427475 1.7997703-.5427475.7058818 0 1.3133214.1765289 1.822319.5295868.5089976.3530578.9001046.8576685 1.1733208 1.5138321.2732163.6561635.4098244 1.440834.4098244 2.3540115v.0149155c0 .9006602-.1366081 1.6796862-.4098244 2.3370781-.2732162.6573918-.6643232 1.1638743-1.1733208 1.5194473s-1.1164372.5333595-1.822319.5333595z"/><path d="m90.3625985 74.8458786c1.1025746 0 2.0618439-.2489128 2.8778076-.7467384.8159637-.4978257 1.4504267-1.2045848 1.903389-2.1202774.4529622-.9156927.6794433-2.0023283.6794433-3.2599068v-.0224609c0-1.2600352-.2264811-2.3466416-.6794433-3.2598191-.4529623-.9131775-1.0886828-1.6168073-1.9071617-2.1108894s-1.7790057-.7411232-2.8815804-.7411232c-1.0952047 0-2.0526606.2470411-2.8723679.7411232-.8197072.4940821-1.4560419 1.1977119-1.9090042 2.1108894-.4529622.9131775-.6794433 1.9997839-.6794433 3.2598191v.0224609c0 1.2525482.2264811 2.3379262.6794433 3.256134.4529623.9182078 1.089297 1.6262245 1.9090042 2.1240502.8197073.4978256 1.7796784.7467384 2.8799134.7467384zm.0075454-1.7294922c-.7133687 0-1.3295237-.1733996-1.8484649-.5201988-.5189413-.3467992-.9200796-.8482806-1.2034149-1.5044441-.2833354-.6561636-.4250031-1.4470927-.4250031-2.3727875v-.0224609c0-.9281515.1416677-1.7177938.4250031-2.368927.2833353-.6511333.6844736-1.1494853 1.2034149-1.4950562.5189412-.3455709 1.1300659-.5183563 1.833374-.5183563.7132518 0 1.3293775.1715278 1.8483772.5145836.5189998.3430557.9188805.8414077 1.1996422 1.4950561s.4211426 1.4445483.4211426 2.3726998v.0224609c0 .9256948-.1403809 1.7166239-.4211426 2.3727875-.2807617.6561635-.6781273 1.1576449-1.1920967 1.5044441s-1.12758.5201988-1.8408318.5201988z"/><path d="m101.371313 74.6249542h1.991654l4.352508-11.8193664h-2.043769l-3.26017 9.7233047h-.088967l-3.2526243-9.7233047h-2.0586853z"/><path d="m114.33801 74.8458786c.660843 0 1.268838-.0892003 1.823986-.267601s1.044872-.425471 1.469173-.7412109c.424301-.31574.771861-.6777179 1.042679-1.0859337.270818-.4082159.456121-.8409106.555908-1.2980843l.022461-.1049347h-1.931465l-.037376.1010742c-.109848.3050944-.295795.5837504-.557839.835968-.262044.2522177-.590184.4531963-.984421.6029358-.394236.1497396-.846964.2246094-1.358184.2246094-.713603 0-1.33239-.1578115-1.856362-.4734344-.523971-.315623-.928181-.7696966-1.212627-1.3622208-.284447-.5925242-.42667-1.3067118-.42667-2.1425629v-.7598114c0-.8807729.144709-1.6230367.434127-2.2267913.289419-.6037547.684269-1.0597001 1.184552-1.367836.500282-.308136 1.066046-.462204 1.697292-.462204.631129 0 1.189962.146581 1.676498.439743.486537.293162.868285.7391345 1.145245 1.3379173.27696.5987829.41544 1.3585066.41544 2.279171v.7598114l.980911-1.418724h-8.529892v1.5383987h9.506767v-.73349c0-1.180252-.207734-2.2163798-.623203-3.1083831-.415469-.8920034-1.010596-1.5862745-1.785381-2.0828133-.774786-.4965388-1.699837-.7448082-2.775155-.7448082-1.072977 0-2.007446.2594999-2.803405.7784996-.79596.5189997-1.412904 1.241347-1.850834 2.1670418s-.656895 1.998614-.656895 3.2187576v.0112305c0 1.2351176.217707 2.3086509.653122 3.2206001s1.059232 1.6174507 1.871452 2.1165047c.812221.4990539 1.782252.7485809 2.910096.7485809z"/><path d="m121.61156 74.6249542h1.954102v-7.3055954c0-.5914713.113971-1.1017558.341915-1.5308532.227943-.4290975.547514-.759636.958713-.9916153.411199-.2319794.887207-.3479691 1.428025-.3479691.232213 0 .443779.0106163.634697.0318489s.344635.0480512.461151.0804558v-1.8979492c-.08224-.014974-.199955-.0318197-.353146-.0505371-.153191-.0187175-.318343-.0280762-.495457-.0280762-.710327 0-1.317328.1910642-1.821003.5731926-.503674.3821284-.858926.903965-1.065753 1.5655098h-.089142v-1.917778h-1.954102z"/><path d="m133.105919 74.8055191c.194661 0 .386837-.0099729.576526-.0299187.18969-.0199457.355427-.0398623.497212-.0597496v-1.609291c-.114177.0099436-.228002.0199165-.341477.0299186-.113474.0100022-.238647.0150032-.375518.0150032-.558365 0-.972313-.1251144-1.241844-.3753433-.269532-.2502289-.404297-.7007929-.404297-1.3516922v-7.0016708h2.363136v-1.6171875h-2.363136v-3.1483918h-2.021485v3.1483918h-1.773361v1.6171875h1.773361v7.1710052c0 1.1278432.270058 1.9450938.810173 2.4517517.540116.5066579 1.373685.7599869 2.50071.7599869z"/><path d="m141.913506 74.6249542h2.021484v-7.3784179h8.894531v7.3784179h2.021485v-16.2055664h-2.021485v7.0078125h-8.894531v-7.0078125h-2.021484z"/><path d="m158.217898 74.6249542h10.040039v-1.8193359h-8.018554v-5.5703125h7.603027v-1.796875h-7.603027v-5.199707h8.018554v-1.819336h-10.040039z"/></g><g transform="translate(42.8695 63.168242)"><path d="m5.08424377 15.1483231c.19466146 0 .38683701-.0099729.57652665-.0299187.18968963-.0199458.35542678-.0398623.49721145-.0597496v-1.6092911c-.11417643.0099437-.22800191.0199165-.34147644.0299187-.11347453.0100021-.23864746.0150032-.3755188.0150032-.55836486 0-.97231292-.1251145-1.24184417-.3753433-.26953125-.2502289-.40429688-.700793-.40429688-1.3516922v-7.00167088h2.36313629v-1.6171875h-2.36313629v-3.14839172h-2.02148437v3.14839172h-1.77336121v1.6171875h1.77336121v7.17100528c0 1.1278432.27005767 1.9450938.81017303 2.4517517s1.3736852.7599869 2.50070953.7599869z"/><path d="m13.3023244 15.1886826c1.1025746 0 2.0618438-.2489129 2.8778076-.7467385.8159637-.4978256 1.4504267-1.2045847 1.9033889-2.1202774.4529623-.9156926.6794434-2.0023282.6794434-3.25990675v-.02246094c0-1.2600352-.2264811-2.34664154-.6794434-3.25981903-.4529622-.91317749-1.0886828-1.6168073-1.9071617-2.11088943-.8184789-.49408214-1.7790057-.7411232-2.8815803-.7411232-1.0952047 0-2.0526606.24704106-2.8723679.7411232-.81970721.49408213-1.45604195 1.19771194-1.90900419 2.11088943s-.67944336 1.99978383-.67944336 3.25981903v.02246094c0 1.25254825.22648112 2.33792625.67944336 3.25613405s1.08929698 1.6262245 1.90900419 2.1240501c.8197073.4978256 1.7796784.7467385 2.8799134.7467385zm.0075454-1.7294922c-.7133687 0-1.3295237-.1733996-1.8484649-.5201989-.5189413-.3467992-.9200796-.8482805-1.203415-1.5044441-.28333532-.6561635-.42500301-1.44709267-.42500301-2.37278745v-.02246094c0-.92815145.14166769-1.71779378.42500301-2.368927.2833354-.65113322.6844737-1.14948527 1.203415-1.49505615.5189412-.34557089 1.1300659-.51835633 1.833374-.51835633.7132517 0 1.3293775.17152787 1.8483772.51458359.5189997.34305573.9188805.84140778 1.1996422 1.49505615.2807617.65364838.4211426 1.44454829.4211426 2.37269974v.02246094c0 .92569478-.1403809 1.71662395-.4211426 2.37278745-.2807617.6561636-.6781273 1.1576449-1.1920967 1.5044441-.5139694.3467993-1.12758.5201989-1.8408318.5201989z"/></g></g></g></svg>