<svg height="50.136954" viewBox="0 0 334.372015 50.1369542" width="334.372015" xmlns="http://www.w3.org/2000/svg"><g fill="none"><g transform="translate(149.305273 0)"><g fill="#4a4a4a"><path d="m5.4683609 16.8458786c1.10257467 0 2.06184387-.2489128 2.87780762-.7467384.81596374-.4978257 1.45042674-1.2045848 1.90338898-2.1202774.4529622-.9156927.6794434-2.0023283.6794434-3.2599068v-.0224609c0-1.26003524-.2264812-2.34664158-.6794434-3.25981907-.45296224-.91317749-1.08868282-1.61680731-1.90716172-2.11088944s-1.77900568-.7411232-2.88158035-.7411232c-1.09520467 0-2.05266062.24704107-2.87236786.7411232-.81970723.49408213-1.45604197 1.19771195-1.90900421 2.11088944s-.67944336 1.99978383-.67944336 3.25981907v.0224609c0 1.2525482.22648112 2.3379262.67944336 3.256134s1.08929698 1.6262245 1.90900421 2.1240502c.81970724.4978256 1.77967835.7467384 2.87991333.7467384zm.00754547-1.7294922c-.71336873 0-1.32952372-.1733996-1.84846496-.5201988-.51894125-.3467992-.92007955-.8482806-1.20341492-1.5044441-.28333537-.6561636-.42500305-1.4470927-.42500305-2.3727875v-.0224609c0-.92815149.14166768-1.71779383.42500305-2.36892705s.68447367-1.14948527 1.20341492-1.49505615c.51894124-.34557088 1.13006591-.51835632 1.83337402-.51835632.71325175 0 1.32937749.17152786 1.84837723.51458359.51899973.34305572.91888046.84140777 1.19964218 1.49505615s.42114258 1.44454829.42114258 2.37269978v.0224609c0 .9256948-.14038086 1.7166239-.42114258 2.3727875-.28076172.6561635-.67812729 1.1576449-1.19209671 1.5044441s-1.12758001.5201988-1.84083176.5201988z"/><path d="m13.8300193 16.6249542h1.9541016v-10.20217893h2.5022888v-1.6171875h-2.5173798v-1.38222504c0-.60586039.1402931-1.05835469.4208794-1.35748291.2805862-.29912821.7161471-.44869232 1.3066826-.44869232.1571095 0 .3104756.00374349.4600982.01123047s.2843298.01994578.4041214.0373764v-1.5761261c-.1617889-.02737426-.3506304-.04916254-.5665245-.06536483-.215894-.01620229-.4360873-.02430344-.6605797-.02430344-.7334899 0-1.3446439.1228625-1.8334617.36858749-.4888179.245725-.85606.61989848-1.1017265 1.12252045-.2456666.50262197-.3684998 1.13810857-.3684998 1.90645981v1.40802002h-1.7533569v1.6171875h1.7533569z"/><path d="m32.3769561 16.93116c1.3401693 0 2.4894206-.2508138 3.4477539-.7524414s1.693929-1.1997884 2.2067871-2.0944825c.5128581-.894694.7692871-1.9297688.7692871-3.1052246v-10.55962368h-2.0214843v10.42485808c0 .8310547-.1722006 1.5629069-.5166016 2.1955567-.344401.6326497-.8441569 1.1286621-1.4992676 1.4880371s-1.4506022.5390625-2.3864746.5390625-1.7332357-.1796875-2.3920898-.5390625c-.6588542-.359375-1.1623536-.8553874-1.5104981-1.4880371-.3481445-.6326498-.5222168-1.364502-.5222168-2.1955567v-10.42485808h-2.0214844v10.55962368c0 1.1754558.2583008 2.2105306.7749024 3.1052246.5166015.8946941 1.2559407 1.5928549 2.2180176 2.0944825.9620768.5016276 2.1131998.7524414 3.4533691.7524414z"/><path d="m47.4648112 16.93116c1.2255249 0 2.2862485-.1939596 3.1821709-.5818787.8959223-.3879191 1.5871811-.93868 2.0737762-1.6522827.4865952-.7136027.7298927-1.5581106.7298927-2.5335236v-.0112304c0-.8089447-.1616427-1.5048244-.4849281-2.0876389-.3232854-.58281452-.8305867-1.07262674-1.521904-1.46943663-.6913172-.3968099-1.5946388-.71623485-2.7099647-.95827484l-1.796875-.39675141c-.7136027-.15968323-1.2981428-.35928726-1.7536202-.5988121s-.7918065-.52835846-1.0089874-.86650086c-.2171809-.33814239-.3257713-.72562281-.3257713-1.16244125v-.01123047c0-.53871155.1515236-1.00334294.4545707-1.39389419.3030472-.39055125.7241021-.69315974 1.2631646-.90782547s1.1606572-.3219986 1.8647842-.3219986c.6935984-.00245666 1.3011843.1023318 1.8227577.31436539s.9421018.50967025 1.2615853.89291c.3194834.38323975.5192337.83959452.5992507 1.36906433l.022461.15354157h2.0214844l-.0112305-.16477204c-.0575562-.85889689-.334048-1.62160364-.8294754-2.28812027-.4954275-.66651662-1.1586685-1.19002024-1.9897232-1.57051086s-1.7780406-.57073593-2.8409577-.57073593c-1.1105295 0-2.0944239.19337463-2.951683.5801239s-1.5286013.92075221-2.0140266 1.60200882c-.4854254.68125661-.7318815 1.46858851-.7393685 2.3619957v.01123046c0 .78367615.1666146 1.47060649.4998436 2.06079102.3332291.59018453.8423729 1.08801015 1.5274315 1.49347687.6850586.40546671 1.5591049.72547658 2.622139.9600296l1.796875.39306641c1.1155599.24707031 1.9204101.58948265 2.4145508 1.02723695.4941406.4377543.7412109 1.0061798.7412109 1.7052765v.0112304c0 .5515798-.1584256 1.03449-.4752769 1.4487305s-.7603964.7342212-1.3306351.9599419c-.5702388.2257207-1.2373111.3385811-2.0012169.3385811-.7786458 0-1.4680328-.1072744-2.068161-.3218232-.6001282-.2145487-1.0804939-.5183563-1.4410973-.9114227-.3606033-.3930664-.57717-.8591308-.6497001-1.3981933l-.018776-.1463471h-2.0214844l.0112305.1463471c.0721792.9061584.3672422 1.6967659.8851891 2.3718223.5179468.6750565 1.2192955 1.1977997 2.1040458 1.5682297.8847504.37043 1.9135666.555645 3.0864487.555645z"/><path d="m60.9391885 20.5922928h1.9541015v-5.9067001h.0891419c.2397003.4443054.5460815.8274574.9191437 1.149456.3730621.3219986.801019.5709699 1.2838707.7469139.4828516.175944.9987805.263916 1.5477867.263916.9954173 0 1.8655446-.2520129 2.6103821-.7560387.7448374-.5040257 1.325634-1.213885 1.7423896-2.1295776.4167557-.9156926.6251335-1.9936129.6251335-3.2337608v-.0149155c0-1.23769124-.2071202-2.31564077-.6213607-3.23384857-.4142405-.91820781-.9962947-1.62993876-1.7461624-2.13519287-.7498678-.50525411-1.6275991-.75788117-2.633194-.75788117-.5564931 0-1.0717786.08861542-1.5458565.26584625-.4740779.17723084-.8945185.42745972-1.261322.75068665s-.6737404.71196492-.9208107 1.16621399h-.0891419v-1.96182251h-1.9541015zm5.3674621-5.4759064c-.6834208 0-1.2820867-.1809158-1.7959976-.5427475-.5139109-.3618316-.9156634-.8714434-1.2052574-1.5288353-.289594-.6573918-.434391-1.4301592-.434391-2.3183021v-.0149155c0-.8955129.1435394-1.67138036.4306183-2.32760239.2870788-.65622202.6888313-1.16524887 1.2052574-1.52708053.5164261-.36183167 1.1163495-.5427475 1.7997703-.5427475.7058818 0 1.3133215.17652893 1.8223191.52958679s.9001045.85766856 1.1733207 1.51383209c.2732163.65616354.4098244 1.44083405.4098244 2.35401154v.0149155c0 .9006602-.1366081 1.6796862-.4098244 2.3370781-.2732162.6573918-.6643231 1.1638743-1.1733207 1.5194473s-1.1164373.5333595-1.8223191.5333595z"/><path d="m77.3165748 16.8458786c.5314585 0 1.0293134-.084287 1.4935646-.252861s.8817087-.4089178 1.2523727-.7210312c.370664-.3121135.673214-.6815491.90765-1.1083069h.0889664v1.8612747h1.9541015v-8.14454649c0-.79829915-.1815885-1.48870976-.5447654-2.07123184-.363177-.58252207-.8822645-1.032238-1.5572625-1.34914779-.6749979-.31690979-1.4839426-.47536469-2.4268341-.47536469-.8963318 0-1.6788966.14801407-2.3476944.44404221-.6687978.29602813-1.1995837.69810231-1.5923576 1.20622253-.392774.50812022-.6264788 1.0828921-.7011147 1.72431564l-.0112304.10528565h1.9088287l.0187759-.07913971c.1270447-.50689189.4214058-.91215388.8830834-1.21578598.4616775-.3036321 1.0631803-.45544815 1.8045082-.45544815.8454437 0 1.4921315.20156352 1.9400635.60469055.4479319.40312703.6718979.96646373.6718979 1.69001007v3.5542679c0 .5664368-.1453527 1.0754928-.4360581 1.5271683-.2907053.4516754-.6855265.8078918-1.1844635 1.0686493-.498937.2607574-1.0639699.3911361-1.6950989.3911361-.703776 0-1.2738978-.166556-1.7103653-.4996681-.4364674-.3331121-.6547012-.7889697-.6547012-1.3675728v-.0224609c0-.5637462.2140223-1.0103328.642067-1.3397599.4280446-.329427 1.0546697-.5178298 1.8798752-.5652084l4.1357955-.2544403v-1.53085326l-4.3640899.2544403c-.9056905.05240886-1.6791598.22209426-2.3204079.50905606-.6412481.2869619-1.1302706.6780688-1.4670677 1.1733208s-.5051956 1.0845884-.5051956 1.7680092v.0224609c0 .7136027.1677259 1.3374202.5031776 1.8714524.3354518.5340321.799469.9470443 1.3920517 1.2390365s1.2732252.4379883 2.0419274.4379883z"/><path d="m89.7119277 16.8055191c.1946615 0 .386837-.0099729.5765267-.0299187.1896896-.0199457.3554267-.0398623.4972114-.0597496v-1.609291c-.1141764.0099436-.2280019.0199165-.3414764.0299186-.1134746.0100022-.2386475.0150032-.3755188.0150032-.5583649 0-.972313-.1251144-1.2418442-.3753433-.2695313-.2502289-.4042969-.7007929-.4042969-1.3516922v-7.00167083h2.3631363v-1.6171875h-2.3631363v-3.14839173h-2.0214844v3.14839173h-1.7733612v1.6171875h1.7733612v7.17100523c0 1.1278432.2700577 1.9450938.8101731 2.4517517.5401153.5066579 1.3736852.7599869 2.5007095.7599869z"/><path d="m93.1433719 16.6249542h1.9541016v-11.81936643h-1.9541016zm.9807358-13.9134979c.3541107 0 .6533852-.12409083.8978234-.37227249.2444381-.24818166.3666572-.54564286.3666572-.89238358 0-.35411072-.1222191-.65338516-.3666572-.89782333-.2444382-.24443817-.5437127-.36665726-.8978234-.36665726-.3467407 0-.6442019.12221909-.8923836.36665726-.2481816.24443817-.3722724.54371261-.3722724.89782333 0 .34674072.1240908.64420192.3722724.89238358.2481817.24818166.5456429.37227249.8923836.37227249z"/><path d="m102.843234 16.8458786c.660843 0 1.268838-.0892003 1.823986-.267601s1.044873-.425471 1.469174-.7412109c.424301-.31574.77186-.6777179 1.042678-1.0859337.270819-.4082159.456121-.8409106.555909-1.2980843l.022461-.1049347h-1.931466l-.037376.1010742c-.109848.3050944-.295794.5837504-.557838.835968-.262045.2522177-.590185.4531963-.984421.6029358-.394236.1497396-.846965.2246094-1.358185.2246094-.713603 0-1.33239-.1578115-1.856361-.4734344-.523972-.315623-.928181-.7696966-1.2126277-1.3622208-.2844468-.5925242-.4266701-1.3067118-.4266701-2.1425629v-.7598114c0-.88077287.1447093-1.62303667.4341278-2.22679135.289419-.60375468.684269-1.05970001 1.184551-1.36783599.500283-.30813599 1.066047-.46220398 1.697293-.46220398.631129 0 1.189961.14658101 1.676498.43974304s.868285.73913447 1.145245 1.33791733c.276959.59878285.415439 1.35850652.415439 2.27917095v.7598114l.980911-1.41872402h-8.5298915v1.53839872h9.5067675v-.73349c0-1.18025205-.207735-2.21637977-.623204-3.10838315-.415468-.89200338-1.010596-1.58627446-1.785381-2.08281326s-1.699837-.7448082-2.775154-.7448082c-1.072978 0-2.007446.25949987-2.8034057.7784996-.7959595.51899974-1.4129041 1.241347-1.8508339 2.16704178-.4379298.92569479-.6568947 1.998614-.6568947 3.21875763v.0112305c0 1.2351176.2177073 2.3086509.6531219 3.2206001.4354147.9119492 1.0592321 1.6174507 1.8714524 2.1165047.81222.4990539 1.782252.7485809 2.910095.7485809z"/><path d="m110.116785 16.6249542h1.954101v-6.96868131c0-.68096415.126635-1.27097321.379906-1.77002716.25327-.49905396.610715-.88583247 1.072334-1.16033554.461619-.27450308 1.004308-.41175461 1.628067-.41175461.920431 0 1.60584.25637054 2.056229.76911163.450388.51274109.675583 1.26781464.675583 2.26522064v7.27646635h1.954101v-7.66514585c0-1.36695862-.357444-2.4378891-1.072334-3.21279144-.71489-.77490235-1.725924-1.16235352-3.033104-1.16235352-.88592 0-1.624674.17781576-2.216263.53344727-.591588.35563151-1.04338.82263183-1.355377 1.40100097h-.089142v-1.71352386h-1.954101z"/><path d="m126.521105 16.8055191c.194662 0 .386837-.0099729.576527-.0299187.189689-.0199457.355427-.0398623.497211-.0597496v-1.609291c-.114176.0099436-.228002.0199165-.341476.0299186-.113475.0100022-.238648.0150032-.375519.0150032-.558365 0-.972313-.1251144-1.241844-.3753433s-.404297-.7007929-.404297-1.3516922v-7.00167083h2.363136v-1.6171875h-2.363136v-3.14839173h-2.021484v3.14839173h-1.773362v1.6171875h1.773362v7.17100523c0 1.1278432.270057 1.9450938.810173 2.4517517.540115.5066579 1.373685.7599869 2.500709.7599869z"/><path d="m134.002362 16.8458786c.885686 0 1.678399-.1497103 2.378139-.449131s1.251671-.7154452 1.655792-1.2480736c.404122-.5326284.606182-1.1457418.606182-1.8393402v-.0149155c0-.5614064-.110959-1.0454572-.332878-1.4521522-.221918-.4066951-.57173-.7535235-1.049434-1.0404854-.477705-.2869619-1.105938-.5228017-1.884701-.7075195l-1.856712-.44921878c-.441498-.10961405-.801926-.24303436-1.081284-.40026093-.279358-.15722656-.483846-.34194437-.613464-.55415344-.129619-.21220906-.194428-.45050557-.194428-.71488952v-.01491547c0-.34931437.097214-.65496445.291641-.91695023.194428-.26198578.468756-.46594747.822983-.61188507.354228-.1459376.76841-.2189064 1.242546-.2189064.728694 0 1.310046.16485977 1.744057.49457932.434011.32971954.697049.76434453.789116 1.30387496l.007545.05299378h1.882683l-.007721-.0982666c-.059545-.65382386-.277018-1.23538081-.65242-1.74467087s-.883083-.909434-1.523044-1.20043182c-.639962-.29099783-1.385472-.43649674-2.236531-.43649674-.843455 0-1.594522.14845276-2.2532.44535828-.658679.29690552-1.174462.70611572-1.547348 1.22763061-.372887.5215149-.55933 1.1191864-.55933 1.79301453v.01123047c0 .56631978.118563 1.05972926.35569 1.48022842.237126.42049917.597759.7748731 1.081897 1.0631218.484139.2882487 1.096755.5222168 1.837849.7019043l1.860222.4492187c.693364.1696269 1.179579.3872465 1.458645.6528588.279065.2656123.418598.6068255.418598 1.0236397v.0149154c0 .3568014-.107216.6680082-.321648.9336205-.214431.2656123-.515548.471358-.90335.6172371-.387803.1458791-.849948.2188186-1.386437.2188186-.78625 0-1.406382-.1597709-1.860397-.4793129-.454015-.3195419-.74823-.7578519-.882645-1.3149299l-.015091-.0754547h-1.968841l.007545.0679092c.0799.6864624.317524 1.2868538.712872 1.8011742.395347.5143203.929877.9144058 1.603588 1.2002563s1.464816.4287758 2.373314.4287758z"/><path d="m148.403501 16.6249542h1.976738l2.650039-9.1470413h.088967l2.66127 9.1470413h1.980423l3.301056-11.81936643h-1.935326l-2.350677 9.55976103h-.089142l-2.66864-9.55976103h-1.875664l-2.66127 9.55976103h-.088967l-2.350677-9.55976103h-1.946556z"/><path d="m162.976856 16.6249542h1.954101v-11.81936643h-1.954101zm.980736-13.9134979c.35411 0 .653385-.12409083.897823-.37227249s.366657-.54564286.366657-.89238358c0-.35411072-.122219-.65338516-.366657-.89782333s-.543713-.36665726-.897823-.36665726c-.346741 0-.644202.12221909-.892384.36665726s-.372272.54371261-.372272.89782333c0 .34674072.12409.64420192.372272.89238358s.545643.37227249.892384.37227249z"/><path d="m171.78723 16.8055191c.194661 0 .386837-.0099729.576527-.0299187.189689-.0199457.355426-.0398623.497211-.0597496v-1.609291c-.114176.0099436-.228002.0199165-.341476.0299186-.113475.0100022-.238648.0150032-.375519.0150032-.558365 0-.972313-.1251144-1.241844-.3753433-.269532-.2502289-.404297-.7007929-.404297-1.3516922v-7.00167083h2.363136v-1.6171875h-2.363136v-3.14839173h-2.021485v3.14839173h-1.773361v1.6171875h1.773361v7.17100523c0 1.1278432.270058 1.9450938.810173 2.4517517.540116.5066579 1.373686.7599869 2.50071.7599869z"/><path d="m175.225518 16.6249542h1.954101v-6.93077848c0-.68108114.126635-1.27366384.379906-1.77774811.25327-.50408427.609458-.89715067 1.068562-1.17919922.459103-.28204854.995505-.42307281 1.609203-.42307281.930491 0 1.642339.2853241 2.135544.85597229.493204.57064819.739807 1.38994598.739807 2.45789337v6.99693296h1.954101v-7.37806699c0-.94827271-.172259-1.77067058-.516777-2.46719361s-.829972-1.23649215-1.456363-1.61990738c-.626391-.38341522-1.367398-.57512283-2.223019-.57512283-.87586 0-1.617129.18158849-2.223808.54476547-.60668.36317699-1.066017.87173589-1.378014 1.52567673h-.089142v-6.46734619h-1.954101z"/><path d="m.86878204 45.6249542h2.02148438v-16.2055664h-2.02148438z"/><path d="m7.26790094 45.6249542h5.17601776c1.1529948 0 2.1375326-.1815592 2.9536133-.5446777s1.4431152-.8834636 1.8811035-1.5610352.6569824-1.4905522.6569824-2.4389419v-.022461c0-.7162933-.1491254-1.3558451-.4473762-1.9186554-.2982509-.5628102-.7244822-1.0226745-1.2786942-1.3795929-.5542119-.3569183-1.2144991-.5802993-1.9808616-.6701431v-.0891418c.5492401-.0872701 1.0410703-.3031349 1.4754905-.6475945.4344203-.3444595.7782949-.7687899 1.0316239-1.2729912.2533289-.5042012.3799934-1.0370636.3799934-1.598587v-.0224609c0-.8135071-.1940473-1.5228691-.5821419-2.1280861s-.9333572-1.0750542-1.6357879-1.4095116c-.7024308-.3344574-1.5288938-.5016861-2.4793892-.5016861h-5.15057376v1.7856445h4.70117946c.9881643 0 1.7523334.2164205 2.2925072.6492615.5401739.432841.8102608 1.0534414.8102608 1.8618012v.0224609c0 .8687236-.3138975 1.5302684-.9416924 1.9846344-.6277949.4543661-1.5455055.6815491-2.7531318.6815491h-4.10912326v1.7407226h4.68187716c.8610026 0 1.5816243.1048177 2.1618652.3144532.5802409.2096354 1.0163574.5240885 1.3083496.9433593.2919922.4192709.4379883.9421311.4379883 1.5685807v.0224609c0 .9283854-.3157107 1.6346474-.9471321 2.1187859-.6314214.4841384-1.5548058.7262077-2.7701531.7262077h-4.87279506zm-1.01074218 0h2.02148437v-16.2055664h-2.02148437z"/><path d="m25.7608144 45.93116c1.2255249 0 2.2862486-.1939596 3.1821709-.5818787s1.5871811-.93868 2.0737762-1.6522827c.4865952-.7136027.7298928-1.5581106.7298928-2.5335236v-.0112304c0-.8089447-.1616427-1.5048244-.4849282-2.0876389-.3232854-.5828145-.8305867-1.0726267-1.521904-1.4694366-.6913172-.3968099-1.5946388-.7162349-2.7099647-.9582749l-1.796875-.3967514c-.7136027-.1596832-1.2981428-.3592872-1.7536202-.5988121-.4554773-.2395248-.7918065-.5283584-1.0089874-.8665008s-.3257713-.7256228-.3257713-1.1624413v-.0112305c0-.5387115.1515236-1.0033429.4545708-1.3938942.3030471-.3905512.724102-.6931597 1.2631645-.9078254.5390625-.2146658 1.1606572-.3219986 1.8647842-.3219986.6935985-.0024567 1.3011844.1023318 1.8227577.3143654.5215734.2120336.9421018.5096702 1.2615853.89291.3194834.3832397.5192337.8395945.5992508 1.3690643l.0224609.1535416h2.0214844l-.0112305-.1647721c-.0575561-.8588969-.3340479-1.6216036-.8294754-2.2881202-.4954274-.6665167-1.1586685-1.1900203-1.9897232-1.5705109s-1.7780406-.5707359-2.8409576-.5707359c-1.1105296 0-2.094424.1933746-2.9516831.5801239-.8572591.3867492-1.5286013.9207522-2.0140266 1.6020088s-.7318815 1.4685885-.7393685 2.3619957v.0112305c0 .7836761.1666146 1.4706064.4998436 2.060791.3332291.5901845.8423729 1.0880101 1.5274315 1.4934768.6850586.4054668 1.5591049.7254766 2.622139.9600296l1.796875.3930664c1.1155599.2470704 1.9204102.5894827 2.4145508 1.027237s.7412109 1.0061798.7412109 1.7052765v.0112304c0 .5515798-.1584256 1.03449-.4752769 1.4487305s-.7603963.7342212-1.3306351.9599419c-.5702387.2257207-1.237311.3385811-2.0012169.3385811-.7786458 0-1.4680328-.1072744-2.068161-.3218232-.6001282-.2145487-1.0804939-.5183563-1.4410973-.9114227-.3606033-.3930664-.57717-.8591308-.6497001-1.3981933l-.018776-.1463471h-2.0214843l.0112304.1463471c.0721792.9061584.3672422 1.6967659.8851891 2.3718223.5179469.6750565 1.2192955 1.1977997 2.1040459 1.5682297.8847503.37043 1.9135665.555645 3.0864486.555645z"/><path d="m39.3399509 45.6249542h1.9541016v-6.9307785c0-.6810811.1266352-1.2736638.3799057-1.7777481.2532704-.5040843.6094576-.8971507 1.0685615-1.1791992s.9955051-.4230728 1.6092034-.4230728c.9304911 0 1.642339.2853241 2.1355438.8559723s.7398071 1.389946.7398071 2.4578933v6.996933h1.9541016v-7.378067c0-.9482727-.172259-1.7706706-.516777-2.4671936-.3445181-.696523-.8299726-1.2364922-1.4563637-1.6199074s-1.3673973-.5751228-2.2230187-.5751228c-.8758596 0-1.617129.1815885-2.2238083.5447655-.6066792.3631769-1.0660171.8717359-1.3780136 1.5256767h-.0891418v-6.4673462h-1.9541016z"/><path d="m55.2885285 45.8458786c.5314585 0 1.0293134-.084287 1.4935646-.252861s.8817088-.4089178 1.2523727-.7210312c.370664-.3121135.673214-.6815491.90765-1.1083069h.0889664v1.8612747h1.9541016v-8.1445465c0-.7982991-.1815885-1.4887098-.5447655-2.0712318-.363177-.5825221-.8822645-1.032238-1.5572624-1.3491478-.674998-.3169098-1.4839427-.4753647-2.4268341-.4753647-.8963318 0-1.6788966.1480141-2.3476944.4440422s-1.1995837.6981023-1.5923577 1.2062225c-.3927739.5081203-.6264788 1.0828921-.7011146 1.7243157l-.0112305.1052856h1.9088288l.0187759-.0791397c.1270447-.5068919.4214058-.9121539.8830833-1.215786.4616776-.3036321 1.0631803-.4554481 1.8045082-.4554481.8454438 0 1.4921316.2015635 1.9400635.6046905.447932.4031271.6718979.9664638.6718979 1.6900101v3.5542679c0 .5664368-.1453527 1.0754928-.436058 1.5271683-.2907054.4516754-.6855266.8078918-1.1844635 1.0686493-.498937.2607574-1.06397.3911361-1.6950989.3911361-.7037761 0-1.2738978-.166556-1.7103653-.4996681s-.6547012-.7889697-.6547012-1.3675728v-.0224609c0-.5637462.2140223-1.0103328.6420669-1.3397599.4280447-.329427 1.0546697-.5178298 1.8798752-.5652084l4.1357956-.2544403v-1.5308533l-4.36409.2544403c-.9056905.0524089-1.6791598.2220943-2.3204078.5090561-.6412481.2869619-1.1302707.6780688-1.4670678 1.1733208-.336797.495252-.5051956 1.0845884-.5051956 1.7680092v.0224609c0 .7136027.1677259 1.3374202.5031777 1.8714524.3354517.5340321.799469.9470443 1.3920517 1.2390365s1.2732251.4379883 2.0419273.4379883z"/><path d="m67.0572564 45.6249542h1.9916534l4.3525086-11.8193664h-2.0437698l-3.26017 9.7233047h-.0889664l-3.2526245-9.7233047h-2.0586853z"/><path d="m80.0239526 45.8458786c.6608429 0 1.2688383-.0892003 1.8239861-.267601s1.0448722-.425471 1.4691734-.7412109c.4243011-.31574.7718607-.6777179 1.0426788-1.0859337.2708181-.4082159.4561208-.8409106.5559082-1.2980843l.022461-.1049347h-1.9314652l-.0373764.1010742c-.109848.3050944-.2957942.5837504-.5578384.835968-.2620443.2522177-.5901846.4531963-.9844208.6029358-.3942363.1497396-.8469645.2246094-1.3581848.2246094-.7136027 0-1.3323899-.1578115-1.8563614-.4734344-.5239716-.315623-.9281807-.7696966-1.2126274-1.3622208s-.4266701-1.3067118-.4266701-2.1425629v-.7598114c0-.8807729.1447093-1.6230367.4341278-2.2267913.2894185-.6037547.684269-1.0597001 1.1845513-1.367836.5002822-.308136 1.0660463-.462204 1.6972923-.462204.6311289 0 1.1899617.146581 1.6764984.439743s.8682849.7391345 1.1452446 1.3379173c.2769597.5987829.4154396 1.3585066.4154396 2.279171v.7598114l.9809113-1.418724h-8.529892v1.5383987h9.5067673v-.73349c0-1.180252-.2077345-2.2163798-.6232033-3.1083831-.4154689-.8920034-1.010596-1.5862745-1.7853813-2.0828133-.7747854-.4965388-1.6998368-.7448082-2.7751542-.7448082-1.0729777 0-2.0074462.2594999-2.8034057.7784996s-1.4129041 1.241347-1.8508339 2.1670418-.6568947 1.998614-.6568947 3.2187576v.0112305c0 1.2351176.2177073 2.3086509.653122 3.2206001.4354146.9119492 1.059232 1.6174507 1.8714523 2.1165047.8122202.4990539 1.782252.7485809 2.9100952.7485809z"/></g><path d="m97.3714216 45.6249542h-3.91v-16.7555h3.91z" fill="#006993"/><path d="m100.476422 45.6249542v-16.7555h6.164c1.157666 0 2.142833.1073334 2.9555.322.812666.2146667 1.475833.5175 1.9895.9085.513666.391.887416.8663334 1.12125 1.426.233833.5596667.35075 1.1845.35075 1.8745 0 .3756667-.053667.7379167-.161 1.08675-.107334.3488334-.276.6765834-.506.98325-.23.3066667-.525167.5845834-.8855.83375-.360334.2491667-.7935.46575-1.2995.64975 1.104.2683334 1.9205.7034167 2.4495 1.30525.529.6018334.7935 1.37425.7935 2.31725 0 .713-.138 1.3761667-.414 1.9895-.276.6133334-.680417 1.1480834-1.21325 1.60425-.532834.4561667-1.19025.8126667-1.97225 1.0695-.782.2568334-1.675167.38525-2.6795.38525zm3.887-7.107v4.1745h2.737c.513666 0 .933416-.0651666 1.25925-.1955.325833-.1303333.58075-.299.76475-.506s.3105-.4408333.3795-.7015c.069-.2606666.1035-.5251666.1035-.7935 0-.3066666-.04025-.5826666-.12075-.828-.0805-.2453333-.2185-.4523333-.414-.621-.1955-.1686666-.45425-.299-.77625-.391s-.728334-.138-1.219-.138zm0-2.599h2.024c.429333 0 .8165-.0306666 1.1615-.092.345-.0613333.63825-.1686666.87975-.322.2415-.1533333.4255-.3641666.552-.6325.1265-.2683333.18975-.6056666.18975-1.012 0-.3986666-.049834-.73025-.1495-.99475-.099667-.2645-.253-.47725-.46-.63825s-.469584-.276-.78775-.345c-.318167-.069-.69575-.1035-1.13275-.1035h-2.277z" fill="#006993"/><path d="m124.902422 32.2734542c-.115.184-.23575.322-.36225.414s-.289417.138-.48875.138c-.176334 0-.366084-.0555833-.56925-.16675-.203167-.1111666-.433167-.23575-.69-.37375-.256834-.138-.550084-.2625833-.87975-.37375-.329667-.1111666-.705334-.16675-1.127-.16675-.728334 0-1.27075.15525-1.62725.46575s-.53475.73025-.53475 1.25925c0 .3373334.107333.6171667.322.8395.214666.2223334.496416.414.84525.575.348833.161.7475.3085834 1.196.44275.4485.1341667.906583.2836667 1.37425.4485.467666.1648334.92575.3584167 1.37425.58075.4485.2223334.847166.506 1.196.851.348833.345.630583.76475.84525 1.25925.214666.4945.322 1.0905834.322 1.78825 0 .7743334-.134167 1.4988334-.4025 2.1735-.268334.6746667-.657417 1.2630834-1.16725 1.76525-.509834.5021667-1.1385.897-1.886 1.1845s-1.596584.43125-2.54725.43125c-.521334 0-1.05225-.0536666-1.59275-.161-.5405-.1073333-1.06375-.25875-1.56975-.45425s-.981334-.4274166-1.426-.69575c-.444667-.2683333-.831834-.5673333-1.1615-.897l1.15-1.817c.084333-.138.203166-.2491666.3565-.3335.153333-.0843333.318166-.1265.4945-.1265.23 0 .461916.0728334.69575.2185.233833.1456667.498333.3066667.7935.483.295166.1763334.634416.3373334 1.01775.483.383333.1456667.835666.2185 1.357.2185.705333 0 1.2535-.15525 1.6445-.46575s.5865-.8030833.5865-1.47775c0-.391-.107334-.7091666-.322-.9545-.214667-.2453333-.496417-.4485-.84525-.6095-.348834-.161-.745584-.3028333-1.19025-.4255-.444667-.1226666-.900834-.25875-1.3685-.40825-.467667-.1495-.923834-.3335-1.3685-.552-.444667-.2185-.841417-.506-1.19025-.8625-.348834-.3565-.630584-.8011666-.84525-1.334-.214667-.5328333-.322-1.19025-.322-1.97225 0-.6286666.1265-1.242.3795-1.84s.624833-1.1308333 1.1155-1.5985c.490666-.4676666 1.0925-.8414166 1.8055-1.12125.713-.2798333 1.5295-.41975 2.4495-.41975.513666 0 1.013916.04025 1.50075.12075.486833.0805.94875.1993334 1.38575.3565.437.1571667.84525.345 1.22475.5635s.71875.46575 1.01775.74175z" fill="#006993"/><path d="m127.800422 37.1954542h6.21v2.875h-6.21z" fill="#006993"/><path d="m151.743422 37.2414542c0 1.2113334-.208917 2.32875-.62675 3.35225-.417834 1.0235-1.00625 1.909-1.76525 2.6565s-1.67325 1.3301667-2.74275 1.748c-1.0695.4178334-2.255917.62675-3.55925.62675h-6.509v-16.7555h6.509c1.303333 0 2.48975.2108334 3.55925.6325 1.0695.4216667 1.98375 1.0043334 2.74275 1.748.759.7436667 1.347416 1.62725 1.76525 2.65075.417833 1.0235.62675 2.1370834.62675 3.34075zm-3.979 0c0-.828-.107334-1.5755-.322-2.2425-.214667-.667-.52325-1.2324166-.92575-1.69625-.4025-.4638333-.895084-.8203333-1.47775-1.0695-.582667-.2491666-1.245834-.37375-1.9895-.37375h-2.599v10.7755h2.599c.743666 0 1.406833-.1245833 1.9895-.37375.582666-.2491666 1.07525-.6056666 1.47775-1.0695.4025-.4638333.711083-1.02925.92575-1.69625.214666-.667.322-1.4183333.322-2.254z" fill="#006993"/><path d="m159.352422 37.6729542v.952h-5.376v-.952h2.149v-6.839c0-.2053333.007-.413.021-.623l-1.785 1.533c-.060667.0513334-.121334.0828334-.182.0945-.060667.0116667-.116667.0128334-.168.0035-.051334-.0093333-.099167-.028-.1435-.056-.044334-.028-.078167-.0583333-.1015-.091l-.392-.539 2.989-2.583h1.015v9.1z" fill="#4a4a4a"/><path d="m168.046422 33.6129542c0 .8773334-.0945 1.6368334-.2835 2.2785-.189.6416667-.446834 1.1725-.7735 1.5925-.326667.42-.712834.7326667-1.1585.938-.445667.2053334-.922834.308-1.4315.308-.513334 0-.9905-.1026666-1.4315-.308-.441-.2053333-.824834-.518-1.1515-.938-.326667-.42-.583334-.9508333-.77-1.5925-.186667-.6416666-.28-1.4011666-.28-2.2785 0-.8773333.093333-1.638.28-2.282.186666-.644.443333-1.1771666.77-1.5995.326666-.4223333.7105-.7361666 1.1515-.9415.441-.2053333.918166-.308 1.4315-.308.508666 0 .985833.1026667 1.4315.308.445666.2053334.831833.5191667 1.1585.9415.326666.4223334.5845.9555.7735 1.5995s.2835 1.4046667.2835 2.282zm-1.295 0c0-.7653333-.064167-1.4081666-.1925-1.9285-.128334-.5203333-.301-.9391666-.518-1.2565-.217-.3173333-.467834-.5448333-.7525-.6825-.284667-.1376666-.581-.2065-.889-.2065s-.604334.0688334-.889.2065c-.284667.1376667-.534334.3651667-.749.6825-.214667.3173334-.386167.7361667-.5145 1.2565-.128334.5203334-.1925 1.1631667-.1925 1.9285 0 .7653334.064166 1.407.1925 1.925.128333.518.299833.9356667.5145 1.253.214666.3173334.464333.5448334.749.6825.284666.1376667.581.2065.889.2065s.604333-.0688333.889-.2065c.284666-.1376666.5355-.3651666.7525-.6825.217-.3173333.389666-.735.518-1.253.128333-.518.1925-1.1596666.1925-1.925z" fill="#4a4a4a"/></g><g fill="#006993" transform="translate(0 2.488954)"><path d="m20.8 25.472c1.024 0 1.8133333-.3306667 2.368-.992s.832-1.632.832-2.912h8c0 1.8133333-.24 3.4453333-.72 4.896s-1.168 2.6826667-2.064 3.696-2 1.792-3.312 2.336-2.8.816-4.464.816c-1.1306667 0-2.192-.1226667-3.184-.368s-1.9146667-.5226667-2.768-.832-1.6373333-.5866667-2.352-.832-1.36-.368-1.936-.368c-1.024 0-1.81333333.3306667-2.368.992s-.832 1.632-.832 2.912h-8c0-1.8133333.24-3.4453333.72-4.896s1.168-2.6826667 2.064-3.696 2-1.792 3.312-2.336 2.8-.816 4.464-.816c1.1306667 0 2.192.1226667 3.184.368s1.9146667.5226667 2.768.832 1.6373333.5866667 2.352.832 1.36.368 1.936.368z"/><path d="m54.72 0c2.304 0 4.352.32533333 6.144.976s3.3066667 1.53066667 4.544 2.64 2.176 2.39466667 2.816 3.856.96 3.0026667.96 4.624c0 1.472-.1493333 2.768-.448 3.888s-.7413333 2.0906667-1.328 2.912-1.312 1.52-2.176 2.096-1.8506667 1.056-2.96 1.44c5.1626667 1.792 7.744 5.3013333 7.744 10.528 0 2.4746667-.448 4.6293333-1.344 6.464s-2.096 3.36-3.6 4.576-3.248 2.128-5.232 2.736-4.0533333.912-6.208.912c-2.2186667 0-4.192-.24-5.92-.72s-3.264-1.2266667-4.608-2.24-2.5226667-2.3093333-3.536-3.888-1.8933333-3.456-2.64-5.632l4.416-1.792c.384-.1706667.7626667-.288 1.136-.352s.7413333-.096 1.104-.096c.6826667 0 1.296.1333333 1.84.4s.9546667.656 1.232 1.168c.96 1.7706667 1.9786667 3.056 3.056 3.856s2.3413333 1.2 3.792 1.2c1.1093333 0 2.0746667-.1866667 2.896-.56s1.504-.8533333 2.048-1.44.9546667-1.2533333 1.232-2 .416-1.504.416-2.272c0-1.0026667-.0693333-1.904-.208-2.704s-.528-1.488-1.168-2.064-1.6053333-1.0186667-2.896-1.328-3.088-.464-5.392-.464v-6.848c1.9413333 0 3.5093333-.1493333 4.704-.448s2.1173333-.7093333 2.768-1.232 1.0826667-1.1573333 1.296-1.904.32-1.568.32-2.464c0-1.8346667-.4426667-3.248-1.328-4.24s-2.2346667-1.488-4.048-1.488c-.7466667 0-1.4293333.10666667-2.048.32s-1.1733333.50133333-1.664.864-.912.7893333-1.264 1.28-.6346667 1.024-.848 1.6c-.3413333.96-.7733333 1.6533333-1.296 2.08s-1.232.64-2.128.64c-.2133333 0-.4426667-.0106667-.688-.032s-.496-.0533333-.752-.096l-5.248-.928c.3413333-2.3253333.9973333-4.352 1.968-6.08s2.176-3.168 3.616-4.32 3.088-2.01066667 4.944-2.576 3.8506667-.848 5.984-.848z"/><path d="m103.616 4.608c0 .68266667-.106667 1.30133333-.32 1.856s-.549333 1.04-1.008 1.456-1.061333.736-1.808.96c-.7466667.224-1.6426667.336-2.688.336h-11.136l-1.312 7.712c.8746667-.1493333 1.7173333-.2613333 2.528-.336s1.6-.112 2.368-.112c2.4533333 0 4.6186667.3733333 6.496 1.12s3.456 1.7653333 4.736 3.056 2.245333 2.8053333 2.896 4.544.976 3.6.976 5.584c0 2.496-.442667 4.7733333-1.328 6.832s-2.117333 3.8346667-3.696 5.328c-1.5786667 1.4933333-3.4613333 2.6506667-5.648 3.472s-4.5813333 1.232-7.184 1.232c-1.5146667 0-2.96-.16-4.336-.48s-2.6666667-.752-3.872-1.296-2.32-1.1733333-3.344-1.888-1.952-1.4773333-2.784-2.288l3.072-4.096c.32-.4266667.6933333-.752 1.12-.976s.8853333-.336 1.376-.336c.64 0 1.2426667.176 1.808.528s1.184.736 1.856 1.152 1.456.7946667 2.352 1.136 2.0053333.512 3.328.512 2.4533333-.2186667 3.392-.656 1.7013333-1.0346667 2.288-1.792 1.0133333-1.6426667 1.28-2.656.4-2.096.4-3.248c0-2.2613333-.64-3.984-1.92-5.168s-3.0933333-1.776-5.44-1.776c-2.0906667 0-4.1386667.3946667-6.144 1.184l-6.144-1.664 3.968-23.328h23.872z"/><path d="m123.012 7.16c0 1.01333333-.183667 1.938-.551 2.774s-.855 1.5548333-1.463 2.1565-1.314167 1.0671667-2.1185 1.3965-1.6435.494-2.5175.494c-.962667 0-1.846167-.1646667-2.6505-.494s-1.501-.7948333-2.09-1.3965-1.048167-1.3205-1.3775-2.1565-.494-1.76066667-.494-2.774c0-1.05133333.164667-2.0045.494-2.8595s.7885-1.5865 1.3775-2.1945 1.285667-1.07983333 2.09-1.4155 1.687833-.5035 2.6505-.5035 1.8525.16783333 2.6695.5035 1.52.8075 2.109 1.4155 1.048167 1.3395 1.3775 2.1945.494 1.80816667.494 2.8595zm-4.522 0c0-.646-.053833-1.18116667-.1615-1.6055s-.2565-.76316667-.4465-1.0165-.414833-.43066667-.6745-.532-.5415-.152-.8455-.152-.582667.05066667-.836.152-.468667.27866667-.646.532-.316667.59216667-.418 1.0165-.152.9595-.152 1.6055c0 .608.050667 1.11466667.152 1.52s.240667.72833333.418.969.392667.4116667.646.513.532.152.836.152.585833-.0506667.8455-.152.4845-.27233333.6745-.513.338833-.56366667.4465-.969.1615-.912.1615-1.52zm13.224-5.833c.19-.21533333.424333-.41483333.703-.5985s.665-.2755 1.159-.2755h4.294l-20.862 26.847c-.19.2406667-.4275.4401667-.7125.5985s-.630167.2375-1.0355.2375h-4.408zm7.22 20.311c0 1.0133333-.183667 1.9411667-.551 2.7835s-.855 1.5643333-1.463 2.166-1.314167 1.0671667-2.1185 1.3965-1.6435.494-2.5175.494c-.962667 0-1.846167-.1646667-2.6505-.494s-1.501-.7948333-2.09-1.3965-1.048167-1.3236667-1.3775-2.166-.494-1.7701667-.494-2.7835c0-1.0513333.164667-2.0045.494-2.8595s.7885-1.5865 1.3775-2.1945 1.285667-1.0798333 2.09-1.4155 1.687833-.5035 2.6505-.5035 1.8525.1678333 2.6695.5035 1.52.8075 2.109 1.4155 1.048167 1.3395 1.3775 2.1945.494 1.8081667.494 2.8595zm-4.522 0c0-.6333333-.053833-1.1621667-.1615-1.5865s-.2565-.7631667-.4465-1.0165-.414833-.4306667-.6745-.532-.5415-.152-.8455-.152-.582667.0506667-.836.152-.468667.2786667-.646.532-.316667.5921667-.418 1.0165-.152.9531667-.152 1.5865c0 .608.050667 1.1146667.152 1.52s.240667.7283333.418.969.392667.4116667.646.513.532.152.836.152.585833-.0506667.8455-.152.4845-.2723333.6745-.513.338833-.5636667.4465-.969.1615-.912.1615-1.52z"/></g></g></svg>