<svg height="164.368422" viewBox="0 0 319.719785 164.368422" width="319.719785" xmlns="http://www.w3.org/2000/svg"><g fill="none" fill-rule="evenodd" transform="translate(0 0)"><g fill-rule="nonzero"><g fill="#006993" transform="translate(19.531953)"><path d="m31.04 29.024h4.8v5.568c0 .4906667-.1653333.9173333-.496 1.28s-.8053333.544-1.424.544h-2.88v10.72h-8.64v-10.72h-18.752c-.61866667 0-1.17866667-.192-1.68-.576s-.816-.864-.944-1.44l-1.024-4.896 21.568-28.992h9.472zm-8.64-12.16c0-.7466667.0266667-1.552.08-2.416s.1333333-1.7546667.24-2.672l-12.32 17.248h12z"/><path d="m72.768 23.808c0 4.0746667-.4373333 7.6053333-1.312 10.592s-2.0853333 5.4613333-3.632 7.424-3.3813333 3.424-5.504 4.384-4.4213333 1.44-6.896 1.44-4.7626667-.48-6.864-1.44-3.92-2.4213333-5.456-4.384-2.736-4.4373333-3.6-7.424-1.296-6.5173333-1.296-10.592.432-7.6053333 1.296-10.592 2.064-5.46133333 3.6-7.424 3.3546667-3.41866667 5.456-4.368 4.3893333-1.424 6.864-1.424 4.7733333.47466667 6.896 1.424 3.9573333 2.40533333 5.504 4.368 2.7573333 4.4373333 3.632 7.424 1.312 6.5173333 1.312 10.592zm-10.24 0c0-3.2213333-.2026667-5.8613333-.608-7.92s-.944-3.6746667-1.616-4.848c-.672-1.17333333-1.4346667-1.97866667-2.288-2.416s-1.7173333-.656-2.592-.656-1.7333333.21866667-2.576.656-1.5893333 1.24266667-2.24 2.416c-.6506667 1.1733333-1.1733333 2.7893333-1.568 4.848s-.592 4.6986667-.592 7.92c0 3.2426667.1973333 5.888.592 7.936s.9173333 3.664 1.568 4.848 1.3973333 1.9946667 2.24 2.432 1.7013333.656 2.576.656 1.7386667-.2186667 2.592-.656 1.616-1.248 2.288-2.432 1.2106667-2.8 1.616-4.848.608-4.6933333.608-7.936z"/><path d="m88.26 7.16c0 1.01333333-.1836667 1.938-.551 2.774s-.855 1.5548333-1.463 2.1565-1.3141667 1.0671667-2.1185 1.3965-1.6435.494-2.5175.494c-.9626667 0-1.8461667-.1646667-2.6505-.494s-1.501-.7948333-2.09-1.3965-1.0481667-1.3205-1.3775-2.1565-.494-1.76066667-.494-2.774c0-1.05133333.1646667-2.0045.494-2.8595s.7885-1.5865 1.3775-2.1945 1.2856667-1.07983333 2.09-1.4155 1.6878333-.5035 2.6505-.5035 1.8525.16783333 2.6695.5035 1.52.8075 2.109 1.4155 1.0481667 1.3395 1.3775 2.1945.494 1.80816667.494 2.8595zm-4.522 0c0-.646-.0538333-1.18116667-.1615-1.6055s-.2565-.76316667-.4465-1.0165-.4148333-.43066667-.6745-.532-.5415-.152-.8455-.152-.5826667.05066667-.836.152-.4686667.27866667-.646.532-.3166667.59216667-.418 1.0165-.152.9595-.152 1.6055c0 .608.0506667 1.11466667.152 1.52s.2406667.72833333.418.969.3926667.4116667.646.513.532.152.836.152.5858333-.0506667.8455-.152.4845-.27233333.6745-.513.3388333-.56366667.4465-.969.1615-.912.1615-1.52zm13.224-5.833c.19-.21533333.4243333-.41483333.703-.5985s.665-.2755 1.159-.2755h4.294l-20.862 26.847c-.19.2406667-.4275.4401667-.7125.5985s-.6301667.2375-1.0355.2375h-4.408zm7.22 20.311c0 1.0133333-.183667 1.9411667-.551 2.7835s-.855 1.5643333-1.463 2.166-1.314167 1.0671667-2.1185 1.3965c-.8043333.3293333-1.6435.494-2.5175.494-.9626667 0-1.8461667-.1646667-2.6505-.494s-1.501-.7948333-2.09-1.3965-1.0481667-1.3236667-1.3775-2.166-.494-1.7701667-.494-2.7835c0-1.0513333.1646667-2.0045.494-2.8595s.7885-1.5865 1.3775-2.1945 1.2856667-1.0798333 2.09-1.4155 1.6878333-.5035 2.6505-.5035 1.8525.1678333 2.6695.5035 1.52.8075 2.109 1.4155 1.048167 1.3395 1.3775 2.1945.494 1.8081667.494 2.8595zm-4.522 0c0-.6333333-.0538333-1.1621667-.1615-1.5865s-.2565-.7631667-.4465-1.0165-.4148333-.4306667-.6745-.532-.5415-.152-.8455-.152-.5826667.0506667-.836.152-.4686667.2786667-.646.532-.3166667.5921667-.418 1.0165-.152.9531667-.152 1.5865c0 .608.0506667 1.1146667.152 1.52s.2406667.7283333.418.969.3926667.4116667.646.513.532.152.836.152.5858333-.0506667.8455-.152.4845-.2723333.6745-.513.3388333-.5636667.4465-.969.1615-.912.1615-1.52z"/></g><g fill="#006993" transform="translate(19.531953 89)"><path d="m31.04 29.024h4.8v5.568c0 .4906667-.1653333.9173333-.496 1.28s-.8053333.544-1.424.544h-2.88v10.72h-8.64v-10.72h-18.752c-.61866667 0-1.17866667-.192-1.68-.576s-.816-.864-.944-1.44l-1.024-4.896 21.568-28.992h9.472zm-8.64-12.16c0-.7466667.0266667-1.552.08-2.416s.1333333-1.7546667.24-2.672l-12.32 17.248h12z"/><path d="m72.768 23.808c0 4.0746667-.4373333 7.6053333-1.312 10.592s-2.0853333 5.4613333-3.632 7.424-3.3813333 3.424-5.504 4.384-4.4213333 1.44-6.896 1.44-4.7626667-.48-6.864-1.44-3.92-2.4213333-5.456-4.384-2.736-4.4373333-3.6-7.424-1.296-6.5173333-1.296-10.592.432-7.6053333 1.296-10.592 2.064-5.46133333 3.6-7.424 3.3546667-3.41866667 5.456-4.368 4.3893333-1.424 6.864-1.424 4.7733333.47466667 6.896 1.424 3.9573333 2.40533333 5.504 4.368 2.7573333 4.4373333 3.632 7.424 1.312 6.5173333 1.312 10.592zm-10.24 0c0-3.2213333-.2026667-5.8613333-.608-7.92s-.944-3.6746667-1.616-4.848c-.672-1.17333333-1.4346667-1.97866667-2.288-2.416s-1.7173333-.656-2.592-.656-1.7333333.21866667-2.576.656-1.5893333 1.24266667-2.24 2.416c-.6506667 1.1733333-1.1733333 2.7893333-1.568 4.848s-.592 4.6986667-.592 7.92c0 3.2426667.1973333 5.888.592 7.936s.9173333 3.664 1.568 4.848 1.3973333 1.9946667 2.24 2.432 1.7013333.656 2.576.656 1.7386667-.2186667 2.592-.656 1.616-1.248 2.288-2.432 1.2106667-2.8 1.616-4.848.608-4.6933333.608-7.936z"/><path d="m88.26 7.16c0 1.01333333-.1836667 1.938-.551 2.774s-.855 1.5548333-1.463 2.1565-1.3141667 1.0671667-2.1185 1.3965-1.6435.494-2.5175.494c-.9626667 0-1.8461667-.1646667-2.6505-.494s-1.501-.7948333-2.09-1.3965-1.0481667-1.3205-1.3775-2.1565-.494-1.76066667-.494-2.774c0-1.05133333.1646667-2.0045.494-2.8595s.7885-1.5865 1.3775-2.1945 1.2856667-1.07983333 2.09-1.4155 1.6878333-.5035 2.6505-.5035 1.8525.16783333 2.6695.5035 1.52.8075 2.109 1.4155 1.0481667 1.3395 1.3775 2.1945.494 1.80816667.494 2.8595zm-4.522 0c0-.646-.0538333-1.18116667-.1615-1.6055s-.2565-.76316667-.4465-1.0165-.4148333-.43066667-.6745-.532-.5415-.152-.8455-.152-.5826667.05066667-.836.152-.4686667.27866667-.646.532-.3166667.59216667-.418 1.0165-.152.9595-.152 1.6055c0 .608.0506667 1.11466667.152 1.52s.2406667.72833333.418.969.3926667.4116667.646.513.532.152.836.152.5858333-.0506667.8455-.152.4845-.27233333.6745-.513.3388333-.56366667.4465-.969.1615-.912.1615-1.52zm13.224-5.833c.19-.21533333.4243333-.41483333.703-.5985s.665-.2755 1.159-.2755h4.294l-20.862 26.847c-.19.2406667-.4275.4401667-.7125.5985s-.6301667.2375-1.0355.2375h-4.408zm7.22 20.311c0 1.0133333-.183667 1.9411667-.551 2.7835s-.855 1.5643333-1.463 2.166-1.314167 1.0671667-2.1185 1.3965c-.8043333.3293333-1.6435.494-2.5175.494-.9626667 0-1.8461667-.1646667-2.6505-.494s-1.501-.7948333-2.09-1.3965-1.0481667-1.3236667-1.3775-2.166-.494-1.7701667-.494-2.7835c0-1.0513333.1646667-2.0045.494-2.8595s.7885-1.5865 1.3775-2.1945 1.2856667-1.0798333 2.09-1.4155 1.6878333-.5035 2.6505-.5035 1.8525.1678333 2.6695.5035 1.52.8075 2.109 1.4155 1.048167 1.3395 1.3775 2.1945.494 1.8081667.494 2.8595zm-4.522 0c0-.6333333-.0538333-1.1621667-.1615-1.5865s-.2565-.7631667-.4465-1.0165-.4148333-.4306667-.6745-.532-.5415-.152-.8455-.152-.5826667.0506667-.836.152-.4686667.2786667-.646.532-.3166667.5921667-.418 1.0165-.152.9531667-.152 1.5865c0 .608.0506667 1.1146667.152 1.52s.2406667.7283333.418.969.3926667.4116667.646.513.532.152.836.152.5858333-.0506667.8455-.152.4845-.2723333.6745-.513.3388333-.5636667.4465-.969.1615-.912.1615-1.52z"/></g><g fill="#4a4a4a" transform="translate(147.898636 1.930434)"><path d="m3.93715668 16.4264908c.53145853 0 1.0293134-.084287 1.4935646-.252861.4642512-.1685741.88170878-.4089178 1.25237274-.7210312.37066397-.3121135.67321396-.6815491.90765-1.1083069h.08896637v1.8612747h1.95410156v-8.1445465c0-.79829916-.18158849-1.48870977-.54476547-2.07123184-.36317698-.58252208-.88226446-1.03223801-1.55726242-1.3491478-.67499797-.31690979-1.48394267-.47536469-2.42683411-.47536469-.89633179 0-1.67889658.14801407-2.3476944.44404221-.66879781.29602814-1.19958369.69810231-1.59235763 1.20622253-.39277395.50812022-.62647883 1.0828921-.70111466 1.72431565l-.01123046.10528564h1.90882873l.01877594-.07913971c.12704468-.50689188.42140579-.91215388.88308334-1.21578598.46167756-.3036321 1.06318029-.45544815 1.80450821-.45544815.84544373 0 1.49213155.20156352 1.94006348.60469055.44793193.40312704.67189789.96646373.67189789 1.69001007v3.55426792c0 .5664367-.14535268 1.0754928-.43605805 1.5271682-.29070536.4516755-.68552653.8078919-1.1844635 1.0686493-.49893697.2607575-1.06396993.3911362-1.69509887.3911362-.70377605 0-1.27389781-.166556-1.7103653-.4996681s-.65470123-.7889697-.65470123-1.3675728v-.0224609c0-.5637462.21402232-1.0103328.64206695-1.3397599.42804464-.3294271 1.0546697-.5178299 1.87987519-.5652084l4.13579559-.2544403v-1.53085328l-4.36408997.25444031c-.90569051.05240885-1.6791598.22209421-2.32040786.50905609-.64124807.28696188-1.13027064.67806878-1.46706772 1.17332078-.33679708.495252-.50519562 1.0845884-.50519562 1.7680092v.0224609c0 .7136027.16772588 1.3374202.50317764 1.8714523.33545177.5340322.799469.9470444 1.3920517 1.2390366s1.27322515.4379883 2.04192734.4379883z"/><path d="m16.3325096 16.3861313c.1946615 0 .386837-.0099729.5765267-.0299187.1896896-.0199458.3554268-.0398623.4972114-.0597496v-1.6092911c-.1141764.0099437-.2280019.0199166-.3414764.0299187s-.2386475.0150032-.3755188.0150032c-.5583649 0-.9723129-.1251144-1.2418442-.3753433-.2695312-.2502289-.4042969-.700793-.4042969-1.3516922v-7.00167085h2.3631363v-1.6171875h-2.3631363v-3.14839172h-2.0214843v3.14839172h-1.7733612v1.6171875h1.7733612v7.17100525c0 1.1278432.2700576 1.9450938.810173 2.4517517s1.3736852.7599869 2.5007095.7599869z"/><path d="m28.9593334 16.2055664h1.9762115v-16.2055664h-1.9876175l-4.3125 3.09960938v2.06587982l4.2349396-2.98730469h.0889664z"/><path d="m41.3885093 20.2390594c.7086894 0 1.3069751-.1092338 1.7948571-.3277015.4878819-.2184677.907065-.5696538 1.2575492-1.0535584.3504843-.4839045.6740621-1.123427.9707337-1.9185676l4.6146698-12.55303195h-2.0551758l-3.4905701 10.50557705.5330964-.7027816h-.6941834l.5330963.7027816-3.4867096-10.50557705h-2.0888672l4.3826905 11.83059695-.2321549.6810226c-.227183.6710205-.5236206 1.1261177-.8893127 1.3652916-.3656922.2391739-.8482514.3587608-1.4476776.3587608-.124705 0-.2468364-.0062586-.3663941-.0187759s-.2266566-.0274912-.3212967-.0449219v1.5984116c.1297353.0224609.2845345.0418218.4643975.0580826.1798629.0162608.3536135.0243911.5212516.0243911z"/><path d="m56.6564468 16.4264908c.6608429 0 1.2688382-.0892004 1.823986-.267601.5551478-.1784007 1.0448723-.425471 1.4691734-.741211.4243012-.3157399.7718608-.6777178 1.0426789-1.0859337.270818-.4082158.4561208-.8409105.5559082-1.2980842l.0224609-.1049347h-1.9314651l-.0373764.1010742c-.1098481.3050944-.2957942.5837504-.5578385.835968s-.5901845.4531962-.9844208.6029358c-.3942362.1497396-.8469645.2246094-1.3581848.2246094-.7136027 0-1.3323898-.1578115-1.8563614-.4734344-.5239715-.315623-.9281807-.7696966-1.2126274-1.3622208s-.42667-1.3067118-.42667-2.1425629v-.75981138c0-.88077291.1447092-1.6230367.4341278-2.22679138.2894185-.60375468.6842689-1.05970002 1.1845512-1.367836.5002823-.30813599 1.0660464-.46220398 1.6972923-.46220398.631129 0 1.1899618.14658101 1.6764984.43974304.4865367.29316203.8682849.73913447 1.1452446 1.33791733.2769598.59878286.4154396 1.35850652.4154396 2.27917099v.75981138l.9809113-1.41872404h-8.529892v1.53839874h9.5067673v-.73349c0-1.18025206-.2077344-2.21637979-.6232033-3.10838317-.4154688-.89200337-1.0105959-1.58627446-1.7853813-2.08281326-.7747853-.4965388-1.6998367-.7448082-2.7751541-.7448082-1.0729777 0-2.0074463.25949987-2.8034058.77849961-.7959594.51899973-1.4129041 1.24134699-1.8508339 2.16704178-.4379297.92569478-.6568946 1.99861399-.6568946 3.21875764v.0112305c0 1.2351175.2177073 2.3086509.6531219 3.2206001.4354146.9119491 1.0592321 1.6174507 1.8714523 2.1165047.8122203.4990539 1.782252.7485809 2.9100953.7485809z"/><path d="m67.3147552 16.4264908c.5314585 0 1.0293134-.084287 1.4935646-.252861.4642512-.1685741.8817088-.4089178 1.2523727-.7210312.370664-.3121135.673214-.6815491.90765-1.1083069h.0889664v1.8612747h1.9541016v-8.1445465c0-.79829916-.1815885-1.48870977-.5447655-2.07123184-.363177-.58252208-.8822645-1.03223801-1.5572624-1.3491478-.674998-.31690979-1.4839427-.47536469-2.4268341-.47536469-.8963318 0-1.6788966.14801407-2.3476944.44404221s-1.1995837.69810231-1.5923577 1.20622253c-.3927739.50812022-.6264788 1.0828921-.7011146 1.72431565l-.0112305.10528564h1.9088288l.0187759-.07913971c.1270447-.50689188.4214058-.91215388.8830833-1.21578598.4616776-.3036321 1.0631803-.45544815 1.8045082-.45544815.8454438 0 1.4921316.20156352 1.9400635.60469055.4479319.40312704.6718979.96646373.6718979 1.69001007v3.55426792c0 .5664367-.1453527 1.0754928-.436058 1.5271682-.2907054.4516755-.6855266.8078919-1.1844635 1.0686493-.498937.2607575-1.06397.3911362-1.6950989.3911362-.7037761 0-1.2738978-.166556-1.7103653-.4996681s-.6547012-.7889697-.6547012-1.3675728v-.0224609c0-.5637462.2140223-1.0103328.6420669-1.3397599.4280447-.3294271 1.0546697-.5178299 1.8798752-.5652084l4.1357956-.2544403v-1.53085328l-4.36409.25444031c-.9056905.05240885-1.6791598.22209421-2.3204078.50905609-.6412481.28696188-1.1302707.67806878-1.4670678 1.17332078-.336797.495252-.5051956 1.0845884-.5051956 1.7680092v.0224609c0 .7136027.1677259 1.3374202.5031777 1.8714523.3354517.5340322.799469.9470444 1.3920517 1.2390366s1.2732251.4379883 2.0419273.4379883z"/><path d="m75.7487358 16.2055664h1.9541015v-7.30559539c0-.59147136.1139718-1.10175578.3419152-1.53085327.2279434-.4290975.5475146-.75963593.9587135-.9916153s.887207-.34796905 1.4280243-.34796905c.2322133 0 .443779.0106163.634697.0318489.1909179.02123261.344635.0480512.4611511.08045578v-1.89794922c-.0822398-.01497395-.199955-.03181966-.3531456-.0505371-.1531906-.01871745-.3183429-.02807618-.4954567-.02807618-.7103272 0-1.3173281.1910642-1.821003.5731926-.5036748.3821284-.8589261.903965-1.0657539 1.5655098h-.0891419v-1.91777802h-1.9541015z"/><path d="m3.93715668 45.4264908c.53145853 0 1.0293134-.084287 1.4935646-.252861.4642512-.1685741.88170878-.4089178 1.25237274-.7210312.37066397-.3121135.67321396-.6815491.90765-1.1083069h.08896637v1.8612747h1.95410156v-8.1445465c0-.7982992-.18158849-1.4887098-.54476547-2.0712318-.36317698-.5825221-.88226446-1.0322381-1.55726242-1.3491478-.67499797-.3169098-1.48394267-.4753647-2.42683411-.4753647-.89633179 0-1.67889658.148014-2.3476944.4440422-.66879781.2960281-1.19958369.6981023-1.59235763 1.2062225-.39277395.5081202-.62647883 1.0828921-.70111466 1.7243157l-.01123046.1052856h1.90882873l.01877594-.0791397c.12704468-.5068919.42140579-.9121539.88308334-1.215786.46167756-.3036321 1.06318029-.4554481 1.80450821-.4554481.84544373 0 1.49213155.2015635 1.94006348.6046905s.67189789.9664637.67189789 1.6900101v3.5542679c0 .5664367-.14535268 1.0754928-.43605805 1.5271682-.29070536.4516755-.68552653.8078919-1.1844635 1.0686493-.49893697.2607575-1.06396993.3911362-1.69509887.3911362-.70377605 0-1.27389781-.166556-1.7103653-.4996681s-.65470123-.7889697-.65470123-1.3675728v-.0224609c0-.5637462.21402232-1.0103328.64206695-1.3397599.42804464-.3294271 1.0546697-.5178299 1.87987519-.5652084l4.13579559-.2544403v-1.5308533l-4.36408997.2544403c-.90569051.0524089-1.6791598.2220942-2.32040786.5090561-.64124807.2869619-1.13027064.6780688-1.46706772 1.1733208-.33679708.495252-.50519562 1.0845884-.50519562 1.7680092v.0224609c0 .7136027.16772588 1.3374202.50317764 1.8714523.33545177.5340322.799469.9470444 1.3920517 1.2390366s1.27322515.4379883 2.04192734.4379883z"/><path d="m13.058828 45.2055664h1.9541016v-10.2021789h2.5022888v-1.6171875h-2.5173798v-1.3822251c0-.6058604.1402931-1.0583547.4208794-1.3574829.2805862-.2991282.7161471-.4486923 1.3066826-.4486923.1571095 0 .3104756.0037435.4600982.0112305.1496226.0074869.2843298.0199457.4041214.0373764v-1.5761261c-.1617889-.0273743-.3506304-.0491626-.5665245-.0653649-.215894-.0162023-.4360873-.0243034-.6605797-.0243034-.7334899 0-1.3446439.1228625-1.8334617.3685875-.4888179.245725-.85606.6198985-1.1017265 1.1225204-.2456666.502622-.3684998 1.1381086-.3684998 1.9064598v1.4080201h-1.7533569v1.6171875h1.7533569z"/><path d="m23.6541597 45.3861313c.1946615 0 .386837-.0099729.5765267-.0299187.1896896-.0199458.3554268-.0398623.4972114-.0597496v-1.6092911c-.1141764.0099437-.2280019.0199166-.3414764.0299187s-.2386475.0150032-.3755188.0150032c-.5583649 0-.9723129-.1251144-1.2418442-.3753433-.2695312-.2502289-.4042969-.700793-.4042969-1.3516922v-7.0016708h2.3631363v-1.6171875h-2.3631363v-3.1483918h-2.0214843v3.1483918h-1.7733612v1.6171875h1.7733612v7.1710052c0 1.1278432.2700576 1.9450938.810173 2.4517517.5401153.5066579 1.3736852.7599869 2.5007095.7599869z"/><path d="m31.8385489 45.4264908c.6608429 0 1.2688382-.0892004 1.8239861-.267601.5551478-.1784007 1.0448722-.425471 1.4691734-.741211.4243011-.3157399.7718607-.6777178 1.0426788-1.0859337.2708181-.4082158.4561208-.8409105.5559082-1.2980842l.022461-.1049347h-1.9314652l-.0373764.1010742c-.109848.3050944-.2957942.5837504-.5578384.835968-.2620443.2522176-.5901846.4531962-.9844208.6029358-.3942363.1497396-.8469645.2246094-1.3581848.2246094-.7136027 0-1.3323899-.1578115-1.8563614-.4734344-.5239716-.315623-.9281807-.7696966-1.2126274-1.3622208s-.4266701-1.3067118-.4266701-2.1425629v-.7598114c0-.8807729.1447093-1.6230367.4341278-2.2267914.2894185-.6037546.684269-1.0597 1.1845512-1.367836.5002823-.3081359 1.0660464-.4622039 1.6972924-.4622039.6311289 0 1.1899617.146581 1.6764984.439743.4865366.293162.8682848.7391345 1.1452446 1.3379173.2769597.5987829.4154396 1.3585065.4154396 2.279171v.7598114l.9809112-1.418724h-8.5298919v1.5383987h9.5067673v-.73349c0-1.1802521-.2077345-2.2163798-.6232033-3.1083832-.4154689-.8920033-1.010596-1.5862744-1.7853813-2.0828132-.7747854-.4965388-1.6998368-.7448082-2.7751542-.7448082-1.0729777 0-2.0074462.2594998-2.8034057.7784996-.7959595.5189997-1.4129041 1.241347-1.8508339 2.1670418-.4379298.9256947-.6568947 1.9986139-.6568947 3.2187576v.0112305c0 1.2351175.2177073 2.3086509.653122 3.2206001.4354146.9119491 1.059232 1.6174507 1.8714523 2.1165047.8122202.4990539 1.782252.7485809 2.9100952.7485809z"/><path d="m39.1120993 45.2055664h1.9541016v-7.3055954c0-.5914713.1139717-1.1017558.3419151-1.5308533.2279435-.4290975.5475146-.7596359.9587136-.9916153.4111989-.2319793.887207-.347969 1.4280243-.347969.2322133 0 .443779.0106163.6346969.0318489.190918.0212326.344635.0480512.4611511.0804558v-1.8979492c-.0822397-.014974-.1999549-.0318197-.3531455-.0505372-.1531907-.0187174-.3183429-.0280761-.4954567-.0280761-.7103272 0-1.3173282.1910642-1.821003.5731926s-.8589261.903965-1.0657539 1.5655098h-.0891419v-1.917778h-1.9541016z"/><path d="m52.5218617 45.2055664h1.9541015v-10.2021789h2.5022889v-1.6171875h-2.5173798v-1.3822251c0-.6058604.1402931-1.0583547.4208794-1.3574829.2805862-.2991282.7161471-.4486923 1.3066825-.4486923.1571096 0 .3104757.0037435.4600983.0112305.1496226.0074869.2843297.0199457.4041214.0373764v-1.5761261c-.1617889-.0273743-.3506304-.0491626-.5665245-.0653649s-.4360873-.0243034-.6605797-.0243034c-.73349 0-1.3446439.1228625-1.8334617.3685875-.4888179.245725-.8560601.6198985-1.1017266 1.1225204-.2456665.502622-.3684997 1.1381086-.3684997 1.9064598v1.4080201h-1.753357v1.6171875h1.753357z"/><path d="m59.2537367 45.2055664h1.9541015v-11.8193664h-1.9541015zm.9807358-13.9134979c.3541107 0 .6533851-.1240908.8978233-.3722725s.3666572-.5456429.3666572-.8923836c0-.3541107-.122219-.6533851-.3666572-.8978233s-.5437126-.3666573-.8978233-.3666573c-.3467408 0-.644202.1222191-.8923836.3666573-.2481817.2444382-.3722725.5437126-.3722725.8978233 0 .3467407.1240908.6442019.3722725.8923836.2481816.2481817.5456428.3722725.8923836.3722725z"/><path d="m64.1027383 45.2055664h1.9541016v-7.3055954c0-.5914713.1139717-1.1017558.3419151-1.5308533s.5475146-.7596359.9587135-.9916153c.411199-.2319793.8872071-.347969 1.4280243-.347969.2322134 0 .443779.0106163.634697.0318489s.344635.0480512.4611511.0804558v-1.8979492c-.0822398-.014974-.199955-.0318197-.3531456-.0505372-.1531906-.0187174-.3183428-.0280761-.4954567-.0280761-.7103271 0-1.3173281.1910642-1.8210029.5731926-.5036749.3821284-.8589262.903965-1.065754 1.5655098h-.0891418v-1.917778h-1.9541016z"/><path d="m75.7834526 45.4264908c.8856863 0 1.6783994-.1497104 2.3781395-.449131.6997401-.2994207 1.2516709-.7154452 1.6557923-1.2480736s.6061821-1.1457418.6061821-1.8393402v-.0149155c0-.5614064-.1109594-1.0454572-.3328782-1.4521522-.2219187-.4066951-.5717302-.7535235-1.0494346-1.0404854s-1.105938-.5228017-1.8847008-.7075195l-1.8567123-.4492188c-.4414978-.1096141-.8019257-.2430344-1.0812836-.4002609-.2793579-.1572266-.483846-.3419444-.6134644-.5541535-.1296183-.212209-.1944274-.4505055-.1944274-.7148895v-.0149155c0-.3493143.0972137-.6549644.2916412-.9169502s.4687551-.4659475.8229828-.6118851.7684097-.2189064 1.2425461-.2189064c.7286936 0 1.3100458.1648598 1.7440567.4945794.4340108.3297195.6970494.7643445.7891159 1.3038749l.0075454.0529938h1.8826828l-.0077209-.0982666c-.0595449-.6538239-.2770182-1.2353808-.6524201-1.7446709-.3754018-.50929-.8830833-.909434-1.5230445-1.2004318-.6399613-.2909978-1.3854714-.4364967-2.2365303-.4364967-.843455 0-1.5945219.1484527-2.2532006.4453583-.6586787.2969055-1.1744613.7061157-1.547348 1.2276306s-.55933 1.1191864-.55933 1.7930145v.0112305c0 .5663197.1185634 1.0597292.35569 1.4802284.2371267.4204992.5977593.7748731 1.0818978 1.0631218.4841384.2882487 1.0967547.5222168 1.8378486.7019043l1.8602219.4492187c.6933644.1696269 1.1795794.3872465 1.4586448.6528588.2790655.2656122.4185982.6068255.4185982 1.0236396v.0149155c0 .3568014-.1072159.6680082-.3216476.9336205-.2144318.2656122-.5155487.4713579-.9033509.6172371-.3878021.1458791-.8499476.2188186-1.3864364.2188186-.7862498 0-1.4063823-.159771-1.8603974-.4793129-.454015-.3195419-.7482299-.7578519-.8826446-1.3149299l-.0150909-.0754548h-1.9688416l.0075455.0679093c.0799001.6864624.3175239 1.2868538.7128715 1.8011741.3953476.5143204.929877.9144059 1.6035881 1.2002564.6737112.2858505 1.4648158.4287758 2.3733139.4287758z"/><path d="m86.6360323 45.3861313c.1946614 0 .386837-.0099729.5765266-.0299187.1896897-.0199458.3554268-.0398623.4972115-.0597496v-1.6092911c-.1141765.0099437-.2280019.0199166-.3414765.0299187-.1134745.0100021-.2386474.0150032-.3755188.0150032-.5583648 0-.9723129-.1251144-1.2418441-.3753433-.2695313-.2502289-.4042969-.700793-.4042969-1.3516922v-7.0016708h2.3631363v-1.6171875h-2.3631363v-3.1483918h-2.0214844v3.1483918h-1.7733612v1.6171875h1.7733612v7.1710052c0 1.1278432.2700577 1.9450938.810173 2.4517517.5401154.5066579 1.3736853.7599869 2.5007096.7599869z"/><path d="m100.009507 45.4264908c.660843 0 1.268838-.0892004 1.823986-.267601.555148-.1784007 1.044872-.425471 1.469173-.741211.424301-.3157399.771861-.6777178 1.042679-1.0859337.270818-.4082158.456121-.8409105.555908-1.2980842l.022461-.1049347h-1.931465l-.037376.1010742c-.109848.3050944-.295795.5837504-.557839.835968s-.590184.4531962-.984421.6029358c-.394236.1497396-.846964.2246094-1.358184.2246094-.7136031 0-1.3323903-.1578115-1.8563618-.4734344-.5239716-.315623-.9281807-.7696966-1.2126274-1.3622208s-.4266701-1.3067118-.4266701-2.1425629v-.7598114c0-.8807729.1447093-1.6230367.4341278-2.2267914.2894185-.6037546.684269-1.0597 1.1845512-1.367836.5002823-.3081359 1.0660464-.4622039 1.6972924-.4622039.6311289 0 1.1899619.146581 1.6764979.439743.486537.293162.868285.7391345 1.145245 1.3379173.27696.5987829.41544 1.3585065.41544 2.279171v.7598114l.980911-1.418724h-8.529892v1.5383987h9.506767v-.73349c0-1.1802521-.207734-2.2163798-.623203-3.1083832-.415469-.8920033-1.010596-1.5862744-1.785381-2.0828132-.774786-.4965388-1.699837-.7448082-2.7751545-.7448082-1.0729777 0-2.0074462.2594998-2.8034057.7784996-.7959595.5189997-1.4129041 1.241347-1.8508339 2.1670418-.4379298.9256947-.6568947 1.9986139-.6568947 3.2187576v.0112305c0 1.2351175.2177073 2.3086509.653122 3.2206001.4354146.9119491 1.059232 1.6174507 1.8714523 2.1165047.8122202.4990539 1.782252.7485809 2.9100955.7485809z"/><path d="m107.283057 49.172905h1.954102v-5.9067002h.089142c.2397.4443055.546081.8274575.919143 1.1494561s.801019.5709699 1.283871.7469139.998781.263916 1.547787.263916c.995417 0 1.865544-.2520129 2.610382-.7560387.744837-.5040258 1.325634-1.213885 1.742389-2.1295776.416756-.9156927.625134-1.9936129.625134-3.2337609v-.0149154c0-1.2376913-.20712-2.3156408-.621361-3.2338486-.41424-.9182078-.996295-1.6299388-1.746162-2.1351929-.749868-.5052541-1.627599-.7578811-2.633194-.7578811-.556493 0-1.071779.0886154-1.545857.2658462-.474078.1772309-.894518.4274597-1.261322.7506867-.366803.3232269-.67374.7119649-.92081 1.166214h-.089142v-1.9618225h-1.954102zm5.367462-5.4759064c-.683421 0-1.282086-.1809158-1.795997-.5427475s-.915664-.8714434-1.205258-1.5288353-.434391-1.4301592-.434391-2.3183022v-.0149154c0-.8955129.14354-1.6713804.430619-2.3276024.287078-.656222.688831-1.1652489 1.205257-1.5270805.516426-.3618317 1.116349-.5427475 1.79977-.5427475.705882 0 1.313322.1765289 1.822319.5295868.508998.3530578.900105.8576685 1.173321 1.513832.273216.6561636.409824 1.4408341.409824 2.3540116v.0149154c0 .9006602-.136608 1.6796863-.409824 2.3370781-.273216.6573919-.664323 1.1638744-1.173321 1.5194474-.508997.355573-1.116437.5333595-1.822319.5333595z"/><path d="m120.373601 45.2055664h1.954102v-11.8193664h-1.954102zm.980736-13.9134979c.354111 0 .653385-.1240908.897823-.3722725s.366657-.5456429.366657-.8923836c0-.3541107-.122219-.6533851-.366657-.8978233s-.543712-.3666573-.897823-.3666573c-.346741 0-.644202.1222191-.892384.3666573-.248181.2444382-.372272.5437126-.372272.8978233 0 .3467407.124091.6442019.372272.8923836.248182.2481817.545643.3722725.892384.3722725z"/><path d="m129.370331 45.4264908c.885686 0 1.678399-.1497104 2.378139-.449131.69974-.2994207 1.251671-.7154452 1.655792-1.2480736.404122-.5326284.606183-1.1457418.606183-1.8393402v-.0149155c0-.5614064-.11096-1.0454572-.332879-1.4521522-.221918-.4066951-.57173-.7535235-1.049434-1.0404854-.477705-.2869619-1.105938-.5228017-1.884701-.7075195l-1.856712-.4492188c-.441498-.1096141-.801926-.2430344-1.081284-.4002609-.279358-.1572266-.483846-.3419444-.613464-.5541535-.129619-.212209-.194428-.4505055-.194428-.7148895v-.0149155c0-.3493143.097214-.6549644.291641-.9169502.194428-.2619858.468756-.4659475.822983-.6118851.354228-.1459376.76841-.2189064 1.242546-.2189064.728694 0 1.310046.1648598 1.744057.4945794.434011.3297195.697049.7643445.789116 1.3038749l.007545.0529938h1.882683l-.007721-.0982666c-.059545-.6538239-.277018-1.2353808-.65242-1.7446709-.375402-.50929-.883083-.909434-1.523044-1.2004318-.639962-.2909978-1.385472-.4364967-2.236531-.4364967-.843455 0-1.594522.1484527-2.2532.4453583-.658679.2969055-1.174462.7061157-1.547348 1.2276306-.372887.5215149-.55933 1.1191864-.55933 1.7930145v.0112305c0 .5663197.118563 1.0597292.35569 1.4802284.237126.4204992.597759.7748731 1.081898 1.0631218.484138.2882487 1.096754.5222168 1.837848.7019043l1.860222.4492187c.693365.1696269 1.179579.3872465 1.458645.6528588.279065.2656122.418598.6068255.418598 1.0236396v.0149155c0 .3568014-.107216.6680082-.321648.9336205-.214431.2656122-.515548.4713579-.90335.6172371-.387803.1458791-.849948.2188186-1.386437.2188186-.78625 0-1.406382-.159771-1.860397-.4793129s-.74823-.7578519-.882645-1.3149299l-.015091-.0754548h-1.968841l.007545.0679093c.0799.6864624.317524 1.2868538.712872 1.8011741.395347.5143204.929877.9144059 1.603588 1.2002564s1.464816.4287758 2.373314.4287758z"/><path d="m141.14609 45.4264908c1.102575 0 2.061844-.2489128 2.877808-.7467385.815963-.4978256 1.450426-1.2045847 1.903389-2.1202774.452962-.9156926.679443-2.0023282.679443-3.2599067v-.022461c0-1.2600352-.226481-2.3466415-.679443-3.259819-.452963-.9131775-1.088683-1.6168073-1.907162-2.1108894-.818479-.4940822-1.779006-.7411232-2.881581-.7411232-1.095204 0-2.05266.247041-2.872367.7411232-.819708.4940821-1.456042 1.1977119-1.909005 2.1108894-.452962.9131775-.679443 1.9997838-.679443 3.259819v.022461c0 1.2525482.226481 2.3379262.679443 3.256134.452963.9182078 1.089297 1.6262245 1.909005 2.1240501.819707.4978257 1.779678.7467385 2.879913.7467385zm.007545-1.7294922c-.713368 0-1.329523-.1733996-1.848465-.5201988-.518941-.3467992-.920079-.8482806-1.203414-1.5044441-.283336-.6561636-.425003-1.4470927-.425003-2.3727875v-.022461c0-.9281514.141667-1.7177937.425003-2.368927.283335-.6511332.684473-1.1494852 1.203414-1.4950561.518942-.3455709 1.130066-.5183563 1.833374-.5183563.713252 0 1.329378.1715278 1.848378.5145835.518999.3430558.91888.8414078 1.199642 1.4950562s.421142 1.4445483.421142 2.3726997v.022461c0 .9256948-.14038 1.7166239-.421142 2.3727875-.280762.6561635-.678127 1.1576449-1.192097 1.5044441-.513969.3467992-1.12758.5201988-1.840832.5201988z"/><path d="m153.236966 45.4264908c.561523 0 1.078096-.0886154 1.549717-.2658463.471621-.1772308.892091-.4274597 1.26141-.7506866.369318-.3232269.674998-.7119649.917038-1.166214h.088966v1.9618225h1.954101v-16.4371948h-1.954101v6.5571899h-.088966c-.232331-.4443054-.536869-.8274574-.913617-1.149456-.376747-.3219986-.805289-.5709699-1.285625-.7469139-.480337-.175944-.997523-.263916-1.55156-.263916-.990503 0-1.859432.2520129-2.606784.7560386-.747353.5040258-1.329407 1.213885-1.746163 2.1295777-.416755.9156926-.625133 1.9936129-.625133 3.2337608v.0149155c0 1.2376912.20712 2.3162549.621361 3.235691.41424.9194362.996908 1.6311671 1.748004 2.1351929.751097.5040258 1.628214.7560387 2.631352.7560387zm.403946-1.7294922c-.703542 0-1.310426-.1765289-1.820652-.5295868s-.901947-.8595403-1.175163-1.5194473c-.273217-.659907-.409825-1.4427058-.409825-2.3483963v-.0149155c0-.9081472.136608-1.6890449.409825-2.3426933.273216-.6536484.664937-1.1582591 1.175163-1.5138321s1.11711-.5333595 1.820652-.5333595c.683304 0 1.28194.1809158 1.79591.5427475.513969.3618316.915722.8708585 1.205257 1.5270805.289536.656222.434303 1.4295743.434303 2.3200569v.0149155c0 .8881429-.14351 1.6621678-.43053 2.3220749-.287021.659907-.688773 1.1707763-1.205258 1.532608-.516484.3618317-1.116378.5427475-1.799682.5427475z"/><path d="m166.760945 45.4264908c.660843 0 1.268839-.0892004 1.823986-.267601.555148-.1784007 1.044873-.425471 1.469174-.741211.424301-.3157399.771861-.6777178 1.042679-1.0859337.270818-.4082158.45612-.8409105.555908-1.2980842l.022461-.1049347h-1.931465l-.037377.1010742c-.109848.3050944-.295794.5837504-.557838.835968s-.590185.4531962-.984421.6029358-.846965.2246094-1.358185.2246094c-.713603 0-1.33239-.1578115-1.856361-.4734344-.523972-.315623-.928181-.7696966-1.212628-1.3622208-.284446-.5925242-.42667-1.3067118-.42667-2.1425629v-.7598114c0-.8807729.14471-1.6230367.434128-2.2267914.289419-.6037546.684269-1.0597 1.184551-1.367836.500283-.3081359 1.066047-.4622039 1.697293-.4622039.631129 0 1.189961.146581 1.676498.439743s.868285.7391345 1.145245 1.3379173c.276959.5987829.415439 1.3585065.415439 2.279171v.7598114l.980912-1.418724h-8.529892v1.5383987h9.506767v-.73349c0-1.1802521-.207735-2.2163798-.623203-3.1083832-.415469-.8920033-1.010596-1.5862744-1.785382-2.0828132-.774785-.4965388-1.699836-.7448082-2.775154-.7448082-1.072978 0-2.007446.2594998-2.803406.7784996-.795959.5189997-1.412904 1.241347-1.850833 2.1670418-.43793.9256947-.656895 1.9986139-.656895 3.2187576v.0112305c0 1.2351175.217707 2.3086509.653122 3.2206001.435414.9119491 1.059232 1.6174507 1.871452 2.1165047.81222.4990539 1.782252.7485809 2.910095.7485809z"/></g><g fill="#4a4a4a" transform="translate(147.898636 89.511046)"><path d="m3.93715668 16.8458786c.53145853 0 1.0293134-.084287 1.4935646-.252861s.88170878-.4089178 1.25237274-.7210312c.37066397-.3121135.67321396-.6815491.90765-1.1083069h.08896637v1.8612747h1.95410156v-8.14454649c0-.79829915-.18158849-1.48870976-.54476547-2.07123184-.36317698-.58252207-.88226446-1.032238-1.55726242-1.34914779-.67499797-.31690979-1.48394267-.47536469-2.42683411-.47536469-.89633179 0-1.67889658.14801407-2.3476944.44404221-.66879781.29602813-1.19958369.69810231-1.59235763 1.20622253-.39277395.50812022-.62647883 1.0828921-.70111466 1.72431564l-.01123046.10528565h1.90882873l.01877594-.07913971c.12704468-.50689189.42140579-.91215388.88308334-1.21578598.46167756-.3036321 1.06318029-.45544815 1.80450821-.45544815.84544373 0 1.49213155.20156352 1.94006348.60469055s.67189789.96646373.67189789 1.69001007v3.5542679c0 .5664368-.14535268 1.0754928-.43605805 1.5271683-.29070536.4516754-.68552653.8078918-1.1844635 1.0686493-.49893697.2607574-1.06396993.3911361-1.69509887.3911361-.70377605 0-1.27389781-.166556-1.7103653-.4996681s-.65470123-.7889697-.65470123-1.3675728v-.0224609c0-.5637462.21402232-1.0103328.64206695-1.3397599.42804464-.329427 1.0546697-.5178298 1.87987519-.5652084l4.13579559-.2544403v-1.53085326l-4.36408997.2544403c-.90569051.05240886-1.6791598.22209426-2.32040786.50905606-.64124807.2869619-1.13027064.6780688-1.46706772 1.1733208-.33679708.495252-.50519562 1.0845884-.50519562 1.7680092v.0224609c0 .7136027.16772588 1.3374202.50317764 1.8714524.33545177.5340321.799469.9470443 1.3920517 1.2390365s1.27322515.4379883 2.04192734.4379883z"/><path d="m16.3325096 16.8055191c.1946615 0 .386837-.0099729.5765267-.0299187.1896896-.0199457.3554268-.0398623.4972114-.0597496v-1.609291c-.1141764.0099436-.2280019.0199165-.3414764.0299186-.1134745.0100022-.2386475.0150032-.3755188.0150032-.5583649 0-.9723129-.1251144-1.2418442-.3753433-.2695312-.2502289-.4042969-.7007929-.4042969-1.3516922v-7.00167083h2.3631363v-1.6171875h-2.3631363v-3.14839173h-2.0214843v3.14839173h-1.7733612v1.6171875h1.7733612v7.17100523c0 1.1278432.2700576 1.9450938.810173 2.4517517s1.3736852.7599869 2.5007095.7599869z"/><path d="m30.6998805 16.93116c1.1031596 0 2.0840124-.2389107 2.9425583-.7167321.858546-.4778213 1.5355619-1.1322301 2.0310478-1.9632263.495486-.8309962.743229-1.7805264.743229-2.8485908v-.022461c0-1.0306294-.2327691-1.95146938-.6983071-2.7625198-.465538-.81105041-1.1013756-1.4499003-1.9075126-1.91654968-.8061371-.46664937-1.7233506-.69997406-2.7516404-.69997406-.7312673 0-1.3926951.11730576-1.9842834.35191727s-1.0971349.54660797-1.5166397.93598938-.7353618.81757227-.9475708 1.2845726h-.2872544v2.80656429h.6701432v-.0112304c0-.6937154.1628418-1.3119469.4885254-1.85469439.3256836-.5427475.7699305-.96883266 1.3327408-1.27825547.5628102-.30942281 1.194875-.46413421 1.8961944-.46413421.7088064 0 1.3389994.15658315 1.8905792.46974945s.9839821.74486669 1.2972069 1.29510116c.3132248.55023446.4698372 1.17969636.4698372 1.88838576v.022461c0 .6862284-.1640994 1.3088175-.4922981 1.8677673-.3281988.5589498-.7718315 1.0024656-1.3308983 1.3305473-.5590668.3280818-1.1817729.4921227-1.8681183.4921227s-1.3090515-.1677844-1.8681183-.5033531c-.5590668-.3355688-1.0014419-.7878291-1.3271255-1.3567811-.3256836-.5689519-.4885254-1.2015139-.4885254-1.897686l-.4829102-2.67267605c0-.08469645 0-.16749191 0-.24838638s.0037435-.1624616.0112305-.24470138c.0348612-1.13556417.2001597-2.18067042.4958954-3.13531876s.7530848-1.72215144 1.3720474-2.30250931 1.4263865-.8705368 2.4222717-.8705368c.5515798 0 1.0451355.08858617 1.4806671.26575851.4355317.17717235.8061664.42734274 1.1119042.75051117.3057378.32316844.5384483.71059036.6981315 1.16226578l.0449219.12353516h2.0479813l-.0336914-.1459961c-.1796875-.79104614-.5160167-1.48291906-1.0089874-2.07561874-.4929708-.59269969-1.1069616-1.05309041-1.8419724-1.38117218s-1.5605087-.49212265-2.4764938-.49212265c-1.3152517 0-2.440843.3424708-3.3767739 1.02741241s-1.6522242 1.67562104-2.14888 2.97203827c-.4966558 1.29641724-.7449836 2.85797882-.7449836 4.68468475v.02246094c0 1.51225276.1772015 2.78556566.5316047 3.81993866s.8279839 1.8672409 1.4207421 2.4986038c.5927581.6313629 1.2516415 1.0880102 1.9766502 1.3699417.7250086.2819316 1.4606336.4228974 2.2068748.4228974z"/><path d="m44.285463 16.6249542h1.9541016v-7.38105009c0-.55391947.1178907-1.0509847.353672-1.49119567.2357814-.44021098.5576337-.79002254.9655571-1.04943467s.8714142-.38911819 1.3904724-.38911819c.4940237 0 .922507.09733073 1.28545.29199219.362943.19466145.6448453.46855036.845707.82166671.2008616.35311636.3012924.76674271.3012924 1.24087906v7.95626066h1.9541015v-7.54090879c0-.52666219.1135331-.99898529.3405991-1.4169693s.542689-.74796677.9468689-.98994827c.4041799-.24198151.8718821-.36297226 1.4031067-.36297226.5337982 0 .9828415.10046005 1.3471298.30138016.3642883.2009201.6406632.49414062.8291245.87966156.1884613.38552093.2826919.85758082.2826919 1.41617965v7.71357725h1.9541016v-8.162796c0-.80063883-.1547699-1.48979187-.4643097-2.0674591-.3095398-.57766724-.7494291-1.02375667-1.3196678-1.33826828-.5702388-.31451162-1.2495359-.47176743-2.0378914-.47176743-.5490062 0-1.0624492.08922958-1.540329.26768875s-.8989932.43181737-1.26334.76007462c-.3643468.32825724-.6550814.7209142-.8722038 1.17797088h-.0889664c-.1720835-.45963033-.4153519-.85357411-.729805-1.18183136-.3144531-.32825724-.6875445-.58097203-1.1192741-.75814437-.4317297-.17717235-.9158389-.26575852-1.4523278-.26575852-.7633209 0-1.4251289.17842992-1.985424.53528977-.5602951.35685984-.9726931.83576329-1.2371941 1.43671035h-.0891418v-1.75107574h-1.9541016z"/><path d="m68.0465919 16.8458786c1.1025746 0 2.0618439-.2489128 2.8778076-.7467384.8159637-.4978257 1.4504267-1.2045848 1.903389-2.1202774.4529622-.9156927.6794433-2.0023283.6794433-3.2599068v-.0224609c0-1.26003524-.2264811-2.34664158-.6794433-3.25981907-.4529623-.91317749-1.0886828-1.61680731-1.9071617-2.11088944s-1.7790057-.7411232-2.8815804-.7411232c-1.0952047 0-2.0526606.24704107-2.8723679.7411232-.8197072.49408213-1.4560419 1.19771195-1.9090042 2.11088944-.4529622.91317749-.6794433 1.99978383-.6794433 3.25981907v.0224609c0 1.2525482.2264811 2.3379262.6794433 3.256134.4529623.9182078 1.089297 1.6262245 1.9090042 2.1240502.8197073.4978256 1.7796784.7467384 2.8799134.7467384zm.0075454-1.7294922c-.7133687 0-1.3295237-.1733996-1.8484649-.5201988-.5189413-.3467992-.9200796-.8482806-1.2034149-1.5044441-.2833354-.6561636-.4250031-1.4470927-.4250031-2.3727875v-.0224609c0-.92815149.1416677-1.71779383.4250031-2.36892705.2833353-.65113322.6844736-1.14948527 1.2034149-1.49505615.5189412-.34557088 1.1300659-.51835632 1.833374-.51835632.7132518 0 1.3293775.17152786 1.8483772.51458359.5189998.34305572.9188805.84140777 1.1996422 1.49505615s.4211426 1.44454829.4211426 2.37269978v.0224609c0 .9256948-.1403809 1.7166239-.4211426 2.3727875-.2807617.6561635-.6781273 1.1576449-1.1920967 1.5044441s-1.12758.5201988-1.8408318.5201988z"/><path d="m75.7205595 16.6249542h1.9541016v-6.96868131c0-.68096415.1266352-1.27097321.3799057-1.77002716.2532705-.49905396.6107152-.88583247 1.0723343-1.16033554.461619-.27450308 1.0043081-.41175461 1.628067-.41175461.9204305 0 1.6058401.25637054 2.0562286.76911163.4503886.51274109.6755829 1.26781464.6755829 2.26522064v7.27646635h1.9541016v-7.66514585c0-1.36695862-.3574448-2.4378891-1.0723343-3.21279144-.7148895-.77490235-1.7259242-1.16235352-3.0331039-1.16235352-.8859202 0-1.6246745.17781576-2.2162629.53344727-.5915883.35563151-1.0433807.82263183-1.3553772 1.40100097h-.0891418v-1.71352386h-1.9541016z"/><path d="m92.12488 16.8055191c.1946615 0 .386837-.0099729.5765267-.0299187.1896896-.0199457.3554267-.0398623.4972114-.0597496v-1.609291c-.1141764.0099436-.2280019.0199165-.3414764.0299186-.1134746.0100022-.2386475.0150032-.3755188.0150032-.5583649 0-.972313-.1251144-1.2418442-.3753433-.2695313-.2502289-.4042969-.7007929-.4042969-1.3516922v-7.00167083h2.3631363v-1.6171875h-2.3631363v-3.14839173h-2.0214844v3.14839173h-1.7733612v1.6171875h1.7733612v7.17100523c0 1.1278432.2700577 1.9450938.8101731 2.4517517.5401153.5066579 1.3736852.7599869 2.5007095.7599869z"/><path d="m95.5631678 16.6249542h1.9541016v-6.93077848c0-.68108114.1266352-1.27366384.3799057-1.77774811.2532704-.50408427.6094576-.89715067 1.0685615-1.17919922.4591039-.28204854.995505-.42307281 1.6092034-.42307281.930491 0 1.642339.2853241 2.135544.85597229s.739807 1.38994598.739807 2.45789337v6.99693296h1.954101v-7.37806699c0-.94827271-.172259-1.77067058-.516777-2.46719361s-.829972-1.23649215-1.456363-1.61990738c-.626391-.38341522-1.367398-.57512283-2.223019-.57512283-.875859 0-1.6171289.18158849-2.2238082.54476547-.6066793.36317699-1.0660171.87173589-1.3780136 1.52567673h-.0891418v-6.46734619h-1.9541016z"/><path d="m112.274715 16.8458786c.885687 0 1.6784-.1497103 2.37814-.449131s1.251671-.7154452 1.655792-1.2480736.606182-1.1457418.606182-1.8393402v-.0149155c0-.5614064-.110959-1.0454572-.332878-1.4521522-.221919-.4066951-.57173-.7535235-1.049435-1.0404854-.477704-.2869619-1.105938-.5228017-1.8847-.7075195l-1.856713-.44921878c-.441497-.10961405-.801925-.24303436-1.081283-.40026093-.279358-.15722656-.483846-.34194437-.613465-.55415344-.129618-.21220906-.194427-.45050557-.194427-.71488952v-.01491547c0-.34931437.097214-.65496445.291641-.91695023.194428-.26198578.468755-.46594747.822983-.61188507s.76841-.2189064 1.242546-.2189064c.728694 0 1.310046.16485977 1.744057.49457932.434011.32971954.697049.76434453.789116 1.30387496l.007545.05299378h1.882683l-.007721-.0982666c-.059545-.65382386-.277018-1.23538081-.65242-1.74467087s-.883083-.909434-1.523045-1.20043182c-.639961-.29099783-1.385471-.43649674-2.23653-.43649674-.843455 0-1.594522.14845276-2.253201.44535828-.658678.29690552-1.174461.70611572-1.547348 1.22763061-.372886.5215149-.55933 1.1191864-.55933 1.79301453v.01123047c0 .56631978.118564 1.05972926.35569 1.48022842.237127.42049917.59776.7748731 1.081898 1.0631218.484139.2882487 1.096755.5222168 1.837849.7019043l1.860222.4492187c.693364.1696269 1.179579.3872465 1.458645.6528588.279065.2656123.418598.6068255.418598 1.0236397v.0149154c0 .3568014-.107216.6680082-.321648.9336205s-.515549.471358-.903351.6172371-.849947.2188186-1.386436.2188186c-.78625 0-1.406382-.1597709-1.860398-.4793129-.454015-.3195419-.748229-.7578519-.882644-1.3149299l-.015091-.0754547h-1.968842l.007546.0679092c.0799.6864624.317524 1.2868538.712871 1.8011742.395348.5143203.929877.9144058 1.603588 1.2002563.673712.2858505 1.464816.4287758 2.373314.4287758z"/><path d="m127.739766 16.8458786c.531458 0 1.029313-.084287 1.493564-.252861.464252-.168574.881709-.4089178 1.252373-.7210312.370664-.3121135.673214-.6815491.90765-1.1083069h.088967v1.8612747h1.954101v-8.14454649c0-.79829915-.181588-1.48870976-.544765-2.07123184-.363177-.58252207-.882265-1.032238-1.557263-1.34914779s-1.483942-.47536469-2.426834-.47536469c-.896332 0-1.678896.14801407-2.347694.44404221-.668798.29602813-1.199584.69810231-1.592358 1.20622253s-.626479 1.0828921-.701115 1.72431564l-.01123.10528565h1.908829l.018776-.07913971c.127044-.50689189.421405-.91215388.883083-1.21578598s1.06318-.45544815 1.804508-.45544815c.845444 0 1.492132.20156352 1.940064.60469055s.671898.96646373.671898 1.69001007v3.5542679c0 .5664368-.145353 1.0754928-.436058 1.5271683-.290706.4516754-.685527.8078918-1.184464 1.0686493-.498937.2607574-1.06397.3911361-1.695099.3911361-.703776 0-1.273898-.166556-1.710365-.4996681-.436468-.3331121-.654701-.7889697-.654701-1.3675728v-.0224609c0-.5637462.214022-1.0103328.642067-1.3397599.428044-.329427 1.054669-.5178298 1.879875-.5652084l4.135795-.2544403v-1.53085326l-4.36409.2544403c-.90569.05240886-1.679159.22209426-2.320407.50905606-.641249.2869619-1.130271.6780688-1.467068 1.1733208s-.505196 1.0845884-.505196 1.7680092v.0224609c0 .7136027.167726 1.3374202.503178 1.8714524.335452.5340321.799469.9470443 1.392052 1.2390365.592582.2919922 1.273225.4379883 2.041927.4379883z"/><path d="m136.861437 16.6249542h1.954102v-10.20217893h2.502289v-1.6171875h-2.51738v-1.38222504c0-.60586039.140293-1.05835469.420879-1.35748291.280586-.29912821.716147-.44869232 1.306683-.44869232.157109 0 .310475.00374349.460098.01123047s.28433.01994578.404121.0373764v-1.5761261c-.161789-.02737426-.35063-.04916254-.566524-.06536483s-.436087-.02430344-.66058-.02430344c-.73349 0-1.344644.1228625-1.833462.36858749-.488817.245725-.85606.61989848-1.101726 1.12252045-.245667.50262197-.3685 1.13810857-.3685 1.90645981v1.40802002h-1.753357v1.6171875h1.753357z"/><path d="m147.456769 16.8055191c.194661 0 .386837-.0099729.576527-.0299187.189689-.0199457.355426-.0398623.497211-.0597496v-1.609291c-.114176.0099436-.228002.0199165-.341476.0299186-.113475.0100022-.238648.0150032-.375519.0150032-.558365 0-.972313-.1251144-1.241844-.3753433-.269532-.2502289-.404297-.7007929-.404297-1.3516922v-7.00167083h2.363136v-1.6171875h-2.363136v-3.14839173h-2.021485v3.14839173h-1.773361v1.6171875h1.773361v7.17100523c0 1.1278432.270058 1.9450938.810173 2.4517517.540116.5066579 1.373686.7599869 2.50071.7599869z"/><path d="m155.641158 16.8458786c.660843 0 1.268838-.0892003 1.823986-.267601s1.044872-.425471 1.469174-.7412109c.424301-.31574.77186-.6777179 1.042678-1.0859337.270818-.4082159.456121-.8409106.555909-1.2980843l.022461-.1049347h-1.931466l-.037376.1010742c-.109848.3050944-.295794.5837504-.557838.835968-.262045.2522177-.590185.4531963-.984421.6029358-.394236.1497396-.846965.2246094-1.358185.2246094-.713603 0-1.33239-.1578115-1.856361-.4734344-.523972-.315623-.928181-.7696966-1.212628-1.3622208s-.42667-1.3067118-.42667-2.1425629v-.7598114c0-.88077287.144709-1.62303667.434128-2.22679135.289418-.60375468.684269-1.05970001 1.184551-1.36783599.500282-.30813599 1.066047-.46220398 1.697292-.46220398.631129 0 1.189962.14658101 1.676499.43974304s.868285.73913447 1.145244 1.33791733c.27696.59878285.41544 1.35850652.41544 2.27917095v.7598114l.980911-1.41872402h-8.529892v1.53839872h9.506768v-.73349c0-1.18025205-.207735-2.21637977-.623204-3.10838315-.415468-.89200338-1.010596-1.58627446-1.785381-2.08281326s-1.699837-.7448082-2.775154-.7448082c-1.072978 0-2.007446.25949987-2.803406.7784996-.795959.51899974-1.412904 1.241347-1.850834 2.16704178-.437929.92569479-.656894 1.998614-.656894 3.21875763v.0112305c0 1.2351176.217707 2.3086509.653122 3.2206001.435414.9119492 1.059232 1.6174507 1.871452 2.1165047.81222.4990539 1.782252.7485809 2.910095.7485809z"/><path d="m162.914709 16.6249542h1.954101v-7.30559537c0-.59147136.113972-1.10175578.341915-1.53085328.227944-.42909749.547515-.75963592.958714-.99161529s.887207-.34796906 1.428024-.34796906c.232213 0 .443779.01061631.634697.03184891.190918.02123261.344635.0480512.461151.08045578v-1.89794922c-.08224-.01497396-.199955-.03181966-.353145-.05053711-.153191-.01871744-.318343-.02807617-.495457-.02807617-.710327 0-1.317328.1910642-1.821003.5731926s-.858926.90396499-1.065754 1.56550979h-.089142v-1.91777801h-1.954101z"/><path d="m4.70012665 45.8458786c.88568624 0 1.6783994-.1497103 2.37813949-.449131.6997401-.2994207 1.25167084-.7154452 1.65579224-1.2480736s.6061821-1.1457418.6061821-1.8393402v-.0149155c0-.5614064-.11095937-1.0454572-.33287811-1.4521522-.22191875-.4066951-.5717303-.7535235-1.04943467-1.0404854-.47770436-.2869619-1.10593795-.5228017-1.88470077-.7075195l-1.85671234-.4492188c-.44149781-.109614-.80192566-.2430343-1.08128357-.4002609s-.48384603-.3419444-.61346436-.5541534c-.12961832-.2122091-.19442749-.4505056-.19442749-.7148896v-.0149154c0-.3493144.09721375-.6549645.29164124-.9169503.19442749-.2619857.46875508-.4659474.82298279-.611885.3542277-.1459376.76840972-.2189064 1.24254608-.2189064.72869364 0 1.31004588.1648597 1.7440567.4945793.43401082.3297195.69704946.7643445.7891159 1.3038749l.00754548.0529938h1.8826828l-.00772095-.0982666c-.05954488-.6538238-.27701823-1.2353808-.65242004-1.7446709-.37540182-.50929-.88308335-.909434-1.52304459-1.2004318s-1.38547135-.4364967-2.23653031-.4364967c-.84345499 0-1.59452184.1484527-2.25320053.4453583-.65867869.2969055-1.17446136.7061157-1.54734802 1.2276306s-.55932998 1.1191864-.55932998 1.7930145v.0112305c0 .5663198.11856333 1.0597292.35569 1.4802284s.59775924.7748731 1.08189773 1.0631218 1.09675471.5222168 1.83784867.7019043l1.86022186.4492187c.69336446.1696269 1.17957942.3872465 1.45864487.6528588s.41859817.6068255.41859817 1.0236397v.0149154c0 .3568014-.10721588.6680082-.32164764.9336205-.21443177.2656123-.51554871.471358-.90335083.6172371-.38780213.1458791-.84994761.2188186-1.38643647.2188186-.78624979 0-1.40638224-.1597709-1.86039733-.4793129-.4540151-.3195419-.74822998-.7578519-.88264466-1.3149299l-.01509094-.0754547h-1.96884155l.00754547.0679092c.0799001.6864624.31752395 1.2868538.71287155 1.8011742.3953476.5143203.92987696.9144058 1.6035881 1.2002563.67371115.2858505 1.46481578.4287758 2.37331391.4287758z"/><path d="m16.4421945 45.8458786c.6608429 0 1.2688383-.0892003 1.8239861-.267601s1.0448723-.425471 1.4691734-.7412109c.4243012-.31574.7718608-.6777179 1.0426788-1.0859337.2708181-.4082159.4561208-.8409106.5559082-1.2980843l.022461-.1049347h-1.9314652l-.0373764.1010742c-.109848.3050944-.2957941.5837504-.5578384.835968-.2620443.2522177-.5901845.4531963-.9844208.6029358-.3942362.1497396-.8469645.2246094-1.3581848.2246094-.7136027 0-1.3323898-.1578115-1.8563614-.4734344-.5239716-.315623-.9281807-.7696966-1.2126274-1.3622208s-.4266701-1.3067118-.4266701-2.1425629v-.7598114c0-.8807729.1447093-1.6230367.4341278-2.2267913.2894186-.6037547.684269-1.0597001 1.1845513-1.367836.5002823-.308136 1.0660464-.462204 1.6972923-.462204.6311289 0 1.1899617.146581 1.6764984.439743s.8682849.7391345 1.1452446 1.3379173c.2769597.5987829.4154396 1.3585066.4154396 2.279171v.7598114l.9809113-1.418724h-8.529892v1.5383987h9.5067673v-.73349c0-1.180252-.2077345-2.2163798-.6232033-3.1083831-.4154689-.8920034-1.010596-1.5862745-1.7853813-2.0828133-.7747854-.4965388-1.6998368-.7448082-2.7751541-.7448082-1.0729777 0-2.0074463.2594999-2.8034058.7784996s-1.4129041 1.241347-1.8508339 2.1670418-.6568947 1.998614-.6568947 3.2187576v.0112305c0 1.2351176.2177073 2.3086509.653122 3.2206001.4354146.9119492 1.0592321 1.6174507 1.8714523 2.1165047.8122203.4990539 1.782252.7485809 2.9100952.7485809z"/><path d="m28.592927 45.8458786c.9128265 0 1.7148984-.1697731 2.4062156-.5093193.6913173-.3395462 1.2528992-.8020426 1.6847458-1.3874893.4318467-.5854467.7100055-1.2463188.8344765-1.9826164l.0149155-.0933533-1.9240952.003685-.0224609.0824737c-.1843669.6587372-.528534 1.1829427-1.0325012 1.5726166-.5039673.3896739-1.158961.5845108-1.9649811.5845108-.6885681 0-1.2923521-.1771138-1.8113518-.5313415s-.9232381-.8600083-1.2127151-1.5173417c-.2894771-.6573333-.4342156-1.4426473-.4342156-2.3559417v-.0149155c0-.8931732.1428668-1.6672567.4286003-2.3222504.2857336-.6549937.6868426-1.1621488 1.2033272-1.5214653s1.1202393-.5389747 1.811264-.5389747c.8634593 0 1.5445989.2171809 2.0434189.6515426.49882.4343618.8205846.9459916.9652939 1.5348893l.0187759.0715942h1.9202347l-.0112304-.0826492c-.0946401-.6834208-.346536-1.3215396-.7556878-1.9143563-.4091517-.5928166-.9642995-1.0727729-1.6654434-1.4398689-.7011439-.3670959-1.5395978-.5506439-2.5153618-.5506439-1.0953216 0-2.0509643.2501411-2.8669281.7504234-.8159637.5002823-1.4491691 1.2070414-1.8996162 2.1202774s-.6756706 1.9886996-.6756706 3.2263909v.0149154c0 1.2500916.2233225 2.3354696.6699676 3.2561341.4466451.9206644 1.0792071 1.6330096 1.897686 2.1370353.8184789.5040258 1.7829247.7560387 2.8933373.7560387z"/><path d="m40.4627318 45.8458786c1.1025747 0 2.0618439-.2489128 2.8778077-.7467384.8159637-.4978257 1.4504267-1.2045848 1.9033889-2.1202774.4529623-.9156927.6794434-2.0023283.6794434-3.2599068v-.0224609c0-1.2600352-.2264811-2.3466416-.6794434-3.2598191-.4529622-.9131775-1.0886828-1.6168073-1.9071617-2.1108894s-1.7790057-.7411232-2.8815803-.7411232c-1.0952047 0-2.0526607.2470411-2.8723679.7411232s-1.456042 1.1977119-1.9090042 2.1108894-.6794434 1.9997839-.6794434 3.2598191v.0224609c0 1.2525482.2264812 2.3379262.6794434 3.256134s1.089297 1.6262245 1.9090042 2.1240502c.8197072.4978256 1.7796784.7467384 2.8799133.7467384zm.0075455-1.7294922c-.7133687 0-1.3295237-.1733996-1.848465-.5201988-.5189412-.3467992-.9200795-.8482806-1.2034149-1.5044441-.2833353-.6561636-.425003-1.4470927-.425003-2.3727875v-.0224609c0-.9281515.1416677-1.7177938.425003-2.368927.2833354-.6511333.6844737-1.1494853 1.2034149-1.4950562.5189413-.3455709 1.130066-.5183563 1.8333741-.5183563.7132517 0 1.3293775.1715278 1.8483772.5145836.5189997.3430557.9188805.8414077 1.1996422 1.4950561s.4211426 1.4445483.4211426 2.3726998v.0224609c0 .9256948-.1403809 1.7166239-.4211426 2.3727875-.2807617.6561635-.6781273 1.1576449-1.1920967 1.5044441-.5139695.3467992-1.12758.5201988-1.8408318.5201988z"/><path d="m48.1366995 45.6249542h1.9541016v-6.9686813c0-.6809642.1266352-1.2709732.3799057-1.7700272.2532704-.4990539.6107152-.8858324 1.0723343-1.1603355.461619-.2745031 1.004308-.4117546 1.628067-.4117546.9204305 0 1.60584.2563705 2.0562286.7691116s.6755829 1.2678146.6755829 2.2652207v7.2764663h1.9541016v-7.6651459c0-1.3669586-.3574448-2.437889-1.0723343-3.2127914-.7148896-.7749023-1.7259242-1.1623535-3.033104-1.1623535-.8859202 0-1.6246745.1778157-2.2162628.5334473-.5915883.3556315-1.0433807.8226318-1.3553772 1.4010009h-.0891418v-1.7135238h-1.9541016z"/><path d="m64.9965559 45.8458786c.5615234 0 1.0780957-.0886154 1.5497169-.2658463.4716212-.1772308.8920911-.4274597 1.2614098-.7506866.3693186-.3232269.6749979-.7119649.9170379-1.166214h.0889664v1.9618225h1.9541016v-16.4371948h-1.9541016v6.5571899h-.0889664c-.2323303-.4443054-.536869-.8274574-.9136161-1.149456-.3767472-.3219986-.805289-.5709699-1.2856255-.7469139s-.997523-.263916-1.5515594-.263916c-.990504 0-1.8594323.2520129-2.6067849.7560387-.7473526.5040257-1.3294067 1.2138849-1.7461624 2.1295776-.4167557.9156926-.6251335 1.9936129-.6251335 3.2337608v.0149155c0 1.2376912.2071203 2.3162549.6213608 3.2356911.4142405.9194361.9969088 1.6311671 1.7480049 2.1351928.7510961.5040258 1.6282132.7560387 2.6313515.7560387zm.4039459-1.7294922c-.7035421 0-1.3104261-.1765289-1.820652-.5295868-.510226-.3530578-.901947-.8595403-1.1751633-1.5194473-.2732162-.659907-.4098244-1.4427058-.4098244-2.3483963v-.0149155c0-.9081471.1366082-1.6890449.4098244-2.3426933.2732163-.6536484.6649373-1.1582591 1.1751633-1.5138321.5102259-.355573 1.1171099-.5333595 1.820652-.5333595.6833038 0 1.2819404.1809158 1.7959099.5427475.5139694.3618316.9157219.8708585 1.2052574 1.5270805s.4343033 1.4295743.4343033 2.3200569v.0149155c0 .8881429-.1435102 1.6621679-.4305306 2.3220749-.2870203.659907-.6887728 1.1707764-1.2052574 1.532608-.5164846.3618317-1.1163788.5427475-1.7996826.5427475z"/><path d="m83.7096205 45.8458786c.6608429 0 1.2688383-.0892003 1.8239861-.267601s1.0448723-.425471 1.4691734-.7412109c.4243012-.31574.7718608-.6777179 1.0426789-1.0859337.270818-.4082159.4561208-.8409106.5559082-1.2980843l.0224609-.1049347h-1.9314652l-.0373764.1010742c-.109848.3050944-.2957941.5837504-.5578384.835968-.2620443.2522177-.5901845.4531963-.9844208.6029358-.3942362.1497396-.8469645.2246094-1.3581848.2246094-.7136027 0-1.3323898-.1578115-1.8563614-.4734344-.5239715-.315623-.9281807-.7696966-1.2126274-1.3622208s-.4266701-1.3067118-.4266701-2.1425629v-.7598114c0-.8807729.1447093-1.6230367.4341278-2.2267913.2894186-.6037547.684269-1.0597001 1.1845513-1.367836.5002823-.308136 1.0660464-.462204 1.6972923-.462204.631129 0 1.1899618.146581 1.6764984.439743.4865367.293162.8682849.7391345 1.1452446 1.3379173.2769598.5987829.4154396 1.3585066.4154396 2.279171v.7598114l.9809113-1.418724h-8.529892v1.5383987h9.5067673v-.73349c0-1.180252-.2077344-2.2163798-.6232033-3.1083831-.4154688-.8920034-1.0105959-1.5862745-1.7853813-2.0828133s-1.6998367-.7448082-2.7751541-.7448082c-1.0729777 0-2.0074463.2594999-2.8034058.7784996s-1.4129041 1.241347-1.8508339 2.1670418-.6568947 1.998614-.6568947 3.2187576v.0112305c0 1.2351176.2177074 2.3086509.653122 3.2206001s1.0592321 1.6174507 1.8714523 2.1165047c.8122203.4990539 1.782252.7485809 2.9100952.7485809z"/><path d="m90.983171 49.5922928h1.9541015v-5.9067001h.0891419c.2397003.4443054.5460815.8274574.9191437 1.149456.3730621.3219986.801019.5709699 1.2838707.7469139.4828516.175944.9987805.263916 1.5477867.263916.9954173 0 1.8655446-.2520129 2.6103821-.7560387.7448374-.5040257 1.3256344-1.213885 1.7423894-2.1295776.416756-.9156926.625134-1.9936129.625134-3.2337608v-.0149155c0-1.2376912-.207121-2.3156408-.621361-3.2338486-.414241-.9182078-.996295-1.6299387-1.7461624-2.1351928-.7498678-.5052542-1.6275991-.7578812-2.633194-.7578812-.5564931 0-1.0717786.0886154-1.5458565.2658462-.4740778.1772309-.8945185.4274598-1.261322.7506867s-.6737404.7119649-.9208107 1.166214h-.0891419v-1.9618225h-1.9541015zm5.3674621-5.4759064c-.6834208 0-1.2820866-.1809158-1.7959976-.5427475-.5139109-.3618316-.9156634-.8714434-1.2052574-1.5288353-.289594-.6573918-.434391-1.4301592-.434391-2.3183021v-.0149155c0-.8955129.1435394-1.6713804.4306183-2.3276024.2870788-.656222.6888313-1.1652489 1.2052574-1.5270805.5164261-.3618317 1.1163495-.5427475 1.7997703-.5427475.7058818 0 1.3133215.1765289 1.8223191.5295868.5089976.3530578.9001045.8576685 1.1733207 1.5138321.2732163.6561635.4098244 1.440834.4098244 2.3540115v.0149155c0 .9006602-.1366081 1.6796862-.4098244 2.3370781-.2732162.6573918-.6643231 1.1638743-1.1733207 1.5194473s-1.1164373.5333595-1.8223191.5333595z"/><path d="m104.073715 45.6249542h1.954101v-11.8193664h-1.954101zm.980736-13.9134979c.35411 0 .653385-.1240908.897823-.3722725s.366657-.5456428.366657-.8923836c0-.3541107-.122219-.6533851-.366657-.8978233s-.543713-.3666573-.897823-.3666573c-.346741 0-.644202.1222191-.892384.3666573s-.372272.5437126-.372272.8978233c0 .3467408.12409.6442019.372272.8923836s.545643.3722725.892384.3722725z"/><path d="m113.070445 45.8458786c.885686 0 1.678399-.1497103 2.378139-.449131s1.251671-.7154452 1.655792-1.2480736c.404122-.5326284.606182-1.1457418.606182-1.8393402v-.0149155c0-.5614064-.110959-1.0454572-.332878-1.4521522-.221918-.4066951-.57173-.7535235-1.049434-1.0404854-.477705-.2869619-1.105938-.5228017-1.884701-.7075195l-1.856713-.4492188c-.441497-.109614-.801925-.2430343-1.081283-.4002609s-.483846-.3419444-.613464-.5541534c-.129619-.2122091-.194428-.4505056-.194428-.7148896v-.0149154c0-.3493144.097214-.6549645.291641-.9169503.194428-.2619857.468755-.4659474.822983-.611885s.76841-.2189064 1.242546-.2189064c.728694 0 1.310046.1648597 1.744057.4945793.434011.3297195.697049.7643445.789116 1.3038749l.007545.0529938h1.882683l-.007721-.0982666c-.059545-.6538238-.277018-1.2353808-.65242-1.7446709-.375402-.50929-.883083-.909434-1.523045-1.2004318-.639961-.2909978-1.385471-.4364967-2.23653-.4364967-.843455 0-1.594522.1484527-2.2532.4453583-.658679.2969055-1.174462.7061157-1.547348 1.2276306-.372887.5215149-.55933 1.1191864-.55933 1.7930145v.0112305c0 .5663198.118563 1.0597292.35569 1.4802284.237126.4204992.597759.7748731 1.081897 1.0631218.484139.2882487 1.096755.5222168 1.837849.7019043l1.860222.4492187c.693364.1696269 1.179579.3872465 1.458645.6528588.279065.2656123.418598.6068255.418598 1.0236397v.0149154c0 .3568014-.107216.6680082-.321648.9336205-.214431.2656123-.515548.471358-.903351.6172371-.387802.1458791-.849947.2188186-1.386436.2188186-.78625 0-1.406382-.1597709-1.860397-.4793129-.454015-.3195419-.74823-.7578519-.882645-1.3149299l-.015091-.0754547h-1.968842l.007546.0679092c.0799.6864624.317524 1.2868538.712872 1.8011742.395347.5143203.929876.9144058 1.603588 1.2002563.673711.2858505 1.464815.4287758 2.373314.4287758z"/><path d="m124.846204 45.8458786c1.102574 0 2.061844-.2489128 2.877807-.7467384.815964-.4978257 1.450427-1.2045848 1.903389-2.1202774.452963-.9156927.679444-2.0023283.679444-3.2599068v-.0224609c0-1.2600352-.226481-2.3466416-.679444-3.2598191-.452962-.9131775-1.088682-1.6168073-1.907161-2.1108894s-1.779006-.7411232-2.881581-.7411232c-1.095204 0-2.05266.2470411-2.872368.7411232-.819707.4940821-1.456041 1.1977119-1.909004 2.1108894-.452962.9131775-.679443 1.9997839-.679443 3.2598191v.0224609c0 1.2525482.226481 2.3379262.679443 3.256134.452963.9182078 1.089297 1.6262245 1.909004 2.1240502.819708.4978256 1.779679.7467384 2.879914.7467384zm.007545-1.7294922c-.713368 0-1.329523-.1733996-1.848465-.5201988-.518941-.3467992-.920079-.8482806-1.203415-1.5044441-.283335-.6561636-.425003-1.4470927-.425003-2.3727875v-.0224609c0-.9281515.141668-1.7177938.425003-2.368927.283336-.6511333.684474-1.1494853 1.203415-1.4950562.518942-.3455709 1.130066-.5183563 1.833374-.5183563.713252 0 1.329378.1715278 1.848378.5145836.518999.3430557.91888.8414077 1.199642 1.4950561.280761.6536484.421142 1.4445483.421142 2.3726998v.0224609c0 .9256948-.140381 1.7166239-.421142 2.3727875-.280762.6561635-.678128 1.1576449-1.192097 1.5044441s-1.12758.5201988-1.840832.5201988z"/><path d="m136.93708 45.8458786c.561523 0 1.078095-.0886154 1.549717-.2658463.471621-.1772308.892091-.4274597 1.261409-.7506866.369319-.3232269.674998-.7119649.917038-1.166214h.088967v1.9618225h1.954101v-16.4371948h-1.954101v6.5571899h-.088967c-.23233-.4443054-.536869-.8274574-.913616-1.149456s-.805289-.5709699-1.285625-.7469139c-.480337-.175944-.997523-.263916-1.55156-.263916-.990504 0-1.859432.2520129-2.606785.7560387-.747352.5040257-1.329406 1.2138849-1.746162 2.1295776-.416756.9156926-.625133 1.9936129-.625133 3.2337608v.0149155c0 1.2376912.20712 2.3162549.62136 3.2356911.414241.9194361.996909 1.6311671 1.748005 2.1351928.751096.5040258 1.628214.7560387 2.631352.7560387zm.403946-1.7294922c-.703542 0-1.310426-.1765289-1.820652-.5295868-.510226-.3530578-.901947-.8595403-1.175164-1.5194473-.273216-.659907-.409824-1.4427058-.409824-2.3483963v-.0149155c0-.9081471.136608-1.6890449.409824-2.3426933.273217-.6536484.664938-1.1582591 1.175164-1.5138321s1.11711-.5333595 1.820652-.5333595c.683303 0 1.28194.1809158 1.79591.5427475.513969.3618316.915721.8708585 1.205257 1.5270805.289535.656222.434303 1.4295743.434303 2.3200569v.0149155c0 .8881429-.14351 1.6621679-.43053 2.3220749-.287021.659907-.688773 1.1707764-1.205258 1.532608-.516484.3618317-1.116379.5427475-1.799682.5427475z"/><path d="m150.461059 45.8458786c.660843 0 1.268838-.0892003 1.823986-.267601s1.044872-.425471 1.469174-.7412109c.424301-.31574.77186-.6777179 1.042678-1.0859337.270819-.4082159.456121-.8409106.555909-1.2980843l.022461-.1049347h-1.931466l-.037376.1010742c-.109848.3050944-.295794.5837504-.557838.835968-.262045.2522177-.590185.4531963-.984421.6029358-.394236.1497396-.846965.2246094-1.358185.2246094-.713603 0-1.33239-.1578115-1.856361-.4734344-.523972-.315623-.928181-.7696966-1.212628-1.3622208-.284446-.5925242-.42667-1.3067118-.42667-2.1425629v-.7598114c0-.8807729.144709-1.6230367.434128-2.2267913.289418-.6037547.684269-1.0597001 1.184551-1.367836.500282-.308136 1.066047-.462204 1.697293-.462204.631128 0 1.189961.146581 1.676498.439743s.868285.7391345 1.145245 1.3379173c.276959.5987829.415439 1.3585066.415439 2.279171v.7598114l.980911-1.418724h-8.529892v1.5383987h9.506768v-.73349c0-1.180252-.207735-2.2163798-.623204-3.1083831-.415468-.8920034-1.010596-1.5862745-1.785381-2.0828133s-1.699837-.7448082-2.775154-.7448082c-1.072978 0-2.007446.2594999-2.803406.7784996-.795959.5189997-1.412904 1.241347-1.850834 2.1670418-.437929.9256948-.656894 1.998614-.656894 3.2187576v.0112305c0 1.2351176.217707 2.3086509.653122 3.2206001.435414.9119492 1.059232 1.6174507 1.871452 2.1165047.81222.4990539 1.782252.7485809 2.910095.7485809z"/></g><g fill="#4a4a4a" transform="translate(0 153.704359)"><path d="m1.83886719.69042969.10253906 2.39941406h.73144531l.10253906-2.39941406zm0 4.79199219h.93652343l-.10253906-2.39257813h-.73144531zm-1.83886719-3.23339844 2.11914062 1.12109375.36914063-.56738281-2.0234375-1.27832032zm4.60742188 0-.46484376-.72460938-2.0234375 1.27832032.36914063.56738281zm0 1.67480468-2.11914063-1.12109374-.36914063.56738281 2.0234375 1.27832031zm-4.60742188 0 .46484375.72460938 2.0234375-1.27832031-.36914063-.56738281z"/><path d="m10.6845703 10.6640625c.7018229 0 1.3318685-.1230469 1.8901367-.3691406.5582683-.2460938 1.019694-.59130862 1.3842774-1.03564456.3645833-.44433593.6015625-.96728515.7109375-1.56884765v-.01367188h-1.2441407l-.0136718.01367188c-.1002604.37825521-.2779948.70524088-.5332032.98095703-.2552083.27571614-.5696614.48763021-.9433593.63574219s-.7906901.22216797-1.2509766.22216797c-.6334635 0-1.18147785-.1640625-1.64404296-.4921875-.4625651-.328125-.81917317-.79296876-1.06982422-1.39453126-.25065104-.6015625-.37597656-1.3125-.37597656-2.1328125v-.01367187c0-.82486979.12532552-1.53808594.37597656-2.13964844.25065105-.6015625.60725912-1.06640625 1.06982422-1.39453125.46256511-.328125 1.00830076-.4921875 1.63720706-.4921875.4557291 0 .8693034.0843099 1.2407226.25292969.3714193.16861979.6870118.40673828.9467774.71435547s.4443359.67333984.5537109 1.09716797l.0068359.01367187h1.2373047l.006836-.01367187c-.0957031-.62890625-.328125-1.18375651-.6972657-1.66455078-.3691406-.48079427-.8374023-.85677084-1.4047851-1.12792969s-1.1974284-.40673828-1.8901367-.40673828c-.89322919 0-1.66455081.20963541-2.31396487.62890625-.64941406.41927083-1.15071614 1.01399739-1.50390625 1.78417969-.3531901.77018229-.52978516 1.68619791-.52978516 2.74804687v.01367187c0 1.05729167.17659506 1.97102865.52978516 2.74121094.35319011.77018229.85563151 1.36490886 1.50732422 1.78417964.65169271.4192709 1.42415365.6289063 2.3173828.6289063z"/><path d="m18.9013672 10.5615234c.360026 0 .6824544-.0478515.9672851-.1435546.2848308-.0957032.5297852-.2358399.7348633-.42041021.2050782-.18457031.366862-.40673828.4853516-.6665039h.109375v1.10058591h1.1894531v-7.3691406h-1.1894531v4.36132812c0 .32356771-.042155.61409506-.1264649.87158204s-.2107747.47623698-.3793945.65625-.3771159.31787109-.6254883.41357422c-.2483724.09570312-.5343424.14355468-.8579101.14355468-.5878906 0-1.0105795-.16178385-1.2680664-.48535156-.257487-.32356771-.3862305-.81575521-.3862305-1.4765625v-4.484375h-1.1894531v4.77148438c0 .57877604.0945638 1.07210286.2836914 1.47998046.1891276.40787761.472819.71777346.8510742.92968746.3782552.2119141.8453776.3178711 1.4013672.3178711z"/><path d="m24.4521484 10.4316406h1.1894532v-4.56640622c0-.34635417.074056-.66194662.2221679-.94677735.148112-.28483073.3509115-.51155599.6083985-.68017578.2574869-.16861979.5457356-.25292969.8647461-.25292969.3098958 0 .5799153.05924479.8100586.17773438.2301432.11848958.4078776.28597005.5332031.5024414.1253255.21647136.1879883.47054037.1879883.76220704v5.00390622h1.1894531v-4.73730466c0-.31445313.070638-.60042318.211914-.85791016.1412761-.25748698.3395183-.46370443.5947266-.61865234.2552083-.15494792.553711-.23242188.8955078-.23242188.3463542 0 .6334636.06038412.8613282.18115235.2278645.12076823.3976236.30078125.5092773.54003906.1116536.23925781.1674805.54117838.1674805.90576172v4.81933591h1.1894531v-5.09277341c0-.51497396-.0911458-.95133464-.2734375-1.30908203-.1822917-.3577474-.4477539-.63004558-.7963867-.81689454-.3486328-.18684895-.7736003-.28027343-1.2749024-.28027343-.3372396 0-.652832.05354817-.9467773.16064453-.2939453.10709635-.5525716.25748698-.7758789.45117187-.2233073.1936849-.4010417.42041016-.5332031.68017579h-.109375c-.1139323-.25520834-.2666016-.47965495-.4580079-.67333985-.1914062-.19368489-.4192708-.34521484-.6835937-.45458984s-.5628255-.1640625-.8955078-.1640625c-.4830729 0-.8943685.109375-1.2338867.328125-.3395183.21875-.5913086.52636719-.7553711.92285156h-.109375v-1.12109375h-1.1894532z"/><path d="m38.9511719 10.5615234c.360026 0 .6824544-.0478515.9672851-.1435546.2848308-.0957032.5297852-.2358399.7348633-.42041021s.366862-.40673828.4853516-.6665039h.109375v1.10058591h1.1894531v-7.3691406h-1.1894531v4.36132812c0 .32356771-.042155.61409506-.1264649.87158204s-.2107747.47623698-.3793945.65625-.3771159.31787109-.6254883.41357422c-.2483724.09570312-.5343424.14355468-.8579101.14355468-.5878907 0-1.0105795-.16178385-1.2680664-.48535156-.257487-.32356771-.3862305-.81575521-.3862305-1.4765625v-4.484375h-1.1894531v4.77148438c0 .57877604.0945638 1.07210286.2836914 1.47998046.1891276.40787761.472819.71777346.8510742.92968746.3782552.2119141.8453776.3178711 1.4013672.3178711z"/><path d="m44.5703125 10.4316406h1.1894531v-10.29492185h-1.1894531z"/><path d="m49.9160156 10.5615234c.3326823 0 .6380209-.0467122.9160156-.1401367.2779948-.0934245.5275066-.2312825.7485352-.4135742.2210287-.18229167.4090169-.40332031.5639648-.66308594h.109375v1.08691404h1.1894532v-5.04492185c0-.51041667-.1082357-.94905599-.3247071-1.31591797-.2164713-.36686198-.5332031-.64827474-.9501953-.84423828s-.9262695-.29394531-1.527832-.29394531c-.5240885 0-.9912109.08089192-1.4013672.24267578-.4101562.16178385-.7439779.38736979-1.0014648.67675781-.257487.28938802-.4181315.62776693-.4819336 1.01513672l-.006836.04101562h1.1894532l.0068359-.02050781c.0957031-.28710937.2848307-.50927734.5673828-.6665039.2825521-.15722657.6448568-.23583985 1.0869141-.23583985.5514323 0 .9650065.11962891 1.2407226.35888672.2757162.23925781.4135742.5867513.4135742 1.04248047v2.296875c0 .35091146-.0900065.66536458-.2700195.94335937-.180013.2779948-.4272461.49788412-.7416992.65966797-.3144531.16178386-.6744792.24267579-1.0800781.24267579-.4283854 0-.7838542-.10367839-1.0664063-.31103516s-.4238281-.49788412-.4238281-.87158203v-.01367188c0-.36458333.1287435-.64713541.3862305-.84765625.2574869-.20052083.6665039-.31673177 1.2270507-.34863281l2.5634766-.1640625v-.95019531l-2.7070312.1640625c-.5696615.03190104-1.0550131.13671875-1.4560547.31445312-.4010417.17773438-.7063802.4226888-.9160157.73486328-.2096354.31217448-.3144531.68701172-.3144531 1.12451172v.01367188c0 .44661458.1082357.83398437.3247071 1.16210937.2164713.328125.5104166.58105469.8818359.75878909.3714193.1777343.7895508.2666015 1.2543945.2666015z"/><path d="m58.0849609 10.4863281c.1184896 0 .2347006-.0068359.3486329-.0205078.1139322-.0136719.2278645-.0296224.3417968-.0478515v-1.0117188c-.109375.00911458-.2016601.01595052-.2768554.02050781-.0751954.00455729-.1652019.00683594-.2700196.00683594-.3828125 0-.65625-.0945638-.8203125-.28369141-.1640625-.1891276-.2460937-.50016276-.2460937-.93310546v-4.16992188h1.6132812v-.984375h-1.6132812v-1.90722656h-1.2304688v1.90722656h-1.1621094v.984375h1.1621094v4.47070312c0 .70182292.1697591 1.20540365.5092774 1.51074218.3395182.3053386.8875325.4580078 1.6440429.4580078z"/><path d="m60.4296875 10.4316406h1.1894531v-7.3691406h-1.1894531zm.6015625-8.7910156c.2278646 0 .4215495-.08089193.5810547-.24267578.1595052-.16178386.2392578-.35432943.2392578-.57763672 0-.22786458-.0797526-.42154948-.2392578-.58105469s-.3531901-.23925781-.5810547-.23925781c-.2233073 0-.4158529.0797526-.5776367.23925781-.1617839.15950521-.2426758.35319011-.2426758.58105469 0 .22330729.0808919.41585286.2426758.57763672.1617838.16178385.3543294.24267578.5776367.24267578z"/><path d="m65.7958984 10.4316406h1.203125l2.7275391-7.3691406h-1.2578125l-2.0166016 6.0703125h-.109375l-2.0166015-6.0703125h-1.2578125z"/><path d="m74.15625 10.5615234c.4329427 0 .8237305-.0558268 1.1723633-.1674804.3486328-.1116537.6505534-.2620443.9057617-.45117191.2552083-.1891276.4637044-.40104166.6254883-.63574218.1617838-.23470052.2745768-.47737631.3383789-.72802735l.0136719-.0546875h-1.1894532l-.0273437.06152344c-.0638021.14583333-.1754557.28938802-.334961.43066406-.1595052.14127604-.3623046.25748698-.6083984.34863282-.2460937.09114583-.5354818.13671874-.868164.13671874-.4466146 0-.8339844-.09912109-1.1621094-.29736328-.328125-.19824218-.5810547-.48307291-.7587891-.85449218s-.2666015-.81917318-.2666015-1.34326172v-.47167969c0-.55143229.0911458-1.01627604.2734374-1.39453125.1822917-.37825521.4295248-.66422526.7416993-.85791016.3121744-.19368489.6665039-.29052734 1.0629883-.29052734.3964843 0 .7473958.09228516 1.0527343.27685547.3053386.18457031.5445964.46370443.7177735.83740234.173177.37369792.2597656.8499349.2597656 1.42871094v.47167969l.5878906-.86816406h-5.2978516v.95019531h5.90625v-.46484375c0-.73372396-.1287434-1.37744141-.3862304-1.93115235-.257487-.55371093-.6266276-.98551432-1.1074219-1.29541015-.4807943-.30989584-1.0561523-.46484375-1.7260742-.46484375-.6653646 0-1.2464193.16178385-1.7431641.48535156s-.8806966.77246094-1.1518554 1.34667969c-.2711589.57421875-.4067383 1.24186198-.4067383 2.00292968v.00683594c0 .77018229.1355794 1.43896485.4067383 2.00634766.2711588.56738281.6585286 1.00602213 1.1621093 1.31591798.5035808.3098958 1.1062826.4648437 1.8081055.4648437z"/><path d="m82.7832031 10.4316406h1.1894531v-4.56640622c0-.36002605.0831706-.67447917.2495118-.94335938.1663411-.26888021.395345-.47851562.6870117-.62890625s.6266276-.22558594 1.0048828-.22558594c.1321615 0 .2563477.00569662.3725586.01708985s.2358398.02848307.3588867.05126953v-1.15527344c-.0592448-.00911458-.144694-.01936849-.2563476-.03076172-.1116537-.01139323-.2244467-.01708984-.338379-.01708984-.4967447 0-.9137369.10709635-1.2509765.32128906s-.5764974.51497396-.7177735.90234375h-.109375v-1.09375h-1.1894531z"/><path d="m87.9921875 10.4316406h1.1894531v-7.3691406h-1.1894531zm.6015625-8.7910156c.2278646 0 .4215495-.08089193.5810547-.24267578.1595052-.16178386.2392578-.35432943.2392578-.57763672 0-.22786458-.0797526-.42154948-.2392578-.58105469s-.3531901-.23925781-.5810547-.23925781c-.2233073 0-.4158529.0797526-.5776367.23925781-.1617839.15950521-.2426758.35319011-.2426758.58105469 0 .22330729.0808919.41585286.2426758.57763672.1617838.16178385.3543294.24267578.5776367.24267578z"/><path d="m93.8027344 10.5615234c.5605468 0 1.0629883-.0934244 1.5073242-.2802734s.7963867-.44775391 1.0561523-.78271484c.2597657-.33496094.3896485-.72119141.3896485-1.15869141v-.01367187c0-.35091146-.0751953-.65397136-.225586-.90917969-.1503906-.25520834-.3771158-.47167969-.6801757-.64941407-.3030599-.17773437-.6870118-.32128906-1.1518555-.43066406l-1.1347656-.2734375c-.2871094-.07291666-.5218099-.15722656-.7041016-.25292968-.1822917-.09570313-.3167318-.20735678-.4033203-.33496094-.0865886-.12760417-.1298828-.2734375-.1298828-.4375v-.01367188c0-.21875.0660807-.41015625.1982422-.57421875.1321614-.1640625.3121744-.29280599.540039-.38623047s.4876302-.14013672.7792969-.14013672c.4466146 0 .8089193.09114584 1.0869141.2734375.2779948.18229167.4557291.41927084.5332031.7109375h1.1689453c-.0546875-.40104166-.2039388-.74967447-.4477539-1.04589843s-.5651042-.52522787-.9638672-.68701172c-.398763-.16178386-.8556315-.24267578-1.3706055-.24267578-.5195312 0-.9866536.09342448-1.4013671.28027343-.4147136.18684896-.7416993.4420573-.9809571.765625-.2392578.32356771-.3588867.69042969-.3588867 1.10058594v.00683594c0 .35091146.070638.65511068.2119141.91259766.141276.25748698.360026.47395833.65625.64941406.2962239.17545573.6744791.31787109 1.1347656.42724609l1.1416015.2734375c.4557292.109375.7838542.25179037.984375.4272461.2005209.17545573.3007813.38850911.3007813.63916015v.01367188c0 .22330729-.0729167.42041015-.21875.59130859s-.3452148.30533854-.5981445.40332031-.5457357.14697266-.878418.14697266c-.469401 0-.8499349-.09342448-1.1416016-.28027344-.2916666-.18684896-.4876302-.43294271-.5878906-.73828125h-1.2167969c.045573.40559896.1948243.75878907.4477539 1.05957031.2529297.30078126.58903.53434248 1.0083008.70068358.4192709.1663412.9023438.2495117 1.4492188.2495117z"/><path d="m98.5195312 10.4316406h1.1894532v-10.29492185h-1.1894532zm4.6416018 0h1.49707l-3.5-4.36816404-.875.75878906zm-3.6025392-2.65234372 1.1005862-1.05957032.287109-.28027344 3.5-3.37695312h-1.442383l-3.1855466 3.21972656h-.3144532z"/><path d="m106.873047 10.5c.246094 0 .455729-.0877279.628906-.2631836s.259766-.38395182.259766-.62548828c0-.24609374-.086589-.45572916-.259766-.62890624-.173177-.17317709-.382812-.25976563-.628906-.25976563-.241537 0-.450033.08658854-.625488.25976563-.175456.17317708-.263184.3828125-.263184.62890624 0 .24153646.087728.45003258.263184.62548828.175455.1754557.383951.2631836.625488.2631836z"/></g></g><path d="m163.501953 8.636-.5 121.5" stroke="#979797" stroke-linecap="square" transform="matrix(0 -1 1 0 93.365953 232.637953)"/></g></svg>