<svg height="115" viewBox="0 0 203.536 115" width="203.536" xmlns="http://www.w3.org/2000/svg" xmlns:xlink="http://www.w3.org/1999/xlink"><linearGradient id="a" x1="50%" x2="50%" y1="0%" y2="93.026115%"><stop offset="0" stop-color="#e7e7e7"/><stop offset="1" stop-color="#006993"/></linearGradient><mask id="b" fill="#fff"><path d="m0 0h5v11h-5z" fill="#fff" fill-rule="evenodd"/></mask><g fill="none" fill-rule="evenodd"><g fill-rule="nonzero" transform="translate(68.12 8.617)"><path d="m32.1095 6.561c.456 0 .8535-.057 1.1925-.171s.618-.2715.837-.4725.3825-.4395.4905-.7155.162-.579.162-.909c0-.66-.2175-1.167-.6525-1.521s-1.0995-.531-1.9935-.531h-1.548v4.32zm6.228 6.822h-2.187c-.414 0-.714-.162-.9-.486l-2.736-4.167c-.102-.156-.2145-.267-.3375-.333s-.3045-.099-.5445-.099h-1.035v5.085h-2.421v-13.014h3.969c.882 0 1.6395.0915 2.2725.2745s1.152.4395 1.557.7695.7035.7245.8955 1.1835.288.9645.288 1.5165c0 .438-.0645.852-.1935 1.242s-.315.744-.558 1.062-.543.597-.9.837-.7635.429-1.2195.567c.156.09.3.1965.432.3195s.252.2685.36.4365z" fill="#006993"/><path d="m45.3485 7.704c0-.288-.0405-.5595-.1215-.8145s-.2025-.4785-.3645-.6705-.3675-.3435-.6165-.4545-.5385-.1665-.8685-.1665c-.642 0-1.1475.183-1.5165.549s-.6045.885-.7065 1.557zm-4.239 1.341c.036.474.12.8835.252 1.2285s.306.63.522.855.4725.393.7695.504.6255.1665.9855.1665.6705-.042.9315-.126.489-.177.684-.279.366-.195.513-.279.2895-.126.4275-.126c.186 0 .324.069.414.207l.639.81c-.246.288-.522.5295-.828.7245s-.6255.351-.9585.468-.672.1995-1.017.2475-.6795.072-1.0035.072c-.642 0-1.239-.1065-1.791-.3195s-1.032-.528-1.44-.945-.729-.933-.963-1.548-.351-1.3275-.351-2.1375c0-.63.102-1.2225.306-1.7775s.4965-1.038.8775-1.449.846-.7365 1.395-.9765 1.1685-.36 1.8585-.36c.582 0 1.119.093 1.611.279s.915.4575 1.269.8145.6315.795.8325 1.314.3015 1.1115.3015 1.7775c0 .336-.036.5625-.108.6795s-.21.1755-.414.1755z" fill="#006993"/><path d="m54.8075 6.507c-.252-.306-.5265-.522-.8235-.648s-.6165-.189-.9585-.189c-.336 0-.639.063-.909.189s-.501.3165-.693.5715-.339.579-.441.972-.153.8565-.153 1.3905c0 .54.0435.9975.1305 1.3725s.2115.681.3735.918.36.408.594.513.495.1575.783.1575c.462 0 .855-.096 1.179-.288s.63-.465.918-.819zm2.223-6.498v13.374h-1.359c-.294 0-.48-.135-.558-.405l-.189-.891c-.372.426-.7995.771-1.2825 1.035s-1.0455.396-1.6875.396c-.504 0-.966-.105-1.386-.315s-.7815-.5145-1.0845-.9135-.537-.8925-.702-1.4805-.2475-1.26-.2475-2.016c0-.684.093-1.32.279-1.908s.453-1.098.801-1.53.765-.7695 1.251-1.0125 1.032-.3645 1.638-.3645c.516 0 .957.081 1.323.243s.693.381.981.657v-4.869z" fill="#006993"/><path d="m67.1825 4.149v9.234h-1.359c-.294 0-.48-.135-.558-.405l-.153-.738c-.378.384-.795.6945-1.251.9315s-.993.3555-1.611.3555c-.504 0-.9495-.0855-1.3365-.2565s-.7125-.4125-.9765-.7245-.4635-.6825-.5985-1.1115-.2025-.9015-.2025-1.4175v-5.868h2.223v5.868c0 .564.1305 1.0005.3915 1.3095s.6525.4635 1.1745.4635c.384 0 .744-.0855 1.08-.2565s.654-.4065.954-.7065v-6.678z" fill="#006993"/><path d="m75.9935 6.102c-.066.084-.1305.15-.1935.198s-.1545.072-.2745.072c-.114 0-.225-.0345-.333-.1035s-.237-.147-.387-.234-.3285-.165-.5355-.234-.4635-.1035-.7695-.1035c-.39 0-.732.0705-1.026.2115s-.5385.3435-.7335.6075-.3405.5835-.4365.9585-.144.7995-.144 1.2735c0 .492.0525.93.1575 1.314s.2565.7065.4545.9675.438.459.72.594.6.2025.954.2025.6405-.0435.8595-.1305.4035-.183.5535-.288.2805-.201.3915-.288.2355-.1305.3735-.1305c.18 0 .315.069.405.207l.639.81c-.246.288-.513.5295-.801.7245s-.5865.351-.8955.468-.627.1995-.954.2475-.6525.072-.9765.072c-.57 0-1.107-.1065-1.611-.3195s-.945-.5235-1.323-.9315-.6765-.9075-.8955-1.4985-.3285-1.2645-.3285-2.0205c0-.678.0975-1.3065.2925-1.8855s.4815-1.08.8595-1.503.846-.7545 1.404-.9945 1.2-.36 1.926-.36c.69 0 1.2945.111 1.8135.333s.9855.54 1.3995.954z" fill="#006993"/><path d="m87.3695 13.383h-2.223v-7.569h-4.284v5.004c0 .288.0705.513.2115.675s.3345.243.5805.243c.138 0 .2535-.0165.3465-.0495s.174-.0675.243-.1035.1305-.0705.1845-.1035.108-.0495.162-.0495c.066 0 .12.0165.162.0495s.087.0825.135.1485l.666 1.08c-.324.27-.696.474-1.116.612s-.855.207-1.305.207c-.804 0-1.4205-.2265-1.8495-.6795s-.6435-1.0785-.6435-1.8765v-5.157h-.945c-.12 0-.222-.039-.306-.117s-.126-.195-.126-.351v-.882l1.485-.252.468-2.511c.03-.12.087-.213.171-.279s.192-.099.324-.099h1.152v2.907h6.507zm.387-11.961c0 .192-.039.3735-.117.5445s-.1815.3195-.3105.4455-.282.2265-.459.3015-.3645.1125-.5625.1125c-.192 0-.372-.0375-.54-.1125s-.315-.1755-.441-.3015-.2265-.2745-.3015-.4455-.1125-.3525-.1125-.5445c0-.198.0375-.3825.1125-.5535s.1755-.321.3015-.45.273-.231.441-.306.348-.1125.54-.1125c.198 0 .3855.0375.5625.1125s.33.177.459.306.2325.279.3105.45.117.3555.117.5535z" fill="#006993"/><path d="m93.7235 4.005c.684 0 1.3065.111 1.8675.333s1.041.537 1.44.945.7065.906.9225 1.494.324 1.245.324 1.971c0 .732-.108 1.392-.324 1.98s-.5235 1.089-.9225 1.503-.879.732-1.44.954-1.1835.333-1.8675.333c-.69 0-1.317-.111-1.881-.333s-1.0455-.54-1.4445-.954-.708-.915-.927-1.503-.3285-1.248-.3285-1.98c0-.726.1095-1.383.3285-1.971s.528-1.086.927-1.494.8805-.723 1.4445-.945 1.191-.333 1.881-.333zm0 7.803c.768 0 1.3365-.258 1.7055-.774s.5535-1.272.5535-2.268-.1845-1.755-.5535-2.277-.9375-.783-1.7055-.783c-.78 0-1.3575.2625-1.7325.7875s-.5625 1.2825-.5625 2.2725.1875 1.7445.5625 2.2635.9525.7785 1.7325.7785z" fill="#006993"/><path d="m102.0575 5.283c.186-.186.3825-.3585.5895-.5175s.426-.294.657-.405.4785-.198.7425-.261.552-.0945.864-.0945c.504 0 .951.0855 1.341.2565s.7155.411.9765.72.459.678.594 1.107.2025.9015.2025 1.4175v5.877h-2.223v-5.877c0-.564-.129-1.0005-.387-1.3095s-.651-.4635-1.179-.4635c-.384 0-.744.087-1.08.261s-.654.411-.954.711v6.678h-2.223v-9.234h1.359c.288 0 .477.135.567.405z" fill="#006993"/><g fill="#4a4a4a"><path d="m37.896 26.279v8.104h-1.424v-8.104zm.304-2.544c0 .1386667-.028.268-.084.388s-.1306667.2266667-.224.32-.2026667.1666667-.328.22-.2573333.08-.396.08-.268-.0266667-.388-.08-.2253333-.1266667-.316-.22-.1626667-.2-.216-.32-.08-.2493333-.08-.388.0266667-.2706667.08-.396.1253333-.2346667.216-.328.196-.1666667.316-.22.2493333-.08.388-.08.2706667.0266667.396.08.2346667.1266667.328.22.168.2026667.224.328.084.2573333.084.396z"/><path d="m41.576 27.455c.176-.1973333.3626667-.376.56-.536s.4066667-.2973333.628-.412.456-.2026667.704-.264.516-.092.804-.092c.4426667 0 .8333333.0733333 1.172.22s.6213333.3546667.848.624.3986667.5933333.516.972.176.7973333.176 1.256v5.16h-1.432v-5.16c0-.6133333-.14-1.0893333-.42-1.428s-.7053333-.508-1.276-.508c-.4213333 0-.8146667.1013333-1.18.304s-.7026667.4773333-1.012.824v5.968h-1.432v-8.104h.856c.2026667 0 .328.0986667.376.296z"/><path d="m58.896 27.719c-.0426667.0586667-.0853333.104-.128.136s-.1013333.048-.176.048c-.08 0-.168-.0333333-.264-.1s-.2146667-.14-.356-.22-.3146667-.1533333-.52-.22-.4573333-.1-.756-.1c-.4 0-.752.0706667-1.056.212s-.5586667.3453333-.764.612-.36.5893333-.464.968-.156.8026667-.156 1.272c0 .4906667.056.9266667.168 1.308s.2706667.7013333.476.96.4533333.456.744.592.6173333.204.98.204c.3466667 0 .632-.0413333.856-.124s.4093333-.1746667.556-.276.2693333-.1933333.368-.276.196-.124.292-.124c.1173333 0 .208.0453333.272.136l.4.52c-.176.2186667-.376.4053333-.6.56s-.4653333.284-.724.388-.5293333.18-.812.228-.5706667.072-.864.072c-.5066667 0-.9773333-.0933333-1.412-.28s-.812-.4573333-1.132-.812-.5706667-.7906667-.752-1.308-.272-1.1066667-.272-1.768c0-.6026667.084-1.16.252-1.672s.4133333-.9533333.736-1.324.72-.66 1.192-.868 1.0146667-.312 1.628-.312c.5706667 0 1.0733333.092 1.508.276s.82.444 1.156.78z"/><path d="m66.32 29.447c0-.3306667-.0466667-.6333333-.14-.908s-.2293333-.512-.408-.712-.396-.3546667-.652-.464-.5466667-.164-.872-.164c-.6826667 0-1.2226667.1986667-1.62.596s-.644.948-.74 1.652zm1.152 3.8c-.176.2133333-.3866667.3986667-.632.556s-.508.2866667-.788.388-.5693333.1773333-.868.228-.5946667.076-.888.076c-.56 0-1.076-.0946667-1.548-.284s-.88-.4666667-1.224-.832-.612-.8173333-.804-1.356-.288-1.1573333-.288-1.856c0-.5653333.0866667-1.0933333.26-1.584s.4226667-.916.748-1.276.7226667-.6426667 1.192-.848.9973333-.308 1.584-.308c.4853333 0 .9346667.0813333 1.348.244s.7706667.3973333 1.072.704.5373333.6853333.708 1.136.256.964.256 1.54c0 .224-.024.3733333-.072.448s-.1386667.112-.272.112h-5.416c.016.512.0866667.9573333.212 1.336s.3.6946667.524.948.4906667.4426667.8.568.656.188 1.04.188c.3573333 0 .6653333-.0413333.924-.124s.4813333-.172.668-.268.3426667-.1853333.468-.268.2333333-.124.324-.124c.1173333 0 .208.0453333.272.136z"/><path d="m70.696 27.903c.256-.5546667.5706667-.988.944-1.3s.8293333-.468 1.368-.468c.1706667 0 .3346667.0186667.492.056s.2973333.096.42.176l-.104 1.064c-.032.1333333-.112.2-.24.2-.0746667 0-.184-.016-.328-.048s-.3066667-.048-.488-.048c-.256 0-.484.0373333-.684.112s-.3786667.1853333-.536.332-.2986667.328-.424.544-.2386667.4626667-.34.74v5.12h-1.432v-8.104h.816c.1546667 0 .2613333.0293333.32.088s.0986667.16.12.304z"/><path d="m77.656 34.511c-.64 0-1.132-.1786667-1.476-.536s-.516-.872-.516-1.544v-4.96h-.976c-.0853333 0-.1573333-.0253333-.216-.076s-.088-.1293333-.088-.236v-.568l1.328-.168.328-2.504c.016-.08.052-.1453333.108-.196s.1293333-.076.22-.076h.72v2.792h2.344v1.032h-2.344v4.864c0 .3413333.0826667.5946667.248.76s.3786667.248.64.248c.1493333 0 .2786667-.02.388-.06s.204-.084.284-.132.148-.092.204-.132.1053333-.06.148-.06c.0746667 0 .1413333.0453333.2.136l.416.68c-.2453333.2293333-.5413333.4093333-.888.54s-.704.196-1.072.196z"/><path d="m85.296 30.735c-.656.0213333-1.2146667.0733333-1.676.156s-.8373333.1906667-1.128.324-.5013333.2906667-.632.472-.196.384-.196.608c0 .2133333.0346667.3973333.104.552s.164.2813333.284.38.2613333.1706667.424.216.3373333.068.524.068c.2506667 0 .48-.0253333.688-.076s.404-.124.588-.22.36-.2106667.528-.344.332-.2853333.492-.456zm-4.6-3.312c.448-.432.9306667-.7546667 1.448-.968s1.0906667-.32 1.72-.32c.4533333 0 .856.0746667 1.208.224s.648.3573333.888.624.4213333.5893333.544.968.184.7946667.184 1.248v5.184h-.632c-.1386667 0-.2453333-.0226667-.32-.068s-.1333333-.1346667-.176-.268l-.16-.768c-.2133333.1973333-.4213333.372-.624.524s-.416.28-.64.384-.4626667.184-.716.24-.5346667.084-.844.084c-.3146667 0-.6106667-.044-.888-.132s-.5186667-.22-.724-.396-.368-.3986667-.488-.668-.18-.588-.18-.956c0-.32.088-.628.264-.924s.4613333-.5586667.856-.788.9093333-.4173333 1.544-.564 1.4133333-.2306667 2.336-.252v-.632c0-.6293333-.136-1.1053333-.408-1.428s-.6693333-.484-1.192-.484c-.352 0-.6466667.044-.884.132s-.4426667.1866667-.616.296-.3226667.208-.448.296-.2493333.132-.372.132c-.096 0-.1786667-.0253333-.248-.076s-.128-.1133333-.176-.188z"/><path d="m90.36 26.279v8.104h-1.424v-8.104zm.304-2.544c0 .1386667-.028.268-.084.388s-.1306667.2266667-.224.32-.2026667.1666667-.328.22-.2573333.08-.396.08-.268-.0266667-.388-.08-.2253333-.1266667-.316-.22-.1626667-.2-.216-.32-.08-.2493333-.08-.388.0266667-.2706667.08-.396.1253333-.2346667.216-.328.196-.1666667.316-.22.2493333-.08.388-.08.2706667.0266667.396.08.2346667.1266667.328.22.168.2026667.224.328.084.2573333.084.396z"/><path d="m94.04 27.455c.176-.1973333.3626667-.376.56-.536s.4066667-.2973333.628-.412.456-.2026667.704-.264.516-.092.804-.092c.4426667 0 .8333333.0733333 1.172.22s.6213333.3546667.848.624.3986667.5933333.516.972.176.7973333.176 1.256v5.16h-1.432v-5.16c0-.6133333-.14-1.0893333-.42-1.428s-.7053333-.508-1.276-.508c-.4213333 0-.8146667.1013333-1.18.304s-.7026667.4773333-1.012.824v5.968h-1.432v-8.104h.856c.2026667 0 .328.0986667.376.296z"/><path d="m12.728 53.431c.2613333.352.548.6.86.744s.6546667.216 1.028.216c.7626667 0 1.3466667-.2693333 1.752-.808s.608-1.3413333.608-2.408c0-.992-.18-1.7213333-.54-2.188s-.8733333-.7-1.54-.7c-.464 0-.868.1066667-1.212.32s-.6626667.5146667-.956.904zm0-4.984c.3413333-.3946667.7266667-.7093333 1.156-.944s.924-.352 1.484-.352c.4746667 0 .9026667.0906667 1.284.272s.7053333.444.972.788.4706667.7613333.612 1.252.212 1.0426667.212 1.656c0 .656-.08 1.2533333-.24 1.792s-.3906667.9986667-.692 1.38-.668.6773333-1.1.888-.9173333.316-1.456.316c-.5333333 0-.9826667-.1-1.348-.3s-.684-.484-.956-.852l-.072.736c-.0426667.2026667-.1653333.304-.368.304h-.92v-11.784h1.432z"/><path d="m24.648 51.735c-.656.0213333-1.2146667.0733333-1.676.156s-.8373333.1906667-1.128.324-.5013333.2906667-.632.472-.196.384-.196.608c0 .2133333.0346667.3973333.104.552s.164.2813333.284.38.2613333.1706667.424.216.3373333.068.524.068c.2506667 0 .48-.0253333.688-.076s.404-.124.588-.22.36-.2106667.528-.344.332-.2853333.492-.456zm-4.6-3.312c.448-.432.9306667-.7546667 1.448-.968s1.0906667-.32 1.72-.32c.4533333 0 .856.0746667 1.208.224s.648.3573333.888.624.4213333.5893333.544.968.184.7946667.184 1.248v5.184h-.632c-.1386667 0-.2453333-.0226667-.32-.068s-.1333333-.1346667-.176-.268l-.16-.768c-.2133333.1973333-.4213333.372-.624.524s-.416.28-.64.384-.4626667.184-.716.24-.5346667.084-.844.084c-.3146667 0-.6106667-.044-.888-.132s-.5186667-.22-.724-.396-.368-.3986667-.488-.668-.18-.588-.18-.956c0-.32.088-.628.264-.924s.4613333-.5586667.856-.788.9093333-.4173333 1.544-.564 1.4133333-.2306667 2.336-.252v-.632c0-.6293333-.136-1.1053333-.408-1.428s-.6693333-.484-1.192-.484c-.352 0-.6466667.044-.884.132s-.4426667.1866667-.616.296-.3226667.208-.448.296-.2493333.132-.372.132c-.096 0-.1786667-.0253333-.248-.076s-.128-.1133333-.176-.188z"/><path d="m33.848 48.719c-.0426667.0586667-.0853333.104-.128.136s-.1013333.048-.176.048c-.08 0-.168-.0333333-.264-.1s-.2146667-.14-.356-.22-.3146667-.1533333-.52-.22-.4573333-.1-.756-.1c-.4 0-.752.0706667-1.056.212s-.5586667.3453333-.764.612-.36.5893333-.464.968-.156.8026667-.156 1.272c0 .4906667.056.9266667.168 1.308s.2706667.7013333.476.96.4533333.456.744.592.6173333.204.98.204c.3466667 0 .632-.0413333.856-.124s.4093333-.1746667.556-.276.2693333-.1933333.368-.276.196-.124.292-.124c.1173333 0 .208.0453333.272.136l.4.52c-.176.2186667-.376.4053333-.6.56s-.4653333.284-.724.388-.5293333.18-.812.228-.5706667.072-.864.072c-.5066667 0-.9773333-.0933333-1.412-.28s-.812-.4573333-1.132-.812-.5706667-.7906667-.752-1.308-.272-1.1066667-.272-1.768c0-.6026667.084-1.16.252-1.672s.4133333-.9533333.736-1.324.72-.66 1.192-.868 1.0146667-.312 1.628-.312c.5706667 0 1.0733333.092 1.508.276s.82.444 1.156.78z"/><path d="m38.336 55.511c-.64 0-1.132-.1786667-1.476-.536s-.516-.872-.516-1.544v-4.96h-.976c-.0853333 0-.1573333-.0253333-.216-.076s-.088-.1293333-.088-.236v-.568l1.328-.168.328-2.504c.016-.08.052-.1453333.108-.196s.1293333-.076.22-.076h.72v2.792h2.344v1.032h-2.344v4.864c0 .3413333.0826667.5946667.248.76s.3786667.248.64.248c.1493333 0 .2786667-.02.388-.06s.204-.084.284-.132.148-.092.204-.132.1053333-.06.148-.06c.0746667 0 .1413333.0453333.2.136l.416.68c-.2453333.2293333-.5413333.4093333-.888.54s-.704.196-1.072.196z"/><path d="m47.008 50.447c0-.3306667-.0466667-.6333333-.14-.908s-.2293333-.512-.408-.712-.396-.3546667-.652-.464-.5466667-.164-.872-.164c-.6826667 0-1.2226667.1986667-1.62.596s-.644.948-.74 1.652zm1.152 3.8c-.176.2133333-.3866667.3986667-.632.556s-.508.2866667-.788.388-.5693333.1773333-.868.228-.5946667.076-.888.076c-.56 0-1.076-.0946667-1.548-.284s-.88-.4666667-1.224-.832-.612-.8173333-.804-1.356-.288-1.1573333-.288-1.856c0-.5653333.0866667-1.0933333.26-1.584s.4226667-.916.748-1.276.7226667-.6426667 1.192-.848.9973333-.308 1.584-.308c.4853333 0 .9346667.0813333 1.348.244s.7706667.3973333 1.072.704.5373333.6853333.708 1.136.256.964.256 1.54c0 .224-.024.3733333-.072.448s-.1386667.112-.272.112h-5.416c.016.512.0866667.9573333.212 1.336s.3.6946667.524.948.4906667.4426667.8.568.656.188 1.04.188c.3573333 0 .6653333-.0413333.924-.124s.4813333-.172.668-.268.3426667-.1853333.468-.268.2333333-.124.324-.124c.1173333 0 .208.0453333.272.136z"/><path d="m51.384 48.903c.256-.5546667.5706667-.988.944-1.3s.8293333-.468 1.368-.468c.1706667 0 .3346667.0186667.492.056s.2973333.096.42.176l-.104 1.064c-.032.1333333-.112.2-.24.2-.0746667 0-.184-.016-.328-.048s-.3066667-.048-.488-.048c-.256 0-.484.0373333-.684.112s-.3786667.1853333-.536.332-.2986667.328-.424.544-.2386667.4626667-.34.74v5.12h-1.432v-8.104h.816c.1546667 0 .2613333.0293333.32.088s.0986667.16.12.304z"/><path d="m57.36 47.279v8.104h-1.424v-8.104zm.304-2.544c0 .1386667-.028.268-.084.388s-.1306667.2266667-.224.32-.2026667.1666667-.328.22-.2573333.08-.396.08-.268-.0266667-.388-.08-.2253333-.1266667-.316-.22-.1626667-.2-.216-.32-.08-.2493333-.08-.388.0266667-.2706667.08-.396.1253333-.2346667.216-.328.196-.1666667.316-.22.2493333-.08.388-.08.2706667.0266667.396.08.2346667.1266667.328.22.168.2026667.224.328.084.2573333.084.396z"/><path d="m64.088 51.735c-.656.0213333-1.2146667.0733333-1.676.156s-.8373333.1906667-1.128.324-.5013333.2906667-.632.472-.196.384-.196.608c0 .2133333.0346667.3973333.104.552s.164.2813333.284.38.2613333.1706667.424.216.3373333.068.524.068c.2506667 0 .48-.0253333.688-.076s.404-.124.588-.22.36-.2106667.528-.344.332-.2853333.492-.456zm-4.6-3.312c.448-.432.9306667-.7546667 1.448-.968s1.0906667-.32 1.72-.32c.4533333 0 .856.0746667 1.208.224s.648.3573333.888.624.4213333.5893333.544.968.184.7946667.184 1.248v5.184h-.632c-.1386667 0-.2453333-.0226667-.32-.068s-.1333333-.1346667-.176-.268l-.16-.768c-.2133333.1973333-.4213333.372-.624.524s-.416.28-.64.384-.4626667.184-.716.24-.5346667.084-.844.084c-.3146667 0-.6106667-.044-.888-.132s-.5186667-.22-.724-.396-.368-.3986667-.488-.668-.18-.588-.18-.956c0-.32.088-.628.264-.924s.4613333-.5586667.856-.788.9093333-.4173333 1.544-.564 1.4133333-.2306667 2.336-.252v-.632c0-.6293333-.136-1.1053333-.408-1.428s-.6693333-.484-1.192-.484c-.352 0-.6466667.044-.884.132s-.4426667.1866667-.616.296-.3226667.208-.448.296-.2493333.132-.372.132c-.096 0-.1786667-.0253333-.248-.076s-.128-.1133333-.176-.188z"/><path d="m69.12 43.599v11.784h-1.424v-11.784z"/><path d="m80.24 48.615c-.064.1173333-.1626667.176-.296.176-.08 0-.1706667-.0293333-.272-.088s-.2253333-.124-.372-.196-.3213333-.1386667-.524-.2-.4426667-.092-.72-.092c-.24 0-.456.0306667-.648.092s-.356.1453333-.492.252-.24.2306667-.312.372-.108.2946667-.108.46c0 .208.06.3813333.18.52s.2786667.2586667.476.36.4213333.1906667.672.268.508.16.772.248.5213333.1853333.772.292.4746667.24.672.4.356.356.476.588.18.5106667.18.836c0 .3733333-.0666667.7186667-.2 1.036s-.3306667.592-.592.824-.5813333.4146667-.96.548-.816.2-1.312.2c-.5653333 0-1.0773333-.092-1.536-.276s-.848-.42-1.168-.708l.336-.544c.0426667-.0693333.0933333-.1226667.152-.16s.1333333-.056.224-.056c.096 0 .1973333.0373333.304.112s.236.1573333.388.248.3373333.1733333.556.248.4906667.112.816.112c.2773333 0 .52-.036.728-.108s.3813333-.1693333.52-.292.2413333-.264.308-.424.1-.3306667.1-.512c0-.224-.06-.4093333-.18-.556s-.2786667-.272-.476-.376-.4226667-.1946667-.676-.272-.512-.1586667-.776-.244-.5226667-.1826667-.776-.292-.4786667-.2466667-.676-.412-.356-.3693333-.476-.612-.18-.5373333-.18-.884c0-.3093333.064-.6066667.192-.892s.3146667-.536.56-.752.5466667-.388.904-.516.7653333-.192 1.224-.192c.5333333 0 1.012.084 1.436.252s.7906667.3986667 1.1.692z"/><path d="m83.88 53.431c.2613333.352.5466667.6.856.744s.656.216 1.04.216c.7573333 0 1.3386667-.2693333 1.744-.808s.608-1.3066667.608-2.304c0-.528-.0466667-.9813333-.14-1.36s-.228-.6893333-.404-.932-.392-.42-.648-.532-.5466667-.168-.872-.168c-.464 0-.8706667.1066667-1.22.32s-.6706667.5146667-.964.904zm-.072-4.896c.3413333-.4213333.736-.76 1.184-1.016s.96-.384 1.536-.384c.4693333 0 .8933333.0893333 1.272.268s.7013333.4426667.968.792.472.7826667.616 1.3.216 1.112.216 1.784c0 .5973333-.08 1.1533333-.24 1.668s-.3906667.96-.692 1.336-.6693333.672-1.104.888-.924.324-1.468.324c-.496 0-.9213333-.084-1.276-.252s-.668-.4013333-.94-.7v3.584h-1.432v-10.848h.856c.2026667 0 .328.0986667.376.296z"/><path d="m96.84 50.447c0-.3306667-.0466667-.6333333-.14-.908s-.2293333-.512-.408-.712-.396-.3546667-.652-.464-.5466667-.164-.872-.164c-.6826667 0-1.2226667.1986667-1.62.596s-.644.948-.74 1.652zm1.152 3.8c-.176.2133333-.3866667.3986667-.632.556s-.508.2866667-.788.388-.5693333.1773333-.868.228-.5946667.076-.888.076c-.56 0-1.076-.0946667-1.548-.284s-.88-.4666667-1.224-.832-.612-.8173333-.804-1.356-.288-1.1573333-.288-1.856c0-.5653333.0866667-1.0933333.26-1.584s.4226667-.916.748-1.276.7226667-.6426667 1.192-.848.9973333-.308 1.584-.308c.4853333 0 .9346667.0813333 1.348.244s.7706667.3973333 1.072.704.5373333.6853333.708 1.136.256.964.256 1.54c0 .224-.024.3733333-.072.448s-.1386667.112-.272.112h-5.416c.016.512.0866667.9573333.212 1.336s.3.6946667.524.948.4906667.4426667.8.568.656.188 1.04.188c.3573333 0 .6653333-.0413333.924-.124s.4813333-.172.668-.268.3426667-.1853333.468-.268.2333333-.124.324-.124c.1173333 0 .208.0453333.272.136z"/><path d="m105.504 48.719c-.042667.0586667-.085333.104-.128.136s-.101333.048-.176.048c-.08 0-.168-.0333333-.264-.1s-.214667-.14-.356-.22-.314667-.1533333-.52-.22-.457333-.1-.756-.1c-.4 0-.752.0706667-1.056.212s-.558667.3453333-.764.612-.36.5893333-.464.968-.156.8026667-.156 1.272c0 .4906667.056.9266667.168 1.308s.270667.7013333.476.96.453333.456.744.592.617333.204.98.204c.346667 0 .632-.0413333.856-.124s.409333-.1746667.556-.276.269333-.1933333.368-.276.196-.124.292-.124c.117333 0 .208.0453333.272.136l.4.52c-.176.2186667-.376.4053333-.6.56s-.465333.284-.724.388-.529333.18-.812.228-.570667.072-.864.072c-.506667 0-.977333-.0933333-1.412-.28s-.812-.4573333-1.132-.812-.5706667-.7906667-.752-1.308-.272-1.1066667-.272-1.768c0-.6026667.084-1.16.252-1.672s.413333-.9533333.736-1.324.72-.66 1.192-.868 1.014667-.312 1.628-.312c.570667 0 1.073333.092 1.508.276s.82.444 1.156.78z"/><path d="m109.008 47.279v8.104h-1.424v-8.104zm.304-2.544c0 .1386667-.028.268-.084.388s-.130667.2266667-.224.32-.202667.1666667-.328.22-.257333.08-.396.08-.268-.0266667-.388-.08-.225333-.1266667-.316-.22-.162667-.2-.216-.32-.08-.2493333-.08-.388.026667-.2706667.08-.396.125333-.2346667.216-.328.196-.1666667.316-.22.249333-.08.388-.08.270667.0266667.396.08.234667.1266667.328.22.168.2026667.224.328.084.2573333.084.396z"/><path d="m116.768 50.447c0-.3306667-.046667-.6333333-.14-.908s-.229333-.512-.408-.712-.396-.3546667-.652-.464-.546667-.164-.872-.164c-.682667 0-1.222667.1986667-1.62.596s-.644.948-.74 1.652zm1.152 3.8c-.176.2133333-.386667.3986667-.632.556s-.508.2866667-.788.388-.569333.1773333-.868.228-.594667.076-.888.076c-.56 0-1.076-.0946667-1.548-.284s-.88-.4666667-1.224-.832-.612-.8173333-.804-1.356-.288-1.1573333-.288-1.856c0-.5653333.086667-1.0933333.26-1.584s.422667-.916.748-1.276.722667-.6426667 1.192-.848.997333-.308 1.584-.308c.485333 0 .934667.0813333 1.348.244s.770667.3973333 1.072.704.537333.6853333.708 1.136.256.964.256 1.54c0 .224-.024.3733333-.072.448s-.138667.112-.272.112h-5.416c.016.512.086667.9573333.212 1.336s.3.6946667.524.948.490667.4426667.8.568.656.188 1.04.188c.357333 0 .665333-.0413333.924-.124s.481333-.172.668-.268.342667-.1853333.468-.268.233333-.124.324-.124c.117333 0 .208.0453333.272.136z"/><path d="m124.512 48.615c-.064.1173333-.162667.176-.296.176-.08 0-.170667-.0293333-.272-.088s-.225333-.124-.372-.196-.321333-.1386667-.524-.2-.442667-.092-.72-.092c-.24 0-.456.0306667-.648.092s-.356.1453333-.492.252-.24.2306667-.312.372-.108.2946667-.108.46c0 .208.06.3813333.18.52s.278667.2586667.476.36.421333.1906667.672.268.508.16.772.248.521333.1853333.772.292.474667.24.672.4.356.356.476.588.18.5106667.18.836c0 .3733333-.066667.7186667-.2 1.036s-.330667.592-.592.824-.581333.4146667-.96.548-.816.2-1.312.2c-.565333 0-1.077333-.092-1.536-.276s-.848-.42-1.168-.708l.336-.544c.042667-.0693333.093333-.1226667.152-.16s.133333-.056.224-.056c.096 0 .197333.0373333.304.112s.236.1573333.388.248.337333.1733333.556.248.490667.112.816.112c.277333 0 .52-.036.728-.108s.381333-.1693333.52-.292.241333-.264.308-.424.1-.3306667.1-.512c0-.224-.06-.4093333-.18-.556s-.278667-.272-.476-.376-.422667-.1946667-.676-.272-.512-.1586667-.776-.244-.522667-.1826667-.776-.292-.478667-.2466667-.676-.412-.356-.3693333-.476-.612-.18-.5373333-.18-.884c0-.3093333.064-.6066667.192-.892s.314667-.536.56-.752.546667-.388.904-.516.765333-.192 1.224-.192c.533333 0 1.012.084 1.436.252s.790667.3986667 1.1.692z"/><path d="m1.24 71.351c0 1.1413333.14533333 2.2506667.436 3.328s.716 2.1013333 1.276 3.072c.08533333.1653333.10666667.292.064.38s-.104.1586667-.184.212l-.632.384c-.4-.6133333-.74-1.2213333-1.02-1.824s-.50666667-1.208-.68-1.816-.3-1.22-.38-1.836-.12-1.2493333-.12-1.9c0-.6453333.04-1.2773333.12-1.896s.20666667-1.2306667.38-1.836.4-1.2093333.68-1.812.62-1.2133333 1.02-1.832l.632.392c.08.0533333.14133333.124.184.212s.02133333.212-.064.372c-.56.9706667-.98533333 1.9946667-1.276 3.072s-.436 2.1866667-.436 3.328z"/><path d="m10.104 71.447c0-.3306667-.0466667-.6333333-.14-.908-.09333333-.2746667-.22933333-.512-.408-.712s-.396-.3546667-.652-.464-.54666667-.164-.872-.164c-.68266667 0-1.22266667.1986667-1.62.596s-.644.948-.74 1.652zm1.152 3.8c-.176.2133333-.3866667.3986667-.632.556s-.508.2866667-.788.388-.56933333.1773333-.868.228-.59466667.076-.888.076c-.56 0-1.076-.0946667-1.548-.284s-.88-.4666667-1.224-.832-.612-.8173333-.804-1.356-.288-1.1573333-.288-1.856c0-.5653333.08666667-1.0933333.26-1.584s.42266667-.916.748-1.276.72266667-.6426667 1.192-.848.99733333-.308 1.584-.308c.48533333 0 .93466667.0813333 1.348.244s.7706667.3973333 1.072.704.5373333.6853333.708 1.136.256.964.256 1.54c0 .224-.024.3733333-.072.448s-.1386667.112-.272.112h-5.416c.016.512.08666667.9573333.212 1.336s.3.6946667.524.948.49066667.4426667.8.568.656.188 1.04.188c.35733333 0 .66533333-.0413333.924-.124s.48133333-.172.668-.268.3426667-.1853333.468-.268.2333333-.124.324-.124c.1173333 0 .208.0453333.272.136z"/><path d="m15.952 72.423c.288 0 .5413333-.04.76-.12s.4026667-.192.552-.336.2613333-.316.336-.516.112-.42.112-.66c0-.496-.1506667-.8906667-.452-1.184s-.7373333-.44-1.308-.44c-.576 0-1.0146667.1466667-1.316.44s-.452.688-.452 1.184c0 .24.0386667.46.116.66s.1906667.372.34.516.3333333.256.552.336.472.12.76.12zm2.568 4.4c0-.1973333-.056-.3573333-.168-.48s-.2626667-.2186667-.452-.288-.4093333-.1186667-.66-.148-.516-.052-.796-.068-.564-.032-.852-.048-.5653333-.0426667-.832-.08c-.2986667.1386667-.5426667.3133333-.732.524s-.284.4573333-.284.74c0 .1813333.0466667.3506667.14.508s.236.2933333.428.408.4333333.2053333.724.272.6333333.1 1.028.1c.384 0 .728-.0346667 1.032-.104s.5613333-.168.772-.296.372-.28.484-.456.168-.3706667.168-.584zm1.448-8.224v.528c0 .176-.112.288-.336.336l-.92.12c.1813333.352.272.7413333.272 1.168 0 .3946667-.076.7533333-.228 1.076s-.3613333.5986667-.628.828-.5866667.4053333-.96.528-.7786667.184-1.216.184c-.3786667 0-.736-.0453333-1.072-.136-.1706667.1066667-.3013333.22-.392.34s-.136.2413333-.136.364c0 .192.0786667.3373333.236.436s.364.1693333.62.212.548.0693333.876.08.664.028 1.008.052.68.0653333 1.008.124.62.1546667.876.288.4626667.3173333.62.552.236.5386667.236.912c0 .3466667-.0866667.6826667-.26 1.008s-.4226667.6146667-.748.868-.724.456-1.196.608-1.004.228-1.596.228-1.1093333-.0586667-1.552-.176-.8106667-.2746667-1.104-.472-.5133333-.4253333-.66-.684-.22-.5293333-.22-.812c0-.4.1253333-.7386667.376-1.016s.5946667-.4986667 1.032-.664c-.24-.1066667-.4306667-.2493333-.572-.428s-.212-.42-.212-.724c0-.1173333.0213333-.2386667.064-.364s.108-.2506667.196-.376.196-.244.324-.356.2773333-.2106667.448-.296c-.4-.224-.712-.5213333-.936-.892s-.336-.8013333-.336-1.292c0-.3946667.076-.7533333.228-1.076s.364-.5973333.636-.824.596-.4013333.972-.524.788-.184 1.236-.184c.352 0 .68.0386667.984.116s.5813333.1906667.832.34z"/><path d="m21.36 78.319c-.0426667-.0373333-.072-.072-.088-.104s-.024-.072-.024-.12c0-.0373333.012-.0746667.036-.112s.052-.072.084-.104c.0533333-.0586667.1213333-.136.204-.232s.1666667-.2093333.252-.34.164-.2746667.236-.432.124-.324.156-.5c-.016.0053333-.0333333.008-.052.008s-.036 0-.052 0c-.2773333 0-.5026667-.092-.676-.276s-.26-.42-.26-.708c0-.2506667.0866667-.464.26-.64s.404-.264.692-.264c.16 0 .3013333.0293333.424.088s.2253333.14.308.244.1453333.224.188.36.064.284.064.444c0 .24-.0333333.4893333-.1.748s-.1653333.5146667-.296.768-.2893333.5-.476.74-.4.4613333-.64.664z"/><path d="m28.824 76.383 1.416-11.464h3.392c.5973333 0 1.1106667.06 1.54.18s.7826667.2906667 1.06.512.4826667.4906667.616.808.2.6706667.2 1.06c0 .3413333-.0493333.6666667-.148.976s-.2466667.5946667-.444.856-.444.4933333-.74.696-.6413333.3653333-1.036.488c.688.1546667 1.2053333.4253333 1.552.812s.52.8786667.52 1.476c0 .528-.0946667 1.012-.284 1.452s-.4626667.82-.82 1.14-.7933333.568-1.308.744-1.0946667.264-1.74.264zm2.144-5.24-.504 4.056h2.256c.4213333 0 .792-.056 1.112-.168s.5866667-.272.8-.48.3733333-.4586667.48-.752.16-.624.16-.992c0-.5066667-.1706667-.9106667-.512-1.212s-.856-.452-1.544-.452zm.128-1.056h1.848c.432 0 .8093333-.0573333 1.132-.172s.592-.2746667.808-.48.3773333-.452.484-.74.16-.6053333.16-.952c0-.5493333-.1653333-.9613333-.496-1.236s-.8426667-.412-1.536-.412h-1.904z"/><path d="m40.712 68.279-.976 8.104h-1.4l.976-8.104zm.536-2.544c0 .1386667-.028.268-.084.388s-.1306667.2266667-.224.32-.1986667.1666667-.316.22-.24.08-.368.08c-.1226667 0-.2426667-.0266667-.36-.08s-.22-.1266667-.308-.22-.1586667-.2-.212-.32-.08-.2493333-.08-.388.0266667-.2693333.08-.392.1253333-.2306667.216-.324.1946667-.168.312-.224.2373333-.084.36-.084c.128 0 .2506667.0266667.368.08s.2226667.1266667.316.22.1666667.2026667.22.328.08.2573333.08.396z"/><path d="m49.08 68.439-.968 7.944h-1.408l.856-6.912h-3.096l-.816 6.656-.368 1.656c-.0906667.4-.336.6-.736.6h-.56l1.096-8.896-.792-.096c-.2133333-.0266667-.32-.1333333-.32-.32l.056-.632h1.184l.056-.448c.0586667-.496.1853333-.9493333.38-1.36s.4546667-.7626667.78-1.056.712-.5213333 1.16-.684.9573333-.244 1.528-.244c.096 0 .196.004.3.012s.208.0186667.312.032.2026667.0293333.296.048.1746667.0413333.244.068l-.136.72c-.016.064-.052.1053333-.108.124s-.1293333.028-.22.028c-.0586667 0-.1226667-.0013333-.192-.004s-.1466667-.004-.232-.004c-.4426667 0-.8266667.048-1.152.144s-.6013333.24-.828.432-.4053333.4346667-.536.728-.22.64-.268 1.04l-.048.424z"/><path d="m55.96 76.383c-.1866667 0-.3133333-.048-.38-.144s-.1-.2133333-.1-.352l.152-1.688c-.2026667.3466667-.424.6613333-.664.944s-.492.524-.756.724-.5386667.3546667-.824.464-.5746667.164-.868.164c-.6933333 0-1.2306667-.252-1.612-.756s-.572-1.236-.572-2.196c0-.4373333.0453333-.8746667.136-1.312s.22-.856.388-1.256.3706667-.772.608-1.116.5013333-.6413333.792-.892.6066667-.448.948-.592.6986667-.216 1.072-.216c.3946667 0 .756.0773333 1.084.232s.6066667.376.836.664l.552-4.456h1.4l-1.456 11.784zm-2.904-1.032c.256 0 .5133333-.0786667.772-.236s.5093333-.376.752-.656.4693333-.6133333.68-1 .3933333-.8093333.548-1.268l.264-2.144c-.2026667-.2826667-.4453333-.4826667-.728-.6s-.568-.176-.856-.176c-.4213333 0-.8013333.1253333-1.14.376s-.6266667.5746667-.864.972-.42.8413333-.548 1.332-.192.9733333-.192 1.448c0 .6346667.1146667 1.1186667.344 1.452s.552.5.968.5z"/><path d="m61.912 75.383c.3893333 0 .744-.1066667 1.064-.32s.592-.4973333.816-.852.3973333-.764.52-1.228.184-.9493333.184-1.456c0-.7466667-.1466667-1.3093333-.44-1.688s-.7173333-.568-1.272-.568c-.3946667 0-.7506667.1053333-1.068.316s-.588.4933333-.812.848-.3973333.764-.52 1.228-.184.9493333-.184 1.456c0 .7466667.1453333 1.3106667.436 1.692s.716.572 1.276.572zm-.128 1.112c-.4426667 0-.848-.076-1.216-.228s-.6853333-.372-.952-.66-.4746667-.64-.624-1.056-.224-.8906667-.224-1.424c0-.6826667.1066667-1.3253333.32-1.928s.5053333-1.1306667.876-1.584.808-.8106667 1.312-1.072 1.0493333-.392 1.636-.392c.4426667 0 .848.076 1.216.228s.6853333.372.952.66.4746667.6413333.624 1.06.224.892.224 1.42c0 .6773333-.1066667 1.3173333-.32 1.92s-.5053333 1.1306667-.876 1.584-.8093333.812-1.316 1.076-1.0506667.396-1.632.396z"/><path d="m67 76.383 1.424-11.784h1.4l-.704 5.728c.2026667-.3253333.4213333-.6226667.656-.892s.48-.4973333.736-.684.5226667-.332.8-.436.56-.156.848-.156c.688 0 1.224.2506667 1.608.752s.576 1.2346667.576 2.2c0 .4373333-.0453333.8746667-.136 1.312s-.22.8546667-.388 1.252-.3706667.768-.608 1.112-.5013333.6426667-.792.896-.6066667.452-.948.596-.6986667.216-1.072.216c-.432 0-.8226667-.0906667-1.172-.272s-.636-.44-.86-.776l-.104.52c-.0426667.1386667-.0973333.2426667-.164.312s-.18.104-.34.104zm4.624-7.08c-.256 0-.5146667.08-.776.24s-.5133333.3813333-.756.664-.4706667.6186667-.684 1.008-.3973333.816-.552 1.28l-.256 2.104c.2026667.288.4453333.492.728.612s.5706667.18.864.18c.2773333 0 .5386667-.0586667.784-.176s.4693333-.276.672-.476.384-.4346667.544-.704.2946667-.5573333.404-.864.1933333-.624.252-.952.088-.652.088-.972c0-.6346667-.1146667-1.1173333-.344-1.448s-.552-.496-.968-.496z"/><path d="m81.296 76.383h-.736c-.1866667 0-.3133333-.048-.38-.144s-.1-.2133333-.1-.352l.144-1.64c-.192.3413333-.3986667.6506667-.62.928s-.456.5133333-.704.708-.508.3453333-.78.452-.5546667.16-.848.16c-.32 0-.6106667-.0626667-.872-.188s-.484-.3093333-.668-.552-.3266667-.5413333-.428-.896-.152-.7613333-.152-1.22c0-.48.06-.948.18-1.404s.2906667-.8866667.512-1.292.4866667-.7773333.796-1.116.6546667-.632 1.036-.88.7906667-.44 1.228-.576.896-.204 1.376-.204c.3466667 0 .684.028 1.012.084s.652.1533333.972.292zm-3.488-1.072c.2613333 0 .5173333-.0813333.768-.244s.488-.388.712-.676.4333333-.6306667.628-1.028.3666667-.8333333.516-1.308l.344-2.784c-.1173333-.0266667-.2333333-.044-.348-.052s-.228-.012-.34-.012c-.32 0-.6293333.052-.928.156s-.5786667.2493333-.84.436-.4986667.4093333-.712.668-.396.5426667-.548.852-.2706667.6386667-.356.988-.128.708-.128 1.076c0 1.2853333.4106667 1.928 1.232 1.928z"/><path d="m89.4 74.927c-.2773333.304-.54.5573333-.788.76s-.4973333.364-.748.484-.5106667.204-.78.252-.5586667.072-.868.072c-.4693333 0-.884-.08-1.244-.24s-.6613333-.3853333-.904-.676-.4266667-.64-.552-1.048-.188-.8573333-.188-1.348c0-.656.1026667-1.2853333.308-1.888s.492-1.136.86-1.6.8053333-.8346667 1.312-1.112 1.064-.416 1.672-.416c.5333333 0 .9813333.0946667 1.344.284s.68.4653333.952.828l-.448.536c-.032.0426667-.072.0773333-.12.104s-.1013333.04-.16.04c-.0746667 0-.148-.0333333-.22-.1s-.1653333-.1413333-.28-.224-.2586667-.1573333-.432-.224-.396-.1-.668-.1c-.368 0-.716.1-1.044.3s-.6146667.4733333-.86.82-.4386667.7573333-.58 1.232-.212.984-.212 1.528c0 .3306667.0373333.6306667.112.9s.1866667.4986667.336.688.332.336.548.44.468.156.756.156c.24 0 .4533333-.0253333.64-.076s.352-.1133333.496-.188.2706667-.156.38-.244.208-.1693333.296-.244.168-.1373333.24-.188.1453333-.076.22-.076c.1066667 0 .1973333.0453333.272.136z"/><path d="m91.048 74.855c0-.032.0013333-.0733333.004-.124s.008-.124.016-.22.02-.2213333.036-.376.04-.3573333.072-.608l.504-4.056h-.904c-.0693333 0-.1266667-.02-.172-.06s-.068-.1026667-.068-.188c0-.016.0026667-.048.008-.096s.012-.1026667.02-.164.016-.124.024-.188.0146667-.1253333.02-.184l1.248-.168.6-2.504c.0213333-.08.0613333-.1453333.12-.196s.1306667-.076.216-.076h.752l-.352 2.792h2.128l-.12 1.032h-2.136l-.488 3.984c-.0266667.2186667-.0466667.3946667-.06.528s-.024.24-.032.32-.0133333.136-.016.168-.004.056-.004.072c0 .272.0626667.4733333.188.604s.2973333.196.516.196c.1386667 0 .2613333-.02.368-.06s.1986667-.084.276-.132.1426667-.092.196-.132.1013333-.06.144-.06.076.0106667.1.032.0493333.056.076.104l.296.68c-.256.2293333-.5506667.4093333-.884.54s-.668.196-1.004.196c-.5173333 0-.9253333-.1413333-1.224-.424s-.4533333-.6933333-.464-1.232z"/><path d="m102.304 70.015c0 .352-.072.676-.216.972s-.408.5626667-.792.8-.912.444-1.584.62-1.536.3173333-2.592.424c-.0053333.0586667-.008.116-.008.172v.172c0 .7146667.156 1.26.468 1.636s.7826667.564 1.412.564c.256 0 .484-.0266667.684-.08s.378667-.1186667.536-.196.296-.1626667.416-.256.230667-.1786667.332-.256.194667-.1426667.28-.196.170667-.08.256-.08c.096 0 .184.0453333.264.136l.352.44c-.272.2826667-.537333.524-.796.724s-.524.3666667-.796.5-.556.2306667-.852.292-.6146667.092-.956.092c-.464 0-.88-.0773333-1.248-.232s-.68-.3746667-.936-.66-.4533333-.6306667-.592-1.036-.208-.8586667-.208-1.36c0-.416.044-.8306667.132-1.244s.216-.8066667.384-1.18.3733333-.72.616-1.04.52-.596.832-.828.656-.4146667 1.032-.548.78-.2 1.212-.2c.410667 0 .765333.0586667 1.064.176s.544.2666667.736.448.334667.3813333.428.6.14.4266667.14.624zm-2.448-.824c-.336 0-.6453333.0693333-.928.208s-.5333333.3293333-.752.572-.4053333.528-.56.856-.2746667.6813333-.36 1.06c.8213333-.1013333 1.48-.2173333 1.976-.348s.877333-.272 1.144-.424.442667-.316.528-.492.128-.36.128-.552c0-.096-.021333-.196-.064-.3s-.110667-.1986667-.204-.284-.214667-.156-.364-.212-.330667-.084-.544-.084z"/><path d="m103.2 76.383.976-8.112h.712c.149333 0 .266667.0346667.352.104s.128.176.128.32c0 .0213333-.001333.052-.004.092s-.005333.0813333-.008.124-.005333.08-.008.112-.004.0506667-.004.056l-.112 1.472c.346667-.7466667.734667-1.3226667 1.164-1.728s.881333-.608 1.356-.608c.224 0 .448.048.672.144l-.256 1.368c-.250667-.1013333-.493333-.152-.728-.152-.517333 0-.978667.252-1.384.756s-.744 1.268-1.016 2.292l-.448 3.76z"/><path d="m111.384 68.279-.976 8.104h-1.4l.976-8.104zm.536-2.544c0 .1386667-.028.268-.084.388s-.130667.2266667-.224.32-.198667.1666667-.316.22-.24.08-.368.08c-.122667 0-.242667-.0266667-.36-.08s-.22-.1266667-.308-.22-.158667-.2-.212-.32-.08-.2493333-.08-.388.026667-.2693333.08-.392.125333-.2306667.216-.324.194667-.168.312-.224.237333-.084.36-.084c.128 0 .250667.0266667.368.08s.222667.1266667.316.22.166667.2026667.22.328.08.2573333.08.396z"/><path d="m114.976 68.279-.608 5.152c-.010667.1066667-.02.208-.028.304s-.012.1893333-.012.28c0 .4373333.081333.7626667.244.976s.42.32.772.32c.245333 0 .497333-.0666667.756-.2s.509333-.3226667.752-.568.468-.5413333.676-.888.389333-.7333333.544-1.16l.504-4.216h1.416l-.976 8.104h-.704c-.165333 0-.293333-.0373333-.384-.112s-.136-.1893333-.136-.344c0-.0053333.002667-.0533333.008-.144s.012-.1893333.02-.296.016-.2053333.024-.296.012-.1386667.012-.144l.056-.648c-.432.688-.914667 1.2093333-1.448 1.564s-1.082667.532-1.648.532c-.602667 0-1.070667-.2053333-1.404-.616s-.5-1-.5-1.768c0-.1066667.002667-.216.008-.328s.016-.2293333.032-.352l.608-5.152z"/><path d="m121.112 76.383.976-8.112h.712c.32 0 .48.16.48.48l-.112 1.448c.4-.672.837333-1.18 1.312-1.524s.976-.516 1.504-.516c.549333 0 .954667.188 1.216.564s.392.9133333.392 1.612c.405333-.7413333.86-1.2893333 1.364-1.644s1.033333-.532 1.588-.532c.597333 0 1.044.1946667 1.34.584s.444.9493333.444 1.68c0 .1226667-.005333.2506667-.016.384s-.024.272-.04.416l-.608 5.16h-1.4l.608-5.16c.032-.2613333.048-.4986667.048-.712 0-.4-.066667-.6946667-.2-.884s-.357333-.284-.672-.284c-.229333 0-.458667.0573333-.688.172s-.450667.2826667-.664.504-.412.496-.596.824-.348.7053333-.492 1.132l-.52 4.408h-1.408l.616-5.16c.016-.144.029333-.28.04-.408s.016-.248.016-.36c0-.3786667-.062667-.6586667-.188-.84s-.345333-.272-.66-.272c-.256 0-.502667.064-.74.192s-.461333.3133333-.672.556-.406667.5386667-.588.888-.346667.7426667-.496 1.18l-.504 4.224z"/><path d="m133.48 75.399c0-.2506667.086667-.464.26-.64s.404-.264.692-.264c.16 0 .301333.0293333.424.088s.225333.14.308.244.145333.224.188.36.064.284.064.444c0 .24-.033333.4893333-.1.748s-.165333.5146667-.296.768-.289333.5-.476.74-.4.4613333-.64.664l-.248-.232c-.069333-.064-.104-.1386667-.104-.224 0-.064.042667-.1466667.128-.248s.184-.2226667.296-.364.22-.304.324-.488.174667-.388.212-.612h-.096c-.277333 0-.502667-.092-.676-.276s-.26-.42-.26-.708z"/><path d="m17.704 87.143h-5.016l-.504 4.08h4.296l-.168 1.216h-4.272l-.608 4.944h-1.512l1.416-11.464h6.52z"/><path d="m24 97.383h-.736c-.1866667 0-.3133333-.048-.38-.144s-.1-.2133333-.1-.352l.144-1.64c-.192.3413333-.3986667.6506667-.62.928s-.456.5133333-.704.708-.508.3453333-.78.452-.5546667.16-.848.16c-.32 0-.6106667-.0626667-.872-.188s-.484-.3093333-.668-.552-.3266667-.5413333-.428-.896-.152-.7613333-.152-1.22c0-.48.06-.948.18-1.404s.2906667-.8866667.512-1.292.4866667-.7773333.796-1.116.6546667-.632 1.036-.88.7906667-.44 1.228-.576.896-.204 1.376-.204c.3466667 0 .684.028 1.012.084s.652.1533333.972.292zm-3.488-1.072c.2613333 0 .5173333-.0813333.768-.244s.488-.388.712-.676.4333333-.6306667.628-1.028.3666667-.8333333.516-1.308l.344-2.784c-.1173333-.0266667-.2333333-.044-.348-.052s-.228-.012-.34-.012c-.32 0-.6293333.052-.928.156s-.5786667.2493333-.84.436-.4986667.4093333-.712.668-.396.5426667-.548.852-.2706667.6386667-.356.988-.128.708-.128 1.076c0 1.2853333.4106667 1.928 1.232 1.928z"/><path d="m32.6 91.015c0 .352-.072.676-.216.972s-.408.5626667-.792.8-.912.444-1.584.62-1.536.3173333-2.592.424c-.0053333.0586667-.008.116-.008.172v.172c0 .7146667.156 1.26.468 1.636s.7826667.564 1.412.564c.256 0 .484-.0266667.684-.08s.3786667-.1186667.536-.196.296-.1626667.416-.256.2306667-.1786667.332-.256.1946667-.1426667.28-.196.1706667-.08.256-.08c.096 0 .184.0453333.264.136l.352.44c-.272.2826667-.5373333.524-.796.724s-.524.3666667-.796.5-.556.2306667-.852.292-.6146667.092-.956.092c-.464 0-.88-.0773333-1.248-.232s-.68-.3746667-.936-.66-.4533333-.6306667-.592-1.036-.208-.8586667-.208-1.36c0-.416.044-.8306667.132-1.244s.216-.8066667.384-1.18.3733333-.72.616-1.04.52-.596.832-.828.656-.4146667 1.032-.548.78-.2 1.212-.2c.4106667 0 .7653333.0586667 1.064.176s.544.2666667.736.448.3346667.3813333.428.6.14.4266667.14.624zm-2.448-.824c-.336 0-.6453333.0693333-.928.208s-.5333333.3293333-.752.572-.4053333.528-.56.856-.2746667.6813333-.36 1.06c.8213333-.1013333 1.48-.2173333 1.976-.348s.8773333-.272 1.144-.424.4426667-.316.528-.492.128-.36.128-.552c0-.096-.0213333-.196-.064-.3s-.1106667-.1986667-.204-.284-.2146667-.156-.364-.212-.3306667-.084-.544-.084z"/><path d="m39.48 95.927c-.2773333.304-.54.5573333-.788.76s-.4973333.364-.748.484-.5106667.204-.78.252-.5586667.072-.868.072c-.4693333 0-.884-.08-1.244-.24s-.6613333-.3853333-.904-.676-.4266667-.64-.552-1.048-.188-.8573333-.188-1.348c0-.656.1026667-1.2853333.308-1.888s.492-1.136.86-1.6.8053333-.8346667 1.312-1.112 1.064-.416 1.672-.416c.5333333 0 .9813333.0946667 1.344.284s.68.4653333.952.828l-.448.536c-.032.0426667-.072.0773333-.12.104s-.1013333.04-.16.04c-.0746667 0-.148-.0333333-.22-.1s-.1653333-.1413333-.28-.224-.2586667-.1573333-.432-.224-.396-.1-.668-.1c-.368 0-.716.1-1.044.3s-.6146667.4733333-.86.82-.4386667.7573333-.58 1.232-.212.984-.212 1.528c0 .3306667.0373333.6306667.112.9s.1866667.4986667.336.688.332.336.548.44.468.156.756.156c.24 0 .4533333-.0253333.64-.076s.352-.1133333.496-.188.2706667-.156.38-.244.208-.1693333.296-.244.168-.1373333.24-.188.1453333-.076.22-.076c.1066667 0 .1973333.0453333.272.136z"/><path d="m46.384 97.383h-.736c-.1866667 0-.3133333-.048-.38-.144s-.1-.2133333-.1-.352l.144-1.64c-.192.3413333-.3986667.6506667-.62.928s-.456.5133333-.704.708-.508.3453333-.78.452-.5546667.16-.848.16c-.32 0-.6106667-.0626667-.872-.188s-.484-.3093333-.668-.552-.3266667-.5413333-.428-.896-.152-.7613333-.152-1.22c0-.48.06-.948.18-1.404s.2906667-.8866667.512-1.292.4866667-.7773333.796-1.116.6546667-.632 1.036-.88.7906667-.44 1.228-.576.896-.204 1.376-.204c.3466667 0 .684.028 1.012.084s.652.1533333.972.292zm-3.488-1.072c.2613333 0 .5173333-.0813333.768-.244s.488-.388.712-.676.4333333-.6306667.628-1.028.3666667-.8333333.516-1.308l.344-2.784c-.1173333-.0266667-.2333333-.044-.348-.052s-.228-.012-.34-.012c-.32 0-.6293333.052-.928.156s-.5786667.2493333-.84.436-.4986667.4093333-.712.668-.396.5426667-.548.852-.2706667.6386667-.356.988-.128.708-.128 1.076c0 1.2853333.4106667 1.928 1.232 1.928z"/><path d="m48.64 97.383 1.432-11.784h1.4l-1.432 11.784z"/><path d="m54.872 89.279-.976 8.104h-1.4l.976-8.104zm.536-2.544c0 .1386667-.028.268-.084.388s-.1306667.2266667-.224.32-.1986667.1666667-.316.22-.24.08-.368.08c-.1226667 0-.2426667-.0266667-.36-.08s-.22-.1266667-.308-.22-.1586667-.2-.212-.32-.08-.2493333-.08-.388.0266667-.2693333.08-.392.1253333-.2306667.216-.324.1946667-.168.312-.224.2373333-.084.36-.084c.128 0 .2506667.0266667.368.08s.2226667.1266667.316.22.1666667.2026667.22.328.08.2573333.08.396z"/><path d="m56.264 97.383 1.424-11.784h1.4l-.704 5.728c.2026667-.3253333.4213333-.6226667.656-.892s.48-.4973333.736-.684.5226667-.332.8-.436.56-.156.848-.156c.688 0 1.224.2506667 1.608.752s.576 1.2346667.576 2.2c0 .4373333-.0453333.8746667-.136 1.312s-.22.8546667-.388 1.252-.3706667.768-.608 1.112-.5013333.6426667-.792.896-.6066667.452-.948.596-.6986667.216-1.072.216c-.432 0-.8226667-.0906667-1.172-.272s-.636-.44-.86-.776l-.104.52c-.0426667.1386667-.0973333.2426667-.164.312s-.18.104-.34.104zm4.624-7.08c-.256 0-.5146667.08-.776.24s-.5133333.3813333-.756.664-.4706667.6186667-.684 1.008-.3973333.816-.552 1.28l-.256 2.104c.2026667.288.4453333.492.728.612s.5706667.18.864.18c.2773333 0 .5386667-.0586667.784-.176s.4693333-.276.672-.476.384-.4346667.544-.704.2946667-.5573333.404-.864.1933333-.624.252-.952.088-.652.088-.972c0-.6346667-.1146667-1.1173333-.344-1.448s-.552-.496-.968-.496z"/><path d="m70.56 97.383h-.736c-.1866667 0-.3133333-.048-.38-.144s-.1-.2133333-.1-.352l.144-1.64c-.192.3413333-.3986667.6506667-.62.928s-.456.5133333-.704.708-.508.3453333-.78.452-.5546667.16-.848.16c-.32 0-.6106667-.0626667-.872-.188s-.484-.3093333-.668-.552-.3266667-.5413333-.428-.896-.152-.7613333-.152-1.22c0-.48.06-.948.18-1.404s.2906667-.8866667.512-1.292.4866667-.7773333.796-1.116.6546667-.632 1.036-.88.7906667-.44 1.228-.576.896-.204 1.376-.204c.3466667 0 .684.028 1.012.084s.652.1533333.972.292zm-3.488-1.072c.2613333 0 .5173333-.0813333.768-.244s.488-.388.712-.676.4333333-.6306667.628-1.028.3666667-.8333333.516-1.308l.344-2.784c-.1173333-.0266667-.2333333-.044-.348-.052s-.228-.012-.34-.012c-.32 0-.6293333.052-.928.156s-.5786667.2493333-.84.436-.4986667.4093333-.712.668-.396.5426667-.548.852-.2706667.6386667-.356.988-.128.708-.128 1.076c0 1.2853333.4106667 1.928 1.232 1.928z"/><path d="m78.664 95.927c-.2773333.304-.54.5573333-.788.76s-.4973333.364-.748.484-.5106667.204-.78.252-.5586667.072-.868.072c-.4693333 0-.884-.08-1.244-.24s-.6613333-.3853333-.904-.676-.4266667-.64-.552-1.048-.188-.8573333-.188-1.348c0-.656.1026667-1.2853333.308-1.888s.492-1.136.86-1.6.8053333-.8346667 1.312-1.112 1.064-.416 1.672-.416c.5333333 0 .9813333.0946667 1.344.284s.68.4653333.952.828l-.448.536c-.032.0426667-.072.0773333-.12.104s-.1013333.04-.16.04c-.0746667 0-.148-.0333333-.22-.1s-.1653333-.1413333-.28-.224-.2586667-.1573333-.432-.224-.396-.1-.668-.1c-.368 0-.716.1-1.044.3s-.6146667.4733333-.86.82-.4386667.7573333-.58 1.232-.212.984-.212 1.528c0 .3306667.0373333.6306667.112.9s.1866667.4986667.336.688.332.336.548.44.468.156.756.156c.24 0 .4533333-.0253333.64-.076s.352-.1133333.496-.188.2706667-.156.38-.244.208-.1693333.296-.244.168-.1373333.24-.188.1453333-.076.22-.076c.1066667 0 .1973333.0453333.272.136z"/><path d="m80.312 95.855c0-.032.0013333-.0733333.004-.124s.008-.124.016-.22.02-.2213333.036-.376.04-.3573333.072-.608l.504-4.056h-.904c-.0693333 0-.1266667-.02-.172-.06s-.068-.1026667-.068-.188c0-.016.0026667-.048.008-.096s.012-.1026667.02-.164.016-.124.024-.188.0146667-.1253333.02-.184l1.248-.168.6-2.504c.0213333-.08.0613333-.1453333.12-.196s.1306667-.076.216-.076h.752l-.352 2.792h2.128l-.12 1.032h-2.136l-.488 3.984c-.0266667.2186667-.0466667.3946667-.06.528s-.024.24-.032.32-.0133333.136-.016.168-.004.056-.004.072c0 .272.0626667.4733333.188.604s.2973333.196.516.196c.1386667 0 .2613333-.02.368-.06s.1986667-.084.276-.132.1426667-.092.196-.132.1013333-.06.144-.06.076.0106667.1.032.0493333.056.076.104l.296.68c-.256.2293333-.5506667.4093333-.884.54s-.668.196-1.004.196c-.5173333 0-.9253333-.1413333-1.224-.424s-.4533333-.6933333-.464-1.232z"/><path d="m91.568 91.015c0 .352-.072.676-.216.972s-.408.5626667-.792.8-.912.444-1.584.62-1.536.3173333-2.592.424c-.0053333.0586667-.008.116-.008.172v.172c0 .7146667.156 1.26.468 1.636s.7826667.564 1.412.564c.256 0 .484-.0266667.684-.08s.3786667-.1186667.536-.196.296-.1626667.416-.256.2306667-.1786667.332-.256.1946667-.1426667.28-.196.1706667-.08.256-.08c.096 0 .184.0453333.264.136l.352.44c-.272.2826667-.5373333.524-.796.724s-.524.3666667-.796.5-.556.2306667-.852.292-.6146667.092-.956.092c-.464 0-.88-.0773333-1.248-.232s-.68-.3746667-.936-.66-.4533333-.6306667-.592-1.036-.208-.8586667-.208-1.36c0-.416.044-.8306667.132-1.244s.216-.8066667.384-1.18.3733333-.72.616-1.04.52-.596.832-.828.656-.4146667 1.032-.548.78-.2 1.212-.2c.4106667 0 .7653333.0586667 1.064.176s.544.2666667.736.448.3346667.3813333.428.6.14.4266667.14.624zm-2.448-.824c-.336 0-.6453333.0693333-.928.208s-.5333333.3293333-.752.572-.4053333.528-.56.856-.2746667.6813333-.36 1.06c.8213333-.1013333 1.48-.2173333 1.976-.348s.8773333-.272 1.144-.424.4426667-.316.528-.492.128-.36.128-.552c0-.096-.0213333-.196-.064-.3s-.1106667-.1986667-.204-.284-.2146667-.156-.364-.212-.3306667-.084-.544-.084z"/><path d="m92.464 97.383.976-8.112h.712c.1493333 0 .2666667.0346667.352.104s.128.176.128.32c0 .0213333-.0013333.052-.004.092s-.0053333.0813333-.008.124-.0053333.08-.008.112-.004.0506667-.004.056l-.112 1.472c.3466667-.7466667.7346667-1.3226667 1.164-1.728s.8813333-.608 1.356-.608c.224 0 .448.048.672.144l-.256 1.368c-.2506667-.1013333-.4933333-.152-.728-.152-.5173333 0-.9786667.252-1.384.756s-.744 1.268-1.016 2.292l-.448 3.76z"/><path d="m100.648 89.279-.976 8.104h-1.4l.976-8.104zm.536-2.544c0 .1386667-.028.268-.084.388s-.130667.2266667-.224.32-.198667.1666667-.316.22-.24.08-.368.08c-.122667 0-.2426667-.0266667-.36-.08s-.22-.1266667-.308-.22-.1586667-.2-.212-.32-.08-.2493333-.08-.388.0266667-.2693333.08-.392.1253333-.2306667.216-.324.1946667-.168.312-.224.237333-.084.36-.084c.128 0 .250667.0266667.368.08s.222667.1266667.316.22.166667.2026667.22.328.08.2573333.08.396z"/><path d="m104.24 89.279-.608 5.152c-.010667.1066667-.02.208-.028.304s-.012.1893333-.012.28c0 .4373333.081333.7626667.244.976s.42.32.772.32c.245333 0 .497333-.0666667.756-.2s.509333-.3226667.752-.568.468-.5413333.676-.888.389333-.7333333.544-1.16l.504-4.216h1.416l-.976 8.104h-.704c-.165333 0-.293333-.0373333-.384-.112s-.136-.1893333-.136-.344c0-.0053333.002667-.0533333.008-.144s.012-.1893333.02-.296.016-.2053333.024-.296.012-.1386667.012-.144l.056-.648c-.432.688-.914667 1.2093333-1.448 1.564s-1.082667.532-1.648.532c-.602667 0-1.070667-.2053333-1.404-.616s-.5-1-.5-1.768c0-.1066667.002667-.216.008-.328s.016-.2293333.032-.352l.608-5.152z"/><path d="m110.376 97.383.976-8.112h.712c.32 0 .48.16.48.48l-.112 1.448c.4-.672.837333-1.18 1.312-1.524s.976-.516 1.504-.516c.549333 0 .954667.188 1.216.564s.392.9133333.392 1.612c.405333-.7413333.86-1.2893333 1.364-1.644s1.033333-.532 1.588-.532c.597333 0 1.044.1946667 1.34.584s.444.9493333.444 1.68c0 .1226667-.005333.2506667-.016.384s-.024.272-.04.416l-.608 5.16h-1.4l.608-5.16c.032-.2613333.048-.4986667.048-.712 0-.4-.066667-.6946667-.2-.884s-.357333-.284-.672-.284c-.229333 0-.458667.0573333-.688.172s-.450667.2826667-.664.504-.412.496-.596.824-.348.7053333-.492 1.132l-.52 4.408h-1.408l.616-5.16c.016-.144.029333-.28.04-.408s.016-.248.016-.36c0-.3786667-.062667-.6586667-.188-.84s-.345333-.272-.66-.272c-.256 0-.502667.064-.74.192s-.461333.3133333-.672.556-.406667.5386667-.588.888-.346667.7426667-.496 1.18l-.504 4.224z"/><path d="m124.656 92.351c0-1.1413333-.145333-2.2506667-.436-3.328s-.716-2.1013333-1.276-3.072c-.042667-.08-.069333-.1506667-.08-.212s-.008-.1146667.008-.16.041333-.0853333.076-.12.073333-.0653333.116-.092l.632-.392c.4.6186667.74 1.2293333 1.02 1.832s.506667 1.2066667.68 1.812.3 1.2173333.38 1.836.12 1.2506667.12 1.896c0 .6506667-.04 1.284-.12 1.9s-.206667 1.228-.38 1.836-.4 1.2133333-.68 1.816-.62 1.2106667-1.02 1.824l-.632-.384c-.042667-.0266667-.081333-.0573333-.116-.092s-.06-.0746667-.076-.12-.018667-.1-.008-.164.037333-.136.08-.216c.56-.9706667.985333-1.9946667 1.276-3.072s.436-2.1866667.436-3.328z"/></g></g><g transform="translate(0 49)"><path d="m9 49h27v-49h-27z" fill="url(#a)"/><path d="m23.0000211 46h-23.0000211l11.4999684 10.0000212 11.5000527 9.9999788 11.5000105-9.9999788 11.4999684-10.0000212z" fill="#006993"/></g><g transform="translate(5)"><path d="m30.5409724 5.82774958c-.0820917.08322153-.1291704.19813883-.1291704.31599649v4.03896493c-.0011929.5100292-.4081287.9228921-.9116033.9237576-.503539-.0008655-.9108181-.4140285-.9116891-.9237576v-4.03896493c0-.11755318-.047053-.23277496-.1291275-.31599649l-3.3104558-3.35640307c-.1790811-.18211479-.2666307-.4160598-.2672014-.65403693.0002746-.23739862.0881203-.47133929.2669225-.65289297.1791197-.18125356.4098578-.26999913.6446378-.27058633.2347801.0005872.4655139.08905439.644934.27058633l2.7501323 2.78818005c.082096.08321718.1959268.13094135.3118472.13094135.1160105 0 .2296268-.0480243.3117228-.13094135l2.7502352-2.78818005c.1790554-.18125356.4098321-.26999913.6445735-.27058633.234823.0005872.4655997.08905439.6446594.27058633.1785447.18097083.2663475.41519422.2669053.65345407-.0005578.23741603-.0878071.47136104-.2669053.65289298zm.7525302.50130826 3.1813326-3.22604892c.3495076-.3538035.5257525-.82164134.5251662-1.28513824.0005863-.46375788-.1756586-.93190019-.5251662-1.28570369-.3490443-.35408623-.810602-.53270391-1.268105-.53216578-.4574643-.00053813-.9190177.17807955-1.2680148.53247025l-2.4385167 2.47192258-2.4385983-2.47192258c-.3492759-.3543907-.8110868-.53300838-1.2683152-.53247025-.4575072-.00053813-.9190392.17807955-1.2680577.53247025-.3492544.35349903-.5257997.82105849-.5252261 1.28483812-.0005736.46375788.1759717.93189584.5252261 1.28600382l3.1815815 3.22548346v3.85391414c.0003003 1.0040606.8027798 1.8172902 1.7933897 1.8172902.9902065 0 1.7927075-.8134863 1.7933039-1.8172902z" fill="#3f82d7"/><path d="m1.82518775 21.4710426c-.02698742.0017568-.05032414.0026264-.0705731.0026264-.46168056.0003016-.85480451-.3724336-.88882025-.8599963v-.0008697l-.00254595-.0692916c-.00025193-.4799719.35719267-.8883274.82675436-.9237118l3.79815932-.2928986c.11491076-.0087619.21973485-.0637372.29504251-.1543547.07530766-.0909015.11213808-.2069484.10368981-.3262247l-.28127574-3.9509279v-.0011931l-.00254582-.0695756c0-.4796661.35746561-.8880259.82673323-.92369l.0044867-.0006074.06269196-.0023467c.46167636 0 .85453145.371848.88852618.8603023l.33833832 4.7553853c.00844407.1195822.06127202.2286194.14867864.3069396l2.95453378 2.6503164c.2054051.1841017.309389.4408337.3099309.7032949-.0005419.2157758-.0705311.4291176-.2166261.6062753-.1773338.2127867-.4246358.3209543-.6766766.3215137-.2076569-.0005594-.41225126-.0730236-.58169979-.2250579l-2.95482781-2.6494074c-.08625554-.0774723-.20035551-.1166324-.31362367-.1078661zm7.2730998 3.0864261.28185968-.3402569-.28185968.3402569c.33045299.2963903.74074235.4425313 1.14540235.4425313.4917515.0006011.9838181-.2156948 1.3300166-.6330963.2857624-.3443822.4268498-.7712012.4262935-1.1926843.0005563-.5115587-.2073737-1.0238516-.6095088-1.383682l-2.81882372-2.5285448-.32511769-4.5700513c-.06886747-.9602673-.83741224-1.6916616-1.74956501-1.6919413-.04075418 0-.084865.0011712-.13237444.0052528-.92197897.073063-1.62451716.8711007-1.62480703 1.8193722 0 .043281.00170981.087991.00477657.1336188.00029407.0011712 0 .0023205 0 .0034917l.24953696 3.5028268-3.36791086.259577c-.92283599.0713324-1.62620598.870515-1.62620598 1.8193721 0 .0447363.00141575.0906175.00479758.1373946v-.0008697c.06911113.9602455.83740804 1.6914825 1.74981707 1.6914825.0452745 0 .08740242-.0017786.12646359-.004641h.0044867l4.39333179-.3380893z" fill="#3f82d7"/><path d="m11.95 21.00345c.025-.0069.05 0 .075-.0069h.025z" fill="#000"/><path d="m34.5020086 33.2504483-3.6949262 1.039107c-.1076491.0298842-.2012233.1062229-.2574123.2089615l-2.2612088 4.1370798c-.1624224.2971003-.4547671.4620165-.756491.4626265-.149759 0-.299518-.0405171-.4388154-.1267908-.2796771-.1737981-.4338479-.4849321-.4346669-.8066111.0002634-.1597337.0379779-.3188091.1191726-.4673351l1.8782944-3.4379072c.1175593-.2154122.0492996-.4913434-.1524958-.6169976l-3.2233844-2.0025335c-.2793891-.1737542-.433564-.4848926-.4343789-.8072211.0002634-.1590754.0379779-.3188047.1192138-.4679011.1626693-.2976268.4544831-.4625869.756495-.4631969.1494504.00061.2992299.0405214.4390582.1274402l3.8805024 2.4105258c.0974551.0604355.2114175.0768565.3204371.046314l3.6949056-1.038497.0019384-.0006056c.0740461-.0210901.1481046-.0304591.2221466-.0310647.3861246.0006056.7417862.2770589.8447149.6950696.0198615.080433.029216.1602559.029216.2388984-.0005721.4115643-.2593507.7908396-.6523153.9006389m-.2216156-2.7364263c-.1447916 0-.2934476.0199975-.4412641.0622611l.0016544-.0005661-3.5253716.9910025-3.7290643-2.3166252c-.2708947-.1690982-.5709436-.2500936-.8649427-.2500936-.5907802-.0005653-1.1680534.326994-1.4871447.9111848-.1582781.28878-.2342592.6081551-.2342592.9216412-.0005549.6299343.3063998 1.2451897.8542348 1.5862606l2.8583023 1.7759662-1.6654859 3.0480386c-.158278.2882578-.2342831.6081508-.2342831.9217291-.0005309.6293243.3064238 1.2451897.8542176 1.5856901.2714462.1690105.5712275.2494894.8649838.2494894.5910642.0005596 1.167502-.3270436 1.4870995-.9099662l2.1728491-3.9763018 3.5257996-.9915335c.77192-.2177644 1.2822823-.958674 1.2822823-1.7723898 0-.1555472-.0187533-.3128761-.0572908-.4684189-.2042647-.8224792-.8990808-1.3673685-1.662317-1.3673685" fill="#3f82d7"/></g><g fill="#c100e6" transform="translate(14 7)"><path d="m1.69122734.85697436c.07224386-.01550253.14435091-.02287753.21550017-.02287753.53252487 0 .99307953.41796653 1.09528819.99351712l1.21870479 6.86687245c.11808041.6651041-.27775578 1.3119965-.91207883 1.4483586-.61352558.1316964-1.19489716-.3180278-1.31078836-.97063956l-1.21870479-6.86672195c-.11808042-.66525461.27775577-1.31199647.91207883-1.44850913zm-.4377048 8.47492229c.17185284.96657585.94532743 1.66810335 1.83961894 1.66810335.11890137 0 .23958147-.0123418.39036318-.044852 1.01524526-.2183902 1.67966992-1.30386894 1.48154659-2.4203528l-1.2187048-6.86687246c-.17185283-.96657581-.94532742-1.66795284-1.83961894-1.66795284-.11890137 0-.23958146.01219132-.39063682.04485201-1.01497162.21823963-1.67925945 1.30386893-1.48113612 2.42035279z" mask="url(#b)" transform="translate(6)"/><path d="m15.9308057 10.397338c.1566118-.2738582.4043732-.46621967.7265735-.54918475.0878352-.02276033.17788-.03421392.2676486-.03421392.5210724 0 .9710204.37679367 1.0943487.91599327l1.5163994 6.6326544c.1468062.6425755-.2253884 1.2923463-.859293 1.4560739-.601726.1534487-1.2174007-.2503637-1.3619973-.8822199l-1.5163993-6.6322139c-.0709863-.3111557-.0238923-.6334714.1327194-.9068891zm.6398432 7.7314645c.2071584.9057144.9628722 1.5378643 1.8385997 1.5378643.1502589 0 .300794-.0189425.4779834-.0647568 1.0141094-.2622578 1.6390371-1.352698 1.3922425-2.4316845l-1.5162613-6.6326545c-.2071584-.9052738-.9628721-1.53757051-1.8381854-1.53757051-.1502588 0-.3012082.01908931-.4779834.06490366-.4915178.12672365-.9068013.44977353-1.1698924.90923855-.2632293.4588777-.3423638.9998394-.2227643 1.5224459z" transform="matrix(.81915204 .57357644 -.57357644 .81915204 11.416243 -7.54103)"/><path d="m1.07117798 23.7255764c-.19458869-.254068-.27562986-.5666108-.22260107-.9115106.08838131-.5760422.60773389-1.0107582 1.20767825-1.0107582.06006934 0 .12088767.0039177.18215539.0130589l6.88775072.9907346c.66690444.0957652 1.12918363.6998114 1.02537303 1.3775679-.0973692.6333562-.71678741 1.0931743-1.3901332.9981346l-6.88745113-.9907346c-.3231161-.0462865-.60818329-.2119893-.80277199-.4664926m7.87132991 2.2744236c1.0091948 0 1.88192281-.7295567 2.03516711-1.7289972.1658273-1.0846135-.6101307-2.0985639-1.72987707-2.2594784l-6.88775072-.9907346c-1.12513909-.1587381-2.16938682.6089796-2.33761091 1.7069422-.16627672 1.0850488.60968128 2.0985639 1.72987701 2.2599137l6.88745113.9907346c.10171341.0145099.20312722.0216197.30274345.0216197"/></g></g></svg>