<svg height="430.158" viewBox="0 0 270.762 430.158" width="270.762" xmlns="http://www.w3.org/2000/svg"><g fill="none" fill-rule="evenodd" transform="translate(.5)"><g fill-rule="nonzero"><g fill="#006993" transform="translate(89.5095)"><path d="m9.693 10.089c.132 0 .249.051.351.153l.954 1.035c-.528.654-1.1775 1.155-1.9485 1.503s-1.6965.522-2.7765.522c-.966 0-1.8345-.165-2.6055-.495s-1.4295-.789-1.9755-1.377-.9645-1.29-1.2555-2.106-.4365-1.707-.4365-2.673c0-.978.156-1.8735.468-2.6865s.7515-1.5135 1.3185-2.1015 1.2435-1.0455 2.0295-1.3725 1.656-.4905 2.61-.4905c.948 0 1.7895.156 2.5245.468s1.3605.72 1.8765 1.224l-.81 1.125c-.048.072-.1095.135-.1845.189s-.1785.081-.3105.081c-.09 0-.183-.0255-.279-.0765s-.201-.114-.315-.189-.246-.1575-.396-.2475-.324-.1725-.522-.2475-.4275-.138-.6885-.189-.5625-.0765-.9045-.0765c-.582 0-1.1145.1035-1.5975.3105s-.8985.507-1.2465.9-.618.873-.81 1.44-.288 1.2135-.288 1.9395c0 .732.1035 1.383.3105 1.953s.4875 1.05.8415 1.44.771.6885 1.251.8955.996.3105 1.548.3105c.33 0 .6285-.018.8955-.054s.513-.093.738-.171.438-.1785.639-.3015.4005-.2745.5985-.4545c.06-.054.123-.0975.189-.1305s.135-.0495.207-.0495z"/><path d="m16.398 3.78c.684 0 1.3065.111 1.8675.333s1.041.537 1.44.945.7065.906.9225 1.494.324 1.245.324 1.971c0 .732-.108 1.392-.324 1.98s-.5235 1.089-.9225 1.503-.879.732-1.44.954-1.1835.333-1.8675.333c-.69 0-1.317-.111-1.881-.333s-1.0455-.54-1.4445-.954-.708-.915-.927-1.503-.3285-1.248-.3285-1.98c0-.726.1095-1.383.3285-1.971s.528-1.086.927-1.494.8805-.723 1.4445-.945 1.191-.333 1.881-.333zm0 7.803c.768 0 1.3365-.258 1.7055-.774s.5535-1.272.5535-2.268-.1845-1.755-.5535-2.277-.9375-.783-1.7055-.783c-.78 0-1.3575.2625-1.7325.7875s-.5625 1.2825-.5625 2.2725.1875 1.7445.5625 2.2635.9525.7785 1.7325.7785z"/><path d="m30.978 3.924-3.663 9.234h-2.016l-3.663-9.234h1.836c.168 0 .3075.039.4185.117s.1845.177.2205.297l1.782 4.932c.096.288.18.57.252.846s.135.552.189.828c.06-.276.126-.552.198-.828s.159-.558.261-.846l1.818-4.932c.042-.12.117-.219.225-.297s.237-.117.387-.117z"/><path d="m38.106 7.479c0-.288-.0405-.5595-.1215-.8145s-.2025-.4785-.3645-.6705-.3675-.3435-.6165-.4545-.5385-.1665-.8685-.1665c-.642 0-1.1475.183-1.5165.549s-.6045.885-.7065 1.557zm-4.239 1.341c.036.474.12.8835.252 1.2285s.306.63.522.855.4725.393.7695.504.6255.1665.9855.1665.6705-.042.9315-.126.489-.177.684-.279.366-.195.513-.279.2895-.126.4275-.126c.186 0 .324.069.414.207l.639.81c-.246.288-.522.5295-.828.7245s-.6255.351-.9585.468-.672.1995-1.017.2475-.6795.072-1.0035.072c-.642 0-1.239-.1065-1.791-.3195s-1.032-.528-1.44-.945-.729-.933-.963-1.548-.351-1.3275-.351-2.1375c0-.63.102-1.2225.306-1.7775s.4965-1.038.8775-1.449.846-.7365 1.395-.9765 1.1685-.36 1.8585-.36c.582 0 1.119.093 1.611.279s.915.4575 1.269.8145.6315.795.8325 1.314.3015 1.1115.3015 1.7775c0 .336-.036.5625-.108.6795s-.21.1755-.414.1755z"/><path d="m43.866 5.526c.288-.552.63-.9855 1.026-1.3005s.864-.4725 1.404-.4725c.426 0 .768.093 1.026.279l-.144 1.665c-.03.108-.0735.1845-.1305.2295s-.1335.0675-.2295.0675c-.09 0-.2235-.015-.4005-.045s-.3495-.045-.5175-.045c-.246 0-.465.036-.657.108s-.3645.1755-.5175.3105-.288.2985-.405.4905-.2265.411-.3285.657v5.688h-2.223v-9.234h1.305c.228 0 .387.0405.477.1215s.15.2265.18.4365z"/><path d="m51.561 13.302c-.804 0-1.4205-.2265-1.8495-.6795s-.6435-1.0785-.6435-1.8765v-5.157h-.945c-.12 0-.222-.039-.306-.117s-.126-.195-.126-.351v-.882l1.485-.243.468-2.52c.03-.12.087-.213.171-.279s.192-.099.324-.099h1.152v2.907h2.466v1.584h-2.466v5.004c0 .288.0705.513.2115.675s.3345.243.5805.243c.138 0 .2535-.0165.3465-.0495s.174-.0675.243-.1035.1305-.0705.1845-.1035.108-.0495.162-.0495c.066 0 .12.0165.162.0495s.087.0825.135.1485l.666 1.08c-.324.27-.696.474-1.116.612s-.855.207-1.305.207z"/><path d="m70.875.144v13.014h-2.43v-5.688h-6.111v5.688h-2.43v-13.014h2.43v5.598h6.111v-5.598z"/><path d="m76.203 2.07v3.609h4.554v1.863h-4.554v3.681h5.778v1.935h-8.208v-13.014h8.208v1.926z"/></g><g fill="#4a4a4a" transform="translate(12.256 144.901)"><path d="m10.449.36v12.897h-.873c-.138 0-.2535-.024-.3465-.072s-.1845-.129-.2745-.243l-7.461-9.72c.012.15.021.297.027.441s.009.279.009.405v9.189h-1.53v-12.897h.9c.078 0 .144.0045.198.0135s.102.024.144.045.084.051.126.09.087.0885.135.1485l7.461 9.711c-.012-.156-.0225-.3075-.0315-.4545s-.0135-.2865-.0135-.4185v-9.135z"/><path d="m17.208 3.996c.666 0 1.266.111 1.8.333s.99.537 1.368.945.6675.9015.8685 1.4805.3015 1.2255.3015 1.9395c0 .72-.1005 1.368-.3015 1.944s-.4905 1.068-.8685 1.476-.834.7215-1.368.9405-1.134.3285-1.8.3285c-.672 0-1.2765-.1095-1.8135-.3285s-.9945-.5325-1.3725-.9405-.6675-.9-.8685-1.476-.3015-1.224-.3015-1.944c0-.714.1005-1.3605.3015-1.9395s.4905-1.0725.8685-1.4805.8355-.723 1.3725-.945 1.1415-.333 1.8135-.333zm0 8.136c.9 0 1.572-.3015 2.016-.9045s.666-1.4445.666-2.5245c0-1.086-.222-1.932-.666-2.538s-1.116-.909-2.016-.909c-.456 0-.8535.078-1.1925.234s-.621.381-.846.675-.393.6555-.504 1.0845-.1665.9135-.1665 1.4535c0 1.08.2235 1.9215.6705 2.5245s1.1265.9045 2.0385.9045z"/><path d="m32.022 3.996c.666 0 1.266.111 1.8.333s.99.537 1.368.945.6675.9015.8685 1.4805.3015 1.2255.3015 1.9395c0 .72-.1005 1.368-.3015 1.944s-.4905 1.068-.8685 1.476-.834.7215-1.368.9405-1.134.3285-1.8.3285c-.672 0-1.2765-.1095-1.8135-.3285s-.9945-.5325-1.3725-.9405-.6675-.9-.8685-1.476-.3015-1.224-.3015-1.944c0-.714.1005-1.3605.3015-1.9395s.4905-1.0725.8685-1.4805.8355-.723 1.3725-.945 1.1415-.333 1.8135-.333zm0 8.136c.9 0 1.572-.3015 2.016-.9045s.666-1.4445.666-2.5245c0-1.086-.222-1.932-.666-2.538s-1.116-.909-2.016-.909c-.456 0-.8535.078-1.1925.234s-.621.381-.846.675-.393.6555-.504 1.0845-.1665.9135-.1665 1.4535c0 1.08.2235 1.9215.6705 2.5245s1.1265.9045 2.0385.9045z"/><path d="m39.906 5.967c.288-.624.642-1.1115 1.062-1.4625s.933-.5265 1.539-.5265c.192 0 .3765.021.5535.063s.3345.108.4725.198l-.117 1.197c-.036.15-.126.225-.27.225-.084 0-.207-.018-.369-.054s-.345-.054-.549-.054c-.288 0-.5445.042-.7695.126s-.426.2085-.603.3735-.336.369-.477.612-.2685.5205-.3825.8325v5.76h-1.611v-9.117h.918c.174 0 .294.033.36.099s.111.18.135.342z"/><path d="m49.545 13.257v-9.117h.963c.228 0 .369.111.423.333l.117.936c.336-.414.714-.753 1.134-1.017s.906-.396 1.458-.396c.612 0 1.1085.171 1.4895.513s.6555.804.8235 1.386c.132-.33.3015-.615.5085-.855s.4395-.438.6975-.594.5325-.27.8235-.342.5865-.108.8865-.108c.48 0 .9075.0765 1.2825.2295s.693.3765.954.6705.4605.6555.5985 1.0845.207.9195.207 1.4715v5.805h-1.611v-5.805c0-.714-.156-1.2555-.468-1.6245s-.762-.5535-1.35-.5535c-.264 0-.5145.0465-.7515.1395s-.4455.2295-.6255.4095-.3225.4065-.4275.6795-.1575.5895-.1575.9495v5.805h-1.611v-5.805c0-.732-.147-1.278-.441-1.638s-.723-.54-1.287-.54c-.396 0-.762.1065-1.098.3195s-.645.5025-.927.8685v6.795z"/><path d="m66.042 4.14v9.117h-1.602v-9.117zm.342-2.862c0 .156-.0315.3015-.0945.4365s-.147.255-.252.36-.228.1875-.369.2475-.2895.09-.4455.09-.3015-.03-.4365-.09-.2535-.1425-.3555-.2475-.183-.225-.243-.36-.09-.2805-.09-.4365.03-.3045.09-.4455.141-.264.243-.369.2205-.1875.3555-.2475.2805-.09.4365-.09.3045.03.4455.09.264.1425.369.2475.189.228.252.369.0945.2895.0945.4455z"/><path d="m70.182 5.463c.198-.222.408-.423.63-.603s.4575-.3345.7065-.4635.513-.228.792-.297.5805-.1035.9045-.1035c.498 0 .9375.0825 1.3185.2475s.699.399.954.702.4485.6675.5805 1.0935.198.897.198 1.413v5.805h-1.611v-5.805c0-.69-.1575-1.2255-.4725-1.6065s-.7935-.5715-1.4355-.5715c-.474 0-.9165.114-1.3275.342s-.7905.537-1.1385.927v6.714h-1.611v-9.117h.963c.228 0 .369.111.423.333z"/><path d="m80.406 4.14v9.117h-1.602v-9.117zm.342-2.862c0 .156-.0315.3015-.0945.4365s-.147.255-.252.36-.228.1875-.369.2475-.2895.09-.4455.09-.3015-.03-.4365-.09-.2535-.1425-.3555-.2475-.183-.225-.243-.36-.09-.2805-.09-.4365.03-.3045.09-.4455.141-.264.243-.369.2205-.1875.3555-.2475.2805-.09.4365-.09.3045.03.4455.09.264.1425.369.2475.189.228.252.369.0945.2895.0945.4455z"/><path d="m83.034 13.257v-9.117h.963c.228 0 .369.111.423.333l.117.936c.336-.414.714-.753 1.134-1.017s.906-.396 1.458-.396c.612 0 1.1085.171 1.4895.513s.6555.804.8235 1.386c.132-.33.3015-.615.5085-.855s.4395-.438.6975-.594.5325-.27.8235-.342.5865-.108.8865-.108c.48 0 .9075.0765 1.2825.2295s.693.3765.954.6705.4605.6555.5985 1.0845.207.9195.207 1.4715v5.805h-1.611v-5.805c0-.714-.156-1.2555-.468-1.6245s-.762-.5535-1.35-.5535c-.264 0-.5145.0465-.7515.1395s-.4455.2295-.6255.4095-.3225.4065-.4275.6795-.1575.5895-.1575.9495v5.805h-1.611v-5.805c0-.732-.147-1.278-.441-1.638s-.723-.54-1.287-.54c-.396 0-.762.1065-1.098.3195s-.645.5025-.927.8685v6.795z"/><path d="m102.78 9.153c-.738.024-1.3665.0825-1.8855.1755s-.942.2145-1.269.3645-.564.327-.711.531-.2205.432-.2205.684c0 .24.039.447.117.621s.1845.3165.3195.4275.294.192.477.243.3795.0765.5895.0765c.282 0 .54-.0285.774-.0855s.4545-.1395.6615-.2475.405-.237.594-.387.3735-.321.5535-.513zm-5.175-3.726c.504-.486 1.047-.849 1.629-1.089s1.227-.36 1.935-.36c.51 0 .963.084 1.359.252s.729.402.999.702.474.663.612 1.089.207.894.207 1.404v5.832h-.711c-.156 0-.276-.0255-.36-.0765s-.15-.1515-.198-.3015l-.18-.864c-.24.222-.474.4185-.702.5895s-.468.315-.72.432-.5205.207-.8055.27-.6015.0945-.9495.0945c-.354 0-.687-.0495-.999-.1485s-.5835-.2475-.8145-.4455-.414-.4485-.549-.7515-.2025-.6615-.2025-1.0755c0-.36.099-.7065.297-1.0395s.519-.6285.963-.8865 1.023-.4695 1.737-.6345 1.59-.2595 2.628-.2835v-.711c0-.708-.153-1.2435-.459-1.6065s-.753-.5445-1.341-.5445c-.396 0-.7275.0495-.9945.1485s-.498.21-.693.333-.363.234-.504.333-.2805.1485-.4185.1485c-.108 0-.201-.0285-.279-.0855s-.144-.1275-.198-.2115z"/><path d="m108.441 0v13.257h-1.602v-13.257z"/><path d="m121.986 5.76c-.048.066-.096.117-.144.153s-.114.054-.198.054c-.09 0-.189-.0375-.297-.1125s-.2415-.1575-.4005-.2475-.354-.1725-.585-.2475-.5145-.1125-.8505-.1125c-.45 0-.846.0795-1.188.2385s-.6285.3885-.8595.6885-.405.663-.522 1.089-.1755.903-.1755 1.431c0 .552.063 1.0425.189 1.4715s.3045.789.5355 1.08.51.513.837.666.6945.2295 1.1025.2295c.39 0 .711-.0465.963-.1395s.4605-.1965.6255-.3105.303-.2175.414-.3105.2205-.1395.3285-.1395c.132 0 .234.051.306.153l.45.585c-.198.246-.423.456-.675.63s-.5235.3195-.8145.4365-.5955.2025-.9135.2565-.642.081-.972.081c-.57 0-1.0995-.105-1.5885-.315s-.9135-.5145-1.2735-.9135-.642-.8895-.846-1.4715-.306-1.245-.306-1.989c0-.678.0945-1.305.2835-1.881s.465-1.0725.828-1.4895.81-.7425 1.341-.9765 1.1415-.351 1.8315-.351c.642 0 1.2075.1035 1.6965.3105s.9225.4995 1.3005.8775z"/><path d="m125.892 0v13.257h-1.602v-13.257z"/><path d="m130.176 4.14v9.117h-1.602v-9.117zm.342-2.862c0 .156-.0315.3015-.0945.4365s-.147.255-.252.36-.228.1875-.369.2475-.2895.09-.4455.09-.3015-.03-.4365-.09-.2535-.1425-.3555-.2475-.183-.225-.243-.36-.09-.2805-.09-.4365.03-.3045.09-.4455.141-.264.243-.369.2205-.1875.3555-.2475.2805-.09.4365-.09.3045.03.4455.09.264.1425.369.2475.189.228.252.369.0945.2895.0945.4455z"/><path d="m134.316 5.463c.198-.222.408-.423.63-.603s.4575-.3345.7065-.4635.513-.228.792-.297.5805-.1035.9045-.1035c.498 0 .9375.0825 1.3185.2475s.699.399.954.702.4485.6675.5805 1.0935.198.897.198 1.413v5.805h-1.611v-5.805c0-.69-.1575-1.2255-.4725-1.6065s-.7935-.5715-1.4355-.5715c-.474 0-.9165.114-1.3275.342s-.7905.537-1.1385.927v6.714h-1.611v-9.117h.963c.228 0 .369.111.423.333z"/><path d="m144.54 4.14v9.117h-1.602v-9.117zm.342-2.862c0 .156-.0315.3015-.0945.4365s-.147.255-.252.36-.228.1875-.369.2475-.2895.09-.4455.09-.3015-.03-.4365-.09-.2535-.1425-.3555-.2475-.183-.225-.243-.36-.09-.2805-.09-.4365.03-.3045.09-.4455.141-.264.243-.369.2205-.1875.3555-.2475.2805-.09.4365-.09.3045.03.4455.09.264.1425.369.2475.189.228.252.369.0945.2895.0945.4455z"/><path d="m153.513 5.76c-.048.066-.096.117-.144.153s-.114.054-.198.054c-.09 0-.189-.0375-.297-.1125s-.2415-.1575-.4005-.2475-.354-.1725-.585-.2475-.5145-.1125-.8505-.1125c-.45 0-.846.0795-1.188.2385s-.6285.3885-.8595.6885-.405.663-.522 1.089-.1755.903-.1755 1.431c0 .552.063 1.0425.189 1.4715s.3045.789.5355 1.08.51.513.837.666.6945.2295 1.1025.2295c.39 0 .711-.0465.963-.1395s.4605-.1965.6255-.3105.303-.2175.414-.3105.2205-.1395.3285-.1395c.132 0 .234.051.306.153l.45.585c-.198.246-.423.456-.675.63s-.5235.3195-.8145.4365-.5955.2025-.9135.2565-.642.081-.972.081c-.57 0-1.0995-.105-1.5885-.315s-.9135-.5145-1.2735-.9135-.642-.8895-.846-1.4715-.306-1.245-.306-1.989c0-.678.0945-1.305.2835-1.881s.465-1.0725.828-1.4895.81-.7425 1.341-.9765 1.1415-.351 1.8315-.351c.642 0 1.2075.1035 1.6965.3105s.9225.4995 1.3005.8775z"/><path d="m160.704 9.153c-.738.024-1.3665.0825-1.8855.1755s-.942.2145-1.269.3645-.564.327-.711.531-.2205.432-.2205.684c0 .24.039.447.117.621s.1845.3165.3195.4275.294.192.477.243.3795.0765.5895.0765c.282 0 .54-.0285.774-.0855s.4545-.1395.6615-.2475.405-.237.594-.387.3735-.321.5535-.513zm-5.175-3.726c.504-.486 1.047-.849 1.629-1.089s1.227-.36 1.935-.36c.51 0 .963.084 1.359.252s.729.402.999.702.474.663.612 1.089.207.894.207 1.404v5.832h-.711c-.156 0-.276-.0255-.36-.0765s-.15-.1515-.198-.3015l-.18-.864c-.24.222-.474.4185-.702.5895s-.468.315-.72.432-.5205.207-.8055.27-.6015.0945-.9495.0945c-.354 0-.687-.0495-.999-.1485s-.5835-.2475-.8145-.4455-.414-.4485-.549-.7515-.2025-.6615-.2025-1.0755c0-.36.099-.7065.297-1.0395s.519-.6285.963-.8865 1.023-.4695 1.737-.6345 1.59-.2595 2.628-.2835v-.711c0-.708-.153-1.2435-.459-1.6065s-.753-.5445-1.341-.5445c-.396 0-.7275.0495-.9945.1485s-.498.21-.693.333-.363.234-.504.333-.2805.1485-.4185.1485c-.108 0-.201-.0285-.279-.0855s-.144-.1275-.198-.2115z"/><path d="m166.365 0v13.257h-1.602v-13.257z"/><path d="m179.667 7.704c0-.372-.0525-.7125-.1575-1.0215s-.258-.576-.459-.801-.4455-.399-.7335-.522-.615-.1845-.981-.1845c-.768 0-1.3755.2235-1.8225.6705s-.7245 1.0665-.8325 1.8585zm1.296 4.275c-.198.24-.435.4485-.711.6255s-.5715.3225-.8865.4365-.6405.1995-.9765.2565-.669.0855-.999.0855c-.63 0-1.2105-.1065-1.7415-.3195s-.99-.525-1.377-.936-.6885-.9195-.9045-1.5255-.324-1.302-.324-2.088c0-.636.0975-1.23.2925-1.782s.4755-1.0305.8415-1.4355.813-.723 1.341-.954 1.122-.3465 1.782-.3465c.546 0 1.0515.0915 1.5165.2745s.867.447 1.206.792.6045.771.7965 1.278.288 1.0845.288 1.7325c0 .252-.027.42-.081.504s-.156.126-.306.126h-6.093c.018.576.0975 1.077.2385 1.503s.3375.7815.5895 1.0665.552.498.9.639.738.2115 1.17.2115c.402 0 .7485-.0465 1.0395-.1395s.5415-.1935.7515-.3015.3855-.2085.5265-.3015.2625-.1395.3645-.1395c.132 0 .234.051.306.153z"/><path d="m190.881 4.14-3.717 9.117h-1.44l-3.717-9.117h1.305c.132 0 .24.033.324.099s.141.144.171.234l2.313 5.868c.072.222.135.438.189.648s.105.42.153.63c.048-.21.099-.42.153-.63s.12-.426.198-.648l2.34-5.868c.036-.096.096-.1755.18-.2385s.183-.0945.297-.0945z"/><path d="m194.049 4.14v9.117h-1.602v-9.117zm.342-2.862c0 .156-.0315.3015-.0945.4365s-.147.255-.252.36-.228.1875-.369.2475-.2895.09-.4455.09-.3015-.03-.4365-.09-.2535-.1425-.3555-.2475-.183-.225-.243-.36-.09-.2805-.09-.4365.03-.3045.09-.4455.141-.264.243-.369.2205-.1875.3555-.2475.2805-.09.4365-.09.3045.03.4455.09.264.1425.369.2475.189.228.252.369.0945.2895.0945.4455z"/><path d="m202.617 6.309c-.3-.402-.624-.6825-.972-.8415s-.738-.2385-1.17-.2385c-.846 0-1.497.303-1.953.909s-.684 1.47-.684 2.592c0 .594.051 1.1025.153 1.5255s.252.771.45 1.044.441.4725.729.5985.615.189.981.189c.528 0 .9885-.12 1.3815-.36s.7545-.579 1.0845-1.017zm1.602-6.309v13.257h-.954c-.228 0-.372-.111-.432-.333l-.144-1.107c-.39.468-.834.846-1.332 1.134s-1.074.432-1.728.432c-.522 0-.996-.1005-1.422-.3015s-.789-.4965-1.089-.8865-.531-.876-.693-1.458-.243-1.251-.243-2.007c0-.672.09-1.2975.27-1.8765s.438-1.0815.774-1.5075.7485-.7605 1.2375-1.0035 1.0395-.3645 1.6515-.3645c.558 0 1.0365.0945 1.4355.2835s.7545.4515 1.0665.7875v-5.049z"/><path d="m212.859 7.704c0-.372-.0525-.7125-.1575-1.0215s-.258-.576-.459-.801-.4455-.399-.7335-.522-.615-.1845-.981-.1845c-.768 0-1.3755.2235-1.8225.6705s-.7245 1.0665-.8325 1.8585zm1.296 4.275c-.198.24-.435.4485-.711.6255s-.5715.3225-.8865.4365-.6405.1995-.9765.2565-.669.0855-.999.0855c-.63 0-1.2105-.1065-1.7415-.3195s-.99-.525-1.377-.936-.6885-.9195-.9045-1.5255-.324-1.302-.324-2.088c0-.636.0975-1.23.2925-1.782s.4755-1.0305.8415-1.4355.813-.723 1.341-.954 1.122-.3465 1.782-.3465c.546 0 1.0515.0915 1.5165.2745s.867.447 1.206.792.6045.771.7965 1.278.288 1.0845.288 1.7325c0 .252-.027.42-.081.504s-.156.126-.306.126h-6.093c.018.576.0975 1.077.2385 1.503s.3375.7815.5895 1.0665.552.498.9.639.738.2115 1.17.2115c.402 0 .7485-.0465 1.0395-.1395s.5415-.1935.7515-.3015.3855-.2085.5265-.3015.2625-.1395.3645-.1395c.132 0 .234.051.306.153z"/><path d="m217.773 5.463c.198-.222.408-.423.63-.603s.4575-.3345.7065-.4635.513-.228.792-.297.5805-.1035.9045-.1035c.498 0 .9375.0825 1.3185.2475s.699.399.954.702.4485.6675.5805 1.0935.198.897.198 1.413v5.805h-1.611v-5.805c0-.69-.1575-1.2255-.4725-1.6065s-.7935-.5715-1.4355-.5715c-.474 0-.9165.114-1.3275.342s-.7905.537-1.1385.927v6.714h-1.611v-9.117h.963c.228 0 .369.111.423.333z"/><path d="m232.65 5.76c-.048.066-.096.117-.144.153s-.114.054-.198.054c-.09 0-.189-.0375-.297-.1125s-.2415-.1575-.4005-.2475-.354-.1725-.585-.2475-.5145-.1125-.8505-.1125c-.45 0-.846.0795-1.188.2385s-.6285.3885-.8595.6885-.405.663-.522 1.089-.1755.903-.1755 1.431c0 .552.063 1.0425.189 1.4715s.3045.789.5355 1.08.51.513.837.666.6945.2295 1.1025.2295c.39 0 .711-.0465.963-.1395s.4605-.1965.6255-.3105.303-.2175.414-.3105.2205-.1395.3285-.1395c.132 0 .234.051.306.153l.45.585c-.198.246-.423.456-.675.63s-.5235.3195-.8145.4365-.5955.2025-.9135.2565-.642.081-.972.081c-.57 0-1.0995-.105-1.5885-.315s-.9135-.5145-1.2735-.9135-.642-.8895-.846-1.4715-.306-1.245-.306-1.989c0-.678.0945-1.305.2835-1.881s.465-1.0725.828-1.4895.81-.7425 1.341-.9765 1.1415-.351 1.8315-.351c.642 0 1.2075.1035 1.6965.3105s.9225.4995 1.3005.8775z"/><path d="m241.002 7.704c0-.372-.0525-.7125-.1575-1.0215s-.258-.576-.459-.801-.4455-.399-.7335-.522-.615-.1845-.981-.1845c-.768 0-1.3755.2235-1.8225.6705s-.7245 1.0665-.8325 1.8585zm1.296 4.275c-.198.24-.435.4485-.711.6255s-.5715.3225-.8865.4365-.6405.1995-.9765.2565-.669.0855-.999.0855c-.63 0-1.2105-.1065-1.7415-.3195s-.99-.525-1.377-.936-.6885-.9195-.9045-1.5255-.324-1.302-.324-2.088c0-.636.0975-1.23.2925-1.782s.4755-1.0305.8415-1.4355.813-.723 1.341-.954 1.122-.3465 1.782-.3465c.546 0 1.0515.0915 1.5165.2745s.867.447 1.206.792.6045.771.7965 1.278.288 1.0845.288 1.7325c0 .252-.027.42-.081.504s-.156.126-.306.126h-6.093c.018.576.0975 1.077.2385 1.503s.3375.7815.5895 1.0665.552.498.9.639.738.2115 1.17.2115c.402 0 .7485-.0465 1.0395-.1395s.5415-.1935.7515-.3015.3855-.2085.5265-.3015.2625-.1395.3645-.1395c.132 0 .234.051.306.153z"/><path d="m15.183 29.996c.666 0 1.266.111 1.8.333s.99.537 1.368.945.6675.9015.8685 1.4805.3015 1.2255.3015 1.9395c0 .72-.1005 1.368-.3015 1.944s-.4905 1.068-.8685 1.476-.834.7215-1.368.9405-1.134.3285-1.8.3285c-.672 0-1.2765-.1095-1.8135-.3285s-.9945-.5325-1.3725-.9405-.6675-.9-.8685-1.476-.3015-1.224-.3015-1.944c0-.714.1005-1.3605.3015-1.9395s.4905-1.0725.8685-1.4805.8355-.723 1.3725-.945 1.1415-.333 1.8135-.333zm0 8.136c.9 0 1.572-.3015 2.016-.9045s.666-1.4445.666-2.5245c0-1.086-.222-1.932-.666-2.538s-1.116-.909-2.016-.909c-.456 0-.8535.078-1.1925.234s-.621.381-.846.675-.393.6555-.504 1.0845-.1665.9135-.1665 1.4535c0 1.08.2235 1.9215.6705 2.5245s1.1265.9045 2.0385.9045z"/><path d="m22.14 39.257v-7.749l-1.008-.117c-.126-.03-.2295-.0765-.3105-.1395s-.1215-.1545-.1215-.2745v-.657h1.44v-.882c0-.522.0735-.9855.2205-1.3905s.357-.747.63-1.026.6015-.4905.9855-.6345.816-.216 1.296-.216c.408 0 .783.06 1.125.18l-.036.801c-.012.144-.0915.222-.2385.234s-.3435.018-.5895.018c-.276 0-.5265.036-.7515.108s-.4185.189-.5805.351-.2865.375-.3735.639-.1305.591-.1305.981v.837h2.628v1.161h-2.574v7.776z"/><path d="m33.975 31.463c.198-.222.408-.423.63-.603s.4575-.3345.7065-.4635.513-.228.792-.297.5805-.1035.9045-.1035c.498 0 .9375.0825 1.3185.2475s.699.399.954.702.4485.6675.5805 1.0935.198.897.198 1.413v5.805h-1.611v-5.805c0-.69-.1575-1.2255-.4725-1.6065s-.7935-.5715-1.4355-.5715c-.474 0-.9165.114-1.3275.342s-.7905.537-1.1385.927v6.714h-1.611v-9.117h.963c.228 0 .369.111.423.333z"/><path d="m48.609 33.704c0-.372-.0525-.7125-.1575-1.0215s-.258-.576-.459-.801-.4455-.399-.7335-.522-.615-.1845-.981-.1845c-.768 0-1.3755.2235-1.8225.6705s-.7245 1.0665-.8325 1.8585zm1.296 4.275c-.198.24-.435.4485-.711.6255s-.5715.3225-.8865.4365-.6405.1995-.9765.2565-.669.0855-.999.0855c-.63 0-1.2105-.1065-1.7415-.3195s-.99-.525-1.377-.936-.6885-.9195-.9045-1.5255-.324-1.302-.324-2.088c0-.636.0975-1.23.2925-1.782s.4755-1.0305.8415-1.4355.813-.723 1.341-.954 1.122-.3465 1.782-.3465c.546 0 1.0515.0915 1.5165.2745s.867.447 1.206.792.6045.771.7965 1.278.288 1.0845.288 1.7325c0 .252-.027.42-.081.504s-.156.126-.306.126h-6.093c.018.576.0975 1.077.2385 1.503s.3375.7815.5895 1.0665.552.498.9.639.738.2115 1.17.2115c.402 0 .7485-.0465 1.0395-.1395s.5415-.1935.7515-.3015.3855-.2085.5265-.3015.2625-.1395.3645-.1395c.132 0 .234.051.306.153z"/><path d="m59.508 30.14v9.117h-.954c-.228 0-.372-.111-.432-.333l-.126-.981c-.396.438-.84.7905-1.332 1.0575s-1.056.4005-1.692.4005c-.498 0-.9375-.0825-1.3185-.2475s-.7005-.3975-.9585-.6975-.4515-.663-.5805-1.089-.1935-.897-.1935-1.413v-5.814h1.602v5.814c0 .69.1575 1.224.4725 1.602s.7965.567 1.4445.567c.474 0 .9165-.1125 1.3275-.3375s.7905-.5355 1.1385-.9315v-6.714z"/><path d="m63.567 31.967c.288-.624.642-1.1115 1.062-1.4625s.933-.5265 1.539-.5265c.192 0 .3765.021.5535.063s.3345.108.4725.198l-.117 1.197c-.036.15-.126.225-.27.225-.084 0-.207-.018-.369-.054s-.345-.054-.549-.054c-.288 0-.5445.042-.7695.126s-.426.2085-.603.3735-.336.369-.477.612-.2685.5205-.3825.8325v5.76h-1.611v-9.117h.918c.174 0 .294.033.36.099s.111.18.135.342z"/><path d="m72.441 29.996c.666 0 1.266.111 1.8.333s.99.537 1.368.945.6675.9015.8685 1.4805.3015 1.2255.3015 1.9395c0 .72-.1005 1.368-.3015 1.944s-.4905 1.068-.8685 1.476-.834.7215-1.368.9405-1.134.3285-1.8.3285c-.672 0-1.2765-.1095-1.8135-.3285s-.9945-.5325-1.3725-.9405-.6675-.9-.8685-1.476-.3015-1.224-.3015-1.944c0-.714.1005-1.3605.3015-1.9395s.4905-1.0725.8685-1.4805.8355-.723 1.3725-.945 1.1415-.333 1.8135-.333zm0 8.136c.9 0 1.572-.3015 2.016-.9045s.666-1.4445.666-2.5245c0-1.086-.222-1.932-.666-2.538s-1.116-.909-2.016-.909c-.456 0-.8535.078-1.1925.234s-.621.381-.846.675-.393.6555-.504 1.0845-.1665.9135-.1665 1.4535c0 1.08.2235 1.9215.6705 2.5245s1.1265.9045 2.0385.9045z"/><path d="m80.415 37.061c.294.396.615.675.963.837s.738.243 1.17.243c.852 0 1.506-.303 1.962-.909s.684-1.47.684-2.592c0-.594-.0525-1.104-.1575-1.53s-.2565-.7755-.4545-1.0485-.441-.4725-.729-.5985-.615-.189-.981-.189c-.522 0-.9795.12-1.3725.36s-.7545.579-1.0845 1.017zm-.081-5.508c.384-.474.828-.855 1.332-1.143s1.08-.432 1.728-.432c.528 0 1.005.1005 1.431.3015s.789.498 1.089.891.531.8805.693 1.4625.243 1.251.243 2.007c0 .672-.09 1.2975-.27 1.8765s-.4395 1.08-.7785 1.503-.753.756-1.242.999-1.0395.3645-1.6515.3645c-.558 0-1.0365-.0945-1.4355-.2835s-.7515-.4515-1.0575-.7875v4.032h-1.611v-12.204h.963c.228 0 .369.111.423.333z"/><path d="m94.203 31.643c-.072.132-.183.198-.333.198-.09 0-.192-.033-.306-.099s-.2535-.1395-.4185-.2205-.3615-.156-.5895-.225-.498-.1035-.81-.1035c-.27 0-.513.0345-.729.1035s-.4005.1635-.5535.2835-.27.2595-.351.4185-.1215.3315-.1215.5175c0 .234.0675.429.2025.585s.3135.291.5355.405.474.2145.756.3015.5715.18.8685.279.5865.2085.8685.3285.534.27.756.45.4005.4005.5355.6615.2025.5745.2025.9405c0 .42-.075.8085-.225 1.1655s-.372.666-.666.927-.654.4665-1.08.6165-.918.225-1.476.225c-.636 0-1.212-.1035-1.728-.3105s-.954-.4725-1.314-.7965l.378-.612c.048-.078.105-.138.171-.18s.15-.063.252-.063c.108 0 .222.042.342.126s.2655.177.4365.279.3795.195.6255.279.552.126.918.126c.312 0 .585-.0405.819-.1215s.429-.1905.585-.3285.2715-.297.3465-.477.1125-.372.1125-.576c0-.252-.0675-.4605-.2025-.6255s-.3135-.306-.5355-.423-.4755-.219-.7605-.306-.576-.1785-.873-.2745-.588-.2055-.873-.3285-.5385-.2775-.7605-.4635-.4005-.4155-.5355-.6885-.2025-.6045-.2025-.9945c0-.348.072-.6825.216-1.0035s.354-.603.63-.846.615-.4365 1.017-.5805.861-.216 1.377-.216c.6 0 1.1385.0945 1.6155.2835s.8895.4485 1.2375.7785z"/><path d="m104.553 30.14-5.085 11.808c-.054.12-.1215.216-.2025.288s-.2055.108-.3735.108h-1.188l1.665-3.618-3.762-8.586h1.386c.138 0 .2475.0345.3285.1035s.1365.1455.1665.2295l2.439 5.742c.096.252.177.516.243.792.084-.282.174-.549.27-.801l2.367-5.733c.036-.096.0975-.1755.1845-.2385s.1845-.0945.2925-.0945z"/><path d="m112.311 31.76c-.048.066-.096.117-.144.153s-.114.054-.198.054c-.09 0-.189-.0375-.297-.1125s-.2415-.1575-.4005-.2475-.354-.1725-.585-.2475-.5145-.1125-.8505-.1125c-.45 0-.846.0795-1.188.2385s-.6285.3885-.8595.6885-.405.663-.522 1.089-.1755.903-.1755 1.431c0 .552.063 1.0425.189 1.4715s.3045.789.5355 1.08.51.513.837.666.6945.2295 1.1025.2295c.39 0 .711-.0465.963-.1395s.4605-.1965.6255-.3105.303-.2175.414-.3105.2205-.1395.3285-.1395c.132 0 .234.051.306.153l.45.585c-.198.246-.423.456-.675.63s-.5235.3195-.8145.4365-.5955.2025-.9135.2565-.642.081-.972.081c-.57 0-1.0995-.105-1.5885-.315s-.9135-.5145-1.2735-.9135-.642-.8895-.846-1.4715-.306-1.245-.306-1.989c0-.678.0945-1.305.2835-1.881s.465-1.0725.828-1.4895.81-.7425 1.341-.9765 1.1415-.351 1.8315-.351c.642 0 1.2075.1035 1.6965.3105s.9225.4995 1.3005.8775z"/><path d="m116.172 31.355c.39-.414.822-.744 1.296-.99s1.02-.369 1.638-.369c.498 0 .9375.0825 1.3185.2475s.699.399.954.702.4485.6675.5805 1.0935.198.897.198 1.413v5.805h-1.611v-5.805c0-.69-.1575-1.2255-.4725-1.6065s-.7935-.5715-1.4355-.5715c-.474 0-.9165.114-1.3275.342s-.7905.537-1.1385.927v6.714h-1.611v-13.257h1.611z"/><path d="m126.297 30.14v9.117h-1.602v-9.117zm.342-2.862c0 .156-.0315.3015-.0945.4365s-.147.255-.252.36-.228.1875-.369.2475-.2895.09-.4455.09-.3015-.03-.4365-.09-.2535-.1425-.3555-.2475-.183-.225-.243-.36-.09-.2805-.09-.4365.03-.3045.09-.4455.141-.264.243-.369.2205-.1875.3555-.2475.2805-.09.4365-.09.3045.03.4455.09.264.1425.369.2475.189.228.252.369.0945.2895.0945.4455z"/><path d="m133.866 35.153c-.738.024-1.3665.0825-1.8855.1755s-.942.2145-1.269.3645-.564.327-.711.531-.2205.432-.2205.684c0 .24.039.447.117.621s.1845.3165.3195.4275.294.192.477.243.3795.0765.5895.0765c.282 0 .54-.0285.774-.0855s.4545-.1395.6615-.2475.405-.237.594-.387.3735-.321.5535-.513zm-5.175-3.726c.504-.486 1.047-.849 1.629-1.089s1.227-.36 1.935-.36c.51 0 .963.084 1.359.252s.729.402.999.702.474.663.612 1.089.207.894.207 1.404v5.832h-.711c-.156 0-.276-.0255-.36-.0765s-.15-.1515-.198-.3015l-.18-.864c-.24.222-.474.4185-.702.5895s-.468.315-.72.432-.5205.207-.8055.27-.6015.0945-.9495.0945c-.354 0-.687-.0495-.999-.1485s-.5835-.2475-.8145-.4455-.414-.4485-.549-.7515-.2025-.6615-.2025-1.0755c0-.36.099-.7065.297-1.0395s.519-.6285.963-.8865 1.023-.4695 1.737-.6345 1.59-.2595 2.628-.2835v-.711c0-.708-.153-1.2435-.459-1.6065s-.753-.5445-1.341-.5445c-.396 0-.7275.0495-.9945.1485s-.498.21-.693.333-.363.234-.504.333-.2805.1485-.4185.1485c-.108 0-.201-.0285-.279-.0855s-.144-.1275-.198-.2115z"/><path d="m140.67 39.401c-.72 0-1.2735-.201-1.6605-.603s-.5805-.981-.5805-1.737v-5.58h-1.098c-.096 0-.177-.0285-.243-.0855s-.099-.1455-.099-.2655v-.639l1.494-.189.369-2.817c.018-.09.0585-.1635.1215-.2205s.1455-.0855.2475-.0855h.81v3.141h2.637v1.161h-2.637v5.472c0 .384.093.669.279.855s.426.279.72.279c.168 0 .3135-.0225.4365-.0675s.2295-.0945.3195-.1485.1665-.1035.2295-.1485.1185-.0675.1665-.0675c.084 0 .159.051.225.153l.468.765c-.276.258-.609.4605-.999.6075s-.792.2205-1.206.2205z"/><path d="m145.845 31.967c.288-.624.642-1.1115 1.062-1.4625s.933-.5265 1.539-.5265c.192 0 .3765.021.5535.063s.3345.108.4725.198l-.117 1.197c-.036.15-.126.225-.27.225-.084 0-.207-.018-.369-.054s-.345-.054-.549-.054c-.288 0-.5445.042-.7695.126s-.426.2085-.603.3735-.336.369-.477.612-.2685.5205-.3825.8325v5.76h-1.611v-9.117h.918c.174 0 .294.033.36.099s.111.18.135.342z"/><path d="m152.568 30.14v9.117h-1.602v-9.117zm.342-2.862c0 .156-.0315.3015-.0945.4365s-.147.255-.252.36-.228.1875-.369.2475-.2895.09-.4455.09-.3015-.03-.4365-.09-.2535-.1425-.3555-.2475-.183-.225-.243-.36-.09-.2805-.09-.4365.03-.3045.09-.4455.141-.264.243-.369.2205-.1875.3555-.2475.2805-.09.4365-.09.3045.03.4455.09.264.1425.369.2475.189.228.252.369.0945.2895.0945.4455z"/><path d="m161.541 31.76c-.048.066-.096.117-.144.153s-.114.054-.198.054c-.09 0-.189-.0375-.297-.1125s-.2415-.1575-.4005-.2475-.354-.1725-.585-.2475-.5145-.1125-.8505-.1125c-.45 0-.846.0795-1.188.2385s-.6285.3885-.8595.6885-.405.663-.522 1.089-.1755.903-.1755 1.431c0 .552.063 1.0425.189 1.4715s.3045.789.5355 1.08.51.513.837.666.6945.2295 1.1025.2295c.39 0 .711-.0465.963-.1395s.4605-.1965.6255-.3105.303-.2175.414-.3105.2205-.1395.3285-.1395c.132 0 .234.051.306.153l.45.585c-.198.246-.423.456-.675.63s-.5235.3195-.8145.4365-.5955.2025-.9135.2565-.642.081-.972.081c-.57 0-1.0995-.105-1.5885-.315s-.9135-.5145-1.2735-.9135-.642-.8895-.846-1.4715-.306-1.245-.306-1.989c0-.678.0945-1.305.2835-1.881s.465-1.0725.828-1.4895.81-.7425 1.341-.9765 1.1415-.351 1.8315-.351c.642 0 1.2075.1035 1.6965.3105s.9225.4995 1.3005.8775z"/><path d="m174.744 31.76c-.048.066-.096.117-.144.153s-.114.054-.198.054c-.09 0-.189-.0375-.297-.1125s-.2415-.1575-.4005-.2475-.354-.1725-.585-.2475-.5145-.1125-.8505-.1125c-.45 0-.846.0795-1.188.2385s-.6285.3885-.8595.6885-.405.663-.522 1.089-.1755.903-.1755 1.431c0 .552.063 1.0425.189 1.4715s.3045.789.5355 1.08.51.513.837.666.6945.2295 1.1025.2295c.39 0 .711-.0465.963-.1395s.4605-.1965.6255-.3105.303-.2175.414-.3105.2205-.1395.3285-.1395c.132 0 .234.051.306.153l.45.585c-.198.246-.423.456-.675.63s-.5235.3195-.8145.4365-.5955.2025-.9135.2565-.642.081-.972.081c-.57 0-1.0995-.105-1.5885-.315s-.9135-.5145-1.2735-.9135-.642-.8895-.846-1.4715-.306-1.245-.306-1.989c0-.678.0945-1.305.2835-1.881s.465-1.0725.828-1.4895.81-.7425 1.341-.9765 1.1415-.351 1.8315-.351c.642 0 1.2075.1035 1.6965.3105s.9225.4995 1.3005.8775z"/><path d="m178.605 31.355c.39-.414.822-.744 1.296-.99s1.02-.369 1.638-.369c.498 0 .9375.0825 1.3185.2475s.699.399.954.702.4485.6675.5805 1.0935.198.897.198 1.413v5.805h-1.611v-5.805c0-.69-.1575-1.2255-.4725-1.6065s-.7935-.5715-1.4355-.5715c-.474 0-.9165.114-1.3275.342s-.7905.537-1.1385.927v6.714h-1.611v-13.257h1.611z"/><path d="m191.979 35.153c-.738.024-1.3665.0825-1.8855.1755s-.942.2145-1.269.3645-.564.327-.711.531-.2205.432-.2205.684c0 .24.039.447.117.621s.1845.3165.3195.4275.294.192.477.243.3795.0765.5895.0765c.282 0 .54-.0285.774-.0855s.4545-.1395.6615-.2475.405-.237.594-.387.3735-.321.5535-.513zm-5.175-3.726c.504-.486 1.047-.849 1.629-1.089s1.227-.36 1.935-.36c.51 0 .963.084 1.359.252s.729.402.999.702.474.663.612 1.089.207.894.207 1.404v5.832h-.711c-.156 0-.276-.0255-.36-.0765s-.15-.1515-.198-.3015l-.18-.864c-.24.222-.474.4185-.702.5895s-.468.315-.72.432-.5205.207-.8055.27-.6015.0945-.9495.0945c-.354 0-.687-.0495-.999-.1485s-.5835-.2475-.8145-.4455-.414-.4485-.549-.7515-.2025-.6615-.2025-1.0755c0-.36.099-.7065.297-1.0395s.519-.6285.963-.8865 1.023-.4695 1.737-.6345 1.59-.2595 2.628-.2835v-.711c0-.708-.153-1.2435-.459-1.6065s-.753-.5445-1.341-.5445c-.396 0-.7275.0495-.9945.1485s-.498.21-.693.333-.363.234-.504.333-.2805.1485-.4185.1485c-.108 0-.201-.0285-.279-.0855s-.144-.1275-.198-.2115z"/><path d="m197.496 31.463c.198-.222.408-.423.63-.603s.4575-.3345.7065-.4635.513-.228.792-.297.5805-.1035.9045-.1035c.498 0 .9375.0825 1.3185.2475s.699.399.954.702.4485.6675.5805 1.0935.198.897.198 1.413v5.805h-1.611v-5.805c0-.69-.1575-1.2255-.4725-1.6065s-.7935-.5715-1.4355-.5715c-.474 0-.9165.114-1.3275.342s-.7905.537-1.1385.927v6.714h-1.611v-9.117h.963c.228 0 .369.111.423.333z"/><path d="m209.205 34.802c.324 0 .609-.045.855-.135s.453-.216.621-.378.294-.3555.378-.5805.126-.4725.126-.7425c0-.558-.1695-1.002-.5085-1.332s-.8295-.495-1.4715-.495c-.648 0-1.1415.165-1.4805.495s-.5085.774-.5085 1.332c0 .27.0435.5175.1305.7425s.2145.4185.3825.5805.375.288.621.378.531.135.855.135zm2.889 4.95c0-.222-.063-.402-.189-.54s-.2955-.246-.5085-.324-.4605-.1335-.7425-.1665-.5805-.0585-.8955-.0765-.6345-.036-.9585-.054-.636-.048-.936-.09c-.336.156-.6105.3525-.8235.5895s-.3195.5145-.3195.8325c0 .204.0525.3945.1575.5715s.2655.33.4815.459.4875.231.8145.306.7125.1125 1.1565.1125c.432 0 .819-.039 1.161-.117s.6315-.189.8685-.333.4185-.315.5445-.513.189-.417.189-.657zm1.629-9.252v.594c0 .198-.126.324-.378.378l-1.035.135c.204.396.306.834.306 1.314 0 .444-.0855.8475-.2565 1.2105s-.4065.6735-.7065.9315-.66.456-1.08.594-.876.207-1.368.207c-.426 0-.828-.051-1.206-.153-.192.12-.339.2475-.441.3825s-.153.2715-.153.4095c0 .216.0885.3795.2655.4905s.4095.1905.6975.2385.6165.078.9855.09.747.0315 1.134.0585.765.0735 1.134.1395.6975.174.9855.324.5205.357.6975.621.2655.606.2655 1.026c0 .39-.0975.768-.2925 1.134s-.4755.6915-.8415.9765-.8145.513-1.3455.684-1.1295.2565-1.7955.2565-1.248-.066-1.746-.198-.912-.309-1.242-.531-.5775-.4785-.7425-.7695-.2475-.5955-.2475-.9135c0-.45.141-.831.423-1.143s.669-.561 1.161-.747c-.27-.12-.4845-.2805-.6435-.4815s-.2385-.4725-.2385-.8145c0-.132.024-.2685.072-.4095s.1215-.282.2205-.423.2205-.2745.3645-.4005.312-.237.504-.333c-.45-.252-.801-.5865-1.053-1.0035s-.378-.9015-.378-1.4535c0-.444.0855-.8475.2565-1.2105s.4095-.672.7155-.927.6705-.4515 1.0935-.5895.8865-.207 1.3905-.207c.396 0 .765.0435 1.107.1305s.654.2145.936.3825z"/><path d="m221.49 33.704c0-.372-.0525-.7125-.1575-1.0215s-.258-.576-.459-.801-.4455-.399-.7335-.522-.615-.1845-.981-.1845c-.768 0-1.3755.2235-1.8225.6705s-.7245 1.0665-.8325 1.8585zm1.296 4.275c-.198.24-.435.4485-.711.6255s-.5715.3225-.8865.4365-.6405.1995-.9765.2565-.669.0855-.999.0855c-.63 0-1.2105-.1065-1.7415-.3195s-.99-.525-1.377-.936-.6885-.9195-.9045-1.5255-.324-1.302-.324-2.088c0-.636.0975-1.23.2925-1.782s.4755-1.0305.8415-1.4355.813-.723 1.341-.954 1.122-.3465 1.782-.3465c.546 0 1.0515.0915 1.5165.2745s.867.447 1.206.792.6045.771.7965 1.278.288 1.0845.288 1.7325c0 .252-.027.42-.081.504s-.156.126-.306.126h-6.093c.018.576.0975 1.077.2385 1.503s.3375.7815.5895 1.0665.552.498.9.639.738.2115 1.17.2115c.402 0 .7485-.0465 1.0395-.1395s.5415-.1935.7515-.3015.3855-.2085.5265-.3015.2625-.1395.3645-.1395c.132 0 .234.051.306.153z"/><path d="m230.202 31.643c-.072.132-.183.198-.333.198-.09 0-.192-.033-.306-.099s-.2535-.1395-.4185-.2205-.3615-.156-.5895-.225-.498-.1035-.81-.1035c-.27 0-.513.0345-.729.1035s-.4005.1635-.5535.2835-.27.2595-.351.4185-.1215.3315-.1215.5175c0 .234.0675.429.2025.585s.3135.291.5355.405.474.2145.756.3015.5715.18.8685.279.5865.2085.8685.3285.534.27.756.45.4005.4005.5355.6615.2025.5745.2025.9405c0 .42-.075.8085-.225 1.1655s-.372.666-.666.927-.654.4665-1.08.6165-.918.225-1.476.225c-.636 0-1.212-.1035-1.728-.3105s-.954-.4725-1.314-.7965l.378-.612c.048-.078.105-.138.171-.18s.15-.063.252-.063c.108 0 .222.042.342.126s.2655.177.4365.279.3795.195.6255.279.552.126.918.126c.312 0 .585-.0405.819-.1215s.429-.1905.585-.3285.2715-.297.3465-.477.1125-.372.1125-.576c0-.252-.0675-.4605-.2025-.6255s-.3135-.306-.5355-.423-.4755-.219-.7605-.306-.576-.1785-.873-.2745-.588-.2055-.873-.3285-.5385-.2775-.7605-.4635-.4005-.4155-.5355-.6885-.2025-.6045-.2025-.9945c0-.348.072-.6825.216-1.0035s.354-.603.63-.846.615-.4365 1.017-.5805.861-.216 1.377-.216c.6 0 1.1385.0945 1.6155.2835s.8895.4485 1.2375.7785z"/></g><g fill="#006993" transform="translate(93.3435 231)"><path d="m13.185 6.651c0 .954-.1575 1.8375-.4725 2.6505s-.7605 1.5165-1.3365 2.1105-1.269 1.0575-2.079 1.3905-1.71.4995-2.7.4995c-.984 0-1.881-.1665-2.691-.4995s-1.5045-.7965-2.0835-1.3905-1.0275-1.2975-1.3455-2.1105-.477-1.6965-.477-2.6505.159-1.8375.477-2.6505.7665-1.5165 1.3455-2.1105 1.2735-1.0575 2.0835-1.3905 1.707-.4995 2.691-.4995c.66 0 1.281.0765 1.863.2295s1.116.369 1.602.648.9225.618 1.3095 1.017.7155.8445.9855 1.3365.4755 1.026.6165 1.602.2115 1.182.2115 1.818zm-2.475 0c0-.714-.096-1.3545-.288-1.9215s-.465-1.0485-.819-1.4445-.7845-.699-1.2915-.909-1.0785-.315-1.7145-.315-1.2075.105-1.7145.315-.939.513-1.296.909-.6315.8775-.8235 1.4445-.288 1.2075-.288 1.9215.096 1.3545.288 1.9215.4665 1.047.8235 1.44.789.6945 1.296.9045 1.0785.315 1.7145.315 1.2075-.105 1.7145-.315.9375-.5115 1.2915-.9045.627-.873.819-1.44.288-1.2075.288-1.9215z"/><path d="m23.292 3.924-3.663 9.234h-2.016l-3.663-9.234h1.836c.168 0 .3075.039.4185.117s.1845.177.2205.297l1.782 4.932c.096.288.18.57.252.846s.135.552.189.828c.06-.276.126-.552.198-.828s.159-.558.261-.846l1.818-4.932c.042-.12.117-.219.225-.297s.237-.117.387-.117z"/><path d="m30.42 7.479c0-.288-.0405-.5595-.1215-.8145s-.2025-.4785-.3645-.6705-.3675-.3435-.6165-.4545-.5385-.1665-.8685-.1665c-.642 0-1.1475.183-1.5165.549s-.6045.885-.7065 1.557zm-4.239 1.341c.036.474.12.8835.252 1.2285s.306.63.522.855.4725.393.7695.504.6255.1665.9855.1665.6705-.042.9315-.126.489-.177.684-.279.366-.195.513-.279.2895-.126.4275-.126c.186 0 .324.069.414.207l.639.81c-.246.288-.522.5295-.828.7245s-.6255.351-.9585.468-.672.1995-1.017.2475-.6795.072-1.0035.072c-.642 0-1.239-.1065-1.791-.3195s-1.032-.528-1.44-.945-.729-.933-.963-1.548-.351-1.3275-.351-2.1375c0-.63.102-1.2225.306-1.7775s.4965-1.038.8775-1.449.846-.7365 1.395-.9765 1.1685-.36 1.8585-.36c.582 0 1.119.093 1.611.279s.915.4575 1.269.8145.6315.795.8325 1.314.3015 1.1115.3015 1.7775c0 .336-.036.5625-.108.6795s-.21.1755-.414.1755z"/><path d="m36.18 5.526c.288-.552.63-.9855 1.026-1.3005s.864-.4725 1.404-.4725c.426 0 .768.093 1.026.279l-.144 1.665c-.03.108-.0735.1845-.1305.2295s-.1335.0675-.2295.0675c-.09 0-.2235-.015-.4005-.045s-.3495-.045-.5175-.045c-.246 0-.465.036-.657.108s-.3645.1755-.5175.3105-.288.2985-.405.4905-.2265.411-.3285.657v5.688h-2.223v-9.234h1.305c.228 0 .387.0405.477.1215s.15.2265.18.4365z"/><path d="m43.875 13.302c-.804 0-1.4205-.2265-1.8495-.6795s-.6435-1.0785-.6435-1.8765v-5.157h-.945c-.12 0-.222-.039-.306-.117s-.126-.195-.126-.351v-.882l1.485-.243.468-2.52c.03-.12.087-.213.171-.279s.192-.099.324-.099h1.152v2.907h2.466v1.584h-2.466v5.004c0 .288.0705.513.2115.675s.3345.243.5805.243c.138 0 .2535-.0165.3465-.0495s.174-.0675.243-.1035.1305-.0705.1845-.1035.108-.0495.162-.0495c.066 0 .12.0165.162.0495s.087.0825.135.1485l.666 1.08c-.324.27-.696.474-1.116.612s-.855.207-1.305.207z"/><path d="m63.189.144v13.014h-2.43v-5.688h-6.111v5.688h-2.43v-13.014h2.43v5.598h6.111v-5.598z"/><path d="m68.517 2.07v3.609h4.554v1.863h-4.554v3.681h5.778v1.935h-8.208v-13.014h8.208v1.926z"/></g><g fill="#4a4a4a" transform="matrix(0 1 -1 0 270.262 246.2175)"><path d="m14.063.231-3.129 10.031h-1.218l-2.541-7.651c-.02333333-.07466667-.0455-.154-.0665-.238s-.04316667-.17266667-.0665-.266c-.02333333.09333333-.04666667.182-.07.266s-.04666667.16333333-.07.238l-2.555 7.651h-1.218l-3.129-10.031h1.127c.12133333 0 .22283333.03033333.3045.091s.13416667.13766667.1575.231l2.072 6.972c.03266667.126.06416667.26133333.0945.406s.0595.29866667.0875.462c.03266667-.16333333.0665-.3185.1015-.4655s.0735-.28116667.1155-.4025l2.359-6.972c.028-.07933333.08283333-.15283333.1645-.2205s.18083333-.1015.2975-.1015h.392c.12133333 0 .21933333.03033333.294.091s.13066667.13766667.168.231l2.352 6.972c.042.12133333.0805.252.1155.392s.0688333.287.1015.441c.0233333-.154.049-.301.077-.441s.0583333-.27066667.091-.392l2.079-6.972c.0233333-.084.0758333-.15866667.1575-.224s.1808333-.098.2975-.098z"/><path d="m18.256 3.059c.518 0 .9846667.08633333 1.4.259s.77.41766667 1.064.735.5191667.70116667.6755 1.1515.2345.95316667.2345 1.5085c0 .56-.0781667 1.064-.2345 1.512s-.3815.83066667-.6755 1.148-.6486667.56116667-1.064.7315c-.4153333.1703333-.882.2555-1.4.2555-.5226667 0-.9928333-.0851667-1.4105-.2555-.4176667-.17033333-.7735-.41416667-1.0675-.7315s-.5191667-.7-.6755-1.148-.2345-.952-.2345-1.512c0-.55533333.0781667-1.05816667.2345-1.5085s.3815-.83416667.6755-1.1515.6498333-.56233333 1.0675-.735.8878333-.259 1.4105-.259zm0 6.328c.7 0 1.2226667-.2345 1.568-.7035s.518-1.1235.518-1.9635c0-.84466667-.1726667-1.50266667-.518-1.974s-.868-.707-1.568-.707c-.3546667 0-.6638333.06066667-.9275.182s-.483.29633333-.658.525-.3056667.50983333-.392.8435-.1295.7105-.1295 1.1305c0 .84.1738333 1.4945.5215 1.9635s.8761667.7035 1.5855.7035z"/><path d="m24.388 4.592c.224-.48533333.4993333-.8645.826-1.1375s.7256667-.4095 1.197-.4095c.1493333 0 .2928333.01633333.4305.049s.2601667.084.3675.154l-.091.931c-.028.11666667-.098.175-.21.175-.0653333 0-.161-.014-.287-.042s-.2683333-.042-.427-.042c-.224 0-.4235.03266667-.5985.098s-.3313333.16216667-.469.2905-.2613333.287-.371.476-.2088333.40483333-.2975.6475v4.48h-1.253v-7.091h.714c.1353333 0 .2286667.02566667.28.077s.0863333.14.105.266z"/><path d="m32.431 4.34c-.056.10266667-.1423333.154-.259.154-.07 0-.1493333-.02566667-.238-.077s-.1971667-.1085-.3255-.1715-.2811667-.12133333-.4585-.175-.3873333-.0805-.63-.0805c-.21 0-.399.02683333-.567.0805s-.3115.12716667-.4305.2205-.21.20183333-.273.3255-.0945.25783333-.0945.4025c0 .182.0525.33366667.1575.455s.2438333.22633333.4165.315.3686667.16683333.588.2345.4445.14.6755.217.4561667.16216667.6755.2555.4153333.21.588.35.3115.3115.4165.5145.1575.44683333.1575.7315c0 .32666667-.0583333.62883333-.175.9065s-.2893333.518-.518.721-.5086667.3628333-.84.4795-.714.175-1.148.175c-.4946667 0-.9426667-.0805-1.344-.2415s-.742-.3675-1.022-.6195l.294-.476c.0373333-.06066667.0816667-.10733333.133-.14s.1166667-.049.196-.049c.084 0 .1726667.03266667.266.098s.2065.13766667.3395.217.2951667.15166667.4865.217.4293333.098.714.098c.2426667 0 .455-.0315.637-.0945s.3336667-.14816667.455-.2555.2111667-.231.2695-.371.0875-.28933333.0875-.448c0-.196-.0525-.35816667-.1575-.4865s-.2438333-.238-.4165-.329-.3698333-.17033333-.5915-.238-.448-.13883333-.679-.2135-.4573333-.15983333-.679-.2555-.4188333-.21583333-.5915-.3605-.3115-.32316667-.4165-.5355-.1575-.47016667-.1575-.7735c0-.27066667.056-.53083333.168-.7805s.2753333-.469.49-.658.4783333-.3395.791-.4515.6696667-.168 1.071-.168c.4666667 0 .8855.0735 1.2565.2205s.6918333.34883333.9625.6055z"/><path d="m39.109 5.943c0-.28933333-.0408333-.55416667-.1225-.7945s-.2006667-.448-.357-.623-.3465-.31033333-.5705-.406-.4783333-.1435-.763-.1435c-.5973333 0-1.0698333.17383333-1.4175.5215s-.5635.8295-.6475 1.4455zm1.008 3.325c-.154.18666667-.3383333.34883333-.553.4865s-.4445.2508333-.6895.3395-.4981667.1551667-.7595.1995-.5203333.0665-.777.0665c-.49 0-.9415-.0828333-1.3545-.2485-.413-.16566667-.77-.40833333-1.071-.728s-.5355-.71516667-.7035-1.1865-.252-1.01266667-.252-1.624c0-.49466667.0758333-.95666667.2275-1.386s.3698333-.8015.6545-1.1165.6323333-.56233333 1.043-.742.8726667-.2695 1.386-.2695c.4246667 0 .8178333.07116667 1.1795.2135s.6743333.34766667.938.616.4701667.59966667.6195.994.224.8435.224 1.3475c0 .196-.021.32666667-.063.392s-.1213333.098-.238.098h-4.739c.014.448.0758333.83766667.1855 1.169s.2625.60783333.4585.8295.4293333.38733333.7.497.574.1645.91.1645c.3126667 0 .5821667-.03616667.8085-.1085s.4211667-.1505.5845-.2345.2998333-.16216667.4095-.2345.2041667-.1085.2835-.1085c.1026667 0 .182.03966667.238.119z"/><path d="m42.931 4.2c.154-.17266667.3173333-.329.49-.469s.3558333-.26016667.5495-.3605.399-.17733333.616-.231.4515-.0805.7035-.0805c.3873333 0 .7291667.06416667 1.0255.1925s.5436667.31033333.742.546.3488333.51916667.4515.8505.154.69766667.154 1.099v4.515h-1.253v-4.515c0-.53666667-.1225-.95316667-.3675-1.2495s-.6171667-.4445-1.1165-.4445c-.3686667 0-.7128333.08866667-1.0325.266s-.6148333.41766667-.8855.721v5.222h-1.253v-7.091h.749c.1773333 0 .287.08633333.329.259z"/><path d="m50.883 3.171v7.091h-1.246v-7.091zm.266-2.226c0 .12133333-.0245.2345-.0735.3395s-.1143333.19833333-.196.28-.1773333.14583333-.287.1925-.2251667.07-.3465.07-.2345-.02333333-.3395-.07-.1971667-.11083333-.2765-.1925-.1423333-.175-.189-.28-.07-.21816667-.07-.3395.0233333-.23683333.07-.3465.1096667-.20533333.189-.287.1715-.14583333.2765-.1925.2181667-.07.3395-.07.2368333.02333333.3465.07.2053333.11083333.287.1925.147.17733333.196.287.0735.22516667.0735.3465z"/><path d="m54.103 4.2c.154-.17266667.3173333-.329.49-.469s.3558333-.26016667.5495-.3605.399-.17733333.616-.231.4515-.0805.7035-.0805c.3873333 0 .7291667.06416667 1.0255.1925s.5436667.31033333.742.546.3488333.51916667.4515.8505.154.69766667.154 1.099v4.515h-1.253v-4.515c0-.53666667-.1225-.95316667-.3675-1.2495s-.6171667-.4445-1.1165-.4445c-.3686667 0-.7128333.08866667-1.0325.266s-.6148333.41766667-.8855.721v5.222h-1.253v-7.091h.749c.1773333 0 .287.08633333.329.259z"/><path d="m63.21 6.797c.252 0 .4736667-.035.665-.105s.3523333-.168.483-.294.2286667-.2765.294-.4515.098-.3675.098-.5775c0-.434-.1318333-.77933333-.3955-1.036s-.6451667-.385-1.1445-.385c-.504 0-.8878333.12833333-1.1515.385s-.3955.602-.3955 1.036c0 .21.0338333.4025.1015.5775s.1668333.3255.2975.4515.2916667.224.483.294.413.105.665.105zm2.247 3.85c0-.1726667-.049-.3126667-.147-.42s-.2298333-.1913333-.3955-.252c-.1656667-.06066667-.3581667-.10383333-.5775-.1295s-.4515-.0455-.6965-.0595-.4935-.028-.7455-.042-.4946667-.03733333-.728-.07c-.2613333.12133333-.4748333.27416667-.6405.4585-.1656667.1843333-.2485.4001667-.2485.6475 0 .1586667.0408333.3068333.1225.4445s.2065.2566667.3745.357.3791667.1796667.6335.238.5541667.0875.8995.0875c.336 0 .637-.0303333.903-.091s.4911667-.147.6755-.259.3255-.245.4235-.399.147-.3243333.147-.511zm1.267-7.196v.462c0 .154-.098.252-.294.294l-.805.105c.1586667.308.238.64866667.238 1.022 0 .34533333-.0665.65916667-.1995.9415s-.3161667.52383333-.5495.7245-.5133333.35466667-.84.462-.6813333.161-1.064.161c-.3313333 0-.644-.03966667-.938-.119-.1493333.09333333-.2636667.1925-.343.2975s-.119.21116667-.119.3185c0 .168.0688333.29516667.2065.3815s.3185.14816667.5425.1855.4795.06066667.7665.07.581.0245.882.0455.595.05716667.882.1085.5425.13533333.7665.252.4048333.27766667.5425.483.2065.4713333.2065.798c0 .3033333-.0758333.5973333-.2275.882s-.3698333.5378333-.6545.7595-.6335.399-1.0465.532-.8785.1995-1.3965.1995-.9706667-.0513333-1.358-.154-.7093333-.2403333-.966-.413-.4491667-.3721667-.5775-.5985-.1925-.4631667-.1925-.7105c0-.35.1096667-.6463333.329-.889.2193333-.24266667.5203333-.43633333.903-.581-.21-.09333333-.3768333-.21816667-.5005-.3745s-.1855-.3675-.1855-.6335c0-.10266667.0186667-.20883333.056-.3185s.0945-.21933333.1715-.329.1715-.2135.2835-.3115.2426667-.18433333.392-.259c-.35-.196-.623-.45616667-.819-.7805s-.294-.70116667-.294-1.1305c0-.34533333.0665-.65916667.1995-.9415s.3185-.52266667.5565-.721.5215-.35116667.8505-.4585.6895-.161 1.0815-.161c.308 0 .595.03383333.861.1015s.5086667.16683333.728.2975z"/><path d="m76.538 4.431c-.0373333.05133333-.0746667.091-.112.119s-.0886667.042-.154.042c-.07 0-.147-.02916667-.231-.0875s-.1878333-.1225-.3115-.1925-.2753333-.13416667-.455-.1925-.4001667-.0875-.6615-.0875c-.35 0-.658.06183333-.924.1855s-.4888333.30216667-.6685.5355-.315.51566667-.406.847-.1365.70233333-.1365 1.113c0 .42933333.049.81083333.147 1.1445s.2368333.61366667.4165.84.3966667.399.651.518.5401667.1785.8575.1785c.3033333 0 .553-.03616667.749-.1085s.3581667-.15283333.4865-.2415.2356667-.16916667.322-.2415.1715-.1085.2555-.1085c.1026667 0 .182.03966667.238.119l.35.455c-.154.19133333-.329.35466667-.525.49s-.4071667.2485-.6335.3395-.4631667.1575-.7105.1995-.4993333.063-.756.063c-.4433333 0-.8551667-.0816667-1.2355-.245-.3803333-.16333333-.7105-.40016667-.9905-.7105s-.4993333-.69183333-.658-1.1445-.238-.96833333-.238-1.547c0-.52733333.0735-1.015.2205-1.463s.3616667-.83416667.644-1.1585.63-.5775 1.043-.7595.8878333-.273 1.4245-.273c.4993333 0 .9391667.0805 1.3195.2415s.7175.3885 1.0115.6825z"/><path d="m81.277 3.059c.518 0 .9846667.08633333 1.4.259s.77.41766667 1.064.735.5191667.70116667.6755 1.1515.2345.95316667.2345 1.5085c0 .56-.0781667 1.064-.2345 1.512s-.3815.83066667-.6755 1.148-.6486667.56116667-1.064.7315c-.4153333.1703333-.882.2555-1.4.2555-.5226667 0-.9928333-.0851667-1.4105-.2555-.4176667-.17033333-.7735-.41416667-1.0675-.7315s-.5191667-.7-.6755-1.148-.2345-.952-.2345-1.512c0-.55533333.0781667-1.05816667.2345-1.5085s.3815-.83416667.6755-1.1515.6498333-.56233333 1.0675-.735.8878333-.259 1.4105-.259zm0 6.328c.7 0 1.2226667-.2345 1.568-.7035s.518-1.1235.518-1.9635c0-.84466667-.1726667-1.50266667-.518-1.974s-.868-.707-1.568-.707c-.3546667 0-.6638333.06066667-.9275.182s-.483.29633333-.658.525-.3056667.50983333-.392.8435-.1295.7105-.1295 1.1305c0 .84.1738333 1.4945.5215 1.9635s.8761667.7035 1.5855.7035z"/><path d="m88.697 6.797c.252 0 .4736667-.035.665-.105s.3523333-.168.483-.294.2286667-.2765.294-.4515.098-.3675.098-.5775c0-.434-.1318333-.77933333-.3955-1.036s-.6451667-.385-1.1445-.385c-.504 0-.8878333.12833333-1.1515.385s-.3955.602-.3955 1.036c0 .21.0338333.4025.1015.5775s.1668333.3255.2975.4515.2916667.224.483.294.413.105.665.105zm2.247 3.85c0-.1726667-.049-.3126667-.147-.42s-.2298333-.1913333-.3955-.252c-.1656667-.06066667-.3581667-.10383333-.5775-.1295s-.4515-.0455-.6965-.0595-.4935-.028-.7455-.042-.4946667-.03733333-.728-.07c-.2613333.12133333-.4748333.27416667-.6405.4585-.1656667.1843333-.2485.4001667-.2485.6475 0 .1586667.0408333.3068333.1225.4445s.2065.2566667.3745.357.3791667.1796667.6335.238.5541667.0875.8995.0875c.336 0 .637-.0303333.903-.091s.4911667-.147.6755-.259.3255-.245.4235-.399.147-.3243333.147-.511zm1.267-7.196v.462c0 .154-.098.252-.294.294l-.805.105c.1586667.308.238.64866667.238 1.022 0 .34533333-.0665.65916667-.1995.9415s-.3161667.52383333-.5495.7245-.5133333.35466667-.84.462-.6813333.161-1.064.161c-.3313333 0-.644-.03966667-.938-.119-.1493333.09333333-.2636667.1925-.343.2975s-.119.21116667-.119.3185c0 .168.0688333.29516667.2065.3815s.3185.14816667.5425.1855.4795.06066667.7665.07.581.0245.882.0455.595.05716667.882.1085.5425.13533333.7665.252.4048333.27766667.5425.483.2065.4713333.2065.798c0 .3033333-.0758333.5973333-.2275.882s-.3698333.5378333-.6545.7595-.6335.399-1.0465.532-.8785.1995-1.3965.1995-.9706667-.0513333-1.358-.154-.7093333-.2403333-.966-.413-.4491667-.3721667-.5775-.5985-.1925-.4631667-.1925-.7105c0-.35.1096667-.6463333.329-.889.2193333-.24266667.5203333-.43633333.903-.581-.21-.09333333-.3768333-.21816667-.5005-.3745s-.1855-.3675-.1855-.6335c0-.10266667.0186667-.20883333.056-.3185s.0945-.21933333.1715-.329.1715-.2135.2835-.3115.2426667-.18433333.392-.259c-.35-.196-.623-.45616667-.819-.7805s-.294-.70116667-.294-1.1305c0-.34533333.0665-.65916667.1995-.9415s.3185-.52266667.5565-.721.5215-.35116667.8505-.4585.6895-.161 1.0815-.161c.308 0 .595.03383333.861.1015s.5086667.16683333.728.2975z"/><path d="m94.682 4.2c.154-.17266667.3173333-.329.49-.469s.3558333-.26016667.5495-.3605.399-.17733333.616-.231.4515-.0805.7035-.0805c.3873333 0 .7291667.06416667 1.0255.1925s.5436667.31033333.742.546.3488333.51916667.4515.8505.154.69766667.154 1.099v4.515h-1.253v-4.515c0-.53666667-.1225-.95316667-.3675-1.2495s-.6171667-.4445-1.1165-.4445c-.3686667 0-.7128333.08866667-1.0325.266s-.6148333.41766667-.8855.721v5.222h-1.253v-7.091h.749c.1773333 0 .287.08633333.329.259z"/><path d="m102.634 3.171v7.091h-1.246v-7.091zm.266-2.226c0 .12133333-.0245.2345-.0735.3395s-.114333.19833333-.196.28-.177333.14583333-.287.1925-.225167.07-.3465.07-.2345-.02333333-.3395-.07-.197167-.11083333-.2765-.1925-.142333-.175-.189-.28-.07-.21816667-.07-.3395.023333-.23683333.07-.3465.109667-.20533333.189-.287.1715-.14583333.2765-.1925.218167-.07.3395-.07.236833.02333333.3465.07.205333.11083333.287.1925.147.17733333.196.287.0735.22516667.0735.3465z"/><path d="m111.258 10.262h-1.246v-6.048h-3.654v4.256c0 .29866667.072333.52033333.217.665s.331333.217.56.217c.130667 0 .243833-.0175.3395-.0525s.1785-.0735.2485-.1155.1295-.0805.1785-.1155.092167-.0525.1295-.0525c.065333 0 .123667.03966667.175.119l.364.595c-.214667.20066667-.473667.3581667-.777.4725s-.616.1715-.938.1715c-.56 0-.9905-.1563333-1.2915-.469-.301-.31266667-.4515-.763-.4515-1.351v-4.34h-.854c-.074667 0-.137667-.02216667-.189-.0665s-.077-.11316667-.077-.2065v-.497l1.162-.154.287-2.184c.014-.07.0455-.12716667.0945-.1715s.113167-.0665.1925-.0665h.63v2.443h4.9zm.308-9.366c0 .12133333-.0245.2345-.0735.3395s-.114333.19716667-.196.2765-.176167.14233333-.2835.189-.221667.07-.343.07-.2345-.02333333-.3395-.07-.197167-.10966667-.2765-.189-.142333-.1715-.189-.2765-.07-.21816667-.07-.3395.023333-.23683333.07-.3465.109667-.20533333.189-.287.1715-.14583333.2765-.1925.218167-.07.3395-.07.235667.02333333.343.07.201833.11083333.2835.1925.147.17733333.196.287.0735.22516667.0735.3465z"/><path d="m119.378 3.171-2.891 7.091h-1.12l-2.891-7.091h1.015c.102667 0 .186667.02566667.252.077s.109667.112.133.182l1.799 4.564c.056.17266667.105.34066667.147.504s.081667.32666667.119.49c.037333-.16333333.077-.32666667.119-.49s.093333-.33133333.154-.504l1.82-4.564c.028-.07466667.074667-.1365.14-.1855s.142333-.0735.231-.0735z"/><path d="m125.272 5.943c0-.28933333-.040833-.55416667-.1225-.7945s-.200667-.448-.357-.623-.3465-.31033333-.5705-.406-.478333-.1435-.763-.1435c-.597333 0-1.069833.17383333-1.4175.5215s-.5635.8295-.6475 1.4455zm1.008 3.325c-.154.18666667-.338333.34883333-.553.4865s-.4445.2508333-.6895.3395-.498167.1551667-.7595.1995-.520333.0665-.777.0665c-.49 0-.9415-.0828333-1.3545-.2485-.413-.16566667-.77-.40833333-1.071-.728s-.5355-.71516667-.7035-1.1865-.252-1.01266667-.252-1.624c0-.49466667.075833-.95666667.2275-1.386s.369833-.8015.6545-1.1165.632333-.56233333 1.043-.742.872667-.2695 1.386-.2695c.424667 0 .817833.07116667 1.1795.2135s.674333.34766667.938.616.470167.59966667.6195.994.224.8435.224 1.3475c0 .196-.021.32666667-.063.392s-.121333.098-.238.098h-4.739c.014.448.075833.83766667.1855 1.169s.2625.60783333.4585.8295.429333.38733333.7.497.574.1645.91.1645c.312667 0 .582167-.03616667.8085-.1085s.421167-.1505.5845-.2345.299833-.16216667.4095-.2345.204167-.1085.2835-.1085c.102667 0 .182.03966667.238.119z"/><path d="m131.964 10.262v-6.027l-.784-.091c-.098-.02333333-.1785-.0595-.2415-.1085s-.0945-.12016667-.0945-.2135v-.511h1.12v-.686c0-.406.057167-.7665.1715-1.0815s.277667-.581.49-.798.467833-.3815.7665-.4935.634667-.168 1.008-.168c.317333 0 .609.04666667.875.14l-.028.623c-.009333.112-.071167.17266667-.1855.182s-.267167.014-.4585.014c-.214667 0-.4095.028-.5845.084s-.3255.147-.4515.273-.222833.29166667-.2905.497-.1015.45966667-.1015.763v.651h2.044v.903h-2.002v6.048z"/><path d="m142.24 3.171v7.091h-.742c-.177333 0-.289333-.0863333-.336-.259l-.098-.763c-.308.34066667-.653333.61483333-1.036.8225-.382667.2076667-.821333.3115-1.316.3115-.387333 0-.729167-.0641667-1.0255-.1925s-.544833-.30916667-.7455-.5425-.351167-.51566667-.4515-.847-.1505-.69766667-.1505-1.099v-4.522h1.246v4.522c0 .53666667.1225.952.3675 1.246s.6195.441 1.1235.441c.368667 0 .712833-.0875 1.0325-.2625s.614833-.4165.8855-.7245v-5.222z"/><path d="m145.39 4.2c.154-.17266667.317333-.329.49-.469s.355833-.26016667.5495-.3605.399-.17733333.616-.231.4515-.0805.7035-.0805c.387333 0 .729167.06416667 1.0255.1925s.543667.31033333.742.546.348833.51916667.4515.8505.154.69766667.154 1.099v4.515h-1.253v-4.515c0-.53666667-.1225-.95316667-.3675-1.2495s-.617167-.4445-1.1165-.4445c-.368667 0-.712833.08866667-1.0325.266s-.614833.41766667-.8855.721v5.222h-1.253v-7.091h.749c.177333 0 .287.08633333.329.259z"/><path d="m156.961 4.431c-.037333.05133333-.074667.091-.112.119s-.088667.042-.154.042c-.07 0-.147-.02916667-.231-.0875s-.187833-.1225-.3115-.1925-.275333-.13416667-.455-.1925-.400167-.0875-.6615-.0875c-.35 0-.658.06183333-.924.1855s-.488833.30216667-.6685.5355-.315.51566667-.406.847-.1365.70233333-.1365 1.113c0 .42933333.049.81083333.147 1.1445s.236833.61366667.4165.84.396667.399.651.518.540167.1785.8575.1785c.303333 0 .553-.03616667.749-.1085s.358167-.15283333.4865-.2415.235667-.16916667.322-.2415.1715-.1085.2555-.1085c.102667 0 .182.03966667.238.119l.35.455c-.154.19133333-.329.35466667-.525.49s-.407167.2485-.6335.3395-.463167.1575-.7105.1995-.499333.063-.756.063c-.443333 0-.855167-.0816667-1.2355-.245-.380333-.16333333-.7105-.40016667-.9905-.7105s-.499333-.69183333-.658-1.1445-.238-.96833333-.238-1.547c0-.52733333.0735-1.015.2205-1.463s.361667-.83416667.644-1.1585.63-.5775 1.043-.7595.887833-.273 1.4245-.273c.499333 0 .939167.0805 1.3195.2415s.7175.3885 1.0115.6825z"/><path d="m165.291 10.262h-1.246v-6.048h-3.654v4.256c0 .29866667.072333.52033333.217.665s.331333.217.56.217c.130667 0 .243833-.0175.3395-.0525s.1785-.0735.2485-.1155.1295-.0805.1785-.1155.092167-.0525.1295-.0525c.065333 0 .123667.03966667.175.119l.364.595c-.214667.20066667-.473667.3581667-.777.4725s-.616.1715-.938.1715c-.56 0-.9905-.1563333-1.2915-.469-.301-.31266667-.4515-.763-.4515-1.351v-4.34h-.854c-.074667 0-.137667-.02216667-.189-.0665s-.077-.11316667-.077-.2065v-.497l1.162-.154.287-2.184c.014-.07.0455-.12716667.0945-.1715s.113167-.0665.1925-.0665h.63v2.443h4.9zm.308-9.366c0 .12133333-.0245.2345-.0735.3395s-.114333.19716667-.196.2765-.176167.14233333-.2835.189-.221667.07-.343.07-.2345-.02333333-.3395-.07-.197167-.10966667-.2765-.189-.142333-.1715-.189-.2765-.07-.21816667-.07-.3395.023333-.23683333.07-.3465.109667-.20533333.189-.287.1715-.14583333.2765-.1925.218167-.07.3395-.07.235667.02333333.343.07.201833.11083333.2835.1925.147.17733333.196.287.0735.22516667.0735.3465z"/><path d="m170.324 3.059c.518 0 .984667.08633333 1.4.259s.77.41766667 1.064.735.519167.70116667.6755 1.1515.2345.95316667.2345 1.5085c0 .56-.078167 1.064-.2345 1.512s-.3815.83066667-.6755 1.148-.648667.56116667-1.064.7315c-.415333.1703333-.882.2555-1.4.2555-.522667 0-.992833-.0851667-1.4105-.2555-.417667-.17033333-.7735-.41416667-1.0675-.7315s-.519167-.7-.6755-1.148-.2345-.952-.2345-1.512c0-.55533333.078167-1.05816667.2345-1.5085s.3815-.83416667.6755-1.1515.649833-.56233333 1.0675-.735.887833-.259 1.4105-.259zm0 6.328c.7 0 1.222667-.2345 1.568-.7035s.518-1.1235.518-1.9635c0-.84466667-.172667-1.50266667-.518-1.974s-.868-.707-1.568-.707c-.354667 0-.663833.06066667-.9275.182s-.483.29633333-.658.525-.305667.50983333-.392.8435-.1295.7105-.1295 1.1305c0 .84.173833 1.4945.5215 1.9635s.876167.7035 1.5855.7035z"/><path d="m176.449 4.2c.154-.17266667.317333-.329.49-.469s.355833-.26016667.5495-.3605.399-.17733333.616-.231.4515-.0805.7035-.0805c.387333 0 .729167.06416667 1.0255.1925s.543667.31033333.742.546.348833.51916667.4515.8505.154.69766667.154 1.099v4.515h-1.253v-4.515c0-.53666667-.1225-.95316667-.3675-1.2495s-.617167-.4445-1.1165-.4445c-.368667 0-.712833.08866667-1.0325.266s-.614833.41766667-.8855.721v5.222h-1.253v-7.091h.749c.177333 0 .287.08633333.329.259z"/></g></g><path d="m130.5 78.158v260" stroke="#979797" stroke-linecap="square" stroke-width="2" transform="matrix(0 -1 1 0 -77.658 338.658)"/><path d="m32.871134 84.658h197.515464v43h-197.515464z" fill="#1b85af" stroke="#979797"/><g fill="#fff" fill-rule="nonzero" transform="translate(100.396 99.784)"><path d="m11.502 6.849v5.265c-.66.486-1.3635.8415-2.1105 1.0665s-1.5465.3375-2.3985.3375c-1.062 0-2.0235-.165-2.8845-.495s-1.596-.789-2.205-1.377-1.0785-1.29-1.4085-2.106-.495-1.707-.495-2.673c0-.978.159-1.875.477-2.691s.7695-1.518 1.3545-2.106 1.2945-1.044 2.1285-1.368 1.77-.486 2.808-.486c.528 0 1.0215.042 1.4805.126s.885.1995 1.278.3465.7515.3255 1.0755.5355.621.441.891.693l-.693 1.098c-.108.174-.249.2805-.423.3195s-.363-.0045-.567-.1305c-.198-.114-.396-.228-.594-.342s-.4185-.213-.6615-.297-.516-.153-.819-.207-.6525-.081-1.0485-.081c-.642 0-1.2225.108-1.7415.324s-.9615.525-1.3275.927-.648.885-.846 1.449-.297 1.194-.297 1.89c0 .744.1065 1.4085.3195 1.9935s.513 1.08.9 1.485.8535.714 1.3995.927 1.155.3195 1.827.3195c.48 0 .909-.051 1.287-.153s.747-.24 1.107-.414v-2.358h-1.638c-.156 0-.2775-.0435-.3645-.1305s-.1305-.1935-.1305-.3195v-1.368z"/><path d="m15.588 5.742c.288-.552.63-.9855 1.026-1.3005s.864-.4725 1.404-.4725c.426 0 .768.093 1.026.279l-.144 1.665c-.03.108-.0735.1845-.1305.2295s-.1335.0675-.2295.0675c-.09 0-.2235-.015-.4005-.045s-.3495-.045-.5175-.045c-.246 0-.465.036-.657.108s-.3645.1755-.5175.3105-.288.2985-.405.4905-.2265.411-.3285.657v5.688h-2.223v-9.234h1.305c.228 0 .387.0405.477.1215s.15.2265.18.4365z"/><path d="m25.083 9.432c-.642.03-1.182.0855-1.62.1665s-.789.1845-1.053.3105-.453.273-.567.441-.171.351-.171.549c0 .39.1155.669.3465.837s.5325.252.9045.252c.456 0 .8505-.0825 1.1835-.2475s.6585-.4155.9765-.7515zm-5.094-4.005c1.062-.972 2.34-1.458 3.834-1.458.54 0 1.023.0885 1.449.2655s.786.423 1.08.738.5175.6915.6705 1.1295.2295.918.2295 1.44v5.832h-1.008c-.21 0-.372-.0315-.486-.0945s-.204-.1905-.27-.3825l-.198-.666c-.234.21-.462.3945-.684.5535s-.453.2925-.693.4005-.4965.1905-.7695.2475-.5745.0855-.9045.0855c-.39 0-.75-.0525-1.08-.1575s-.615-.2625-.855-.4725-.426-.471-.558-.783-.198-.675-.198-1.089c0-.234.039-.4665.117-.6975s.2055-.4515.3825-.6615.4065-.408.6885-.594.6285-.348 1.0395-.486.8895-.2505 1.4355-.3375 1.17-.1395 1.872-.1575v-.54c0-.618-.132-1.0755-.396-1.3725s-.645-.4455-1.143-.4455c-.36 0-.6585.042-.8955.126s-.4455.1785-.6255.2835-.3435.1995-.4905.2835-.3105.126-.4905.126c-.156 0-.288-.0405-.396-.1215s-.195-.1755-.261-.2835z"/><path d="m35.136 6.498c-.252-.306-.5265-.522-.8235-.648s-.6165-.189-.9585-.189c-.336 0-.639.063-.909.189s-.501.3165-.693.5715-.339.579-.441.972-.153.8565-.153 1.3905c0 .54.0435.9975.1305 1.3725s.2115.681.3735.918.36.408.594.513.495.1575.783.1575c.462 0 .855-.096 1.179-.288s.63-.465.918-.819zm2.223-6.498v13.374h-1.359c-.294 0-.48-.135-.558-.405l-.189-.891c-.372.426-.7995.771-1.2825 1.035s-1.0455.396-1.6875.396c-.504 0-.966-.105-1.386-.315s-.7815-.5145-1.0845-.9135-.537-.8925-.702-1.4805-.2475-1.26-.2475-2.016c0-.684.093-1.32.279-1.908s.453-1.098.801-1.53.765-.7695 1.251-1.0125 1.032-.3645 1.638-.3645c.516 0 .957.081 1.323.243s.693.381.981.657v-4.869z"/><path d="m45.504 7.695c0-.288-.0405-.5595-.1215-.8145s-.2025-.4785-.3645-.6705-.3675-.3435-.6165-.4545-.5385-.1665-.8685-.1665c-.642 0-1.1475.183-1.5165.549s-.6045.885-.7065 1.557zm-4.239 1.341c.036.474.12.8835.252 1.2285s.306.63.522.855.4725.393.7695.504.6255.1665.9855.1665.6705-.042.9315-.126.489-.177.684-.279.366-.195.513-.279.2895-.126.4275-.126c.186 0 .324.069.414.207l.639.81c-.246.288-.522.5295-.828.7245s-.6255.351-.9585.468-.672.1995-1.017.2475-.6795.072-1.0035.072c-.642 0-1.239-.1065-1.791-.3195s-1.032-.528-1.44-.945-.729-.933-.963-1.548-.351-1.3275-.351-2.1375c0-.63.102-1.2225.306-1.7775s.4965-1.038.8775-1.449.846-.7365 1.395-.9765 1.1685-.36 1.8585-.36c.582 0 1.119.093 1.611.279s.915.4575 1.269.8145.6315.795.8325 1.314.3015 1.1115.3015 1.7775c0 .336-.036.5625-.108.6795s-.21.1755-.414.1755z"/><path d="m61.758 11.709v1.665h-7.2v-1.665h2.637v-7.587c0-.3.009-.609.027-.927l-1.872 1.566c-.108.084-.2145.1365-.3195.1575s-.204.0225-.297.0045-.1755-.0495-.2475-.0945-.126-.0945-.162-.1485l-.702-.963 3.969-3.375h1.827v11.367z"/></g><path d="m32.5 34.658h197.515464v43h-197.515464z" fill="#2898b8" stroke="#979797"/><g fill="#fff" fill-rule="nonzero" transform="translate(86.158 49.784)"><path d="m14.112.36v13.014h-2.133v-8.406c0-.336.018-.699.054-1.089l-3.933 7.389c-.186.354-.471.531-.855.531h-.342c-.384 0-.669-.177-.855-.531l-3.978-7.416c.018.198.033.393.045.585s.018.369.018.531v8.406h-2.133v-13.014h1.827c.108 0 .201.003.279.009s.1485.021.2115.045.12.063.171.117.1005.126.1485.216l3.897 7.227c.102.192.1965.39.2835.594s.1725.414.2565.63c.084-.222.171-.4365.261-.6435s.186-.4065.288-.5985l3.843-7.209c.048-.09.099-.162.153-.216s.1125-.093.1755-.117.1335-.039.2115-.045.171-.009.279-.009z"/><path d="m18.963 4.14v9.234h-2.232v-9.234zm.306-2.691c0 .192-.039.372-.117.54s-.1815.315-.3105.441-.2805.2265-.4545.3015-.36.1125-.558.1125c-.192 0-.3735-.0375-.5445-.1125s-.3195-.1755-.4455-.3015-.2265-.273-.3015-.441-.1125-.348-.1125-.54c0-.198.0375-.384.1125-.558s.1755-.324.3015-.45.2745-.2265.4455-.3015.3525-.1125.5445-.1125c.198 0 .384.0375.558.1125s.3255.1755.4545.3015.2325.276.3105.45.117.36.117.558z"/><path d="m23.31 5.274c.186-.186.3825-.3585.5895-.5175s.426-.294.657-.405.4785-.198.7425-.261.552-.0945.864-.0945c.504 0 .951.0855 1.341.2565s.7155.411.9765.72.459.678.594 1.107.2025.9015.2025 1.4175v5.877h-2.223v-5.877c0-.564-.129-1.0005-.387-1.3095s-.651-.4635-1.179-.4635c-.384 0-.744.087-1.08.261s-.654.411-.954.711v6.678h-2.223v-9.234h1.359c.288 0 .477.135.567.405z"/><path d="m33.687 4.14v9.234h-2.232v-9.234zm.306-2.691c0 .192-.039.372-.117.54s-.1815.315-.3105.441-.2805.2265-.4545.3015-.36.1125-.558.1125c-.192 0-.3735-.0375-.5445-.1125s-.3195-.1755-.4455-.3015-.2265-.273-.3015-.441-.1125-.348-.1125-.54c0-.198.0375-.384.1125-.558s.1755-.324.3015-.45.2745-.2265.4455-.3015.3525-.1125.5445-.1125c.198 0 .384.0375.558.1125s.3255.1755.4545.3015.2325.276.3105.45.117.36.117.558z"/><path d="m35.955 13.374v-9.234h1.359c.288 0 .477.135.567.405l.144.684c.162-.18.3315-.345.5085-.495s.366-.279.567-.387.417-.1935.648-.2565.4845-.0945.7605-.0945c.582 0 1.0605.1575 1.4355.4725s.6555.7335.8415 1.2555c.144-.306.324-.5685.54-.7875s.453-.3975.711-.5355.5325-.24.8235-.306.5835-.099.8775-.099c.51 0 .963.078 1.359.234s.729.384.999.684.4755.666.6165 1.098.2115.927.2115 1.485v5.877h-2.223v-5.877c0-.588-.129-1.0305-.387-1.3275s-.636-.4455-1.134-.4455c-.228 0-.4395.039-.6345.117s-.366.1905-.513.3375-.2625.3315-.3465.5535-.126.477-.126.765v5.877h-2.232v-5.877c0-.618-.1245-1.068-.3735-1.35s-.6135-.423-1.0935-.423c-.324 0-.6255.0795-.9045.2385s-.5385.3765-.7785.6525v6.759z"/><path d="m55.908 9.432c-.642.03-1.182.0855-1.62.1665s-.789.1845-1.053.3105-.453.273-.567.441-.171.351-.171.549c0 .39.1155.669.3465.837s.5325.252.9045.252c.456 0 .8505-.0825 1.1835-.2475s.6585-.4155.9765-.7515zm-5.094-4.005c1.062-.972 2.34-1.458 3.834-1.458.54 0 1.023.0885 1.449.2655s.786.423 1.08.738.5175.6915.6705 1.1295.2295.918.2295 1.44v5.832h-1.008c-.21 0-.372-.0315-.486-.0945s-.204-.1905-.27-.3825l-.198-.666c-.234.21-.462.3945-.684.5535s-.453.2925-.693.4005-.4965.1905-.7695.2475-.5745.0855-.9045.0855c-.39 0-.75-.0525-1.08-.1575s-.615-.2625-.855-.4725-.426-.471-.558-.783-.198-.675-.198-1.089c0-.234.039-.4665.117-.6975s.2055-.4515.3825-.6615.4065-.408.6885-.594.6285-.348 1.0395-.486.8895-.2505 1.4355-.3375 1.17-.1395 1.872-.1575v-.54c0-.618-.132-1.0755-.396-1.3725s-.645-.4455-1.143-.4455c-.36 0-.6585.042-.8955.126s-.4455.1785-.6255.2835-.3435.1995-.4905.2835-.3105.126-.4905.126c-.156 0-.288-.0405-.396-.1215s-.195-.1755-.261-.2835z"/><path d="m62.415 0v13.374h-2.223v-13.374z"/><path d="m80.334.36v13.014h-2.43v-5.688h-6.111v5.688h-2.43v-13.014h2.43v5.598h6.111v-5.598z"/><path d="m85.662 2.286v3.609h4.554v1.863h-4.554v3.681h5.778v1.935h-8.208v-13.014h8.208v1.926z"/></g><path d="m32.5 265.658h197.515464v43h-197.515464z" fill="#006993" stroke="#979797"/><g fill="#fff" fill-rule="nonzero" transform="translate(100.536732 280.784)"><path d="m11.502 6.849v5.265c-.66.486-1.3635.8415-2.1105 1.0665s-1.5465.3375-2.3985.3375c-1.062 0-2.0235-.165-2.8845-.495s-1.596-.789-2.205-1.377-1.0785-1.29-1.4085-2.106-.495-1.707-.495-2.673c0-.978.159-1.875.477-2.691s.7695-1.518 1.3545-2.106 1.2945-1.044 2.1285-1.368 1.77-.486 2.808-.486c.528 0 1.0215.042 1.4805.126s.885.1995 1.278.3465.7515.3255 1.0755.5355.621.441.891.693l-.693 1.098c-.108.174-.249.2805-.423.3195s-.363-.0045-.567-.1305c-.198-.114-.396-.228-.594-.342s-.4185-.213-.6615-.297-.516-.153-.819-.207-.6525-.081-1.0485-.081c-.642 0-1.2225.108-1.7415.324s-.9615.525-1.3275.927-.648.885-.846 1.449-.297 1.194-.297 1.89c0 .744.1065 1.4085.3195 1.9935s.513 1.08.9 1.485.8535.714 1.3995.927 1.155.3195 1.827.3195c.48 0 .909-.051 1.287-.153s.747-.24 1.107-.414v-2.358h-1.638c-.156 0-.2775-.0435-.3645-.1305s-.1305-.1935-.1305-.3195v-1.368z"/><path d="m15.588 5.742c.288-.552.63-.9855 1.026-1.3005s.864-.4725 1.404-.4725c.426 0 .768.093 1.026.279l-.144 1.665c-.03.108-.0735.1845-.1305.2295s-.1335.0675-.2295.0675c-.09 0-.2235-.015-.4005-.045s-.3495-.045-.5175-.045c-.246 0-.465.036-.657.108s-.3645.1755-.5175.3105-.288.2985-.405.4905-.2265.411-.3285.657v5.688h-2.223v-9.234h1.305c.228 0 .387.0405.477.1215s.15.2265.18.4365z"/><path d="m25.083 9.432c-.642.03-1.182.0855-1.62.1665s-.789.1845-1.053.3105-.453.273-.567.441-.171.351-.171.549c0 .39.1155.669.3465.837s.5325.252.9045.252c.456 0 .8505-.0825 1.1835-.2475s.6585-.4155.9765-.7515zm-5.094-4.005c1.062-.972 2.34-1.458 3.834-1.458.54 0 1.023.0885 1.449.2655s.786.423 1.08.738.5175.6915.6705 1.1295.2295.918.2295 1.44v5.832h-1.008c-.21 0-.372-.0315-.486-.0945s-.204-.1905-.27-.3825l-.198-.666c-.234.21-.462.3945-.684.5535s-.453.2925-.693.4005-.4965.1905-.7695.2475-.5745.0855-.9045.0855c-.39 0-.75-.0525-1.08-.1575s-.615-.2625-.855-.4725-.426-.471-.558-.783-.198-.675-.198-1.089c0-.234.039-.4665.117-.6975s.2055-.4515.3825-.6615.4065-.408.6885-.594.6285-.348 1.0395-.486.8895-.2505 1.4355-.3375 1.17-.1395 1.872-.1575v-.54c0-.618-.132-1.0755-.396-1.3725s-.645-.4455-1.143-.4455c-.36 0-.6585.042-.8955.126s-.4455.1785-.6255.2835-.3435.1995-.4905.2835-.3105.126-.4905.126c-.156 0-.288-.0405-.396-.1215s-.195-.1755-.261-.2835z"/><path d="m35.136 6.498c-.252-.306-.5265-.522-.8235-.648s-.6165-.189-.9585-.189c-.336 0-.639.063-.909.189s-.501.3165-.693.5715-.339.579-.441.972-.153.8565-.153 1.3905c0 .54.0435.9975.1305 1.3725s.2115.681.3735.918.36.408.594.513.495.1575.783.1575c.462 0 .855-.096 1.179-.288s.63-.465.918-.819zm2.223-6.498v13.374h-1.359c-.294 0-.48-.135-.558-.405l-.189-.891c-.372.426-.7995.771-1.2825 1.035s-1.0455.396-1.6875.396c-.504 0-.966-.105-1.386-.315s-.7815-.5145-1.0845-.9135-.537-.8925-.702-1.4805-.2475-1.26-.2475-2.016c0-.684.093-1.32.279-1.908s.453-1.098.801-1.53.765-.7695 1.251-1.0125 1.032-.3645 1.638-.3645c.516 0 .957.081 1.323.243s.693.381.981.657v-4.869z"/><path d="m45.504 7.695c0-.288-.0405-.5595-.1215-.8145s-.2025-.4785-.3645-.6705-.3675-.3435-.6165-.4545-.5385-.1665-.8685-.1665c-.642 0-1.1475.183-1.5165.549s-.6045.885-.7065 1.557zm-4.239 1.341c.036.474.12.8835.252 1.2285s.306.63.522.855.4725.393.7695.504.6255.1665.9855.1665.6705-.042.9315-.126.489-.177.684-.279.366-.195.513-.279.2895-.126.4275-.126c.186 0 .324.069.414.207l.639.81c-.246.288-.522.5295-.828.7245s-.6255.351-.9585.468-.672.1995-1.017.2475-.6795.072-1.0035.072c-.642 0-1.239-.1065-1.791-.3195s-1.032-.528-1.44-.945-.729-.933-.963-1.548-.351-1.3275-.351-2.1375c0-.63.102-1.2225.306-1.7775s.4965-1.038.8775-1.449.846-.7365 1.395-.9765 1.1685-.36 1.8585-.36c.582 0 1.119.093 1.611.279s.915.4575 1.269.8145.6315.795.8325 1.314.3015 1.1115.3015 1.7775c0 .336-.036.5625-.108.6795s-.21.1755-.414.1755z"/><path d="m56.322 13.374h-2.43v-13.014h2.43z"/><path d="m61.659 13.374h-2.43v-13.014h2.43z"/></g><path d="m32.5 315.658h197.515464v43h-197.515464z" fill="#01374d" stroke="#979797"/><g fill="#fff" fill-rule="nonzero" transform="translate(97.497098 330.784)"><path d="m11.502 6.849v5.265c-.66.486-1.3635.8415-2.1105 1.0665s-1.5465.3375-2.3985.3375c-1.062 0-2.0235-.165-2.8845-.495s-1.596-.789-2.205-1.377-1.0785-1.29-1.4085-2.106-.495-1.707-.495-2.673c0-.978.159-1.875.477-2.691s.7695-1.518 1.3545-2.106 1.2945-1.044 2.1285-1.368 1.77-.486 2.808-.486c.528 0 1.0215.042 1.4805.126s.885.1995 1.278.3465.7515.3255 1.0755.5355.621.441.891.693l-.693 1.098c-.108.174-.249.2805-.423.3195s-.363-.0045-.567-.1305c-.198-.114-.396-.228-.594-.342s-.4185-.213-.6615-.297-.516-.153-.819-.207-.6525-.081-1.0485-.081c-.642 0-1.2225.108-1.7415.324s-.9615.525-1.3275.927-.648.885-.846 1.449-.297 1.194-.297 1.89c0 .744.1065 1.4085.3195 1.9935s.513 1.08.9 1.485.8535.714 1.3995.927 1.155.3195 1.827.3195c.48 0 .909-.051 1.287-.153s.747-.24 1.107-.414v-2.358h-1.638c-.156 0-.2775-.0435-.3645-.1305s-.1305-.1935-.1305-.3195v-1.368z"/><path d="m15.588 5.742c.288-.552.63-.9855 1.026-1.3005s.864-.4725 1.404-.4725c.426 0 .768.093 1.026.279l-.144 1.665c-.03.108-.0735.1845-.1305.2295s-.1335.0675-.2295.0675c-.09 0-.2235-.015-.4005-.045s-.3495-.045-.5175-.045c-.246 0-.465.036-.657.108s-.3645.1755-.5175.3105-.288.2985-.405.4905-.2265.411-.3285.657v5.688h-2.223v-9.234h1.305c.228 0 .387.0405.477.1215s.15.2265.18.4365z"/><path d="m25.083 9.432c-.642.03-1.182.0855-1.62.1665s-.789.1845-1.053.3105-.453.273-.567.441-.171.351-.171.549c0 .39.1155.669.3465.837s.5325.252.9045.252c.456 0 .8505-.0825 1.1835-.2475s.6585-.4155.9765-.7515zm-5.094-4.005c1.062-.972 2.34-1.458 3.834-1.458.54 0 1.023.0885 1.449.2655s.786.423 1.08.738.5175.6915.6705 1.1295.2295.918.2295 1.44v5.832h-1.008c-.21 0-.372-.0315-.486-.0945s-.204-.1905-.27-.3825l-.198-.666c-.234.21-.462.3945-.684.5535s-.453.2925-.693.4005-.4965.1905-.7695.2475-.5745.0855-.9045.0855c-.39 0-.75-.0525-1.08-.1575s-.615-.2625-.855-.4725-.426-.471-.558-.783-.198-.675-.198-1.089c0-.234.039-.4665.117-.6975s.2055-.4515.3825-.6615.4065-.408.6885-.594.6285-.348 1.0395-.486.8895-.2505 1.4355-.3375 1.17-.1395 1.872-.1575v-.54c0-.618-.132-1.0755-.396-1.3725s-.645-.4455-1.143-.4455c-.36 0-.6585.042-.8955.126s-.4455.1785-.6255.2835-.3435.1995-.4905.2835-.3105.126-.4905.126c-.156 0-.288-.0405-.396-.1215s-.195-.1755-.261-.2835z"/><path d="m35.136 6.498c-.252-.306-.5265-.522-.8235-.648s-.6165-.189-.9585-.189c-.336 0-.639.063-.909.189s-.501.3165-.693.5715-.339.579-.441.972-.153.8565-.153 1.3905c0 .54.0435.9975.1305 1.3725s.2115.681.3735.918.36.408.594.513.495.1575.783.1575c.462 0 .855-.096 1.179-.288s.63-.465.918-.819zm2.223-6.498v13.374h-1.359c-.294 0-.48-.135-.558-.405l-.189-.891c-.372.426-.7995.771-1.2825 1.035s-1.0455.396-1.6875.396c-.504 0-.966-.105-1.386-.315s-.7815-.5145-1.0845-.9135-.537-.8925-.702-1.4805-.2475-1.26-.2475-2.016c0-.684.093-1.32.279-1.908s.453-1.098.801-1.53.765-.7695 1.251-1.0125 1.032-.3645 1.638-.3645c.516 0 .957.081 1.323.243s.693.381.981.657v-4.869z"/><path d="m45.504 7.695c0-.288-.0405-.5595-.1215-.8145s-.2025-.4785-.3645-.6705-.3675-.3435-.6165-.4545-.5385-.1665-.8685-.1665c-.642 0-1.1475.183-1.5165.549s-.6045.885-.7065 1.557zm-4.239 1.341c.036.474.12.8835.252 1.2285s.306.63.522.855.4725.393.7695.504.6255.1665.9855.1665.6705-.042.9315-.126.489-.177.684-.279.366-.195.513-.279.2895-.126.4275-.126c.186 0 .324.069.414.207l.639.81c-.246.288-.522.5295-.828.7245s-.6255.351-.9585.468-.672.1995-1.017.2475-.6795.072-1.0035.072c-.642 0-1.239-.1065-1.791-.3195s-1.032-.528-1.44-.945-.729-.933-.963-1.548-.351-1.3275-.351-2.1375c0-.63.102-1.2225.306-1.7775s.4965-1.038.8775-1.449.846-.7365 1.395-.9765 1.1685-.36 1.8585-.36c.582 0 1.119.093 1.611.279s.915.4575 1.269.8145.6315.795.8325 1.314.3015 1.1115.3015 1.7775c0 .336-.036.5625-.108.6795s-.21.1755-.414.1755z"/><path d="m56.322 13.374h-2.43v-13.014h2.43z"/><path d="m61.659 13.374h-2.43v-13.014h2.43z"/><path d="m66.996 13.374h-2.43v-13.014h2.43z"/></g><path d="m32.5 365.658h197.515464v43h-197.515464z" fill="#000" stroke="#979797"/><g fill="#fff" fill-rule="nonzero" transform="translate(96.212464 380.784)"><path d="m11.502 6.849v5.265c-.66.486-1.3635.8415-2.1105 1.0665s-1.5465.3375-2.3985.3375c-1.062 0-2.0235-.165-2.8845-.495s-1.596-.789-2.205-1.377-1.0785-1.29-1.4085-2.106-.495-1.707-.495-2.673c0-.978.159-1.875.477-2.691s.7695-1.518 1.3545-2.106 1.2945-1.044 2.1285-1.368 1.77-.486 2.808-.486c.528 0 1.0215.042 1.4805.126s.885.1995 1.278.3465.7515.3255 1.0755.5355.621.441.891.693l-.693 1.098c-.108.174-.249.2805-.423.3195s-.363-.0045-.567-.1305c-.198-.114-.396-.228-.594-.342s-.4185-.213-.6615-.297-.516-.153-.819-.207-.6525-.081-1.0485-.081c-.642 0-1.2225.108-1.7415.324s-.9615.525-1.3275.927-.648.885-.846 1.449-.297 1.194-.297 1.89c0 .744.1065 1.4085.3195 1.9935s.513 1.08.9 1.485.8535.714 1.3995.927 1.155.3195 1.827.3195c.48 0 .909-.051 1.287-.153s.747-.24 1.107-.414v-2.358h-1.638c-.156 0-.2775-.0435-.3645-.1305s-.1305-.1935-.1305-.3195v-1.368z"/><path d="m15.588 5.742c.288-.552.63-.9855 1.026-1.3005s.864-.4725 1.404-.4725c.426 0 .768.093 1.026.279l-.144 1.665c-.03.108-.0735.1845-.1305.2295s-.1335.0675-.2295.0675c-.09 0-.2235-.015-.4005-.045s-.3495-.045-.5175-.045c-.246 0-.465.036-.657.108s-.3645.1755-.5175.3105-.288.2985-.405.4905-.2265.411-.3285.657v5.688h-2.223v-9.234h1.305c.228 0 .387.0405.477.1215s.15.2265.18.4365z"/><path d="m25.083 9.432c-.642.03-1.182.0855-1.62.1665s-.789.1845-1.053.3105-.453.273-.567.441-.171.351-.171.549c0 .39.1155.669.3465.837s.5325.252.9045.252c.456 0 .8505-.0825 1.1835-.2475s.6585-.4155.9765-.7515zm-5.094-4.005c1.062-.972 2.34-1.458 3.834-1.458.54 0 1.023.0885 1.449.2655s.786.423 1.08.738.5175.6915.6705 1.1295.2295.918.2295 1.44v5.832h-1.008c-.21 0-.372-.0315-.486-.0945s-.204-.1905-.27-.3825l-.198-.666c-.234.21-.462.3945-.684.5535s-.453.2925-.693.4005-.4965.1905-.7695.2475-.5745.0855-.9045.0855c-.39 0-.75-.0525-1.08-.1575s-.615-.2625-.855-.4725-.426-.471-.558-.783-.198-.675-.198-1.089c0-.234.039-.4665.117-.6975s.2055-.4515.3825-.6615.4065-.408.6885-.594.6285-.348 1.0395-.486.8895-.2505 1.4355-.3375 1.17-.1395 1.872-.1575v-.54c0-.618-.132-1.0755-.396-1.3725s-.645-.4455-1.143-.4455c-.36 0-.6585.042-.8955.126s-.4455.1785-.6255.2835-.3435.1995-.4905.2835-.3105.126-.4905.126c-.156 0-.288-.0405-.396-.1215s-.195-.1755-.261-.2835z"/><path d="m35.136 6.498c-.252-.306-.5265-.522-.8235-.648s-.6165-.189-.9585-.189c-.336 0-.639.063-.909.189s-.501.3165-.693.5715-.339.579-.441.972-.153.8565-.153 1.3905c0 .54.0435.9975.1305 1.3725s.2115.681.3735.918.36.408.594.513.495.1575.783.1575c.462 0 .855-.096 1.179-.288s.63-.465.918-.819zm2.223-6.498v13.374h-1.359c-.294 0-.48-.135-.558-.405l-.189-.891c-.372.426-.7995.771-1.2825 1.035s-1.0455.396-1.6875.396c-.504 0-.966-.105-1.386-.315s-.7815-.5145-1.0845-.9135-.537-.8925-.702-1.4805-.2475-1.26-.2475-2.016c0-.684.093-1.32.279-1.908s.453-1.098.801-1.53.765-.7695 1.251-1.0125 1.032-.3645 1.638-.3645c.516 0 .957.081 1.323.243s.693.381.981.657v-4.869z"/><path d="m45.504 7.695c0-.288-.0405-.5595-.1215-.8145s-.2025-.4785-.3645-.6705-.3675-.3435-.6165-.4545-.5385-.1665-.8685-.1665c-.642 0-1.1475.183-1.5165.549s-.6045.885-.7065 1.557zm-4.239 1.341c.036.474.12.8835.252 1.2285s.306.63.522.855.4725.393.7695.504.6255.1665.9855.1665.6705-.042.9315-.126.489-.177.684-.279.366-.195.513-.279.2895-.126.4275-.126c.186 0 .324.069.414.207l.639.81c-.246.288-.522.5295-.828.7245s-.6255.351-.9585.468-.672.1995-1.017.2475-.6795.072-1.0035.072c-.642 0-1.239-.1065-1.791-.3195s-1.032-.528-1.44-.945-.729-.933-.963-1.548-.351-1.3275-.351-2.1375c0-.63.102-1.2225.306-1.7775s.4965-1.038.8775-1.449.846-.7365 1.395-.9765 1.1685-.36 1.8585-.36c.582 0 1.119.093 1.611.279s.915.4575 1.269.8145.6315.795.8325 1.314.3015 1.1115.3015 1.7775c0 .336-.036.5625-.108.6795s-.21.1755-.414.1755z"/><path d="m56.322 13.374h-2.43v-13.014h2.43z"/><path d="m70.38.36-5.256 13.014h-2.187l-5.256-13.014h1.944c.21 0 .381.051.513.153s.231.234.297.396l3.069 7.938c.102.258.1995.5415.2925.8505s.1815.6315.2655.9675c.072-.336.15-.6585.234-.9675s.177-.5925.279-.8505l3.051-7.938c.048-.138.1425-.264.2835-.378s.3135-.171.5175-.171z"/></g><path d="m244.5 249.158v166.999l6 .001-7 14-7-14 6-.001v-166.999z" fill="#4a4a4a" fill-rule="nonzero"/></g></svg>