<svg height="260" viewBox="0 0 417 260" width="417" xmlns="http://www.w3.org/2000/svg"><g fill="none" fill-rule="evenodd"><rect fill="#e7e7e7" height="260" rx="10" width="417"/><g fill-rule="nonzero"><g fill="#006993" transform="translate(38.265 24.13)"><path d="m4.37 7.29c.50666667 0 .94833333-.06333333 1.325-.19s.68666667-.30166667.93-.525.425-.48833333.545-.795.18-.64333333.18-1.01c0-.73333333-.24166667-1.29666667-.725-1.69s-1.22166667-.59-2.215-.59h-1.72v4.8zm6.92 7.58h-2.43c-.46 0-.79333333-.18-1-.54l-3.04-4.63c-.11333333-.17333333-.23833333-.29666667-.375-.37s-.33833333-.11-.605-.11h-1.15v5.65h-2.69v-14.46h4.41c.98 0 1.82166667.10166667 2.525.305s1.28.48833333 1.73.855.78166667.805.995 1.315.32 1.07166667.32 1.685c0 .48666667-.07166667.94666667-.215 1.38s-.35.82666667-.62 1.18-.60333333.66333333-1 .93-.84833333.47666667-1.355.63c.17333333.1.33333333.21833333.48.355s.28.29833333.4.485z"/><path d="m15.03 4.61v10.26h-2.48v-10.26zm.34-2.99c0 .21333333-.0433333.41333333-.13.6s-.2016667.35-.345.49-.3116667.25166667-.505.335-.4.125-.62.125c-.2133333 0-.415-.04166667-.605-.125s-.355-.195-.495-.335-.2516667-.30333333-.335-.49-.125-.38666667-.125-.6c0-.22.0416667-.42666667.125-.62s.195-.36.335-.5.305-.25166667.495-.335.3916667-.125.605-.125c.22 0 .4266667.04166667.62.125s.3616667.195.505.335.2583333.30666667.345.5.13.4.13.62z"/><path d="m23.81 6.61c-.0666667.10666667-.1366667.18166667-.21.225s-.1666667.065-.28.065c-.12 0-.2483333-.03333333-.385-.1s-.295-.14166667-.475-.225-.385-.15833333-.615-.225-.5016667-.1-.815-.1c-.4866667 0-.8683333.10333333-1.145.31s-.415.47666667-.415.81c0 .22.0716667.405.215.555s.3333333.28166667.57.395.505.215.805.305.605.18833333.915.295.615.22833333.915.365.5683333.31.805.52.4266667.4616667.57.755.215.6466667.215 1.06c0 .4933333-.0883333.9483333-.265 1.365s-.4383333.7766667-.785 1.08-.775.54-1.285.71-1.0983333.255-1.765.255c-.3533333 0-.6983333-.0316667-1.035-.095s-.66-.1516667-.97-.265-.5966667-.2466667-.86-.4-.495-.32-.695-.5l.57-.94c.0733333-.1133333.16-.2.26-.26s.2266667-.09.38-.09.2983333.0433333.435.13.295.18.475.28.3916667.1933333.635.28.5516667.13.925.13c.2933333 0 .545-.035.755-.105s.3833333-.1616667.52-.275.2366667-.245.3-.395.095-.305.095-.465c0-.24-.0716667-.4366667-.215-.59s-.3333333-.2866667-.57-.4-.5066667-.215-.81-.305-.6133333-.1883333-.93-.295-.6266667-.2316667-.93-.375c-.3033333-.14333333-.5733333-.325-.81-.545s-.4266667-.49-.57-.81-.215-.70666667-.215-1.16c0-.42.0833333-.82.25-1.2s.4116667-.71166667.735-.995.7266667-.51 1.21-.68 1.0416667-.255 1.675-.255c.7066667 0 1.35.11666667 1.93.35s1.0633333.54 1.45.92z"/><path d="m28.81.01v8.51h.46c.1666667 0 .2983333-.02166667.395-.065s.195-.13166667.295-.265l2.55-3.15c.1066667-.14.225-.24666667.355-.32s.2983333-.11.505-.11h2.26l-3.19 3.81c-.2266667.3-.4733333.53-.74.69.14.1.265.21666667.375.35s.215.27666667.315.43l3.42 4.98h-2.23c-.1933333 0-.36-.0316667-.5-.095s-.2566667-.1783333-.35-.345l-2.62-3.89c-.0933333-.1533333-.19-.2533333-.29-.3s-.25-.07-.45-.07h-.56v4.7h-2.47v-14.86z"/><path d="m46.43 4.45c.76 0 1.4516667.12333333 2.075.37s1.1566667.59666667 1.6 1.05.785 1.00666667 1.025 1.66.36 1.38333333.36 2.19c0 .8133333-.12 1.5466667-.36 2.2s-.5816667 1.21-1.025 1.67-.9766667.8133333-1.6 1.06-1.315.37-2.075.37c-.7666667 0-1.4633333-.1233333-2.09-.37s-1.1616667-.6-1.605-1.06-.7866667-1.0166667-1.03-1.67-.365-1.3866667-.365-2.2c0-.80666667.1216667-1.53666667.365-2.19s.5866667-1.20666667 1.03-1.66.9783333-.80333333 1.605-1.05 1.3233333-.37 2.09-.37zm0 8.67c.8533333 0 1.485-.2866667 1.895-.86s.615-1.4133333.615-2.52c0-1.10666667-.205-1.95-.615-2.53s-1.0416667-.87-1.895-.87c-.8666667 0-1.5083333.29166667-1.925.875s-.625 1.425-.625 2.525.2083333 1.9383333.625 2.515 1.0583333.865 1.925.865z"/><path d="m54.1 14.87v-8.4l-.89-.14c-.1933333-.04-.3483333-.10833333-.465-.205s-.175-.235-.175-.415v-1.01h1.53v-.76c0-.58666667.0883333-1.11333333.265-1.58s.43-.86333333.76-1.19.7316667-.57666667 1.205-.75 1.0066667-.26 1.6-.26c.4733333 0 .9133333.06333333 1.32.19l-.05 1.24c-.0066667.09333333-.0333333.16833333-.08.225s-.1083333.1-.185.13-.165.05-.265.06-.2066667.015-.32.015c-.2933333 0-.555.03166667-.785.095s-.425.17333333-.585.33-.2816667.36333333-.365.62-.125.575-.125.955v.68h2.67v1.76h-2.59v8.41z"/><path d="m68.5 14.87h-2.7v-14.46h2.7z"/><path d="m73.65 5.87c.2066667-.20666667.425-.39833333.655-.575s.4733333-.32666667.73-.45.5316667-.22.825-.29.6133333-.105.96-.105c.56 0 1.0566667.095 1.49.285s.795.45666667 1.085.8.51.75333333.66 1.23.225 1.00166667.225 1.575v6.53h-2.47v-6.53c0-.62666667-.1433333-1.11166667-.43-1.455s-.7233333-.515-1.31-.515c-.4266667 0-.8266667.09666667-1.2.29s-.7266667.45666667-1.06.79v7.42h-2.47v-10.26h1.51c.32 0 .53.15.63.45z"/><path d="m85.18 4.61v10.26h-2.48v-10.26zm.34-2.99c0 .21333333-.0433333.41333333-.13.6s-.2016667.35-.345.49-.3116667.25166667-.505.335-.4.125-.62.125c-.2133333 0-.415-.04166667-.605-.125s-.355-.195-.495-.335-.2516667-.30333333-.335-.49-.125-.38666667-.125-.6c0-.22.0416667-.42666667.125-.62s.195-.36.335-.5.305-.25166667.495-.335.3916667-.125.605-.125c.22 0 .4266667.04166667.62.125s.3616667.195.505.335.2583333.30666667.345.5.13.4.13.62z"/><path d="m98.05 14.87h-2.47v-8.41h-4.76v5.56c0 .32.0783333.57.235.75s.3716667.27.645.27c.1533333 0 .2816667-.0183333.385-.055s.1933333-.075.27-.115.145-.0783333.205-.115.12-.055.18-.055c.0733333 0 .1333333.0183333.18.055s.0966667.0916667.15.165l.74 1.2c-.36.3-.7733333.5266667-1.24.68s-.95.23-1.45.23c-.8933333 0-1.5783333-.2516667-2.055-.755s-.715-1.1983333-.715-2.085v-5.73h-1.05c-.1333333 0-.2466667-.04333333-.34-.13s-.14-.21666667-.14-.39v-.98l1.65-.28.52-2.79c.0333333-.13333333.0966667-.23666667.19-.31s.2133333-.11.36-.11h1.28v3.23h7.23zm.43-13.29c0 .21333333-.0433333.415-.13.605s-.2016667.355-.345.495-.3133333.25166667-.51.335-.405.125-.625.125c-.2133333 0-.4133333-.04166667-.6-.125s-.35-.195-.49-.335-.2516667-.305-.335-.495-.125-.39166667-.125-.605c0-.22.0416667-.425.125-.615s.195-.35666667.335-.5.3033333-.25666667.49-.34.3866667-.125.6-.125c.22 0 .4283333.04166667.625.125s.3666667.19666667.51.34.2583333.31.345.5.13.395.13.615z"/><path d="m105.99 10.49c-.713333.0333333-1.313333.095-1.8.185s-.876667.205-1.17.345-.503333.3033333-.63.49-.19.39-.19.61c0 .4333333.128333.7433333.385.93s.591667.28 1.005.28c.506667 0 .945-.0916667 1.315-.275s.731667-.4616667 1.085-.835zm-5.66-4.45c1.18-1.08 2.6-1.62 4.26-1.62.6 0 1.136667.09833333 1.61.295s.873333.47 1.2.82.575.76833333.745 1.255.255 1.02.255 1.6v6.48h-1.12c-.233333 0-.413333-.035-.54-.105s-.226667-.2116667-.3-.425l-.22-.74c-.26.2333333-.513333.4383333-.76.615s-.503333.325-.77.445-.551667.2116667-.855.275-.638333.095-1.005.095c-.433333 0-.833333-.0583333-1.2-.175s-.683333-.2916667-.95-.525-.473333-.5233333-.62-.87c-.1466667-.3466667-.22-.75-.22-1.21 0-.26.0433333-.5183333.13-.775.086667-.2566667.228333-.5016667.425-.735s.451667-.4533333.765-.66c.313333-.20666667.698333-.38666667 1.155-.54s.988333-.27833333 1.595-.375 1.3-.155 2.08-.175v-.6c0-.68666667-.146667-1.195-.44-1.525s-.716667-.495-1.27-.495c-.4 0-.731667.04666667-.995.14s-.495.19833333-.695.315-.381667.22166667-.545.315-.345.14-.545.14c-.173333 0-.32-.045-.44-.135s-.216667-.195-.29-.315z"/><path d="m113.22.01v14.86h-2.47v-14.86z"/><path d="m134.73 7.64c0 1.06-.175 2.04166667-.525 2.945-.35.9033333-.845 1.685-1.485 2.345s-1.41 1.175-2.31 1.545-1.9.555-3 .555c-1.093333 0-2.09-.185-2.99-.555s-1.671667-.885-2.315-1.545-1.141667-1.4416667-1.495-2.345c-.353333-.90333333-.53-1.885-.53-2.945s.176667-2.04166667.53-2.945.851667-1.685 1.495-2.345 1.415-1.175 2.315-1.545 1.896667-.555 2.99-.555c.733333 0 1.423333.085 2.07.255s1.24.41 1.78.72 1.025.68666667 1.455 1.13.795.93833333 1.095 1.485.528333 1.14.685 1.78.235 1.31333333.235 2.02zm-2.75 0c0-.79333333-.106667-1.505-.32-2.135s-.516667-1.165-.91-1.605-.871667-.77666667-1.435-1.01-1.198333-.35-1.905-.35-1.341667.11666667-1.905.35-1.043333.57-1.44 1.01-.701667.975-.915 1.605-.32 1.34166667-.32 2.135.106667 1.505.32 2.135.518333 1.1633333.915 1.6.876667.7716667 1.44 1.005 1.198333.35 1.905.35 1.341667-.1166667 1.905-.35 1.041667-.5683333 1.435-1.005.696667-.97.91-1.6.32-1.34166667.32-2.135z"/><path d="m144.06 6.78c-.073333.09333333-.145.16666667-.215.22s-.171667.08-.305.08c-.126667 0-.25-.03833333-.37-.115s-.263333-.16333333-.43-.26-.365-.18333333-.595-.26-.515-.115-.855-.115c-.433333 0-.813333.07833333-1.14.235s-.598333.38166667-.815.675-.378333.64833333-.485 1.065-.16.88833333-.16 1.415c0 .5466667.058333 1.0333333.175 1.46s.285.785.505 1.075.486667.51.8.66.666667.225 1.06.225.711667-.0483333.955-.145.448333-.2033333.615-.32.311667-.2233333.435-.32.261667-.145.415-.145c.2 0 .35.0766667.45.23l.71.9c-.273333.32-.57.5883333-.89.805s-.651667.39-.995.52-.696667.2216667-1.06.275-.725.08-1.085.08c-.633333 0-1.23-.1183333-1.79-.355s-1.05-.5816667-1.47-1.035-.751667-1.0083333-.995-1.665-.365-1.405-.365-2.245c0-.75333333.108333-1.45166667.325-2.095s.535-1.2.955-1.67.94-.83833333 1.56-1.105 1.333333-.4 2.14-.4c.766667 0 1.438333.12333333 2.015.37s1.095.6 1.555 1.06z"/><path d="m153.7 6.78c-.073333.09333333-.145.16666667-.215.22s-.171667.08-.305.08c-.126667 0-.25-.03833333-.37-.115s-.263333-.16333333-.43-.26-.365-.18333333-.595-.26-.515-.115-.855-.115c-.433333 0-.813333.07833333-1.14.235s-.598333.38166667-.815.675-.378333.64833333-.485 1.065-.16.88833333-.16 1.415c0 .5466667.058333 1.0333333.175 1.46s.285.785.505 1.075.486667.51.8.66.666667.225 1.06.225.711667-.0483333.955-.145.448333-.2033333.615-.32.311667-.2233333.435-.32.261667-.145.415-.145c.2 0 .35.0766667.45.23l.71.9c-.273333.32-.57.5883333-.89.805s-.651667.39-.995.52-.696667.2216667-1.06.275-.725.08-1.085.08c-.633333 0-1.23-.1183333-1.79-.355s-1.05-.5816667-1.47-1.035-.751667-1.0083333-.995-1.665-.365-1.405-.365-2.245c0-.75333333.108333-1.45166667.325-2.095s.535-1.2.955-1.67.94-.83833333 1.56-1.105 1.333333-.4 2.14-.4c.766667 0 1.438333.12333333 2.015.37s1.095.6 1.555 1.06z"/><path d="m164.83 4.61v10.26h-1.51c-.326667 0-.533333-.15-.62-.45l-.17-.82c-.42.4266667-.883333.7716667-1.39 1.035s-1.103333.395-1.79.395c-.56 0-1.055-.095-1.485-.285s-.791667-.4583333-1.085-.805-.515-.7583333-.665-1.235-.225-1.0016667-.225-1.575v-6.52h2.47v6.52c0 .6266667.145 1.1116667.435 1.455s.725.515 1.305.515c.426667 0 .826667-.095 1.2-.285s.726667-.4516667 1.06-.785v-7.42z"/><path d="m169.6 6.39c.32-.61333333.7-1.095 1.14-1.445s.96-.525 1.56-.525c.473333 0 .853333.10333333 1.14.31l-.16 1.85c-.033333.12-.081667.205-.145.255s-.148333.075-.255.075c-.1 0-.248333-.01666667-.445-.05s-.388333-.05-.575-.05c-.273333 0-.516667.04-.73.12s-.405.195-.575.345-.32.33166667-.45.545-.251667.45666667-.365.73v6.32h-2.47v-10.26h1.45c.253333 0 .43.045.53.135s.166667.25166667.2.485z"/><path d="m177.06 6.39c.32-.61333333.7-1.095 1.14-1.445s.96-.525 1.56-.525c.473333 0 .853333.10333333 1.14.31l-.16 1.85c-.033333.12-.081667.205-.145.255s-.148333.075-.255.075c-.1 0-.248333-.01666667-.445-.05s-.388333-.05-.575-.05c-.273333 0-.516667.04-.73.12s-.405.195-.575.345-.32.33166667-.45.545-.251667.45666667-.365.73v6.32h-2.47v-10.26h1.45c.253333 0 .43.045.53.135s.166667.25166667.2.485z"/><path d="m188.8 8.56c0-.32-.045-.62166667-.135-.905s-.225-.53166667-.405-.745-.408333-.38166667-.685-.505-.598333-.185-.965-.185c-.713333 0-1.275.20333333-1.685.61s-.671667.98333333-.785 1.73zm-4.71 1.49c.04.5266667.133333.9816667.28 1.365s.34.7.58.95.525.4366667.855.56.695.185 1.095.185.745-.0466667 1.035-.14.543333-.1966667.76-.31.406667-.2166667.57-.31.321667-.14.475-.14c.206667 0 .36.0766667.46.23l.71.9c-.273333.32-.58.5883333-.92.805s-.695.39-1.065.52-.746667.2216667-1.13.275-.755.08-1.115.08c-.713333 0-1.376667-.1183333-1.99-.355s-1.146667-.5866667-1.6-1.05-.81-1.0366667-1.07-1.72-.39-1.475-.39-2.375c0-.7.113333-1.35833333.34-1.975s.551667-1.15333333.975-1.61.94-.81833333 1.55-1.085 1.298333-.4 2.065-.4c.646667 0 1.243333.10333333 1.79.31s1.016667.50833333 1.41.905.701667.88333333.925 1.46.335 1.235.335 1.975c0 .37333333-.04.625-.12.755s-.233333.195-.46.195z"/><path d="m195.18 5.87c.206667-.20666667.425-.39833333.655-.575s.473333-.32666667.73-.45.531667-.22.825-.29.613333-.105.96-.105c.56 0 1.056667.095 1.49.285s.795.45666667 1.085.8.51.75333333.66 1.23.225 1.00166667.225 1.575v6.53h-2.47v-6.53c0-.62666667-.143333-1.11166667-.43-1.455s-.723333-.515-1.31-.515c-.426667 0-.826667.09666667-1.2.29s-.726667.45666667-1.06.79v7.42h-2.47v-10.26h1.51c.32 0 .53.15.63.45z"/><path d="m211.5 6.78c-.073333.09333333-.145.16666667-.215.22s-.171667.08-.305.08c-.126667 0-.25-.03833333-.37-.115s-.263333-.16333333-.43-.26-.365-.18333333-.595-.26-.515-.115-.855-.115c-.433333 0-.813333.07833333-1.14.235s-.598333.38166667-.815.675-.378333.64833333-.485 1.065-.16.88833333-.16 1.415c0 .5466667.058333 1.0333333.175 1.46s.285.785.505 1.075.486667.51.8.66.666667.225 1.06.225.711667-.0483333.955-.145.448333-.2033333.615-.32.311667-.2233333.435-.32.261667-.145.415-.145c.2 0 .35.0766667.45.23l.71.9c-.273333.32-.57.5883333-.89.805s-.651667.39-.995.52-.696667.2216667-1.06.275-.725.08-1.085.08c-.633333 0-1.23-.1183333-1.79-.355s-1.05-.5816667-1.47-1.035-.751667-1.0083333-.995-1.665-.365-1.405-.365-2.245c0-.75333333.108333-1.45166667.325-2.095s.535-1.2.955-1.67.94-.83833333 1.56-1.105 1.333333-.4 2.14-.4c.766667 0 1.438333.12333333 2.015.37s1.095.6 1.555 1.06z"/><path d="m220.4 8.56c0-.32-.045-.62166667-.135-.905s-.225-.53166667-.405-.745-.408333-.38166667-.685-.505-.598333-.185-.965-.185c-.713333 0-1.275.20333333-1.685.61s-.671667.98333333-.785 1.73zm-4.71 1.49c.04.5266667.133333.9816667.28 1.365s.34.7.58.95.525.4366667.855.56.695.185 1.095.185.745-.0466667 1.035-.14.543333-.1966667.76-.31.406667-.2166667.57-.31.321667-.14.475-.14c.206667 0 .36.0766667.46.23l.71.9c-.273333.32-.58.5883333-.92.805s-.695.39-1.065.52-.746667.2216667-1.13.275-.755.08-1.115.08c-.713333 0-1.376667-.1183333-1.99-.355s-1.146667-.5866667-1.6-1.05-.81-1.0366667-1.07-1.72-.39-1.475-.39-2.375c0-.7.113333-1.35833333.34-1.975s.551667-1.15333333.975-1.61.94-.81833333 1.55-1.085 1.298333-.4 2.065-.4c.646667 0 1.243333.10333333 1.79.31s1.016667.50833333 1.41.905.701667.88333333.925 1.46.335 1.235.335 1.975c0 .37333333-.04.625-.12.755s-.233333.195-.46.195z"/><path d="m233.87 4.45c.76 0 1.451667.12333333 2.075.37s1.156667.59666667 1.6 1.05.785 1.00666667 1.025 1.66.36 1.38333333.36 2.19c0 .8133333-.12 1.5466667-.36 2.2s-.581667 1.21-1.025 1.67-.976667.8133333-1.6 1.06-1.315.37-2.075.37c-.766667 0-1.463333-.1233333-2.09-.37s-1.161667-.6-1.605-1.06-.786667-1.0166667-1.03-1.67-.365-1.3866667-.365-2.2c0-.80666667.121667-1.53666667.365-2.19s.586667-1.20666667 1.03-1.66.978333-.80333333 1.605-1.05 1.323333-.37 2.09-.37zm0 8.67c.853333 0 1.485-.2866667 1.895-.86s.615-1.4133333.615-2.52c0-1.10666667-.205-1.95-.615-2.53s-1.041667-.87-1.895-.87c-.866667 0-1.508333.29166667-1.925.875s-.625 1.425-.625 2.525.208333 1.9383333.625 2.515 1.058333.865 1.925.865z"/><path d="m241.54 14.87v-8.4l-.89-.14c-.193333-.04-.348333-.10833333-.465-.205s-.175-.235-.175-.415v-1.01h1.53v-.76c0-.58666667.088333-1.11333333.265-1.58s.43-.86333333.76-1.19.731667-.57666667 1.205-.75 1.006667-.26 1.6-.26c.473333 0 .913333.06333333 1.32.19l-.05 1.24c-.006667.09333333-.033333.16833333-.08.225s-.108333.1-.185.13-.165.05-.265.06-.206667.015-.32.015c-.293333 0-.555.03166667-.785.095s-.425.17333333-.585.33-.281667.36333333-.365.62-.125.575-.125.955v.68h2.67v1.76h-2.59v8.41z"/><path d="m267.03 7.64c0 1.06-.175 2.04166667-.525 2.945-.35.9033333-.845 1.685-1.485 2.345s-1.41 1.175-2.31 1.545-1.9.555-3 .555c-1.093333 0-2.09-.185-2.99-.555s-1.671667-.885-2.315-1.545-1.141667-1.4416667-1.495-2.345c-.353333-.90333333-.53-1.885-.53-2.945s.176667-2.04166667.53-2.945.851667-1.685 1.495-2.345 1.415-1.175 2.315-1.545 1.896667-.555 2.99-.555c.733333 0 1.423333.085 2.07.255s1.24.41 1.78.72 1.025.68666667 1.455 1.13.795.93833333 1.095 1.485.528333 1.14.685 1.78.235 1.31333333.235 2.02zm-2.75 0c0-.79333333-.106667-1.505-.32-2.135s-.516667-1.165-.91-1.605-.871667-.77666667-1.435-1.01-1.198333-.35-1.905-.35-1.341667.11666667-1.905.35-1.043333.57-1.44 1.01-.701667.975-.915 1.605-.32 1.34166667-.32 2.135.106667 1.505.32 2.135.518333 1.1633333.915 1.6.876667.7716667 1.44 1.005 1.198333.35 1.905.35 1.341667-.1166667 1.905-.35 1.041667-.5683333 1.435-1.005.696667-.97.91-1.6.32-1.34166667.32-2.135z"/><path d="m278.26 4.61-4.07 10.26h-2.24l-4.07-10.26h2.04c.186667 0 .341667.04333333.465.13s.205.19666667.245.33l1.98 5.48c.106667.32.2.6333333.28.94s.15.6133333.21.92c.066667-.3066667.14-.6133333.22-.92s.176667-.62.29-.94l2.02-5.48c.046667-.13333333.13-.24333333.25-.33s.263333-.13.43-.13z"/><path d="m286.18 8.56c0-.32-.045-.62166667-.135-.905s-.225-.53166667-.405-.745-.408333-.38166667-.685-.505-.598333-.185-.965-.185c-.713333 0-1.275.20333333-1.685.61s-.671667.98333333-.785 1.73zm-4.71 1.49c.04.5266667.133333.9816667.28 1.365s.34.7.58.95.525.4366667.855.56.695.185 1.095.185.745-.0466667 1.035-.14.543333-.1966667.76-.31.406667-.2166667.57-.31.321667-.14.475-.14c.206667 0 .36.0766667.46.23l.71.9c-.273333.32-.58.5883333-.92.805s-.695.39-1.065.52-.746667.2216667-1.13.275-.755.08-1.115.08c-.713333 0-1.376667-.1183333-1.99-.355s-1.146667-.5866667-1.6-1.05-.81-1.0366667-1.07-1.72-.39-1.475-.39-2.375c0-.7.113333-1.35833333.34-1.975s.551667-1.15333333.975-1.61.94-.81833333 1.55-1.085 1.298333-.4 2.065-.4c.646667 0 1.243333.10333333 1.79.31s1.016667.50833333 1.41.905.701667.88333333.925 1.46.335 1.235.335 1.975c0 .37333333-.04.625-.12.755s-.233333.195-.46.195z"/><path d="m292.58 6.39c.32-.61333333.7-1.095 1.14-1.445s.96-.525 1.56-.525c.473333 0 .853333.10333333 1.14.31l-.16 1.85c-.033333.12-.081667.205-.145.255s-.148333.075-.255.075c-.1 0-.248333-.01666667-.445-.05s-.388333-.05-.575-.05c-.273333 0-.516667.04-.73.12s-.405.195-.575.345-.32.33166667-.45.545-.251667.45666667-.365.73v6.32h-2.47v-10.26h1.45c.253333 0 .43.045.53.135s.166667.25166667.2.485z"/><path d="m301.13 15.03c-.893333 0-1.578333-.2516667-2.055-.755s-.715-1.1983333-.715-2.085v-5.73h-1.05c-.133333 0-.246667-.04333333-.34-.13s-.14-.21666667-.14-.39v-.98l1.65-.27.52-2.8c.033333-.13333333.096667-.23666667.19-.31s.213333-.11.36-.11h1.28v3.23h2.74v1.76h-2.74v5.56c0 .32.078333.57.235.75s.371667.27.645.27c.153333 0 .281667-.0183333.385-.055s.193333-.075.27-.115.145-.0783333.205-.115.12-.055.18-.055c.073333 0 .133333.0183333.18.055s.096667.0916667.15.165l.74 1.2c-.36.3-.773333.5266667-1.24.68s-.95.23-1.45.23z"/><path d="m322.59.41v14.46h-2.7v-6.32h-6.79v6.32h-2.7v-14.46h2.7v6.22h6.79v-6.22z"/><path d="m328.51 2.55v4.01h5.06v2.07h-5.06v4.09h6.42v2.15h-9.12v-14.46h9.12v2.14z"/><path d="m341.3925 7.8525v1.0175h-4.4v-1.0175h1.6115v-4.6365c0-.18333333.0055-.37216667.0165-.5665l-1.144.957c-.066.05133333-.131083.08341667-.19525.09625s-.124667.01375-.1815.00275-.10725-.03025-.15125-.05775-.077-.05775-.099-.09075l-.429-.5885 2.4255-2.0625h1.1165v6.9465z"/></g><g><g fill="#006993" transform="translate(75.706 77.864)"><path d="m17.792 0c2.304 0 4.352.32533333 6.144.976s3.3066667 1.53066667 4.544 2.64 2.176 2.39466667 2.816 3.856.96 3.0026667.96 4.624c0 1.472-.1493333 2.768-.448 3.888s-.7413333 2.0906667-1.328 2.912-1.312 1.52-2.176 2.096-1.8506667 1.056-2.96 1.44c5.1626667 1.792 7.744 5.3013333 7.744 10.528 0 2.4746667-.448 4.6293333-1.344 6.464s-2.096 3.36-3.6 4.576-3.248 2.128-5.232 2.736-4.0533333.912-6.208.912c-2.2186667 0-4.192-.24-5.92-.72s-3.264-1.2266667-4.608-2.24-2.52266667-2.3093333-3.536-3.888-1.89333333-3.456-2.64-5.632l4.416-1.792c.384-.1706667.76266667-.288 1.136-.352s.74133333-.096 1.104-.096c.68266667 0 1.296.1333333 1.84.4s.95466667.656 1.232 1.168c.96 1.7706667 1.9786667 3.056 3.056 3.856s2.3413333 1.2 3.792 1.2c1.1093333 0 2.0746667-.1866667 2.896-.56s1.504-.8533333 2.048-1.44.9546667-1.2533333 1.232-2 .416-1.504.416-2.272c0-1.0026667-.0693333-1.904-.208-2.704s-.528-1.488-1.168-2.064-1.6053333-1.0186667-2.896-1.328-3.088-.464-5.392-.464v-6.848c1.9413333 0 3.5093333-.1493333 4.704-.448s2.1173333-.7093333 2.768-1.232 1.0826667-1.1573333 1.296-1.904.32-1.568.32-2.464c0-1.8346667-.4426667-3.248-1.328-4.24s-2.2346667-1.488-4.048-1.488c-.7466667 0-1.4293333.10666667-2.048.32s-1.1733333.50133333-1.664.864-.912.7893333-1.264 1.28-.6346667 1.024-.848 1.6c-.3413333.96-.7733333 1.6533333-1.296 2.08-.52266667.4266667-1.232.64-2.128.64-.21333333 0-.44266667-.0106667-.688-.032s-.496-.0533333-.752-.096l-5.248-.928c.34133333-2.3253333.99733333-4.352 1.968-6.08s2.176-3.168 3.616-4.32 3.088-2.01066667 4.944-2.576 3.8506667-.848 5.984-.848z"/><path d="m70.592 23.808c0 4.0746667-.4373333 7.6053333-1.312 10.592s-2.0853333 5.4613333-3.632 7.424-3.3813333 3.424-5.504 4.384-4.4213333 1.44-6.896 1.44-4.7626667-.48-6.864-1.44-3.92-2.4213333-5.456-4.384-2.736-4.4373333-3.6-7.424-1.296-6.5173333-1.296-10.592.432-7.6053333 1.296-10.592 2.064-5.46133333 3.6-7.424 3.3546667-3.41866667 5.456-4.368 4.3893333-1.424 6.864-1.424 4.7733333.47466667 6.896 1.424 3.9573333 2.40533333 5.504 4.368 2.7573333 4.4373333 3.632 7.424 1.312 6.5173333 1.312 10.592zm-10.24 0c0-3.2213333-.2026667-5.8613333-.608-7.92s-.944-3.6746667-1.616-4.848c-.672-1.17333333-1.4346667-1.97866667-2.288-2.416s-1.7173333-.656-2.592-.656-1.7333333.21866667-2.576.656-1.5893333 1.24266667-2.24 2.416c-.6506667 1.1733333-1.1733333 2.7893333-1.568 4.848s-.592 4.6986667-.592 7.92c0 3.2426667.1973333 5.888.592 7.936s.9173333 3.664 1.568 4.848 1.3973333 1.9946667 2.24 2.432 1.7013333.656 2.576.656 1.7386667-.2186667 2.592-.656 1.616-1.248 2.288-2.432 1.2106667-2.8 1.616-4.848.608-4.6933333.608-7.936z"/><path d="m86.084 7.16c0 1.01333333-.1836667 1.938-.551 2.774s-.855 1.5548333-1.463 2.1565-1.3141667 1.0671667-2.1185 1.3965-1.6435.494-2.5175.494c-.9626667 0-1.8461667-.1646667-2.6505-.494s-1.501-.7948333-2.09-1.3965-1.0481667-1.3205-1.3775-2.1565-.494-1.76066667-.494-2.774c0-1.05133333.1646667-2.0045.494-2.8595s.7885-1.5865 1.3775-2.1945 1.2856667-1.07983333 2.09-1.4155 1.6878333-.5035 2.6505-.5035 1.8525.16783333 2.6695.5035 1.52.8075 2.109 1.4155 1.0481667 1.3395 1.3775 2.1945.494 1.80816667.494 2.8595zm-4.522 0c0-.646-.0538333-1.18116667-.1615-1.6055s-.2565-.76316667-.4465-1.0165-.4148333-.43066667-.6745-.532-.5415-.152-.8455-.152-.5826667.05066667-.836.152-.4686667.27866667-.646.532-.3166667.59216667-.418 1.0165-.152.9595-.152 1.6055c0 .608.0506667 1.11466667.152 1.52s.2406667.72833333.418.969.3926667.4116667.646.513.532.152.836.152.5858333-.0506667.8455-.152.4845-.27233333.6745-.513.3388333-.56366667.4465-.969.1615-.912.1615-1.52zm13.224-5.833c.19-.21533333.4243333-.41483333.703-.5985s.665-.2755 1.159-.2755h4.294l-20.862 26.847c-.19.2406667-.4275.4401667-.7125.5985s-.6301667.2375-1.0355.2375h-4.408zm7.22 20.311c0 1.0133333-.183667 1.9411667-.551 2.7835s-.855 1.5643333-1.463 2.166-1.3141667 1.0671667-2.1185 1.3965-1.6435.494-2.5175.494c-.9626667 0-1.8461667-.1646667-2.6505-.494s-1.501-.7948333-2.09-1.3965-1.0481667-1.3236667-1.3775-2.166-.494-1.7701667-.494-2.7835c0-1.0513333.1646667-2.0045.494-2.8595s.7885-1.5865 1.3775-2.1945 1.2856667-1.0798333 2.09-1.4155 1.6878333-.5035 2.6505-.5035 1.8525.1678333 2.6695.5035 1.52.8075 2.109 1.4155 1.048167 1.3395 1.3775 2.1945.494 1.8081667.494 2.8595zm-4.522 0c0-.6333333-.0538333-1.1621667-.1615-1.5865s-.2565-.7631667-.4465-1.0165-.4148333-.4306667-.6745-.532-.5415-.152-.8455-.152-.5826667.0506667-.836.152-.4686667.2786667-.646.532-.3166667.5921667-.418 1.0165-.152.9531667-.152 1.5865c0 .608.0506667 1.1146667.152 1.52s.2406667.7283333.418.969.3926667.4116667.646.513.532.152.836.152.5858333-.0506667.8455-.152.4845-.2723333.6745-.513.3388333-.5636667.4465-.969.1615-.912.1615-1.52z"/></g><g fill="#006993" transform="translate(73.53 166.864)"><path d="m31.04 29.024h4.8v5.568c0 .4906667-.1653333.9173333-.496 1.28s-.8053333.544-1.424.544h-2.88v10.72h-8.64v-10.72h-18.752c-.61866667 0-1.17866667-.192-1.68-.576s-.816-.864-.944-1.44l-1.024-4.896 21.568-28.992h9.472zm-8.64-12.16c0-.7466667.0266667-1.552.08-2.416s.1333333-1.7546667.24-2.672l-12.32 17.248h12z"/><path d="m72.768 23.808c0 4.0746667-.4373333 7.6053333-1.312 10.592s-2.0853333 5.4613333-3.632 7.424-3.3813333 3.424-5.504 4.384-4.4213333 1.44-6.896 1.44-4.7626667-.48-6.864-1.44-3.92-2.4213333-5.456-4.384-2.736-4.4373333-3.6-7.424-1.296-6.5173333-1.296-10.592.432-7.6053333 1.296-10.592 2.064-5.46133333 3.6-7.424 3.3546667-3.41866667 5.456-4.368 4.3893333-1.424 6.864-1.424 4.7733333.47466667 6.896 1.424 3.9573333 2.40533333 5.504 4.368 2.7573333 4.4373333 3.632 7.424 1.312 6.5173333 1.312 10.592zm-10.24 0c0-3.2213333-.2026667-5.8613333-.608-7.92s-.944-3.6746667-1.616-4.848c-.672-1.17333333-1.4346667-1.97866667-2.288-2.416s-1.7173333-.656-2.592-.656-1.7333333.21866667-2.576.656-1.5893333 1.24266667-2.24 2.416c-.6506667 1.1733333-1.1733333 2.7893333-1.568 4.848s-.592 4.6986667-.592 7.92c0 3.2426667.1973333 5.888.592 7.936s.9173333 3.664 1.568 4.848 1.3973333 1.9946667 2.24 2.432 1.7013333.656 2.576.656 1.7386667-.2186667 2.592-.656 1.616-1.248 2.288-2.432 1.2106667-2.8 1.616-4.848.608-4.6933333.608-7.936z"/><path d="m88.26 7.16c0 1.01333333-.1836667 1.938-.551 2.774s-.855 1.5548333-1.463 2.1565-1.3141667 1.0671667-2.1185 1.3965-1.6435.494-2.5175.494c-.9626667 0-1.8461667-.1646667-2.6505-.494s-1.501-.7948333-2.09-1.3965-1.0481667-1.3205-1.3775-2.1565-.494-1.76066667-.494-2.774c0-1.05133333.1646667-2.0045.494-2.8595s.7885-1.5865 1.3775-2.1945 1.2856667-1.07983333 2.09-1.4155 1.6878333-.5035 2.6505-.5035 1.8525.16783333 2.6695.5035 1.52.8075 2.109 1.4155 1.0481667 1.3395 1.3775 2.1945.494 1.80816667.494 2.8595zm-4.522 0c0-.646-.0538333-1.18116667-.1615-1.6055s-.2565-.76316667-.4465-1.0165-.4148333-.43066667-.6745-.532-.5415-.152-.8455-.152-.5826667.05066667-.836.152-.4686667.27866667-.646.532-.3166667.59216667-.418 1.0165-.152.9595-.152 1.6055c0 .608.0506667 1.11466667.152 1.52s.2406667.72833333.418.969.3926667.4116667.646.513.532.152.836.152.5858333-.0506667.8455-.152.4845-.27233333.6745-.513.3388333-.56366667.4465-.969.1615-.912.1615-1.52zm13.224-5.833c.19-.21533333.4243333-.41483333.703-.5985s.665-.2755 1.159-.2755h4.294l-20.862 26.847c-.19.2406667-.4275.4401667-.7125.5985s-.6301667.2375-1.0355.2375h-4.408zm7.22 20.311c0 1.0133333-.183667 1.9411667-.551 2.7835s-.855 1.5643333-1.463 2.166-1.314167 1.0671667-2.1185 1.3965c-.8043333.3293333-1.6435.494-2.5175.494-.9626667 0-1.8461667-.1646667-2.6505-.494s-1.501-.7948333-2.09-1.3965-1.0481667-1.3236667-1.3775-2.166-.494-1.7701667-.494-2.7835c0-1.0513333.1646667-2.0045.494-2.8595s.7885-1.5865 1.3775-2.1945 1.2856667-1.0798333 2.09-1.4155 1.6878333-.5035 2.6505-.5035 1.8525.1678333 2.6695.5035 1.52.8075 2.109 1.4155 1.048167 1.3395 1.3775 2.1945.494 1.8081667.494 2.8595zm-4.522 0c0-.6333333-.0538333-1.1621667-.1615-1.5865s-.2565-.7631667-.4465-1.0165-.4148333-.4306667-.6745-.532-.5415-.152-.8455-.152-.5826667.0506667-.836.152-.4686667.2786667-.646.532-.3166667.5921667-.418 1.0165-.152.9531667-.152 1.5865c0 .608.0506667 1.1146667.152 1.52s.2406667.7283333.418.969.3926667.4116667.646.513.532.152.836.152.5858333-.0506667.8455-.152.4845-.2723333.6745-.513.3388333-.5636667.4465-.969.1615-.912.1615-1.52z"/></g><g fill="#4a4a4a"><g transform="translate(210.3795 114.141)"><path d="m6.1525 5.0255c.851 0 1.61766667.14183333 2.3.4255s1.265.68616667 1.748 1.2075.8529167 1.15191667 1.10975 1.89175.38525 1.5659167.38525 2.47825c0 .92-.1284167 1.748-.38525 2.484s-.62675 1.3646667-1.10975 1.886-1.06566667.9219167-1.748 1.20175-1.449.41975-2.3.41975c-.85866667 0-1.63108333-.1399167-2.31725-.41975s-1.27075-.6804167-1.75375-1.20175-.85291667-1.15-1.10975-1.886-.38525-1.564-.38525-2.484c0-.9123333.12841667-1.73841667.38525-2.47825s.62675-1.37041667 1.10975-1.89175 1.06758333-.92383333 1.75375-1.2075 1.45858333-.4255 2.31725-.4255zm0 10.396c1.15 0 2.00866667-.38525 2.576-1.15575s.851-1.84575.851-3.22575c0-1.38766667-.28366667-2.46866667-.851-3.243s-1.426-1.1615-2.576-1.1615c-.58266667 0-1.09058333.09966667-1.52375.299s-.7935.48683333-1.081.8625-.50216667.83758333-.644 1.38575-.21275 1.16725-.21275 1.85725c0 1.38.28558333 2.45525.85675 3.22575s1.43941667 1.15575 2.60475 1.15575z"/><path d="m15.042 16.859v-9.9015l-1.288-.1495c-.161-.03833333-.29325-.09775-.39675-.17825s-.15525-.19741667-.15525-.35075v-.8395h1.84v-1.127c0-.667.0939167-1.25925.28175-1.77675s.4561667-.9545.805-1.311.7685833-.62675 1.25925-.81075 1.0426667-.276 1.656-.276c.5213333 0 1.0005.07666667 1.4375.23l-.046 1.0235c-.0153333.184-.1169167.28366667-.30475.299s-.4389167.023-.75325.023c-.3526667 0-.67275.046-.96025.138s-.53475.2415-.74175.4485-.3660833.47916667-.47725.8165-.16675.75516667-.16675 1.2535v1.0695h3.358v1.4835h-3.289v9.936z"/><path d="m30.291 14.053c.3756667.506.7858333.8625 1.2305 1.0695s.943.3105 1.495.3105c1.0886667 0 1.9243333-.3871667 2.507-1.1615s.874-1.8783333.874-3.312c0-.759-.0670833-1.41066667-.20125-1.955s-.32775-.99091667-.58075-1.33975-.5635-.60375-.9315-.76475-.7858333-.2415-1.2535-.2415c-.667 0-1.2515833.15333333-1.75375.46s-.9640833.73983333-1.38575 1.2995zm-.1035-7.038c.4906667-.60566667 1.058-1.0925 1.702-1.4605s1.38-.552 2.208-.552c.6746667 0 1.2841667.12841667 1.8285.38525s1.0081667.63633333 1.3915 1.1385.6785 1.12508333.8855 1.86875.3105 1.5985.3105 2.5645c0 .8586667-.115 1.6579167-.345 2.39775s-.5615833 1.38-.99475 1.9205-.9621667.966-1.587 1.2765-1.32825.46575-2.11025.46575c-.713 0-1.3244167-.12075-1.83425-.36225s-.96025-.5769167-1.35125-1.00625v5.152h-2.0585v-15.594h1.2305c.2913333 0 .4715.14183333.5405.4255z"/><path d="m47.4375 11.615c-.943.0306667-1.7460833.1054167-2.40925.22425s-1.2036667.2740833-1.6215.46575-.7206667.4178333-.9085.6785-.28175.552-.28175.874c0 .3066667.0498333.5711667.1495.7935s.23575.4044167.40825.54625.3756667.2453333.6095.3105.4849167.09775.75325.09775c.3603333 0 .69-.0364167.989-.10925s.58075-.17825.84525-.31625.5175-.3028333.759-.4945.47725-.4101667.70725-.6555zm-6.6125-4.761c.644-.621 1.3378333-1.08483333 2.0815-1.3915s1.5678333-.46 2.4725-.46c.6516667 0 1.2305.10733333 1.7365.322s.9315.51366667 1.2765.897.6056667.84716667.782 1.3915.2645 1.14233333.2645 1.794v7.452h-.9085c-.1993333 0-.3526667-.0325833-.46-.09775s-.1916667-.1935833-.253-.38525l-.23-1.104c-.3066667.2836667-.6056667.53475-.897.75325s-.598.4025-.92.552-.6650833.2645-1.02925.345-.7685833.12075-1.21325.12075c-.4523333 0-.8778333-.06325-1.2765-.18975s-.7455833-.31625-1.04075-.56925-.529-.5730833-.7015-.96025-.25875-.84525-.25875-1.37425c0-.46.1265-.90275.3795-1.32825s.6631667-.8030833 1.2305-1.13275 1.3071667-.5999167 2.2195-.81075 2.0316667-.3315833 3.358-.36225v-.9085c0-.90466667-.1955-1.58891667-.5865-2.05275s-.9621667-.69575-1.7135-.69575c-.506 0-.9295833.06325-1.27075.18975s-.6363333.26833333-.8855.4255-.4638333.299-.644.4255-.3584167.18975-.53475.18975c-.138 0-.2568333-.03641667-.3565-.10925s-.184-.16291667-.253-.27025z"/><path d="m63.365 16.859h-2.047v-9.936h-6.003v6.992c0 .4906667.1188333.8548333.3565 1.0925s.5443333.3565.92.3565c.2146667 0 .4005833-.02875.55775-.08625s.29325-.12075.40825-.18975.21275-.13225.29325-.18975.1514167-.08625.21275-.08625c.1073333 0 .2031667.0651667.2875.1955l.598.9775c-.3526667.3296667-.7781667.5884167-1.2765.77625s-1.012.28175-1.541.28175c-.92 0-1.62725-.2568333-2.12175-.7705s-.74175-1.2535-.74175-2.2195v-7.13h-1.403c-.1226667 0-.2261667-.03641667-.3105-.10925s-.1265-.18591667-.1265-.33925v-.8165l1.909-.253.4715-3.588c.023-.115.07475-.20891667.15525-.28175s.1859167-.10925.31625-.10925h1.035v4.0135h8.05zm.506-15.387c0 .19933333-.04025.38525-.12075.55775s-.1878333.32391667-.322.45425-.2894167.23383333-.46575.3105-.3641667.115-.5635.115-.38525-.03833333-.55775-.115-.3239167-.18016667-.45425-.3105-.2338333-.28175-.3105-.45425-.115-.35841667-.115-.55775.0383333-.38908333.115-.56925.1801667-.33733333.3105-.4715.28175-.23958333.45425-.31625.3584167-.115.55775-.115.3871667.03833333.5635.115.3315833.18208333.46575.31625.2415.29133333.322.4715.12075.36991667.12075.56925z"/><path d="m74.52 9.7635c0-.47533333-.0670833-.91041667-.20125-1.30525s-.3296667-.736-.5865-1.0235-.56925-.50983333-.93725-.667-.7858333-.23575-1.2535-.23575c-.9813333 0-1.7575833.28558333-2.32875.85675s-.92575 1.36275-1.06375 2.37475zm1.656 5.4625c-.253.3066667-.5558333.5730833-.9085.79925s-.73025.4120833-1.13275.55775-.8184167.2549167-1.24775.32775-.8548333.10925-1.2765.10925c-.805 0-1.54675-.1360833-2.22525-.40825s-1.265-.6708333-1.7595-1.196-.87975-1.1749167-1.15575-1.94925-.414-1.6636667-.414-2.668c0-.81266667.1245833-1.57166667.37375-2.277s.6075833-1.31675 1.07525-1.83425 1.0388333-.92383333 1.7135-1.219 1.4336667-.44275 2.277-.44275c.6976667 0 1.3435833.11691667 1.93775.35075s1.1078333.57116667 1.541 1.012.7724167.98516667 1.01775 1.633.368 1.38575.368 2.21375c0 .322-.0345.5366667-.1035.644s-.1993333.161-.391.161h-7.7855c.023.736.1245833 1.3761667.30475 1.9205s.43125.9985833.75325 1.36275.7053333.6363333 1.15.8165.943.27025 1.495.27025c.5136667 0 .9564167-.0594167 1.32825-.17825s.6919167-.24725.96025-.38525.4925833-.2664167.67275-.38525.3354167-.17825.46575-.17825c.1686667 0 .299.0651667.391.1955z"/><path d="m80.799 6.9c.253-.28366667.5213333-.5405.805-.7705s.5845833-.42741667.90275-.59225.6555-.29133333 1.012-.3795.74175-.13225 1.15575-.13225c.6363333 0 1.1979167.10541667 1.68475.31625s.8931667.50983333 1.219.897.5730833.85291667.74175 1.39725.253 1.14616667.253 1.8055v7.4175h-2.0585v-7.4175c0-.88166667-.20125-1.56591667-.60375-2.05275s-1.0139167-.73025-1.83425-.73025c-.6056667 0-1.1710833.14566667-1.69625.437s-1.0100833.68616667-1.45475 1.1845v8.579h-2.0585v-11.6495h1.2305c.2913333 0 .4715.14183333.5405.4255z"/><path d="m95.2775 17.043c-.92 0-1.62725-.2568333-2.12175-.7705s-.74175-1.2535-.74175-2.2195v-7.13h-1.403c-.1226667 0-.2261667-.03641667-.3105-.10925s-.1265-.18591667-.1265-.33925v-.8165l1.909-.2415.4715-3.5995c.023-.115.07475-.20891667.15525-.28175s.1859167-.10925.31625-.10925h1.035v4.0135h3.3695v1.4835h-3.3695v6.992c0 .4906667.1188333.8548333.3565 1.0925s.5443333.3565.92.3565c.2146667 0 .4005833-.02875.55775-.08625s.29325-.12075.40825-.18975.21275-.13225.29325-.18975.1514167-.08625.21275-.08625c.1073333 0 .2031667.0651667.2875.1955l.598.9775c-.3526667.3296667-.7781667.5884167-1.2765.77625s-1.012.28175-1.541.28175z"/><path d="m106.7315 7.13c-.092.16866667-.233833.253-.4255.253-.115 0-.245333-.04216667-.391-.1265s-.323917-.17825-.53475-.28175-.461917-.19933333-.75325-.2875-.636333-.13225-1.035-.13225c-.345 0-.6555.04408333-.9315.13225s-.51175.20891667-.70725.36225-.345.33158333-.4485.53475-.15525.42358333-.15525.66125c0 .299.08625.54816667.25875.7475s.400583.37183333.68425.5175.605667.27408333.966.38525c.360333.1111667.73025.23 1.10975.3565s.749417.2664167 1.10975.41975.682333.345.966.575.51175.51175.68425.84525.25875.7340833.25875 1.20175c0 .5366667-.095833 1.0330833-.2875 1.48925s-.475333.851-.851 1.1845-.835667.5960833-1.38.78775-1.173.2875-1.886.2875c-.812667 0-1.548667-.13225-2.208-.39675s-1.219-.60375-1.679-1.01775l.483-.782c.0613333-.0996667.1341667-.1763333.2185-.23s.1916667-.0805.322-.0805c.138 0 .283667.0536667.437.161s.33925.2261667.55775.3565.484917.2491667.79925.3565.705333.161 1.173.161c.398667 0 .7475-.05175 1.0465-.15525s.548167-.2434167.7475-.41975.346917-.3795.44275-.6095.14375-.4753333.14375-.736c0-.322-.08625-.5884167-.25875-.79925s-.400583-.391-.68425-.5405-.607583-.2798333-.97175-.391-.736-.2280833-1.1155-.35075-.751333-.2625833-1.1155-.41975-.688083-.3545833-.97175-.59225-.51175-.5309167-.68425-.87975c-.1725-.34883333-.25875-.77241667-.25875-1.27075 0-.44466667.092-.87208333.276-1.28225s.452333-.7705.805-1.081.785833-.55775 1.2995-.74175 1.100167-.276 1.7595-.276c.766667 0 1.45475.12075 2.06425.36225s1.136583.57308333 1.58125.99475z"/><path d="m17.3075 34.2095-3.772 11.6495h-1.6215c-.1993333 0-.3373333-.1303333-.414-.391l-2.576-7.9005c-.06133333-.1763333-.11116667-.3545833-.1495-.53475s-.07666667-.3584167-.115-.53475c-.03833333.1763333-.07666667.3545833-.115.53475s-.08816667.36225-.1495.54625l-2.622 7.889c-.069.2606667-.22233333.391-.46.391h-1.541l-3.772-11.6495h1.61c.161 0 .29708333.0421667.40825.1265s.18591667.184.22425.299l2.231 7.498c.13033333.552.23383333 1.0733333.3105 1.564.069-.253.13991667-.5098333.21275-.7705s.15141667-.5251667.23575-.7935l2.461-7.544c.03833333-.115.10541667-.2108333.20125-.2875s.21275-.115.35075-.115h.897c.15333333 0 .27983333.0383333.3795.115s.16866667.1725.207.2875l2.4035 7.544c.0843333.2683333.161.5328333.23.7935s.1341667.5175.1955.7705c.0383333-.253.08625-.5079167.14375-.76475s.12075-.52325.18975-.79925l2.277-7.498c.0383333-.1226667.1111667-.22425.2185-.30475s.2338333-.12075.3795-.12075z"/><path d="m21.4705 34.2095v11.6495h-2.047v-11.6495zm.437-3.657c0 .1993333-.04025.38525-.12075.55775s-.1878333.3258333-.322.46-.2913333.2395833-.4715.31625-.3699167.115-.56925.115-.38525-.0383333-.55775-.115-.3239167-.1820833-.45425-.31625-.2338333-.2875-.3105-.46-.115-.3584167-.115-.55775.0383333-.3890833.115-.56925.1801667-.3373333.3105-.4715.28175-.2395833.45425-.31625.3584167-.115.55775-.115.3890833.0383333.56925.115.3373333.1820833.4715.31625.2415.2913333.322.4715.12075.3699167.12075.56925z"/><path d="m28.405 46.043c-.92 0-1.62725-.2568333-2.12175-.7705s-.74175-1.2535-.74175-2.2195v-7.13h-1.403c-.1226667 0-.2261667-.0364167-.3105-.10925s-.1265-.1859167-.1265-.33925v-.8165l1.909-.2415.4715-3.5995c.023-.115.07475-.2089167.15525-.28175s.1859167-.10925.31625-.10925h1.035v4.0135h3.3695v1.4835h-3.3695v6.992c0 .4906667.1188333.8548333.3565 1.0925s.5443333.3565.92.3565c.2146667 0 .4005833-.02875.55775-.08625s.29325-.12075.40825-.18975.21275-.13225.29325-.18975.1514167-.08625.21275-.08625c.1073333 0 .2031667.0651667.2875.1955l.598.9775c-.3526667.3296667-.7781667.5884167-1.2765.77625s-1.012.28175-1.541.28175z"/><path d="m35.1325 35.762c.4983333-.529 1.0503333-.9506667 1.656-1.265s1.3033333-.4715 2.093-.4715c.6363333 0 1.1979167.1054167 1.68475.31625s.8931667.5098333 1.219.897.5730833.8529167.74175 1.39725.253 1.1461667.253 1.8055v7.4175h-2.0585v-7.4175c0-.8816667-.20125-1.5659167-.60375-2.05275s-1.0139167-.73025-1.83425-.73025c-.6056667 0-1.1710833.1456667-1.69625.437s-1.0100833.6861667-1.45475 1.1845v8.579h-2.0585v-16.9395h2.0585z"/><path d="m59.9035 36.2795c-.0613333.0843333-.1226667.1495-.184.1955s-.1456667.069-.253.069c-.115 0-.2415-.0479167-.3795-.14375s-.3085833-.20125-.51175-.31625-.4523333-.2204167-.7475-.31625-.6574167-.14375-1.08675-.14375c-.575 0-1.081.1015833-1.518.30475s-.8030833.4964167-1.09825.87975-.5175.8471667-.667 1.3915-.22425 1.1538333-.22425 1.8285c0 .7053333.0805 1.3320833.2415 1.88025s.3890833 1.0081667.68425 1.38.6516667.6555 1.0695.851.8874167.29325 1.40875.29325c.4983333 0 .9085-.0594167 1.2305-.17825s.5884167-.2510833.79925-.39675.3871667-.2779167.529-.39675.28175-.17825.41975-.17825c.1686667 0 .299.0651667.391.1955l.575.7475c-.253.3143333-.5405.5826667-.8625.805s-.6689167.40825-1.04075.55775-.7609167.25875-1.16725.32775-.8203333.1035-1.242.1035c-.7283333 0-1.4049167-.1341667-2.02975-.4025s-1.16725-.6574167-1.62725-1.16725-.8203333-1.1365833-1.081-1.88025-.391-1.5908333-.391-2.5415c0-.8663333.12075-1.6675.36225-2.4035s.5941667-1.3704167 1.058-1.90325 1.035-.94875 1.7135-1.24775 1.4585833-.4485 2.34025-.4485c.8203333 0 1.5429167.13225 2.16775.39675s1.17875.63825 1.66175 1.12125z"/><path d="m64.9405 34.2095v11.6495h-2.047v-11.6495zm.437-3.657c0 .1993333-.04025.38525-.12075.55775s-.1878333.3258333-.322.46-.2913333.2395833-.4715.31625-.3699167.115-.56925.115-.38525-.0383333-.55775-.115-.3239167-.1820833-.45425-.31625-.2338333-.2875-.3105-.46-.115-.3584167-.115-.55775.0383333-.3890833.115-.56925.1801667-.3373333.3105-.4715.28175-.2395833.45425-.31625.3584167-.115.55775-.115.3890833.0383333.56925.115.3373333.1820833.4715.31625.2415.2913333.322.4715.12075.3699167.12075.56925z"/><path d="m70.242 36.544c.368-.7973333.8203333-1.42025 1.357-1.86875s1.1921667-.67275 1.9665-.67275c.2453333 0 .4810833.0268333.70725.0805s.4274167.138.60375.253l-.1495 1.5295c-.046.1916667-.161.2875-.345.2875-.1073333 0-.2645-.023-.4715-.069s-.4408333-.069-.7015-.069c-.368 0-.69575.0536667-.98325.161s-.5443333.2664167-.7705.47725-.4293333.4715-.6095.782-.3430833.6650833-.48875 1.06375v7.36h-2.0585v-11.6495h1.173c.2223333 0 .3756667.0421667.46.1265s.1418333.23.1725.437z"/><path d="m78.614 36.544c.368-.7973333.8203333-1.42025 1.357-1.86875s1.1921667-.67275 1.9665-.67275c.2453333 0 .4810833.0268333.70725.0805s.4274167.138.60375.253l-.1495 1.5295c-.046.1916667-.161.2875-.345.2875-.1073333 0-.2645-.023-.4715-.069s-.4408333-.069-.7015-.069c-.368 0-.69575.0536667-.98325.161s-.5443333.2664167-.7705.47725-.4293333.4715-.6095.782-.3430833.6650833-.48875 1.06375v7.36h-2.0585v-11.6495h1.173c.2223333 0 .3756667.0421667.46.1265s.1418333.23.1725.437z"/><path d="m87.101 35.762c.4983333-.529 1.0503333-.9506667 1.656-1.265s1.3033333-.4715 2.093-.4715c.6363333 0 1.1979167.1054167 1.68475.31625s.8931667.5098333 1.219.897.5730833.8529167.74175 1.39725.253 1.1461667.253 1.8055v7.4175h-2.0585v-7.4175c0-.8816667-.20125-1.5659167-.60375-2.05275s-1.0139167-.73025-1.83425-.73025c-.6056667 0-1.1710833.1456667-1.69625.437s-1.0100833.6861667-1.45475 1.1845v8.579h-2.0585v-16.9395h2.0585z"/><path d="m102.787 34.0255c.851 0 1.617667.1418333 2.3.4255s1.265.6861667 1.748 1.2075.852917 1.1519167 1.10975 1.89175.38525 1.5659167.38525 2.47825c0 .92-.128417 1.748-.38525 2.484s-.62675 1.3646667-1.10975 1.886-1.065667.9219167-1.748 1.20175-1.449.41975-2.3.41975c-.858667 0-1.631083-.1399167-2.31725-.41975-.6861667-.2798333-1.27075-.6804167-1.75375-1.20175s-.8529167-1.15-1.10975-1.886-.38525-1.564-.38525-2.484c0-.9123333.1284167-1.7384167.38525-2.47825s.62675-1.3704167 1.10975-1.89175 1.0675833-.9238333 1.75375-1.2075c.686167-.2836667 1.458583-.4255 2.31725-.4255zm0 10.396c1.15 0 2.008667-.38525 2.576-1.15575s.851-1.84575.851-3.22575c0-1.3876667-.283667-2.4686667-.851-3.243s-1.426-1.1615-2.576-1.1615c-.582667 0-1.090583.0996667-1.52375.299s-.7935.4868333-1.081.8625-.5021667.8375833-.644 1.38575-.21275 1.16725-.21275 1.85725c0 1.38.2855833 2.45525.85675 3.22575.571167.7705 1.439417 1.15575 2.60475 1.15575z"/><path d="m117.7025 36.13c-.092.1686667-.233833.253-.4255.253-.115 0-.245333-.0421667-.391-.1265s-.323917-.17825-.53475-.28175-.461917-.1993333-.75325-.2875-.636333-.13225-1.035-.13225c-.345 0-.6555.0440833-.9315.13225s-.51175.2089167-.70725.36225-.345.3315833-.4485.53475-.15525.4235833-.15525.66125c0 .299.08625.5481667.25875.7475s.400583.3718333.68425.5175.605667.2740833.966.38525.73025.23 1.10975.3565.749417.2664167 1.10975.41975.682333.345.966.575.51175.51175.68425.84525.25875.7340833.25875 1.20175c0 .5366667-.095833 1.0330833-.2875 1.48925s-.475333.851-.851 1.1845-.835667.5960833-1.38.78775-1.173.2875-1.886.2875c-.812667 0-1.548667-.13225-2.208-.39675s-1.219-.60375-1.679-1.01775l.483-.782c.061333-.0996667.134167-.1763333.2185-.23s.191667-.0805.322-.0805c.138 0 .283667.0536667.437.161s.33925.2261667.55775.3565.484917.2491667.79925.3565.705333.161 1.173.161c.398667 0 .7475-.05175 1.0465-.15525s.548167-.2434167.7475-.41975.346917-.3795.44275-.6095.14375-.4753333.14375-.736c0-.322-.08625-.5884167-.25875-.79925s-.400583-.391-.68425-.5405-.607583-.2798333-.97175-.391-.736-.2280833-1.1155-.35075-.751333-.2625833-1.1155-.41975-.688083-.3545833-.97175-.59225-.51175-.5309167-.68425-.87975-.25875-.7724167-.25875-1.27075c0-.4446667.092-.8720833.276-1.28225s.452333-.7705.805-1.081.785833-.55775 1.2995-.74175 1.100167-.276 1.7595-.276c.766667 0 1.45475.12075 2.06425.36225s1.136583.5730833 1.58125.99475z"/><path d="m123.0385 34.2095v11.6495h-2.047v-11.6495zm.437-3.657c0 .1993333-.04025.38525-.12075.55775s-.187833.3258333-.322.46-.291333.2395833-.4715.31625-.369917.115-.56925.115-.38525-.0383333-.55775-.115-.323917-.1820833-.45425-.31625-.233833-.2875-.3105-.46-.115-.3584167-.115-.55775.038333-.3890833.115-.56925.180167-.3373333.3105-.4715.28175-.2395833.45425-.31625.358417-.115.55775-.115.389083.0383333.56925.115.337333.1820833.4715.31625.2415.2913333.322.4715.12075.3699167.12075.56925z"/><path d="m133.1815 36.13c-.092.1686667-.233833.253-.4255.253-.115 0-.245333-.0421667-.391-.1265s-.323917-.17825-.53475-.28175-.461917-.1993333-.75325-.2875-.636333-.13225-1.035-.13225c-.345 0-.6555.0440833-.9315.13225s-.51175.2089167-.70725.36225-.345.3315833-.4485.53475-.15525.4235833-.15525.66125c0 .299.08625.5481667.25875.7475s.400583.3718333.68425.5175.605667.2740833.966.38525.73025.23 1.10975.3565.749417.2664167 1.10975.41975.682333.345.966.575.51175.51175.68425.84525.25875.7340833.25875 1.20175c0 .5366667-.095833 1.0330833-.2875 1.48925s-.475333.851-.851 1.1845-.835667.5960833-1.38.78775-1.173.2875-1.886.2875c-.812667 0-1.548667-.13225-2.208-.39675s-1.219-.60375-1.679-1.01775l.483-.782c.061333-.0996667.134167-.1763333.2185-.23s.191667-.0805.322-.0805c.138 0 .283667.0536667.437.161s.33925.2261667.55775.3565.484917.2491667.79925.3565.705333.161 1.173.161c.398667 0 .7475-.05175 1.0465-.15525s.548167-.2434167.7475-.41975.346917-.3795.44275-.6095.14375-.4753333.14375-.736c0-.322-.08625-.5884167-.25875-.79925s-.400583-.391-.68425-.5405-.607583-.2798333-.97175-.391-.736-.2280833-1.1155-.35075-.751333-.2625833-1.1155-.41975-.688083-.3545833-.97175-.59225-.51175-.5309167-.68425-.87975-.25875-.7724167-.25875-1.27075c0-.4446667.092-.8720833.276-1.28225s.452333-.7705.805-1.081.785833-.55775 1.2995-.74175 1.100167-.276 1.7595-.276c.766667 0 1.45475.12075 2.06425.36225s1.136583.5730833 1.58125.99475z"/><path d="m8.832 65.981c-.38333333-.5136667-.79733333-.8720833-1.242-1.07525s-.943-.30475-1.495-.30475c-1.081 0-1.91283333.3871667-2.4955 1.1615s-.874 1.8783333-.874 3.312c0 .759.06516667 1.40875.1955 1.94925s.322.9851667.575 1.334.5635.60375.9315.76475.78583333.2415 1.2535.2415c.67466667 0 1.26308333-.1533333 1.76525-.46s.96408333-.7398333 1.38575-1.2995zm2.047-8.0615v16.9395h-1.219c-.29133333 0-.47533333-.1418333-.552-.4255l-.184-1.4145c-.49833333.598-1.06566667 1.081-1.702 1.449s-1.37233333.552-2.208.552c-.667 0-1.27266667-.1284167-1.817-.38525s-1.00816667-.6344167-1.3915-1.13275-.6785-1.1193333-.8855-1.863-.3105-1.5985-.3105-2.5645c0-.8586667.115-1.6579167.345-2.39775s.55966667-1.3819167.989-1.92625.95641667-.97175 1.58125-1.28225 1.32825-.46575 2.11025-.46575c.713 0 1.32441667.12075 1.83425.36225s.96408333.5769167 1.36275 1.00625v-6.4515z"/><path d="m21.919 67.7635c0-.4753333-.0670833-.9104167-.20125-1.30525s-.3296667-.736-.5865-1.0235-.56925-.5098333-.93725-.667-.7858333-.23575-1.2535-.23575c-.9813333 0-1.7575833.2855833-2.32875.85675s-.92575 1.36275-1.06375 2.37475zm1.656 5.4625c-.253.3066667-.5558333.5730833-.9085.79925s-.73025.4120833-1.13275.55775-.8184167.2549167-1.24775.32775-.8548333.10925-1.2765.10925c-.805 0-1.54675-.1360833-2.22525-.40825s-1.265-.6708333-1.7595-1.196-.87975-1.1749167-1.15575-1.94925-.414-1.6636667-.414-2.668c0-.8126667.1245833-1.5716667.37375-2.277s.6075833-1.31675 1.07525-1.83425 1.0388333-.9238333 1.7135-1.219 1.4336667-.44275 2.277-.44275c.6976667 0 1.3435833.1169167 1.93775.35075s1.1078333.5711667 1.541 1.012.7724167.9851667 1.01775 1.633.368 1.38575.368 2.21375c0 .322-.0345.5366667-.1035.644s-.1993333.161-.391.161h-7.7855c.023.736.1245833 1.3761667.30475 1.9205s.43125.9985833.75325 1.36275.7053333.6363333 1.15.8165.943.27025 1.495.27025c.5136667 0 .9564167-.0594167 1.32825-.17825s.6919167-.24725.96025-.38525.4925833-.2664167.67275-.38525.3354167-.17825.46575-.17825c.1686667 0 .299.0651667.391.1955z"/><path d="m36.248 63.2095-4.7495 11.6495h-1.84l-4.7495-11.6495h1.6675c.1686667 0 .3066667.0421667.414.1265s.1801667.184.2185.299l2.9555 7.498c.092.2836667.1725.5596667.2415.828s.1341667.5366667.1955.805c.0613333-.2683333.1265-.5366667.1955-.805s.1533333-.5443333.253-.828l2.99-7.498c.046-.1226667.1226667-.22425.23-.30475s.2338333-.12075.3795-.12075z"/><path d="m45.931 67.7635c0-.4753333-.0670833-.9104167-.20125-1.30525s-.3296667-.736-.5865-1.0235-.56925-.5098333-.93725-.667-.7858333-.23575-1.2535-.23575c-.9813333 0-1.7575833.2855833-2.32875.85675s-.92575 1.36275-1.06375 2.37475zm1.656 5.4625c-.253.3066667-.5558333.5730833-.9085.79925s-.73025.4120833-1.13275.55775-.8184167.2549167-1.24775.32775-.8548333.10925-1.2765.10925c-.805 0-1.54675-.1360833-2.22525-.40825s-1.265-.6708333-1.7595-1.196-.87975-1.1749167-1.15575-1.94925-.414-1.6636667-.414-2.668c0-.8126667.1245833-1.5716667.37375-2.277s.6075833-1.31675 1.07525-1.83425 1.0388333-.9238333 1.7135-1.219 1.4336667-.44275 2.277-.44275c.6976667 0 1.3435833.1169167 1.93775.35075s1.1078333.5711667 1.541 1.012.7724167.9851667 1.01775 1.633.368 1.38575.368 2.21375c0 .322-.0345.5366667-.1035.644s-.1993333.161-.391.161h-7.7855c.023.736.1245833 1.3761667.30475 1.9205s.43125.9985833.75325 1.36275.7053333.6363333 1.15.8165.943.27025 1.495.27025c.5136667 0 .9564167-.0594167 1.32825-.17825s.6919167-.24725.96025-.38525.4925833-.2664167.67275-.38525.3354167-.17825.46575-.17825c.1686667 0 .299.0651667.391.1955z"/><path d="m52.394 57.9195v16.9395h-2.047v-16.9395z"/><path d="m60.6165 63.0255c.851 0 1.6176667.1418333 2.3.4255s1.265.6861667 1.748 1.2075.8529167 1.1519167 1.10975 1.89175.38525 1.5659167.38525 2.47825c0 .92-.1284167 1.748-.38525 2.484s-.62675 1.3646667-1.10975 1.886-1.0656667.9219167-1.748 1.20175-1.449.41975-2.3.41975c-.8586667 0-1.6310833-.1399167-2.31725-.41975s-1.27075-.6804167-1.75375-1.20175-.8529167-1.15-1.10975-1.886-.38525-1.564-.38525-2.484c0-.9123333.1284167-1.7384167.38525-2.47825s.62675-1.3704167 1.10975-1.89175 1.0675833-.9238333 1.75375-1.2075 1.4585833-.4255 2.31725-.4255zm0 10.396c1.15 0 2.0086667-.38525 2.576-1.15575s.851-1.84575.851-3.22575c0-1.3876667-.2836667-2.4686667-.851-3.243s-1.426-1.1615-2.576-1.1615c-.5826667 0-1.0905833.0996667-1.52375.299s-.7935.4868333-1.081.8625-.5021667.8375833-.644 1.38575-.21275 1.16725-.21275 1.85725c0 1.38.2855833 2.45525.85675 3.22575s1.4394167 1.15575 2.60475 1.15575z"/><path d="m70.8055 72.053c.3756667.506.7858333.8625 1.2305 1.0695s.943.3105 1.495.3105c1.0886667 0 1.9243333-.3871667 2.507-1.1615s.874-1.8783333.874-3.312c0-.759-.0670833-1.4106667-.20125-1.955s-.32775-.9909167-.58075-1.33975-.5635-.60375-.9315-.76475-.7858333-.2415-1.2535-.2415c-.667 0-1.2515833.1533333-1.75375.46s-.9640833.7398333-1.38575 1.2995zm-.1035-7.038c.4906667-.6056667 1.058-1.0925 1.702-1.4605s1.38-.552 2.208-.552c.6746667 0 1.2841667.1284167 1.8285.38525s1.0081667.6363333 1.3915 1.1385.6785 1.1250833.8855 1.86875.3105 1.5985.3105 2.5645c0 .8586667-.115 1.6579167-.345 2.39775s-.5615833 1.38-.99475 1.9205-.9621667.966-1.587 1.2765-1.32825.46575-2.11025.46575c-.713 0-1.3244167-.12075-1.83425-.36225s-.96025-.5769167-1.35125-1.00625v5.152h-2.0585v-15.594h1.2305c.2913333 0 .4715.1418333.5405.4255z"/><path d="m92.437 63.0255c.851 0 1.6176667.1418333 2.3.4255s1.265.6861667 1.748 1.2075.8529167 1.1519167 1.10975 1.89175.38525 1.5659167.38525 2.47825c0 .92-.1284167 1.748-.38525 2.484s-.62675 1.3646667-1.10975 1.886-1.0656667.9219167-1.748 1.20175-1.449.41975-2.3.41975c-.8586667 0-1.6310833-.1399167-2.31725-.41975s-1.27075-.6804167-1.75375-1.20175-.8529167-1.15-1.10975-1.886-.38525-1.564-.38525-2.484c0-.9123333.1284167-1.7384167.38525-2.47825s.62675-1.3704167 1.10975-1.89175 1.0675833-.9238333 1.75375-1.2075 1.4585833-.4255 2.31725-.4255zm0 10.396c1.15 0 2.0086667-.38525 2.576-1.15575s.851-1.84575.851-3.22575c0-1.3876667-.2836667-2.4686667-.851-3.243s-1.426-1.1615-2.576-1.1615c-.5826667 0-1.0905833.0996667-1.52375.299s-.7935.4868333-1.081.8625-.5021667.8375833-.644 1.38575-.21275 1.16725-.21275 1.85725c0 1.38.2855833 2.45525.85675 3.22575s1.4394167 1.15575 2.60475 1.15575z"/><path d="m110.5495 63.2095-4.7495 11.6495h-1.84l-4.7495-11.6495h1.6675c.168667 0 .306667.0421667.414.1265s.180167.184.2185.299l2.9555 7.498c.092.2836667.1725.5596667.2415.828s.134167.5366667.1955.805c.061333-.2683333.1265-.5366667.1955-.805s.153333-.5443333.253-.828l2.99-7.498c.046-.1226667.122667-.22425.23-.30475s.233833-.12075.3795-.12075z"/><path d="m120.2325 67.7635c0-.4753333-.067083-.9104167-.20125-1.30525s-.329667-.736-.5865-1.0235-.56925-.5098333-.93725-.667-.785833-.23575-1.2535-.23575c-.981333 0-1.757583.2855833-2.32875.85675s-.92575 1.36275-1.06375 2.37475zm1.656 5.4625c-.253.3066667-.555833.5730833-.9085.79925s-.73025.4120833-1.13275.55775-.818417.2549167-1.24775.32775-.854833.10925-1.2765.10925c-.805 0-1.54675-.1360833-2.22525-.40825s-1.265-.6708333-1.7595-1.196-.87975-1.1749167-1.15575-1.94925-.414-1.6636667-.414-2.668c0-.8126667.124583-1.5716667.37375-2.277s.607583-1.31675 1.07525-1.83425 1.038833-.9238333 1.7135-1.219 1.433667-.44275 2.277-.44275c.697667 0 1.343583.1169167 1.93775.35075s1.107833.5711667 1.541 1.012.772417.9851667 1.01775 1.633.368 1.38575.368 2.21375c0 .322-.0345.5366667-.1035.644s-.199333.161-.391.161h-7.7855c.023.736.124583 1.3761667.30475 1.9205s.43125.9985833.75325 1.36275.705333.6363333 1.15.8165.943.27025 1.495.27025c.513667 0 .956417-.0594167 1.32825-.17825s.691917-.24725.96025-.38525.492583-.2664167.67275-.38525.335417-.17825.46575-.17825c.168667 0 .299.0651667.391.1955z"/><path d="m126.523 65.544c.368-.7973333.820333-1.42025 1.357-1.86875s1.192167-.67275 1.9665-.67275c.245333 0 .481083.0268333.70725.0805s.427417.138.60375.253l-.1495 1.5295c-.046.1916667-.161.2875-.345.2875-.107333 0-.2645-.023-.4715-.069s-.440833-.069-.7015-.069c-.368 0-.69575.0536667-.98325.161s-.544333.2664167-.7705.47725-.429333.4715-.6095.782-.343083.6650833-.48875 1.06375v7.36h-2.0585v-11.6495h1.173c.222333 0 .375667.0421667.46.1265s.141833.23.1725.437z"/><path d="m136.528 75.043c-.92 0-1.62725-.2568333-2.12175-.7705s-.74175-1.2535-.74175-2.2195v-7.13h-1.403c-.122667 0-.226167-.0364167-.3105-.10925s-.1265-.1859167-.1265-.33925v-.8165l1.909-.2415.4715-3.5995c.023-.115.07475-.2089167.15525-.28175s.185917-.10925.31625-.10925h1.035v4.0135h3.3695v1.4835h-3.3695v6.992c0 .4906667.118833.8548333.3565 1.0925s.544333.3565.92.3565c.214667 0 .400583-.02875.55775-.08625s.29325-.12075.40825-.18975.21275-.13225.29325-.18975.151417-.08625.21275-.08625c.107333 0 .203167.0651667.2875.1955l.598.9775c-.352667.3296667-.778167.5884167-1.2765.77625s-1.012.28175-1.541.28175z"/><path d="m160.9195 58.3795v16.4795h-2.231v-7.498h-8.8895v7.498h-2.231v-16.4795h2.231v7.3485h8.8895v-7.3485z"/><path d="m175.2945 73.042-.0115 1.817h-10.1545v-16.4795h10.1545v1.817h-7.9235v5.474h6.417v1.748h-6.417v5.6235z"/></g><g transform="translate(115.85125 140.567)"><path d="m4.7035 15.617c-.92 0-1.62725-.2568333-2.12175-.7705s-.74175-1.2535-.74175-2.2195v-7.13h-1.403c-.12266667 0-.22616667-.03641667-.3105-.10925s-.1265-.18591667-.1265-.33925v-.8165l1.909-.2415.4715-3.5995c.023-.115.07475-.20891667.15525-.28175s.18591667-.10925.31625-.10925h1.035v4.0135h3.3695v1.4835h-3.3695v6.992c0 .4906667.11883333.8548333.3565 1.0925s.54433333.3565.92.3565c.21466667 0 .40058333-.02875.55775-.08625s.29325-.12075.40825-.18975.21275-.13225.29325-.18975.15141667-.08625.21275-.08625c.10733333 0 .20316667.0651667.2875.1955l.598.9775c-.35266667.3296667-.77816667.5884167-1.2765.77625s-1.012.28175-1.541.28175z"/><path d="m14.283 3.5995c.851 0 1.6176667.14183333 2.3.4255s1.265.68616667 1.748 1.2075.8529167 1.15191667 1.10975 1.89175.38525 1.56591667.38525 2.47825c0 .92-.1284167 1.748-.38525 2.484s-.62675 1.3646667-1.10975 1.886-1.0656667.9219167-1.748 1.20175-1.449.41975-2.3.41975c-.8586667 0-1.6310833-.1399167-2.31725-.41975s-1.27075-.6804167-1.75375-1.20175-.85291667-1.15-1.10975-1.886-.38525-1.564-.38525-2.484c0-.91233333.12841667-1.73841667.38525-2.47825s.62675-1.37041667 1.10975-1.89175 1.0675833-.92383333 1.75375-1.2075 1.4585833-.4255 2.31725-.4255zm0 10.396c1.15 0 2.0086667-.38525 2.576-1.15575s.851-1.84575.851-3.22575c0-1.38766667-.2836667-2.46866667-.851-3.243s-1.426-1.1615-2.576-1.1615c-.5826667 0-1.0905833.09966667-1.52375.299s-.7935.48683333-1.081.8625-.5021667.83758333-.644 1.38575-.21275 1.16725-.21275 1.85725c0 1.38.2855833 2.45525.85675 3.22575s1.4394167 1.15575 2.60475 1.15575z"/></g></g></g></g></g></svg>