<svg height="55" viewBox="0 0 186 55" width="186" xmlns="http://www.w3.org/2000/svg" xmlns:xlink="http://www.w3.org/1999/xlink"><mask id="a" fill="#fff"><path d="m0 0h61v52h-61z" fill="#fff" fill-rule="evenodd"/></mask><mask id="b" fill="#fff"><path d="m0 0h47v45h-47z" fill="#fff" fill-rule="evenodd"/></mask><g fill="none" fill-rule="evenodd"><g fill="#005e7e" transform="translate(52 3)"><path d="m0 39.164532h1.6269922c1.20510706 5.3566503 5.16906944 10.5719212 11.0486052 10.5719212 5.4556974 0 9.7077526-3.8561576 9.7077526-9.4995074 0-13.2970443-20.96827696-9.3630542-20.96827696-26.2295566 0-9.21773403 6.5138283-14.0073892 15.15807886-14.0073892 2.9024134 0 5.8101981.64384237 8.6403442 1.0729064l1.1328397 9.1492611h-1.6304102c-.7763859-5.00689656-4.0318351-7.93645321-9.1379148-7.93645321-5.3795237 0-8.49385631 3.93251231-8.49385631 9.14778321 0 13.2931035 21.81546531 9.6492611 21.81546531 26.0852217 0 9.2926108-8.2892616 14.5108375-16.6459076 14.5108375-3.68563535 0-7.5128757-.859606-10.83863916-2.4325124z" mask="url(#a)"/><path d="m60.3613128 46.9527094c-.6386872.7842364-1.6973064 1.2142857-2.6221333 1.2142857-1.5557014 0-2.5474244-1.1418719-2.5474244-4.0738917v-19.793596c0-3.9330049-5.4576506-6.0029557-8.6422974-6.0029557-2.6890294 0-3.8941365.9965517-6.3751531 2.2842365-4.9610567 2.5729064-8.1461917 4.3600985-8.1461917 8.1453202 0 .5029556.2138723 1.4315271 1.2759095 1.4315271 1.6973064 0 3.9664039-1.0004926 3.9664039-3.0024631.1411166-3.2152709 2.2651911-4.9995074 5.3848949-4.9995074 4.5328237 0 6.8707705 2.1438424 6.8707705 6.1413793v4.7182266c-15.3011487 5.291133-18.2069802 6.3630542-18.4892136 12.0793104 0 3.7876847 3.1197038 6.9349754 7.6486212 6.9349754 4.3936602 0 7.581725-2.2167488 10.9109065-5.2950739.1376987 2.573399 1.4839224 5.2950739 4.3917071 5.2950739 2.8340524 0 5.028441-2.0054188 7.0118871-3.8625616zm-10.8352211-2.4315271c-2.3379468 2.0748768-4.4639744 4.1438423-7.7936442 4.1438423-2.7593436 0-5.0318591-2.3536946-5.0318591-5.1423645 0-5.3596059 9.2116469-7.0014778 12.8255033-8.4339901z" mask="url(#a)"/></g><path d="m114 52.166593h1.332356c1.962531 0 3.36496 0 3.36496-2.3381664v-39.3653876c0-4.59691609-1.05303-4.73577365-3.714359-5.51483765v-1.13034927c2.804375-.91987043 5.746963-2.19297501 7.218982-3.04024974.770322-.42339376 1.33429-.77760234 1.542093-.77760234.422372 0 .560102.42436819.560102.9914917v48.8369349c0 2.3381664 1.542092 2.3381664 3.507039 2.3381664h1.188827v1.833407c-2.382003 0-4.833596-.1417809-7.356713-.1417809-2.526982 0-5.050581.0716213-7.643287.1417809z" fill="#005e7e"/><path d="m139.498551 10.9143868c-1.821491 0-3.434259-1.6955414-3.434259-3.52767891 0-1.76116588 1.684758-3.38670789 3.434259-3.38670789 1.825839 0 3.433775 1.48408485 3.433775 3.38670789 0 1.90651189-1.539812 3.52767891-3.433775 3.52767891zm-7.498551 41.2563923h1.332056c1.964021 0 3.364201 0 3.364201-2.3328277v-19.1044936c0-3.1037936-1.052792-3.5286512-3.645397-4.9422505v-1.125824c3.29656-.9858251 7.220737-2.3279667 7.501933-2.5369927.488952-.2838865.909296-.3529137 1.262481-.3529137.34932 0 .487019.4209687.487019.9833946v27.0790799c0 2.3328277 1.543194 2.3328277 3.503833 2.3328277h1.193874v1.8292209c-2.380983 0-4.835406-.1414572-7.361818-.1414572-2.521098 0-5.04751.0714578-7.638182.1414572z" fill="#005e7e"/><path d="m150 52.1219626c3.960982 0 5.349338-.2929598 8.059937-3.839421 1.947435-2.5348264 4.796487-5.7229484 7.439058-9.1231792-2.157748-2.676066-7.439058-10.6428772-10.56693-13.9033656-1.320807-1.3734677-2.776712-1.3040956-3.682161-1.3734677v-1.8825291c2.361354.0718675 4.793133.1432359 7.160236.1432359 2.566878 0 5.071476-.1432359 7.642665-.1432359v1.8825291c-1.80563 0-3.614612 0-3.614612 1.1558689 0 .9432608 6.046869 8.4015097 6.813866 9.6312424 1.595316-2.2433638 6.950403-7.9638168 6.950403-9.340778 0-1.4463333-2.227214-1.4463333-3.199255-1.4463333v-1.8825291c2.499328.0718675 5.002489.1432359 7.504212.1432359 1.808983 0 3.545625-.1432359 5.492581-.1432359v1.8825291c-3.614612 0-5.492581.9427618-7.784949 3.6936897-2.29141 2.8232946-5.00201 5.8636889-7.573678 9.0503135 1.944561 2.1699991 10.354701 14.1898375 11.469027 14.8456284.484823.28747 1.180917.6498019 2.360876.6498019h1.528724v1.8780374c-2.708683 0-5.28083-.1452322-7.857768-.1452322-2.497412 0-5.069559.0733647-7.573678.1452322v-1.8780374c2.504119 0 3.685515 0 3.685515-1.0919866 0-.5050688-6.323295-8.5362613-7.367197-9.9870863-.90497 1.3769612-7.781596 8.978446-7.781596 9.9177142 0 1.1613587 1.736643 1.1613587 4.103267 1.1613587v1.8780374c-2.160622-.0718675-4.384962-.1452322-6.536482-.1452322-2.224819 0-4.451075.0733647-6.672061.1452322z" fill="#005e7e"/><g fill="#51af46"><path d="m45.9990061 45.6427478c1.2115289 0 2.2014246.9865669 2.2014246 2.3501106 0 1.3691549-.9898957 2.3689848-2.2014246 2.3689848-1.2264369 0-2.2073877-.9998299-2.2073877-2.3689848 0-1.3635437.9809508-2.3501106 2.2073877-2.3501106zm-2.9990061 2.3501106c0 1.8282605 1.4098062 3.0071416 2.9990061 3.0071416 1.5837337 0 3.0009939-1.1788811 3.0009939-3.0071416 0-1.8206088-1.4172602-2.9928584-3.0009939-2.9928584-1.5891999 0-2.9990061 1.1722496-2.9990061 2.9928584z"/><g transform="translate(0 10)"><path d="m45.142246 37.3179163h.5409458c.2913162 0 .664044.053554.664044.402629 0 .3870496-.2682659.43963-.6341277.43963h-.5708621zm0 1.3412853h.4031346l.7866519 1.369036h.6679675l-.8616879-1.3997079c.4771897-.0384615.850408-.2672834.850408-.8563778 0-.6957157-.4570821-.9513145-1.2662938-.9513145h-1.2197028v3.2074002h.6395225z" mask="url(#b)"/><path d="m37.3424254 35.0920156c-2.0254815 2.2950341-4.5933802 4.1124635-7.5011478 5.2531645l-.046591-.0048685c-.3207421.150925-.678757.2332035-1.0558987.2332035-1.2957197 0-2.3589749-.9980526-2.461475-2.2614411v-4.5983447l-.0093182-.0126582c-.2854311.0895813-.4173571.0963973-.736628.0963973-1.2589373 0-2.3055178-.7502435-2.4604941-1.7268744h-.6375608c-.1598807.9766309-1.200576 1.7268744-2.4580421 1.7268744-.3266273 0-.4963165-.0262902-.7797858-.1139241l-.0372728.0043817v4.624148c-.0985767 1.2633885-1.1637937 2.2614411-2.4580421 2.2614411-.3168186 0-.6189243-.0598832-.8969989-.1655307l.1490911.0598832c-7.37412609-2.7268744-12.62615564-9.7828627-12.62615564-18.0525804 0-4.7979552 1.76947638-9.1869522 4.68656218-12.5589094 3.56053176-4.10418695 8.83315946-6.70496592 14.71882626-6.70496592 10.7173968 0 19.4024459 8.62560852 19.4024459 19.26387532 0 4.8539436-1.8072396 9.288705-4.7915145 12.6767284zm-14.6908717-35.0920156c-12.5256172 0-22.68097958 10.0808179-22.68097958 22.5160662 0 12.4391431 10.15536238 22.5131451 22.68097958 22.5131451 12.5236555 0 22.6736232-10.074002 22.6736232-22.5131451 0-12.4352483-10.1499677-22.5160662-22.6736232-22.5160662z" mask="url(#b)"/></g><path d="m24 29.5009635c0 5.7972564-.6695422 10.4990365-1.5002087 10.4990365-.8269097 0-1.4997913-4.7017801-1.4997913-10.4990365 0-5.8020738.6728816-10.5009635 1.4997913-10.5009635.8306665 0 1.5002087 4.6988897 1.5002087 10.5009635"/><path d="m19.82694 16.106736c-.336016-.0741573-.6969394-.1146067-1.1025083-.1054574-4.2643483.1054574-8.84638435 5.2849128-8.84638435 5.2849128-2.41320567 2.7717503-3.87804735 6.4266467-3.87804735 10.4330682 0 3.2995192.99488927 6.3635648 2.69282735 8.8906922 0 0 .00563943.00626.00563943.0096308.16260354.2272873.42483699.3804174.73030606.3804174.48640075 0 .87787116-.3939006.87787116-.8735154 0-.1131622-.0211479-.2157304-.0568643-.3163725-.0169183-.0226324-.0272572-.0428572-.0361863-.0621188-1.24020446-2.6268064-1.81401636-5.8324251-1.45826238-9.2075462.36421313-3.5128419 1.66598128-6.629857 3.53357218-8.9600341 2.3878283-2.9792944 5.7005229-4.6810604 9.1678318-4.2982353.1804617.0173355.3519944.0423756.5272866.0746389.0051695 0 .0070493-.0019262.0159784-.0019262-.4036891-.4415731-1.1133173-1.0136439-2.17306-1.2481544"/><path d="m21.8736109 18c-.003229 0-.0124544 0-.0175285 0-2.5683748.4423807-4.913493 1.8042747-6.7641252 3.794988-2.2242643 2.3894195-3.7400114 5.6870814-4.0379946 9.4266545-.2541621 3.1718041.4017699 6.1731366 1.7085598 8.6715077.0525852.1455817.1282342.2775446.2246405.4080985.085797.1150566.1854323.2258866.2998283.3202799.6208751.5010831 1.4350241.5048401 1.8224944.009862.2038832-.263456.2403239-.6114434.1420725-.9580219-.0332118-.1338413-.0927161-.2705004-.1683651-.3954189-.8367514-1.9564312-1.3367727-4.163169-1.389358-6.5107925-.0964063-4.4341389 1.4068864-8.4526654 3.8700908-11.2600455 1.1817845-1.3492143 2.5766778-2.4204143 4.1344009-3.1253119.0982514-.0831225.2015768-.1577918.3016733-.2348093-.038747-.0483707-.080723-.0929845-.1263891-.1469906"/><path d="m20.0148033 38.8474985c-.4189735-.9098846-.7838696-1.8570635-1.0876128-2.8491868-1.720369-5.6276101-1.0845805-11.1854131 1.2933091-15.1046586.2552252-.4255372.5382471-.8252554.8318823-1.2072826.246128-.8070863.5518928-1.4152698.9476181-1.6863705-.0212266.0047813-.0363885.0129096-.053572.0172127-1.0689132.8228647-2.020069 1.8384164-2.8332517 2.9959733-2.3096611 3.2861992-3.5018909 7.7710746-2.999527 12.5748638.2264175 2.1611553.7783103 4.18939 1.5849228 6.0340221.1056278.2510191.2254067.5025164.348218.7454073.4573837.5847551 1.2260915.8046957 1.781522.4867381.4442433-.2591474.6302292-.7874829.5134826-1.3330312-.1116925-.2208968-.2249013-.4460969-.3269914-.6736876"/><path d="m25.1677632 16.106736c.3341165-.0741573.7039473-.1146067 1.1080827-.1054574 4.2584586.1054574 8.8406955 5.2849128 8.8406955 5.2849128 2.4107142 2.7717503 3.8834586 6.4266467 3.8834586 10.4330682 0 3.2995192-.9971805 6.3635648-2.6968985 8.8906922 0 0-.0070489.00626-.0070489.0096308-.1574248.2272873-.4252819.3804174-.7293233.3804174-.4821428 0-.8792293-.3939006-.8792293-.8735154 0-.1131622.0253759-.2157304.0643797-.3163725.0070489-.0226324.0197368-.0428572.0286654-.0621188 1.243891-2.6268064 1.8157895-5.8324251 1.4638158-9.2075462-.3646617-3.5128419-1.6710526-6.629857-3.5366541-8.9600341-2.387688-2.9792944-5.7030076-4.6810604-9.1663534-4.2982353-.1799812.0173355-.3552632.0423756-.5310151.0746389-.0046992 0-.0065789-.0019262-.0103383-.0019262.4055451-.4415731 1.1099624-1.0136439 2.1677632-1.2481544"/><path d="m23.1226915 18h.0170661c2.5686804.4423807 4.9155013 1.8042747 6.767405 3.794988 2.2245907 2.3894195 3.7365559 5.6870814 4.0382109 9.4266545.2559917 3.1718041-.3999005 6.1731366-1.712146 8.6715077-.0507371.1455817-.1240753.2775446-.224627.4080985-.0857918.1150566-.1808085.2258866-.3011938.3202799-.6139187.5010831-1.4280184.5048401-1.8159265.009862-.2034096-.263456-.241693-.6114434-.1489825-.9580219.0405897-.1338413.0945555-.2705004.1738898-.3954189.8362395-1.9564312 1.3380754-4.163169 1.3855838-6.5107925.0964004-4.4341389-1.4012661-8.4526654-3.8693948-11.2600455-1.1807904-1.3492143-2.5751378-2.4204143-4.1327664-3.1253119-.1000905-.0831225-.2034096-.1577918-.2998101-.2348093.0368997-.0483707.0788731-.0929845.1226915-.1469906"/><path d="m23.985631 38.8474985c.4165377-.9098846.7880852-1.8570635 1.0898728-2.8491868 1.7167014-5.6276101 1.0782462-11.1854131-1.2996581-15.1046586-.2537645-.4255372-.5378594-.8252554-.8361084-1.2072826-.2365772-.8070863-.5479695-1.4152698-.9397373-1.6863705.0212313.0047813.0363965.0129096.0515617.0172127 1.0686415.8228647 2.018489 1.8384164 2.8318495 2.9959733 2.310672 3.2861992 3.5061957 7.7710746 3.0027109 12.5748638-.2269726 2.1611553-.7805026 4.18939-1.5802145 6.0340221-.1132336.2510191-.2310167.5025164-.3477887.7454073-.4655719.5847551-1.2304038.8046957-1.7844393.4867381-.4453516-.2591474-.6283451-.7874829-.5110675-1.3330312.1091895-.2208968.2168625-.4460969.3230189-.6736876"/></g></g></svg>