<svg height="54.683681" viewBox="0 0 150 54.6836812" width="150" xmlns="http://www.w3.org/2000/svg" xmlns:xlink="http://www.w3.org/1999/xlink"><mask id="a" fill="#fff"><path d="m0 0h23.3322459v41.6803689h-23.3322459z" fill="#fff" fill-rule="evenodd"/></mask><mask id="b" fill="#fff"><path d="m0 0h108.407633v36.1465324h-108.407633z" fill="#fff" fill-rule="evenodd"/></mask><mask id="c" fill="#fff"><path d="m0 0h22.649938v5.44780812h-22.649938z" fill="#fff" fill-rule="evenodd"/></mask><mask id="d" fill="#fff"><path d="m0 0h8.34712331v5.37361848h-8.34712331z" fill="#fff" fill-rule="evenodd"/></mask><mask id="e" fill="#fff"><path d="m0 0h8.57995249v5.37361848h-8.57995249z" fill="#fff" fill-rule="evenodd"/></mask><g fill="#fffffe" fill-rule="evenodd"><path d="m-.02367754 31.3743235h1.31449828c.97433091 4.2911602 4.17790254 8.4690627 8.92919626 8.4690627 4.4095478 0 7.8459486-3.0891302 7.8459486-7.6099625 0-10.6521321-16.9460178-7.5006511-16.9460178-21.0126359 0-7.38384189 5.26430716-11.2207878 12.2503663-11.2207878 2.3456554 0 4.6956515.51577582 6.9829022.85949483l.9155317 7.32938356h-1.3176553c-.6274549-4.01097585-3.2584246-6.35781503-7.3850258-6.35781503-4.34759158 0-6.86451444 3.14990253-6.86451444 7.32819969 0 10.64897515 17.63069344 7.72992865 17.63069344 20.89661595 0 7.4442197-6.6995609 11.6244899-13.4527909 11.6244899-2.97863497 0-6.07171139-.6890165-8.7595072-1.9486618z" mask="url(#a)" transform="translate(0 2.92023)"/><path d="m48.7587706 40.5335866c-.5161705.6282441-1.3717191.9727524-2.1191402.9727524-1.2576722 0-2.0587624-.9147424-2.0587624-3.2635547v-15.8564562c0-3.1506918-4.4107317-4.8089091-6.9844807-4.8089091-2.1732038 0-3.1471401.7983278-5.1522334 1.8298795-4.0093974 2.0611301-6.583541 3.4928323-6.583541 6.5251363 0 .4029129.1728461 1.1467824 1.031157 1.1467824 1.3717191 0 3.2055448-.8014849 3.2055448-2.4052438.1140468-2.5757221 1.8306687-4.0054511 4.3519325-4.0054511 3.6633106 0 5.5527785 1.7178058 5.5527785 4.9201935v3.7797252c-12.3659916 4.2386749-14.7144093 5.0973805-14.942503 9.6766174 0 3.0342772 2.5212638 5.5555409 6.1814174 5.5555409 3.5508422 0 6.1273536-1.7758158 8.8179117-4.2418319.1112845 2.0615248 1.1992676 4.2418319 3.5492638 4.2418319 2.2904077 0 4.0638557-1.6065213 5.6668254-3.0942603zm-8.7567449-1.9478726c-1.8894679 1.6621636-3.6076683 3.3195916-6.2986211 3.3195916-2.23003 0-4.0666181-1.8855217-4.0666181-4.1194979 0-4.2935279 7.4446143-5.6088154 10.3652392-6.756387z"/><path d="m50.5038055 42.2525762h1.0883778c1.602575 0 2.7477789 0 2.7477789-1.8938088v-31.88417998c0-3.72329371-.8598895-3.83576204-3.0330933-4.46676857v-.91553168c2.290013-.74505336 4.6928891-1.77621038 5.894919-2.46246451.6286388-.34292976 1.0895616-.62982266 1.2592507-.62982266.3449029 0 .4573712.34371901.4573712.80306335v39.55570405c0 1.8938088 1.2592507 1.8938088 2.8637989 1.8938088h.9707793v1.4849766c-1.9451102 0-3.9470465-.114836-6.007782-.114836-2.0631033 0-4.1238389.0580099-6.2414005.114836z"/><path d="m71.1237888 8.76029644c-1.4873443 0-2.804605-1.37684915-2.804605-2.86379887 0-1.429729 1.3760599-2.74935742 2.804605-2.74935742 1.4916853 0 2.8049997 1.20479233 2.8049997 2.74935742 0 1.54772208-1.2576722 2.86379887-2.8049997 2.86379887zm-6.1245912 33.49227976h1.0883777c1.6041536 0 2.747779 0 2.747779-1.8938088v-15.5091856c0-2.5196852-.8598895-2.8649827-2.9774511-4.0121597v-.9139532c2.6925313-.8006956 5.8976814-1.8898626 6.1273536-2.0595516.3993612-.2304615.7426856-.2864983 1.031157-.2864983.2853144 0 .3977827.3417459.3977827.7983278v21.9830206c0 1.8938088 1.2604346 1.8938088 2.8618258 1.8938088h.9751201v1.4849766c-1.9447155 0-3.9494142-.114836-6.0129121-.114836-2.059157 0-4.1226549.0580099-6.2390327.114836z"/><g transform="translate(0 18.434941)"><path d="m78.7534826 23.8176356c3.2627655 0 4.4059962-.2316453 6.6391831-3.0358557 1.6041536-2.0043041 3.9509928-4.5251732 6.1277483-7.2137583-1.7773943-2.1159831-6.1277483-8.41539352-8.7042596-10.99348338-1.0879831-1.08600999-2.2872507-1.03115701-3.0330933-1.08600999v-1.48852823c1.9451102.0568261 3.9482304.11325758 5.8980761.11325758 2.1144046 0 4.1775079-.11325758 6.2954641-.11325758v1.48852823c-1.4873443 0-2.9774511 0-2.9774511.91395318 0 .74584261 4.9805713 6.64312943 5.6127617 7.61548719 1.3141037-1.7738426 5.7252301-6.29704265 5.7252301-7.38581502 0-1.14362535-1.8346151-1.14362535-2.6353107-1.14362535v-1.48852823c2.0587624.0568261 4.1202877.11325758 6.1814177.11325758 1.490106 0 2.920625-.11325758 4.524384-.11325758v1.48852823c-2.977451 0-4.524384.74505337-6.412668 2.92062498-1.887495 2.2320031-4.1202876 4.63645763-6.2386385 7.15614289 1.6017858 1.7158326 8.5294405 11.2199986 9.4473395 11.7385368.399362.2273044.972753.5138027 1.944716.5138027h1.259251v1.4849766c-2.231214 0-4.34996-.1148361-6.472652-.1148361-2.0571834 0-4.1759289.05801-6.2386376.1148361v-1.4849766c2.0627087 0 3.0358557 0 3.0358557-.8634411 0-.3993613-5.2086649-6.7496784-6.068949-7.8968554-.7450534 1.0887724-6.409511 7.0993168-6.409511 7.8420024 0 .9182941 1.4305182.9182941 3.3799693.9182941v1.4849766c-1.779762-.0568261-3.6120092-.1148361-5.3842734-.1148361-1.8326418 0-3.6664676.05801-5.4959524.1148361z" mask="url(#b)"/><path d="m.00947102 28.8183327c.47118311.0209152.94512861.0209152 1.41631172.0209152.3559524 0 .72650596-.0209152 1.16454051-.0209152 1.08522074 0 2.63688909.450268 2.63688909 2.0867809 0 1.2403086-1.15388562 2.1037497-2.25725914 2.1037497-.20994089 0-.37962995-.012628-.53708561-.012628v-.3456922c.1365405.0217045.26400461.0217045.40093973.0217045.90014128 0 1.29950251-.8938273 1.29950251-1.6487463 0-1.462483-1.01616124-1.8697367-1.70951863-1.8697367-.15745567 0-.34648139.0110495-.46210673.0315701v5.9312246c0 .735977.39896661.7493942.96367602.7604438v.2695293c-.51498657 0-.96367602-.0197313-1.42736124-.0197313-.50275317 0-.99642995.0082872-1.52167679.0197313v-.2695293c.55800077-.0110496.9557835-.0244668.9557835-.7604438v-4.9963563c0-.8113505-.13614587-1.0295785-.92263494-1.0295785z" mask="url(#b)"/></g><path d="m6.7070588 50.1731092c0-.4001505-.28215739-.4632906-.77741267-.4632906v-.2738703c.39936123.0130226.80898273.0224937 1.20637083.0224937.4218549 0 .86462496-.0094711 1.2517528-.0224937v.2738703c-.46368523 0-.77899118.0311754-.77899118.4632906v1.583633h2.86813972v-1.583633c0-.4321152-.3137274-.4632906-.77899114-.4632906v-.2738703c.39028484.0130226.83305494.0224937 1.25175284.0224937.3989666 0 .8085881-.0094711 1.2063708-.0224937v.2738703c-.4936768 0-.7742557.0631401-.7742557.4632906v3.6727816c0 .3993612.2805789.4660529.7742557.4660529v.2695294c-.3977827-.0114441-.8074042-.0197313-1.2063708-.0197313-.4186979 0-.861468.0082872-1.25175284.0197313v-.2695294c.46526374 0 .77899114-.034727.77899114-.4660529v-1.7529275h-2.86813972v1.7529275c0 .4313259.31530595.4660529.77899118.4660529v.2695294c-.38712784-.0114441-.8298979-.0197313-1.2517528-.0197313-.3973881 0-.8070096.0082872-1.20637083.0197313v-.2695294c.49525528 0 .77741267-.0666917.77741267-.4660529z"/><path d="m15.9259103 54.5814731c.3855494-.0114441.7864891-.0197313 1.1763793-.0197313.385944 0 .7762288.0082872 1.1767739.0197313v-.2695294c-.5583954 0-.7142725-.1404867-.8855401-.6195623l-1.5725835-4.4565083-.8077989.3066241c.0110496.0536691.0213098.0931317.0213098.1487739 0 .0919478-.0540637.2182281-.1065489.343719l-1.5023402 3.8341836c-.0824767.2194119-.2399324.44277-.777018.44277v.2695294c.2833413-.0114441.5895708-.0197313.8626518-.0197313.3555578 0 .7115102.0082872 1.070225.0197313v-.2695294h-.1262802c-.1981022 0-.5433997-.044198-.5433997-.2995209 0-.1862633.1337782-.5426104.1744246-.6799401l.2324346-.684281h1.7844975l.3898902 1.0639109c.0513013.1337782.0840553.2202012.0840553.3445083 0 .1799493-.2655831.2553228-.5268254.2553228h-.1243071zm.0615616-2.2671248h-1.5398295l.7639954-2.1215079h.0224936z"/><path d="m19.5485745 53.8458908c0 .3993612-.2837359.4660529-.7758342.4660529v.2695294c.3977827-.0114441.8058257-.0197313 1.2063708-.0197313.4186979 0 .8618626.0082872 1.2485958.0197313v-.2695294c-.4605282 0-.773861-.034727-.773861-.4660529v-1.6992584c.1033919.0110495.2399324.0197313.3555578.0197313.1018134 0 .2383539-.0086818.3464814-.0197313.5445835.8890918 1.197689 1.972734 1.605732 2.4348407.2328292-.0114441.4518465-.0197313.6815186-.0197313.2008645 0 .4289582.0082872.6302173.0197313v-.2695294c-.6708637-.1598234-.9439447-.4119892-2.0666549-2.3657812.723349-.2411163 1.1227102-.6392936 1.1227102-1.2375462 0-.8409475-.7142726-1.272668-1.5879739-1.272668-.3539793 0-1.0595701.0224937-1.5623233.0224937-.4005451 0-.8085881-.0094711-1.2063708-.0224937v.2738703c.4920983 0 .7758342.0631401.7758342.4632906zm.9052714-2.0137751v-2.0911217c.1033919-.0086818.4171194-.0311754.5130134-.0311754.7967494 0 1.2576722.3354318 1.2576722.9987977 0 .7868837-.5015693 1.1234994-1.3835578 1.1234994z"/><path d="m30.1857109 49.4359483c.240327.0130226.4952552.0224937.7367662.0224937.2715025 0 .5840461-.0094711.8464722-.0224937v.2738703c-.5011747 0-.723349.0939209-.723349.3354318 0 .1681106.0074979.3129382.0224937.588387l.1037865 2.7300207c.032754.8918542.1799494.9482856.8401582.9482856v.2695294c-.3977827-.0114441-.8401582-.0197313-1.2395194-.0197313-.3977827 0-.8492345.0082872-1.2513582.0197313v-.2695294c.5595793 0 .7576814-.0666917.7576814-.5268253 0-.7892514-.0722165-1.9845728-.1172038-3.4659977h-.0165743l-1.985362 4.3254925h-.1471954l-1.9956223-4.1684315h-.0197313c-.073795 1.0193183-.2008645 2.9198357-.2008645 3.2446127 0 .4222495.269924.5911493.8074043.5911493v.2695294c-.3046511 0-.619957-.0197313-.9246081-.0197313-.343719 0-.7340038.0082872-1.0804852.0197313v-.2695294c.7024338 0 .7876729-.2446679.819243-.7067746l.2012591-2.7292315c.03157-.4096215.0418303-.6093022.0418303-.870939 0-.2640046-.1692944-.29518-.7785965-.29518v-.2738703c.3042564 0 .6195623.0224937.924608.0224937.2099409 0 .4589498-.0224937.6629713-.0224937l1.8997282 3.8649643z"/><g transform="translate(32.497034 49.235873)"><path d="m3.27302575 5.34560005c.39146872-.01144414.78925145-.01973128 1.17480078-.01973128.39028484 0 .77899118.00828714 1.17953629.01973128v-.26952936c-.55681689 0-.71585106-.14048676-.88238312-.61956239l-1.57574051-4.4565083-.81016661.30662419c.01341727.0536691.02091516.09313167.02091516.1487739 0 .09194779-.04972284.21822802-.10378657.343719l-1.50076162 3.83418353c-.08366066.21941191-.24151095.44277007-.77543955.44277007v.26952936c.28334127-.01144414.58641383-.01973128.85673245-.01973128.36029328 0 .71742956.00828714 1.07298734.01973128v-.26952936h-.12628023c-.19928599 0-.54734588-.04419809-.54734588-.29952093 0-.18626334.13772438-.54261037.17837083-.67994012l.23243455-.68428101h1.78765453l.38712783 1.06391096c.05090672.13377812.08405528.22020115.08405528.34450825 0 .17994933-.26124223.25532285-.52524684.25532285h-.12746411zm.06274549-2.26712478h-1.54259195l.76517928-2.12150789h.02288829z" mask="url(#c)"/><path d="m10.720797 5.1269774c-.712694.21862265-.97551475.34450826-1.73003913.34450826-1.86105492 0-2.93127988-1.15585874-2.93127988-2.6984507 0-1.65900654 1.27740347-2.69884532 2.87563765-2.69884532.86304646 0 1.04141728.25058733 1.89223036.28610365l.0615616 1.22018273h-.2415109c0-.24782495-.3137275-1.16769751-1.56548029-1.16769751-.91079617 0-2.0556054.54418887-2.0556054 2.21424493 0 1.19729445.77583418 2.50903036 2.01535357 2.50903036.71269406 0 1.26951092-.23993244 1.60573212-1.23715165l.273081.02999156z" mask="url(#c)"/><path d="m16.0545583 5.34560005c-.7564975-.01144414-1.5007616-.01973128-2.258443-.01973128-.6712584 0-1.3539609.00828714-2.027587.01973128v-.26952936c.4952553 0 .7789912-.06669175.7789912-.46605298v-3.67278162c0-.40015048-.2837359-.4632906-.7789912-.4632906v-.27387025c.4743402.01302265.9451286.02249367 1.4210473.02249367.8583109 0 1.7304338-.00947102 2.5828253-.02249367l.0599831 1.11363379h-.2205957c-.1247018-.71269405-.3014941-.77662342-1.3851363-.77662342h-.7746503v1.98378351h.8689658c.5268254 0 .7564975-.00868176.7564975-.73518772h.273081c-.0102602.2746595-.0193366.55760615-.0193366.84134204 0 .2837359.0090764.57773206.0193366.87172823h-.273081c0-.57694281-.1365405-.64166143-.7564975-.64166143h-.8689658v1.53233169c0 .45381958.2478249.61995701 1.1183693.61995701 1.0670679 0 1.1373113-.13535663 1.5469328-.82871402h.2628207z" mask="url(#c)"/><path d="m17.7561844.85081306c0-.37686757-.4439539-.37686757-.7276898-.37686757v-.27387025c.3914687.01302265.8117451.02249367 1.198873.02249367.3693696 0 .7596545-.00947102 1.1152123-.02249367v.27387025c-.3164899 0-.6842811 0-.6842811.35950404v2.8519601c0 .96841153.5986473 1.35593399 1.40763 1.35593399 1.4691916 0 1.4691916-1.14244147 1.4691916-2.19332977v-1.2395194c0-1.05049368-.103392-1.13454896-.8089828-1.13454896v-.27387025c.3468761.01302265.7055908.02249367 1.0489152.02249367.2939962 0 .5797052-.00947102.8748852-.02249367v.27387025c-.3587147 0-.6302172.05130135-.6302172.73597698v2.12979503c0 1.20952784-.5777321 2.13176816-2.1128262 2.13176816-1.3417274 0-2.1507102-.51577582-2.1507102-1.7335908z" mask="url(#c)"/></g><path d="m57.7148014 49.7729587h-.7967494c-.6377151 0-.7639954.083266-.9407877.7955654h-.2746595l.1483793-1.3851363h.208757c0 .199286.2415109.2525605.4605282.2525605h3.3511616c.238354 0 .3673966 0 .5568169-.2525605h.2099409l-.1049704 1.3851363h-.2837359c-.064324-.6681013-.1456169-.7955654-.5777321-.7955654h-1.0520722v4.0729321c0 .3993612.2864983.4660529.8389743.4660529v.2695294c-.4502679-.0114441-.8914595-.0197313-1.3097627-.0197313-.3977828 0-.8077989.0082872-1.2699056.0197313v-.2695294c.5552384 0 .8358173-.0666917.8358173-.4660529z"/><g transform="translate(61.307474 49.310063)"><path d="m.77741268.86304646c0-.40015049-.2837359-.4632906-.77741268-.4632906v-.27387025c.39936123.01302265.81056124.02249366 1.20952784.02249366.4186979 0 .86028408-.00947101 1.24741192-.02249366v.27387025c-.4909144 0-.77425567.06314011-.77425567.4632906v3.67278161c0 .39936123.28334127.46605298.77425567.46605298v.26952937c-.38712784-.01144415-.82871402-.01973129-1.24741192-.01973129-.3989666 0-.81016661.00828714-1.20952784.01973129v-.26952937c.49367678 0 .77741268-.06669175.77741268-.46605298z" mask="url(#d)"/><path d="m8.1490212 5.05278777c-.71269406.21862265-.97551479.34450825-1.73161768.34450825-1.85947641 0-2.93127988-1.15585874-2.93127988-2.69845069 0-1.65900655 1.28174436-2.69884533 2.87721616-2.69884533.86265183 0 1.04299578.25058734 1.89223034.28610365l.05840461 1.22018274h-.23677544c0-.24782496-.31688445-1.16769752-1.56390174-1.16769752-.91553168 0-2.0587624.54418887-2.0587624 2.21424494 0 1.19729444.77543955 2.50903035 2.01377507 2.50903035.71427256 0 1.26951095-.23993244 1.60888907-1.23715164l.269924.02999155z" mask="url(#d)"/></g><path d="m73.5010142 54.5814731c.3871278-.0114441.7864891-.0197313 1.1748008-.0197313.3855493 0 .7774126.0082872 1.1720384.0197313v-.2695294c-.5536599 0-.7126941-.1404867-.8776476-.6195623l-1.5757406-4.4565083-.8089827.3066241c.0102603.0536691.0224937.0931317.0224937.1487739 0 .0919478-.0552476.2182281-.103392.343719l-1.5051025 3.8341836c-.0856338.2194119-.2387485.44277-.7762288.44277v.2695294c.2837359-.0114441.588387-.0197313.8598895-.0197313.3587148 0 .7130887.0082872 1.0702249.0197313v-.2695294h-.1247017c-.1981021 0-.5433996-.044198-.5433996-.2995209 0-.1862633.1353566-.5426104.1771869-.6799401l.2296722-.684281h1.7844975l.3898903 1.0639109c.0524852.1337782.0844499.2202012.0844499.3445083 0 .1799493-.2628208.2553228-.524063.2553228h-.1258856zm.0615616-2.2671248h-1.5429866l.7655739-2.1215079h.0224937z"/><g transform="translate(76.617768 49.310063)"><path d="m.7778073.86304646c0-.40015049-.2853144-.4632906-.7778073-.4632906v-.27387025c.40093974.01302265.80740423.02249366 1.20676546.02249366.4202764 0 .85988946-.00947101 1.25293668-.02249366v.27387025c-.46486911 0-.78175356.03117543-.78175356.4632906v3.49480541c0 .44198081.138119.57733743.9664384.57733743.93328983 0 1.16611901-.14640614 1.55600922-.99642995h.26282074l-.31648983 1.33265107c-.269924-.01144415-1.63572363-.01973129-1.94195319-.01973129-.73400385 0-1.46919157.00828714-2.20477392.01973129v-.26952937c.4924929 0 .7778073-.06669175.7778073-.46605298z" mask="url(#e)"/><path d="m5.26154478 4.00268872h.24032706c.21151939.73045221.53550711 1.12271018 1.30265952 1.12271018.8070096 0 .99642995-.54576738.99642995-.87172822 0-.42895816-.24032707-.70519617-.94394473-1.07061959-1.15704263-.59904185-1.45853668-.99761383-1.45853668-1.81961921 0-.71269406.61798389-1.36343188 1.53509407-1.36343188.3973881 0 .8883025.09431555 1.23636239.10378657l.09628868 1.03194626h-.22375279c-.11246833-.42067102-.343719-.8622572-1.03983878-.8622572-.54339962 0-.9111908.3591094-.9111908.84134204 0 .50393705.15785029.70282841 1.16611902 1.19334819 1.11047678.54813513 1.3223908.98735356 1.3223908 1.6507194 0 .84094742-.77899118 1.43841076-1.85671403 1.43841076-.4877574 0-.90606067-.09313167-1.3054219-.28215739z" mask="url(#e)"/></g><path d="m147.616855 39.6429163c.962098 0 1.748192.7632062 1.748192 1.8180407 0 1.0591755-.786094 1.8326419-1.748192 1.8326419-.973936 0-1.752927-.7734664-1.752927-1.8326419 0-1.0548345.778991-1.8180407 1.752927-1.8180407zm-2.381566 1.8180407c0 1.4143386 1.119553 2.3263187 2.381566 2.3263187 1.257672 0 2.383145-.9119801 2.383145-2.3263187 0-1.4084192-1.125473-2.3152691-2.383145-2.3152691-1.262013 0-2.381566.9068499-2.381566 2.3152691z"/><path d="m147.205655 40.5600265h.435272c.234408 0 .533929.0434088.533929.3263555 0 .3137274-.215466.356347-.510251.356347h-.45895zm0 1.0871939h.324383l.632979 1.1096875h.537086l-.692963-1.1345489c.383971-.0311755.684281-.2166496.684281-.6941467 0-.5639201-.367791-.7710986-1.018924-.7710986h-.981434v2.5997942h.514592z"/><path d="m140.929528 38.7557977c-1.629805 1.8602657-3.696065 3.3334035-6.035801 4.2580116l-.037489-.0039463c-.258085.122334-.546162.1890257-.849629.1890257-1.042601 0-1.89815-.8089827-1.980627-1.8330365v-3.7272399l-.007498-.0102603c-.229672.0726111-.336221.0781359-.592728.0781359-1.013004 0-1.855135-.6081182-1.979837-1.3997374h-.513013c-.128648.7916192-.966439 1.3997374-1.977864 1.3997374-.262821 0-.399362-.0213098-.627455-.0923424l-.029992.0035516v3.7481551c-.07932 1.0240538-.936447 1.8330365-1.977864 1.8330365-.254928 0-.498018-.0485389-.72177-.1341727l.119966.048539c-5.933593-2.2102987-10.159639-7.9296093-10.159639-14.6327219 0-3.8886419 1.423809-7.4465874 3.771043-10.1797652 2.864983-3.3266948 7.107604-5.4347854 11.843507-5.4347854 8.623756 0 15.612183 6.9915839 15.612183 15.6145506 0 3.9344185-1.454196 7.5294588-3.855493 10.2752646zm-11.821014-28.4442275c-10.078741 0-18.250256 8.1711202-18.250256 18.2510451 0 10.0822926 8.171515 18.2478881 18.250256 18.2478881 10.077163 0 18.243942-8.1655955 18.243942-18.2478881 0-10.0799249-8.166779-18.2510451-18.243942-18.2510451z"/><path d="m130.553634 25.8258859c0 4.7489259-.63298 8.600473-1.418285 8.600473-.781754 0-1.41789-3.8515471-1.41789-8.600473 0-4.7528722.636136-8.6020516 1.41789-8.6020516.785305 0 1.418285 3.8491794 1.418285 8.6020516"/><path d="m127.061196 15.6398067c-.281763-.0607724-.584835-.0939209-.925397-.086423-3.580834.086423-7.428435 4.3310173-7.428435 4.3310173-2.026403 2.2714656-3.256451 5.2666749-3.256451 8.5499609 0 2.7039755.835422 5.2149789 2.261205 7.2859747 0 0 .004735.0051302.004735.0078926.136541.1862633.356742.3117543.613249.3117543.408437 0 .737161-.3228039.737161-.7158511 0-.092737-.017759-.1763977-.04775-.2592691-.014207-.0185474-.022888-.0351217-.029992-.0509067-1.041812-2.1526833-1.52365-4.7797068-1.224918-7.5452438.305835-2.8791893 1.398948-5.4336016 2.966796-7.3431955 2.005488-2.4415494 4.787205-3.8361567 7.698754-3.5224292.151536.0142065.295574.034727.44277.061167.004341 0 .005919-.0015785.013417-.0015785-.338984-.3618718-.934868-.8306872-1.825144-1.0228699"/><path d="m128.887918 16.6642551c-.002762 0-.010654 0-.014995 0-2.197276.372132-4.203554 1.516152-5.786792 3.1889704-1.902885 2.0078557-3.199625 4.7789176-3.454554 7.9213222-.217438 2.6653021.343325 5.1873551 1.461299 7.286764.045382.122334.110101.2336184.192578.3429297.0734.0966833.158639.189815.256507.2695294.531166.420671 1.22768.423828 1.559166.0082871.174424-.2217796.2056-.5141973.121545-.8054311-.028414-.1124683-.07932-.2273044-.144039-.3322748-.715851-1.6440108-1.143625-3.4983571-1.188613-5.471091-.082476-3.7260561 1.203609-7.1028685 3.31091-9.461941 1.011031-1.1337597 2.20438-2.033901 3.537031-2.6262342.08366-.0698488.172451-.1325943.258085-.1973129-.033149-.0406464-.06906-.0781359-.108128-.1235178"/><path d="m127.229701 34.1773501c-.327145-.7509728-.612459-1.5327263-.849234-2.3515747-1.343306-4.6447448-.846867-9.2318742 1.009452-12.4666213.199681-.3512169.420671-.681124.649949-.9964299.192182-.6661282.430931-1.1680922.739923-1.3918449-.016574.0039462-.028413.0106548-.04183.0142065-.834634.6791508-1.576925 1.5173359-2.212272 2.4727248-1.80344 2.7122626-2.734362 6.4138519-2.342104 10.3786565.176792 1.7837083.607724 3.4577106 1.237546 4.9801766.082477.2071785.176003.4147517.271898.6152215.357136.4826273.956967.6641551 1.391055.401729.346876-.2138871.492098-.6499485.40094-1.1002165-.087212-.1823171-.176003-.3681858-.255323-.5560276"/><path d="m131.209502 15.6398067c.280578-.0607724.591149-.0939209.930527-.086423 3.576098.086423 7.424094 4.3310173 7.424094 4.3310173 2.02443 2.2714656 3.261187 5.2666749 3.261187 8.5499609 0 2.7039755-.837396 5.2149789-2.264757 7.2859747 0 0-.00592.0051302-.00592.0078926-.132199.1862633-.357136.3117543-.612459.3117543-.404886 0-.738345-.3228039-.738345-.7158511 0-.092737.02131-.1763977.054064-.2592691.00592-.0185474.016574-.0351217.024072-.0509067 1.044575-2.1526833 1.524834-4.7797068 1.229259-7.5452438-.306229-2.8791893-1.403289-5.4336016-2.969953-7.3431955-2.005093-2.4415494-4.789178-3.8361567-7.697569-3.5224292-.151536.0142065-.298732.034727-.445927.061167-.003946 0-.005525-.0015785-.008682-.0015785.340562-.3618718.932106-.8306872 1.820409-1.0228699"/><path d="m129.383174 16.6642551h.014601c2.19767.372132 4.205526 1.516152 5.789948 3.1889704 1.90328 2.0078557 3.196863 4.7789176 3.454949 7.9213222.219017 2.6653021-.342141 5.1873551-1.464851 7.286764-.043409.122334-.106154.2336184-.192183.3429297-.0734.0966833-.154693.189815-.25769.2695294-.525247.420671-1.221762.423828-1.553642.0082871-.17403-.2217796-.206784-.5141973-.127464-.8054311.034727-.1124683.080898-.2273044.148774-.3322748.715456-1.6440108 1.144809-3.4983571 1.185456-5.471091.082476-3.7260561-1.198873-7.1028685-3.310516-9.461941-1.010241-1.1337597-2.203195-2.033901-3.535846-2.6262342-.085634-.0698488-.17403-.1325943-.256507-.1973129.03157-.0406464.067481-.0781359.104971-.1235178"/><path d="m131.044548 34.1773501c.325172-.7509728.615221-1.5327263.850813-2.3515747 1.340149-4.6447448.841737-9.2318742-1.014583-12.4666213-.198102-.3512169-.419881-.681124-.652711-.9964299-.184684-.6661282-.427774-1.1680922-.733609-1.3918449.016574.0039462.028413.0106548.040252.0142065.834239.6791508 1.57574 1.5173359 2.210693 2.4727248 1.803834 2.7122626 2.737124 6.4138519 2.344077 10.3786565-.177187 1.7837083-.609302 3.4577106-1.2336 4.9801766-.088791.2071785-.180344.4147517-.271502.6152215-.363451.4826273-.960519.6641551-1.393029.401729-.34806-.2138871-.49052-.6499485-.398967-1.1002165.085239-.1823171.169295-.3681858.252166-.5560276"/></g></svg>