<svg height="119.374" viewBox="0 0 220.128 119.374" width="220.128" xmlns="http://www.w3.org/2000/svg" xmlns:xlink="http://www.w3.org/1999/xlink"><defs><path id="a" d="m72.898 13.374h-2.43v-13.014h2.43z"/><filter id="b" height="130.7%" width="264.6%" x="-82.3%" y="-15.4%"><feGaussianBlur in="SourceAlpha" result="shadowBlurInner1" stdDeviation="1.5"/><feOffset dx="0" dy="1" in="shadowBlurInner1" result="shadowOffsetInner1"/><feComposite in="shadowOffsetInner1" in2="SourceAlpha" k2="-1" k3="1" operator="arithmetic" result="shadowInnerInner1"/><feColorMatrix in="shadowInnerInner1" type="matrix" values="0 0 0 0 0   0 0 0 0 0   0 0 0 0 0  0 0 0 0.5 0"/></filter><path id="c" d="m75.454 13.374v-9.234h1.359c.288 0 .477.135.567.405l.144.684c.162-.18.3315-.345.5085-.495s.366-.279.567-.387.417-.1935.648-.2565.4845-.0945.7605-.0945c.582 0 1.0605.1575 1.4355.4725s.6555.7335.8415 1.2555c.144-.306.324-.5685.54-.7875s.453-.3975.711-.5355.5325-.24.8235-.306.5835-.099.8775-.099c.51 0 .963.078 1.359.234s.729.384.999.684.4755.666.6165 1.098.2115.927.2115 1.485v5.877h-2.223v-5.877c0-.588-.129-1.0305-.387-1.3275s-.636-.4455-1.134-.4455c-.228 0-.4395.039-.6345.117s-.366.1905-.513.3375-.2625.3315-.3465.5535-.126.477-.126.765v5.877h-2.232v-5.877c0-.618-.1245-1.068-.3735-1.35s-.6135-.423-1.0935-.423c-.324 0-.6255.0795-.9045.2385s-.5385.3765-.7785.6525v6.759z"/><filter id="d" height="142.7%" width="130.8%" x="-15.4%" y="-21.3%"><feGaussianBlur in="SourceAlpha" result="shadowBlurInner1" stdDeviation="1.5"/><feOffset dx="0" dy="1" in="shadowBlurInner1" result="shadowOffsetInner1"/><feComposite in="shadowOffsetInner1" in2="SourceAlpha" k2="-1" k3="1" operator="arithmetic" result="shadowInnerInner1"/><feColorMatrix in="shadowInnerInner1" type="matrix" values="0 0 0 0 0   0 0 0 0 0   0 0 0 0 0  0 0 0 0.5 0"/></filter><path id="e" d="m92.752 10.98c.252.306.5265.522.8235.648s.6105.189.9405.189c.342 0 .6495-.0615.9225-.1845s.5055-.315.6975-.576.339-.594.441-.999.153-.8895.153-1.4535c0-1.014-.168-1.7475-.504-2.2005s-.819-.6795-1.449-.6795c-.426 0-.798.0975-1.116.2925s-.621.4695-.909.8235zm0-5.706c.372-.39.7845-.7005 1.2375-.9315s.9705-.3465 1.5525-.3465c.534 0 1.0155.105 1.4445.315s.795.5115 1.098.9045.5355.8685.6975 1.4265.243 1.185.243 1.881c0 .75-.093 1.431-.279 2.043s-.4515 1.1355-.7965 1.5705-.7605.7725-1.2465 1.0125-1.026.36-1.62.36c-.288 0-.549-.0285-.783-.0855s-.45-.1365-.648-.2385-.3795-.2265-.5445-.3735-.3225-.3105-.4725-.4905l-.099.621c-.036.156-.0975.267-.1845.333s-.2055.099-.3555.099h-1.467v-13.374h2.223z"/><filter id="f" height="129.6%" width="147.1%" x="-23.5%" y="-14.8%"><feGaussianBlur in="SourceAlpha" result="shadowBlurInner1" stdDeviation="1.5"/><feOffset dx="0" dy="1" in="shadowBlurInner1" result="shadowOffsetInner1"/><feComposite in="shadowOffsetInner1" in2="SourceAlpha" k2="-1" k3="1" operator="arithmetic" result="shadowInnerInner1"/><feColorMatrix in="shadowInnerInner1" type="matrix" values="0 0 0 0 0   0 0 0 0 0   0 0 0 0 0  0 0 0 0.5 0"/></filter><path id="g" d="m105.622 9.432c-.642.03-1.182.0855-1.62.1665s-.789.1845-1.053.3105-.453.273-.567.441-.171.351-.171.549c0 .39.1155.669.3465.837s.5325.252.9045.252c.456 0 .8505-.0825 1.1835-.2475s.6585-.4155.9765-.7515zm-5.094-4.005c1.062-.972 2.34-1.458 3.834-1.458.54 0 1.023.0885 1.449.2655s.786.423 1.08.738.5175.6915.6705 1.1295.2295.918.2295 1.44v5.832h-1.008c-.21 0-.372-.0315-.486-.0945s-.204-.1905-.27-.3825l-.198-.666c-.234.21-.462.3945-.684.5535s-.453.2925-.693.4005-.4965.1905-.7695.2475-.5745.0855-.9045.0855c-.39 0-.75-.0525-1.08-.1575s-.615-.2625-.855-.4725-.426-.471-.558-.783-.198-.675-.198-1.089c0-.234.039-.4665.117-.6975s.2055-.4515.3825-.6615.4065-.408.6885-.594.6285-.348 1.0395-.486.8895-.2505 1.4355-.3375 1.17-.1395 1.872-.1575v-.54c0-.618-.132-1.0755-.396-1.3725s-.645-.4455-1.143-.4455c-.36 0-.6585.042-.8955.126s-.4455.1785-.6255.2835-.3435.1995-.4905.2835-.3105.126-.4905.126c-.156 0-.288-.0405-.396-.1215s-.195-.1755-.261-.2835z"/><filter id="h" height="141.9%" width="151.9%" x="-26%" y="-20.9%"><feGaussianBlur in="SourceAlpha" result="shadowBlurInner1" stdDeviation="1.5"/><feOffset dx="0" dy="1" in="shadowBlurInner1" result="shadowOffsetInner1"/><feComposite in="shadowOffsetInner1" in2="SourceAlpha" k2="-1" k3="1" operator="arithmetic" result="shadowInnerInner1"/><feColorMatrix in="shadowInnerInner1" type="matrix" values="0 0 0 0 0   0 0 0 0 0   0 0 0 0 0  0 0 0 0.5 0"/></filter><path id="i" d="m112.129 0v13.374h-2.223v-13.374z"/><filter id="j" height="129.9%" width="279.9%" x="-90%" y="-15%"><feGaussianBlur in="SourceAlpha" result="shadowBlurInner1" stdDeviation="1.5"/><feOffset dx="0" dy="1" in="shadowBlurInner1" result="shadowOffsetInner1"/><feComposite in="shadowOffsetInner1" in2="SourceAlpha" k2="-1" k3="1" operator="arithmetic" result="shadowInnerInner1"/><feColorMatrix in="shadowInnerInner1" type="matrix" values="0 0 0 0 0   0 0 0 0 0   0 0 0 0 0  0 0 0 0.5 0"/></filter><path id="k" d="m119.23 9.432c-.642.03-1.182.0855-1.62.1665s-.789.1845-1.053.3105-.453.273-.567.441-.171.351-.171.549c0 .39.1155.669.3465.837s.5325.252.9045.252c.456 0 .8505-.0825 1.1835-.2475s.6585-.4155.9765-.7515zm-5.094-4.005c1.062-.972 2.34-1.458 3.834-1.458.54 0 1.023.0885 1.449.2655s.786.423 1.08.738.5175.6915.6705 1.1295.2295.918.2295 1.44v5.832h-1.008c-.21 0-.372-.0315-.486-.0945s-.204-.1905-.27-.3825l-.198-.666c-.234.21-.462.3945-.684.5535s-.453.2925-.693.4005-.4965.1905-.7695.2475-.5745.0855-.9045.0855c-.39 0-.75-.0525-1.08-.1575s-.615-.2625-.855-.4725-.426-.471-.558-.783-.198-.675-.198-1.089c0-.234.039-.4665.117-.6975s.2055-.4515.3825-.6615.4065-.408.6885-.594.6285-.348 1.0395-.486.8895-.2505 1.4355-.3375 1.17-.1395 1.872-.1575v-.54c0-.618-.132-1.0755-.396-1.3725s-.645-.4455-1.143-.4455c-.36 0-.6585.042-.8955.126s-.4455.1785-.6255.2835-.3435.1995-.4905.2835-.3105.126-.4905.126c-.156 0-.288-.0405-.396-.1215s-.195-.1755-.261-.2835z"/><filter id="l" height="141.9%" width="151.9%" x="-26%" y="-20.9%"><feGaussianBlur in="SourceAlpha" result="shadowBlurInner1" stdDeviation="1.5"/><feOffset dx="0" dy="1" in="shadowBlurInner1" result="shadowOffsetInner1"/><feComposite in="shadowOffsetInner1" in2="SourceAlpha" k2="-1" k3="1" operator="arithmetic" result="shadowInnerInner1"/><feColorMatrix in="shadowInnerInner1" type="matrix" values="0 0 0 0 0   0 0 0 0 0   0 0 0 0 0  0 0 0 0.5 0"/></filter><path id="m" d="m125.566 5.274c.186-.186.3825-.3585.5895-.5175s.426-.294.657-.405.4785-.198.7425-.261.552-.0945.864-.0945c.504 0 .951.0855 1.341.2565s.7155.411.9765.72.459.678.594 1.107.2025.9015.2025 1.4175v5.877h-2.223v-5.877c0-.564-.129-1.0005-.387-1.3095s-.651-.4635-1.179-.4635c-.384 0-.744.087-1.08.261s-.654.411-.954.711v6.678h-2.223v-9.234h1.359c.288 0 .477.135.567.405z"/><filter id="n" height="142.7%" width="149.7%" x="-24.9%" y="-21.3%"><feGaussianBlur in="SourceAlpha" result="shadowBlurInner1" stdDeviation="1.5"/><feOffset dx="0" dy="1" in="shadowBlurInner1" result="shadowOffsetInner1"/><feComposite in="shadowOffsetInner1" in2="SourceAlpha" k2="-1" k3="1" operator="arithmetic" result="shadowInnerInner1"/><feColorMatrix in="shadowInnerInner1" type="matrix" values="0 0 0 0 0   0 0 0 0 0   0 0 0 0 0  0 0 0 0.5 0"/></filter><path id="o" d="m140.254 6.093c-.066.084-.1305.15-.1935.198s-.1545.072-.2745.072c-.114 0-.225-.0345-.333-.1035s-.237-.147-.387-.234-.3285-.165-.5355-.234-.4635-.1035-.7695-.1035c-.39 0-.732.0705-1.026.2115s-.5385.3435-.7335.6075-.3405.5835-.4365.9585-.144.7995-.144 1.2735c0 .492.0525.93.1575 1.314s.2565.7065.4545.9675.438.459.72.594.6.2025.954.2025.6405-.0435.8595-.1305.4035-.183.5535-.288.2805-.201.3915-.288.2355-.1305.3735-.1305c.18 0 .315.069.405.207l.639.81c-.246.288-.513.5295-.801.7245s-.5865.351-.8955.468-.627.1995-.954.2475-.6525.072-.9765.072c-.57 0-1.107-.1065-1.611-.3195s-.945-.5235-1.323-.9315-.6765-.9075-.8955-1.4985-.3285-1.2645-.3285-2.0205c0-.678.0975-1.3065.2925-1.8855s.4815-1.08.8595-1.503.846-.7545 1.404-.9945 1.2-.36 1.926-.36c.69 0 1.2945.111 1.8135.333s.9855.54 1.3995.954z"/><filter id="p" height="142%" width="151.4%" x="-25.7%" y="-21%"><feGaussianBlur in="SourceAlpha" result="shadowBlurInner1" stdDeviation="1.5"/><feOffset dx="0" dy="1" in="shadowBlurInner1" result="shadowOffsetInner1"/><feComposite in="shadowOffsetInner1" in2="SourceAlpha" k2="-1" k3="1" operator="arithmetic" result="shadowInnerInner1"/><feColorMatrix in="shadowInnerInner1" type="matrix" values="0 0 0 0 0   0 0 0 0 0   0 0 0 0 0  0 0 0 0.5 0"/></filter><path id="q" d="m148.264 7.695c0-.288-.0405-.5595-.1215-.8145s-.2025-.4785-.3645-.6705-.3675-.3435-.6165-.4545-.5385-.1665-.8685-.1665c-.642 0-1.1475.183-1.5165.549s-.6045.885-.7065 1.557zm-4.239 1.341c.036.474.12.8835.252 1.2285s.306.63.522.855.4725.393.7695.504.6255.1665.9855.1665.6705-.042.9315-.126.489-.177.684-.279.366-.195.513-.279.2895-.126.4275-.126c.186 0 .324.069.414.207l.639.81c-.246.288-.522.5295-.828.7245s-.6255.351-.9585.468-.672.1995-1.017.2475-.6795.072-1.0035.072c-.642 0-1.239-.1065-1.791-.3195s-1.032-.528-1.44-.945-.729-.933-.963-1.548-.351-1.3275-.351-2.1375c0-.63.102-1.2225.306-1.7775s.4965-1.038.8775-1.449.846-.7365 1.395-.9765 1.1685-.36 1.8585-.36c.582 0 1.119.093 1.611.279s.915.4575 1.269.8145.6315.795.8325 1.314.3015 1.1115.3015 1.7775c0 .336-.036.5625-.108.6795s-.21.1755-.414.1755z"/><filter id="r" height="142%" width="147.3%" x="-23.7%" y="-21%"><feGaussianBlur in="SourceAlpha" result="shadowBlurInner1" stdDeviation="1.5"/><feOffset dx="0" dy="1" in="shadowBlurInner1" result="shadowOffsetInner1"/><feComposite in="shadowOffsetInner1" in2="SourceAlpha" k2="-1" k3="1" operator="arithmetic" result="shadowInnerInner1"/><feColorMatrix in="shadowInnerInner1" type="matrix" values="0 0 0 0 0   0 0 0 0 0   0 0 0 0 0  0 0 0 0.5 0"/></filter><path id="s" d="m1.728 26.27v8.104h-1.424v-8.104zm.304-2.544c0 .1386667-.028.268-.084.388s-.13066667.2266667-.224.32-.20266667.1666667-.328.22-.25733333.08-.396.08-.268-.0266667-.388-.08-.22533333-.1266667-.316-.22-.16266667-.2-.216-.32-.08-.2493333-.08-.388.02666667-.2706667.08-.396.12533333-.2346667.216-.328.196-.1666667.316-.22.24933333-.08.388-.08.27066667.0266667.396.08.23466667.1266667.328.22.168.2026667.224.328.084.2573333.084.396z"/><filter id="t" height="134.3%" width="296.9%" x="-98.4%" y="-17.1%"><feGaussianBlur in="SourceAlpha" result="shadowBlurInner1" stdDeviation="1.5"/><feOffset dx="0" dy="1" in="shadowBlurInner1" result="shadowOffsetInner1"/><feComposite in="shadowOffsetInner1" in2="SourceAlpha" k2="-1" k3="1" operator="arithmetic" result="shadowInnerInner1"/><feColorMatrix in="shadowInnerInner1" type="matrix" values="0 0 0 0 0   0 0 0 0 0   0 0 0 0 0  0 0 0 0.5 0"/></filter><path id="u" d="m5.408 27.446c.176-.1973333.36266667-.376.56-.536s.40666667-.2973333.628-.412.456-.2026667.704-.264.516-.092.804-.092c.44266667 0 .83333333.0733333 1.172.22s.62133333.3546667.848.624c.2266667.2693333.3986667.5933333.516.972s.176.7973333.176 1.256v5.16h-1.432v-5.16c0-.6133333-.14-1.0893333-.42-1.428s-.70533333-.508-1.276-.508c-.42133333 0-.81466667.1013333-1.18.304s-.70266667.4773333-1.012.824v5.968h-1.432v-8.104h.856c.20266667 0 .328.0986667.376.296z"/><filter id="v" height="148.6%" width="159.2%" x="-29.6%" y="-24.3%"><feGaussianBlur in="SourceAlpha" result="shadowBlurInner1" stdDeviation="1.5"/><feOffset dx="0" dy="1" in="shadowBlurInner1" result="shadowOffsetInner1"/><feComposite in="shadowOffsetInner1" in2="SourceAlpha" k2="-1" k3="1" operator="arithmetic" result="shadowInnerInner1"/><feColorMatrix in="shadowInnerInner1" type="matrix" values="0 0 0 0 0   0 0 0 0 0   0 0 0 0 0  0 0 0 0.5 0"/></filter><path id="w" d="m18.976 24.174v4.008h4.712v1.264h-4.712v4.928h-1.552v-11.464h7.064v1.264z"/><filter id="x" height="134.9%" width="156.6%" x="-28.3%" y="-17.4%"><feGaussianBlur in="SourceAlpha" result="shadowBlurInner1" stdDeviation="1.5"/><feOffset dx="0" dy="1" in="shadowBlurInner1" result="shadowOffsetInner1"/><feComposite in="shadowOffsetInner1" in2="SourceAlpha" k2="-1" k3="1" operator="arithmetic" result="shadowInnerInner1"/><feColorMatrix in="shadowInnerInner1" type="matrix" values="0 0 0 0 0   0 0 0 0 0   0 0 0 0 0  0 0 0 0.5 0"/></filter><path id="y" d="m27.64 26.27v8.104h-1.424v-8.104zm.304-2.544c0 .1386667-.028.268-.084.388s-.1306667.2266667-.224.32-.2026667.1666667-.328.22-.2573333.08-.396.08-.268-.0266667-.388-.08-.2253333-.1266667-.316-.22-.1626667-.2-.216-.32-.08-.2493333-.08-.388.0266667-.2706667.08-.396.1253333-.2346667.216-.328.196-.1666667.316-.22.2493333-.08.388-.08.2706667.0266667.396.08.2346667.1266667.328.22.168.2026667.224.328.084.2573333.084.396z"/><filter id="z" height="134.3%" width="296.9%" x="-98.4%" y="-17.1%"><feGaussianBlur in="SourceAlpha" result="shadowBlurInner1" stdDeviation="1.5"/><feOffset dx="0" dy="1" in="shadowBlurInner1" result="shadowOffsetInner1"/><feComposite in="shadowOffsetInner1" in2="SourceAlpha" k2="-1" k3="1" operator="arithmetic" result="shadowInnerInner1"/><feColorMatrix in="shadowInnerInner1" type="matrix" values="0 0 0 0 0   0 0 0 0 0   0 0 0 0 0  0 0 0 0.5 0"/></filter><path id="A" d="m31.328 27.894c.256-.5546667.5706667-.988.944-1.3s.8293333-.468 1.368-.468c.1706667 0 .3346667.0186667.492.056s.2973333.096.42.176l-.104 1.064c-.032.1333333-.112.2-.24.2-.0746667 0-.184-.016-.328-.048s-.3066667-.048-.488-.048c-.256 0-.484.0373333-.684.112s-.3786667.1853333-.536.332-.2986667.328-.424.544-.2386667.4626667-.34.74v5.12h-1.432v-8.104h.816c.1546667 0 .2613333.0293333.32.088s.0986667.16.12.304z"/><filter id="B" height="148.5%" width="187.4%" x="-43.7%" y="-24.2%"><feGaussianBlur in="SourceAlpha" result="shadowBlurInner1" stdDeviation="1.5"/><feOffset dx="0" dy="1" in="shadowBlurInner1" result="shadowOffsetInner1"/><feComposite in="shadowOffsetInner1" in2="SourceAlpha" k2="-1" k3="1" operator="arithmetic" result="shadowInnerInner1"/><feColorMatrix in="shadowInnerInner1" type="matrix" values="0 0 0 0 0   0 0 0 0 0   0 0 0 0 0  0 0 0 0.5 0"/></filter><path id="C" d="m35.8 34.374v-8.104h.856c.2026667 0 .328.0986667.376.296l.104.832c.2986667-.368.6346667-.6693333 1.008-.904s.8053333-.352 1.296-.352c.544 0 .9853333.152 1.324.456s.5826667.7146667.732 1.232c.1173333-.2933333.268-.5466667.452-.76s.3906667-.3893333.62-.528.4733333-.24.732-.304.5213333-.096.788-.096c.4266667 0 .8066667.068 1.14.204s.616.3346667.848.596.4093333.5826667.532.964.184.8173333.184 1.308v5.16h-1.432v-5.16c0-.6346667-.1386667-1.116-.416-1.444s-.6773333-.492-1.2-.492c-.2346667 0-.4573333.0413333-.668.124s-.396.204-.556.364-.2866667.3613333-.38.604-.14.524-.14.844v5.16h-1.432v-5.16c0-.6506667-.1306667-1.136-.392-1.456s-.6426667-.48-1.144-.48c-.352 0-.6773333.0946667-.976.284s-.5733333.4466667-.824.772v6.04z"/><filter id="D" height="148.6%" width="136.4%" x="-18.2%" y="-24.3%"><feGaussianBlur in="SourceAlpha" result="shadowBlurInner1" stdDeviation="1.5"/><feOffset dx="0" dy="1" in="shadowBlurInner1" result="shadowOffsetInner1"/><feComposite in="shadowOffsetInner1" in2="SourceAlpha" k2="-1" k3="1" operator="arithmetic" result="shadowInnerInner1"/><feColorMatrix in="shadowInnerInner1" type="matrix" values="0 0 0 0 0   0 0 0 0 0   0 0 0 0 0  0 0 0 0.5 0"/></filter><path id="E" d="m50.464 26.27v8.104h-1.424v-8.104zm.304-2.544c0 .1386667-.028.268-.084.388s-.1306667.2266667-.224.32-.2026667.1666667-.328.22-.2573333.08-.396.08-.268-.0266667-.388-.08-.2253333-.1266667-.316-.22-.1626667-.2-.216-.32-.08-.2493333-.08-.388.0266667-.2706667.08-.396.1253333-.2346667.216-.328.196-.1666667.316-.22.2493333-.08.388-.08.2706667.0266667.396.08.2346667.1266667.328.22.168.2026667.224.328.084.2573333.084.396z"/><filter id="F" height="134.3%" width="296.9%" x="-98.4%" y="-17.1%"><feGaussianBlur in="SourceAlpha" result="shadowBlurInner1" stdDeviation="1.5"/><feOffset dx="0" dy="1" in="shadowBlurInner1" result="shadowOffsetInner1"/><feComposite in="shadowOffsetInner1" in2="SourceAlpha" k2="-1" k3="1" operator="arithmetic" result="shadowInnerInner1"/><feColorMatrix in="shadowInnerInner1" type="matrix" values="0 0 0 0 0   0 0 0 0 0   0 0 0 0 0  0 0 0 0.5 0"/></filter><path id="G" d="m58.44 27.71c-.0426667.0586667-.0853333.104-.128.136s-.1013333.048-.176.048c-.08 0-.168-.0333333-.264-.1s-.2146667-.14-.356-.22-.3146667-.1533333-.52-.22-.4573333-.1-.756-.1c-.4 0-.752.0706667-1.056.212s-.5586667.3453333-.764.612-.36.5893333-.464.968-.156.8026667-.156 1.272c0 .4906667.056.9266667.168 1.308s.2706667.7013333.476.96.4533333.456.744.592.6173333.204.98.204c.3466667 0 .632-.0413333.856-.124s.4093333-.1746667.556-.276.2693333-.1933333.368-.276.196-.124.292-.124c.1173333 0 .208.0453333.272.136l.4.52c-.176.2186667-.376.4053333-.6.56s-.4653333.284-.724.388-.5293333.18-.812.228-.5706667.072-.864.072c-.5066667 0-.9773333-.0933333-1.412-.28s-.812-.4573333-1.132-.812-.5706667-.7906667-.752-1.308-.272-1.1066667-.272-1.768c0-.6026667.084-1.16.252-1.672s.4133333-.9533333.736-1.324.72-.66 1.192-.868 1.0146667-.312 1.628-.312c.5706667 0 1.0733333.092 1.508.276s.82.444 1.156.78z"/><filter id="H" height="147.9%" width="160.9%" x="-30.5%" y="-24%"><feGaussianBlur in="SourceAlpha" result="shadowBlurInner1" stdDeviation="1.5"/><feOffset dx="0" dy="1" in="shadowBlurInner1" result="shadowOffsetInner1"/><feComposite in="shadowOffsetInner1" in2="SourceAlpha" k2="-1" k3="1" operator="arithmetic" result="shadowInnerInner1"/><feColorMatrix in="shadowInnerInner1" type="matrix" values="0 0 0 0 0   0 0 0 0 0   0 0 0 0 0  0 0 0 0.5 0"/></filter><path id="I" d="m67.104 26.27v8.104h-.848c-.2026667 0-.3306667-.0986667-.384-.296l-.112-.872c-.352.3893333-.7466667.7026667-1.184.94s-.9386667.356-1.504.356c-.4426667 0-.8333333-.0733333-1.172-.22s-.6226667-.3533333-.852-.62-.4013333-.5893333-.516-.968-.172-.7973333-.172-1.256v-5.168h1.424v5.168c0 .6133333.14 1.088.42 1.424s.708.504 1.284.504c.4213333 0 .8146667-.1 1.18-.3s.7026667-.476 1.012-.828v-5.968z"/><filter id="J" height="148.6%" width="159.3%" x="-29.7%" y="-24.3%"><feGaussianBlur in="SourceAlpha" result="shadowBlurInner1" stdDeviation="1.5"/><feOffset dx="0" dy="1" in="shadowBlurInner1" result="shadowOffsetInner1"/><feComposite in="shadowOffsetInner1" in2="SourceAlpha" k2="-1" k3="1" operator="arithmetic" result="shadowInnerInner1"/><feColorMatrix in="shadowInnerInner1" type="matrix" values="0 0 0 0 0   0 0 0 0 0   0 0 0 0 0  0 0 0 0.5 0"/></filter><path id="K" d="m71.848 34.502c-.64 0-1.132-.1786667-1.476-.536s-.516-.872-.516-1.544v-4.96h-.976c-.0853333 0-.1573333-.0253333-.216-.076s-.088-.1293333-.088-.236v-.568l1.328-.168.328-2.504c.016-.08.052-.1453333.108-.196s.1293333-.076.22-.076h.72v2.792h2.344v1.032h-2.344v4.864c0 .3413333.0826667.5946667.248.76s.3786667.248.64.248c.1493333 0 .2786667-.02.388-.06s.204-.084.284-.132.148-.092.204-.132.1053333-.06.148-.06c.0746667 0 .1413333.0453333.2.136l.416.68c-.2453333.2293333-.5413333.4093333-.888.54s-.704.196-1.072.196z"/><filter id="L" height="136.8%" width="176.5%" x="-38.2%" y="-18.4%"><feGaussianBlur in="SourceAlpha" result="shadowBlurInner1" stdDeviation="1.5"/><feOffset dx="0" dy="1" in="shadowBlurInner1" result="shadowOffsetInner1"/><feComposite in="shadowOffsetInner1" in2="SourceAlpha" k2="-1" k3="1" operator="arithmetic" result="shadowInnerInner1"/><feColorMatrix in="shadowInnerInner1" type="matrix" values="0 0 0 0 0   0 0 0 0 0   0 0 0 0 0  0 0 0 0.5 0"/></filter><path id="M" d="m80.52 29.438c0-.3306667-.0466667-.6333333-.14-.908s-.2293333-.512-.408-.712-.396-.3546667-.652-.464-.5466667-.164-.872-.164c-.6826667 0-1.2226667.1986667-1.62.596s-.644.948-.74 1.652zm1.152 3.8c-.176.2133333-.3866667.3986667-.632.556s-.508.2866667-.788.388-.5693333.1773333-.868.228-.5946667.076-.888.076c-.56 0-1.076-.0946667-1.548-.284s-.88-.4666667-1.224-.832-.612-.8173333-.804-1.356-.288-1.1573333-.288-1.856c0-.5653333.0866667-1.0933333.26-1.584s.4226667-.916.748-1.276.7226667-.6426667 1.192-.848.9973333-.308 1.584-.308c.4853333 0 .9346667.0813333 1.348.244s.7706667.3973333 1.072.704.5373333.6853333.708 1.136.256.964.256 1.54c0 .224-.024.3733333-.072.448s-.1386667.112-.272.112h-5.416c.016.512.0866667.9573333.212 1.336s.3.6946667.524.948.4906667.4426667.8.568.656.188 1.04.188c.3573333 0 .6653333-.0413333.924-.124s.4813333-.172.668-.268.3426667-.1853333.468-.268.2333333-.124.324-.124c.1173333 0 .208.0453333.272.136z"/><filter id="N" height="147.9%" width="155.8%" x="-27.9%" y="-24%"><feGaussianBlur in="SourceAlpha" result="shadowBlurInner1" stdDeviation="1.5"/><feOffset dx="0" dy="1" in="shadowBlurInner1" result="shadowOffsetInner1"/><feComposite in="shadowOffsetInner1" in2="SourceAlpha" k2="-1" k3="1" operator="arithmetic" result="shadowInnerInner1"/><feColorMatrix in="shadowInnerInner1" type="matrix" values="0 0 0 0 0   0 0 0 0 0   0 0 0 0 0  0 0 0 0.5 0"/></filter><path id="O" d="m88.264 27.606c-.064.1173333-.1626667.176-.296.176-.08 0-.1706667-.0293333-.272-.088s-.2253333-.124-.372-.196-.3213333-.1386667-.524-.2-.4426667-.092-.72-.092c-.24 0-.456.0306667-.648.092s-.356.1453333-.492.252-.24.2306667-.312.372-.108.2946667-.108.46c0 .208.06.3813333.18.52s.2786667.2586667.476.36.4213333.1906667.672.268.508.16.772.248.5213333.1853333.772.292.4746667.24.672.4.356.356.476.588.18.5106667.18.836c0 .3733333-.0666667.7186667-.2 1.036s-.3306667.592-.592.824-.5813333.4146667-.96.548-.816.2-1.312.2c-.5653333 0-1.0773333-.092-1.536-.276s-.848-.42-1.168-.708l.336-.544c.0426667-.0693333.0933333-.1226667.152-.16s.1333333-.056.224-.056c.096 0 .1973333.0373333.304.112s.236.1573333.388.248.3373333.1733333.556.248.4906667.112.816.112c.2773333 0 .52-.036.728-.108s.3813333-.1693333.52-.292.2413333-.264.308-.424.1-.3306667.1-.512c0-.224-.06-.4093333-.18-.556s-.2786667-.272-.476-.376-.4226667-.1946667-.676-.272-.512-.1586667-.776-.244-.5226667-.1826667-.776-.292-.4786667-.2466667-.676-.412-.356-.3693333-.476-.612-.18-.5373333-.18-.884c0-.3093333.064-.6066667.192-.892s.3146667-.536.56-.752.5466667-.388.904-.516.7653333-.192 1.224-.192c.5333333 0 1.012.084 1.436.252s.7906667.3986667 1.1.692z"/><filter id="P" height="147.8%" width="169.3%" x="-34.7%" y="-23.9%"><feGaussianBlur in="SourceAlpha" result="shadowBlurInner1" stdDeviation="1.5"/><feOffset dx="0" dy="1" in="shadowBlurInner1" result="shadowOffsetInner1"/><feComposite in="shadowOffsetInner1" in2="SourceAlpha" k2="-1" k3="1" operator="arithmetic" result="shadowInnerInner1"/><feColorMatrix in="shadowInnerInner1" type="matrix" values="0 0 0 0 0   0 0 0 0 0   0 0 0 0 0  0 0 0 0.5 0"/></filter><path id="Q" d="m98.96 30.726c-.656.0213333-1.2146667.0733333-1.676.156s-.8373333.1906667-1.128.324-.5013333.2906667-.632.472-.196.384-.196.608c0 .2133333.0346667.3973333.104.552s.164.2813333.284.38.2613333.1706667.424.216.3373333.068.524.068c.2506667 0 .48-.0253333.688-.076s.404-.124.588-.22.36-.2106667.528-.344.332-.2853333.492-.456zm-4.6-3.312c.448-.432.9306667-.7546667 1.448-.968s1.0906667-.32 1.72-.32c.4533333 0 .856.0746667 1.208.224s.648.3573333.888.624.421333.5893333.544.968.184.7946667.184 1.248v5.184h-.632c-.1386667 0-.2453333-.0226667-.32-.068s-.1333333-.1346667-.176-.268l-.16-.768c-.2133333.1973333-.4213333.372-.624.524s-.416.28-.64.384-.4626667.184-.716.24-.5346667.084-.844.084c-.3146667 0-.6106667-.044-.888-.132s-.5186667-.22-.724-.396-.368-.3986667-.488-.668-.18-.588-.18-.956c0-.32.088-.628.264-.924s.4613333-.5586667.856-.788.9093333-.4173333 1.544-.564 1.4133333-.2306667 2.336-.252v-.632c0-.6293333-.136-1.1053333-.408-1.428s-.6693333-.484-1.192-.484c-.352 0-.6466667.044-.884.132s-.4426667.1866667-.616.296-.3226667.208-.448.296-.2493333.132-.372.132c-.096 0-.1786667-.0253333-.248-.076s-.128-.1133333-.176-.188z"/><filter id="R" height="147.8%" width="162.6%" x="-31.3%" y="-23.9%"><feGaussianBlur in="SourceAlpha" result="shadowBlurInner1" stdDeviation="1.5"/><feOffset dx="0" dy="1" in="shadowBlurInner1" result="shadowOffsetInner1"/><feComposite in="shadowOffsetInner1" in2="SourceAlpha" k2="-1" k3="1" operator="arithmetic" result="shadowInnerInner1"/><feColorMatrix in="shadowInnerInner1" type="matrix" values="0 0 0 0 0   0 0 0 0 0   0 0 0 0 0  0 0 0 0.5 0"/></filter><path id="S" d="m103.864 27.446c.176-.1973333.362667-.376.56-.536s.406667-.2973333.628-.412.456-.2026667.704-.264.516-.092.804-.092c.442667 0 .833333.0733333 1.172.22s.621333.3546667.848.624.398667.5933333.516.972.176.7973333.176 1.256v5.16h-1.432v-5.16c0-.6133333-.14-1.0893333-.42-1.428s-.705333-.508-1.276-.508c-.421333 0-.814667.1013333-1.18.304s-.702667.4773333-1.012.824v5.968h-1.432v-8.104h.856c.202667 0 .328.0986667.376.296z"/><filter id="T" height="148.6%" width="159.2%" x="-29.6%" y="-24.3%"><feGaussianBlur in="SourceAlpha" result="shadowBlurInner1" stdDeviation="1.5"/><feOffset dx="0" dy="1" in="shadowBlurInner1" result="shadowOffsetInner1"/><feComposite in="shadowOffsetInner1" in2="SourceAlpha" k2="-1" k3="1" operator="arithmetic" result="shadowInnerInner1"/><feColorMatrix in="shadowInnerInner1" type="matrix" values="0 0 0 0 0   0 0 0 0 0   0 0 0 0 0  0 0 0 0.5 0"/></filter><path id="U" d="m116.728 28.198c-.266667-.3573333-.554667-.6066667-.864-.748s-.656-.212-1.04-.212c-.752 0-1.330667.2693333-1.736.808s-.608 1.3066667-.608 2.304c0 .528.045333.98.136 1.356s.224.6853333.4.928.392.42.648.532.546667.168.872.168c.469333 0 .878667-.1066667 1.228-.32s.670667-.5146667.964-.904zm1.424-5.608v11.784h-.848c-.202667 0-.330667-.0986667-.384-.296l-.128-.984c-.346667.416-.741333.752-1.184 1.008s-.954667.384-1.536.384c-.464 0-.885333-.0893333-1.264-.268s-.701333-.4413333-.968-.788-.472-.7786667-.616-1.296-.216-1.112-.216-1.784c0-.5973333.08-1.1533333.24-1.668s.389333-.9613333.688-1.34.665333-.676 1.1-.892.924-.324 1.468-.324c.496 0 .921333.084 1.276.252s.670667.4013333.948.7v-4.488z"/><filter id="V" height="133.6%" width="156%" x="-28%" y="-16.8%"><feGaussianBlur in="SourceAlpha" result="shadowBlurInner1" stdDeviation="1.5"/><feOffset dx="0" dy="1" in="shadowBlurInner1" result="shadowOffsetInner1"/><feComposite in="shadowOffsetInner1" in2="SourceAlpha" k2="-1" k3="1" operator="arithmetic" result="shadowInnerInner1"/><feColorMatrix in="shadowInnerInner1" type="matrix" values="0 0 0 0 0   0 0 0 0 0   0 0 0 0 0  0 0 0 0.5 0"/></filter><path id="W" d="m128.864 33.142c.442667 0 .824-.0506667 1.144-.152s.582667-.244.788-.428.356-.4026667.452-.656.144-.532.144-.836c0-.592-.210667-1.06-.632-1.404s-1.053333-.516-1.896-.516h-2.48v3.992zm-2.48-9.008v3.912h2.048c.437333 0 .817333-.048 1.14-.144s.589333-.2293333.8-.4.366667-.3773333.468-.62.152-.508.152-.796c0-.6773333-.202667-1.172-.608-1.484s-1.034667-.468-1.888-.468zm2.112-1.224c.704 0 1.310667.0693333 1.82.208s.928.336 1.256.592.569333.5693333.724.94.232.788.232 1.252c0 .2826667-.044.5533333-.132.812s-.22.5-.396.724-.398667.4253333-.668.604-.585333.324-.948.436c.842667.16 1.476.46 1.9.9s.636 1.0173333.636 1.732c0 .4853333-.089333.928-.268 1.328s-.44.744-.784 1.032-.766667.5106667-1.268.668-1.072.236-1.712.236h-4.048v-11.464z"/><filter id="X" height="134.9%" width="149.5%" x="-24.8%" y="-17.4%"><feGaussianBlur in="SourceAlpha" result="shadowBlurInner1" stdDeviation="1.5"/><feOffset dx="0" dy="1" in="shadowBlurInner1" result="shadowOffsetInner1"/><feComposite in="shadowOffsetInner1" in2="SourceAlpha" k2="-1" k3="1" operator="arithmetic" result="shadowInnerInner1"/><feColorMatrix in="shadowInnerInner1" type="matrix" values="0 0 0 0 0   0 0 0 0 0   0 0 0 0 0  0 0 0 0.5 0"/></filter><path id="Y" d="m139.24 30.726c-.656.0213333-1.214667.0733333-1.676.156s-.837333.1906667-1.128.324-.501333.2906667-.632.472-.196.384-.196.608c0 .2133333.034667.3973333.104.552s.164.2813333.284.38.261333.1706667.424.216.337333.068.524.068c.250667 0 .48-.0253333.688-.076s.404-.124.588-.22.36-.2106667.528-.344.332-.2853333.492-.456zm-4.6-3.312c.448-.432.930667-.7546667 1.448-.968s1.090667-.32 1.72-.32c.453333 0 .856.0746667 1.208.224s.648.3573333.888.624.421333.5893333.544.968.184.7946667.184 1.248v5.184h-.632c-.138667 0-.245333-.0226667-.32-.068s-.133333-.1346667-.176-.268l-.16-.768c-.213333.1973333-.421333.372-.624.524s-.416.28-.64.384-.462667.184-.716.24-.534667.084-.844.084c-.314667 0-.610667-.044-.888-.132s-.518667-.22-.724-.396-.368-.3986667-.488-.668-.18-.588-.18-.956c0-.32.088-.628.264-.924s.461333-.5586667.856-.788.909333-.4173333 1.544-.564 1.413333-.2306667 2.336-.252v-.632c0-.6293333-.136-1.1053333-.408-1.428s-.669333-.484-1.192-.484c-.352 0-.646667.044-.884.132s-.442667.1866667-.616.296-.322667.208-.448.296-.249333.132-.372.132c-.096 0-.178667-.0253333-.248-.076s-.128-.1133333-.176-.188z"/><filter id="Z" height="147.8%" width="162.6%" x="-31.3%" y="-23.9%"><feGaussianBlur in="SourceAlpha" result="shadowBlurInner1" stdDeviation="1.5"/><feOffset dx="0" dy="1" in="shadowBlurInner1" result="shadowOffsetInner1"/><feComposite in="shadowOffsetInner1" in2="SourceAlpha" k2="-1" k3="1" operator="arithmetic" result="shadowInnerInner1"/><feColorMatrix in="shadowInnerInner1" type="matrix" values="0 0 0 0 0   0 0 0 0 0   0 0 0 0 0  0 0 0 0.5 0"/></filter><path id="aa" d="m148.44 27.71c-.042667.0586667-.085333.104-.128.136s-.101333.048-.176.048c-.08 0-.168-.0333333-.264-.1s-.214667-.14-.356-.22-.314667-.1533333-.52-.22-.457333-.1-.756-.1c-.4 0-.752.0706667-1.056.212s-.558667.3453333-.764.612-.36.5893333-.464.968-.156.8026667-.156 1.272c0 .4906667.056.9266667.168 1.308s.270667.7013333.476.96.453333.456.744.592.617333.204.98.204c.346667 0 .632-.0413333.856-.124s.409333-.1746667.556-.276.269333-.1933333.368-.276.196-.124.292-.124c.117333 0 .208.0453333.272.136l.4.52c-.176.2186667-.376.4053333-.6.56s-.465333.284-.724.388-.529333.18-.812.228-.570667.072-.864.072c-.506667 0-.977333-.0933333-1.412-.28s-.812-.4573333-1.132-.812-.570667-.7906667-.752-1.308-.272-1.1066667-.272-1.768c0-.6026667.084-1.16.252-1.672s.413333-.9533333.736-1.324.72-.66 1.192-.868 1.014667-.312 1.628-.312c.570667 0 1.073333.092 1.508.276s.82.444 1.156.78z"/><filter id="ab" height="147.9%" width="160.9%" x="-30.5%" y="-24%"><feGaussianBlur in="SourceAlpha" result="shadowBlurInner1" stdDeviation="1.5"/><feOffset dx="0" dy="1" in="shadowBlurInner1" result="shadowOffsetInner1"/><feComposite in="shadowOffsetInner1" in2="SourceAlpha" k2="-1" k3="1" operator="arithmetic" result="shadowInnerInner1"/><feColorMatrix in="shadowInnerInner1" type="matrix" values="0 0 0 0 0   0 0 0 0 0   0 0 0 0 0  0 0 0 0.5 0"/></filter><path id="ac" d="m152.928 34.502c-.64 0-1.132-.1786667-1.476-.536s-.516-.872-.516-1.544v-4.96h-.976c-.085333 0-.157333-.0253333-.216-.076s-.088-.1293333-.088-.236v-.568l1.328-.168.328-2.504c.016-.08.052-.1453333.108-.196s.129333-.076.22-.076h.72v2.792h2.344v1.032h-2.344v4.864c0 .3413333.082667.5946667.248.76s.378667.248.64.248c.149333 0 .278667-.02.388-.06s.204-.084.284-.132.148-.092.204-.132.105333-.06.148-.06c.074667 0 .141333.0453333.2.136l.416.68c-.245333.2293333-.541333.4093333-.888.54s-.704.196-1.072.196z"/><filter id="ad" height="136.8%" width="176.5%" x="-38.2%" y="-18.4%"><feGaussianBlur in="SourceAlpha" result="shadowBlurInner1" stdDeviation="1.5"/><feOffset dx="0" dy="1" in="shadowBlurInner1" result="shadowOffsetInner1"/><feComposite in="shadowOffsetInner1" in2="SourceAlpha" k2="-1" k3="1" operator="arithmetic" result="shadowInnerInner1"/><feColorMatrix in="shadowInnerInner1" type="matrix" values="0 0 0 0 0   0 0 0 0 0   0 0 0 0 0  0 0 0 0.5 0"/></filter><path id="ae" d="m161.6 29.438c0-.3306667-.046667-.6333333-.14-.908s-.229333-.512-.408-.712-.396-.3546667-.652-.464-.546667-.164-.872-.164c-.682667 0-1.222667.1986667-1.62.596s-.644.948-.74 1.652zm1.152 3.8c-.176.2133333-.386667.3986667-.632.556s-.508.2866667-.788.388-.569333.1773333-.868.228-.594667.076-.888.076c-.56 0-1.076-.0946667-1.548-.284s-.88-.4666667-1.224-.832-.612-.8173333-.804-1.356-.288-1.1573333-.288-1.856c0-.5653333.086667-1.0933333.26-1.584s.422667-.916.748-1.276.722667-.6426667 1.192-.848.997333-.308 1.584-.308c.485333 0 .934667.0813333 1.348.244s.770667.3973333 1.072.704.537333.6853333.708 1.136.256.964.256 1.54c0 .224-.024.3733333-.072.448s-.138667.112-.272.112h-5.416c.016.512.086667.9573333.212 1.336s.3.6946667.524.948.490667.4426667.8.568.656.188 1.04.188c.357333 0 .665333-.0413333.924-.124s.481333-.172.668-.268.342667-.1853333.468-.268.233333-.124.324-.124c.117333 0 .208.0453333.272.136z"/><filter id="af" height="147.9%" width="155.8%" x="-27.9%" y="-24%"><feGaussianBlur in="SourceAlpha" result="shadowBlurInner1" stdDeviation="1.5"/><feOffset dx="0" dy="1" in="shadowBlurInner1" result="shadowOffsetInner1"/><feComposite in="shadowOffsetInner1" in2="SourceAlpha" k2="-1" k3="1" operator="arithmetic" result="shadowInnerInner1"/><feColorMatrix in="shadowInnerInner1" type="matrix" values="0 0 0 0 0   0 0 0 0 0   0 0 0 0 0  0 0 0 0.5 0"/></filter><path id="ag" d="m165.976 27.894c.256-.5546667.570667-.988.944-1.3s.829333-.468 1.368-.468c.170667 0 .334667.0186667.492.056s.297333.096.42.176l-.104 1.064c-.032.1333333-.112.2-.24.2-.074667 0-.184-.016-.328-.048s-.306667-.048-.488-.048c-.256 0-.484.0373333-.684.112s-.378667.1853333-.536.332-.298667.328-.424.544-.238667.4626667-.34.74v5.12h-1.432v-8.104h.816c.154667 0 .261333.0293333.32.088s.098667.16.12.304z"/><filter id="ah" height="148.5%" width="187.4%" x="-43.7%" y="-24.2%"><feGaussianBlur in="SourceAlpha" result="shadowBlurInner1" stdDeviation="1.5"/><feOffset dx="0" dy="1" in="shadowBlurInner1" result="shadowOffsetInner1"/><feComposite in="shadowOffsetInner1" in2="SourceAlpha" k2="-1" k3="1" operator="arithmetic" result="shadowInnerInner1"/><feColorMatrix in="shadowInnerInner1" type="matrix" values="0 0 0 0 0   0 0 0 0 0   0 0 0 0 0  0 0 0 0.5 0"/></filter><path id="ai" d="m173.864 26.142c.592 0 1.125333.0986667 1.6.296s.88.4773333 1.216.84.593333.8013333.772 1.316.268 1.0893333.268 1.724c0 .64-.089333 1.216-.268 1.728s-.436.9493333-.772 1.312-.741333.6413333-1.216.836-1.008.292-1.6.292c-.597333 0-1.134667-.0973333-1.612-.292s-.884-.4733333-1.22-.836-.593333-.8-.772-1.312-.268-1.088-.268-1.728c0-.6346667.089333-1.2093333.268-1.724s.436-.9533333.772-1.316.742667-.6426667 1.22-.84 1.014667-.296 1.612-.296zm0 7.232c.8 0 1.397333-.268 1.792-.804s.592-1.284.592-2.244c0-.9653333-.197333-1.7173333-.592-2.256s-.992-.808-1.792-.808c-.405333 0-.758667.0693333-1.06.208s-.552.3386667-.752.6-.349333.5826667-.448.964-.148.812-.148 1.292c0 .96.198667 1.708.596 2.244s1.001333.804 1.812.804z"/><filter id="aj" height="147.9%" width="151.8%" x="-25.9%" y="-24%"><feGaussianBlur in="SourceAlpha" result="shadowBlurInner1" stdDeviation="1.5"/><feOffset dx="0" dy="1" in="shadowBlurInner1" result="shadowOffsetInner1"/><feComposite in="shadowOffsetInner1" in2="SourceAlpha" k2="-1" k3="1" operator="arithmetic" result="shadowInnerInner1"/><feColorMatrix in="shadowInnerInner1" type="matrix" values="0 0 0 0 0   0 0 0 0 0   0 0 0 0 0  0 0 0 0.5 0"/></filter><path id="ak" d="m181.024 26.27v8.104h-1.424v-8.104zm.304-2.544c0 .1386667-.028.268-.084.388s-.130667.2266667-.224.32-.202667.1666667-.328.22-.257333.08-.396.08-.268-.0266667-.388-.08-.225333-.1266667-.316-.22-.162667-.2-.216-.32-.08-.2493333-.08-.388.026667-.2706667.08-.396.125333-.2346667.216-.328.196-.1666667.316-.22.249333-.08.388-.08.270667.0266667.396.08.234667.1266667.328.22.168.2026667.224.328.084.2573333.084.396z"/><filter id="al" height="134.3%" width="296.9%" x="-98.4%" y="-17.1%"><feGaussianBlur in="SourceAlpha" result="shadowBlurInner1" stdDeviation="1.5"/><feOffset dx="0" dy="1" in="shadowBlurInner1" result="shadowOffsetInner1"/><feComposite in="shadowOffsetInner1" in2="SourceAlpha" k2="-1" k3="1" operator="arithmetic" result="shadowInnerInner1"/><feColorMatrix in="shadowInnerInner1" type="matrix" values="0 0 0 0 0   0 0 0 0 0   0 0 0 0 0  0 0 0 0.5 0"/></filter><path id="am" d="m188.64 28.198c-.266667-.3573333-.554667-.6066667-.864-.748s-.656-.212-1.04-.212c-.752 0-1.330667.2693333-1.736.808s-.608 1.3066667-.608 2.304c0 .528.045333.98.136 1.356s.224.6853333.4.928.392.42.648.532.546667.168.872.168c.469333 0 .878667-.1066667 1.228-.32s.670667-.5146667.964-.904zm1.424-5.608v11.784h-.848c-.202667 0-.330667-.0986667-.384-.296l-.128-.984c-.346667.416-.741333.752-1.184 1.008s-.954667.384-1.536.384c-.464 0-.885333-.0893333-1.264-.268s-.701333-.4413333-.968-.788-.472-.7786667-.616-1.296-.216-1.112-.216-1.784c0-.5973333.08-1.1533333.24-1.668s.389333-.9613333.688-1.34.665333-.676 1.1-.892.924-.324 1.468-.324c.496 0 .921333.084 1.276.252s.670667.4013333.948.7v-4.488z"/><filter id="an" height="133.6%" width="156%" x="-28%" y="-16.8%"><feGaussianBlur in="SourceAlpha" result="shadowBlurInner1" stdDeviation="1.5"/><feOffset dx="0" dy="1" in="shadowBlurInner1" result="shadowOffsetInner1"/><feComposite in="shadowOffsetInner1" in2="SourceAlpha" k2="-1" k3="1" operator="arithmetic" result="shadowInnerInner1"/><feColorMatrix in="shadowInnerInner1" type="matrix" values="0 0 0 0 0   0 0 0 0 0   0 0 0 0 0  0 0 0 0.5 0"/></filter><path id="ao" d="m197.744 29.438c0-.3306667-.046667-.6333333-.14-.908s-.229333-.512-.408-.712-.396-.3546667-.652-.464-.546667-.164-.872-.164c-.682667 0-1.222667.1986667-1.62.596s-.644.948-.74 1.652zm1.152 3.8c-.176.2133333-.386667.3986667-.632.556s-.508.2866667-.788.388-.569333.1773333-.868.228-.594667.076-.888.076c-.56 0-1.076-.0946667-1.548-.284s-.88-.4666667-1.224-.832-.612-.8173333-.804-1.356-.288-1.1573333-.288-1.856c0-.5653333.086667-1.0933333.26-1.584s.422667-.916.748-1.276.722667-.6426667 1.192-.848.997333-.308 1.584-.308c.485333 0 .934667.0813333 1.348.244s.770667.3973333 1.072.704.537333.6853333.708 1.136.256.964.256 1.54c0 .224-.024.3733333-.072.448s-.138667.112-.272.112h-5.416c.016.512.086667.9573333.212 1.336s.3.6946667.524.948.490667.4426667.8.568.656.188 1.04.188c.357333 0 .665333-.0413333.924-.124s.481333-.172.668-.268.342667-.1853333.468-.268.233333-.124.324-.124c.117333 0 .208.0453333.272.136z"/><filter id="ap" height="147.9%" width="155.8%" x="-27.9%" y="-24%"><feGaussianBlur in="SourceAlpha" result="shadowBlurInner1" stdDeviation="1.5"/><feOffset dx="0" dy="1" in="shadowBlurInner1" result="shadowOffsetInner1"/><feComposite in="shadowOffsetInner1" in2="SourceAlpha" k2="-1" k3="1" operator="arithmetic" result="shadowInnerInner1"/><feColorMatrix in="shadowInnerInner1" type="matrix" values="0 0 0 0 0   0 0 0 0 0   0 0 0 0 0  0 0 0 0.5 0"/></filter><path id="aq" d="m203.256 34.502c-.64 0-1.132-.1786667-1.476-.536s-.516-.872-.516-1.544v-4.96h-.976c-.085333 0-.157333-.0253333-.216-.076s-.088-.1293333-.088-.236v-.568l1.328-.168.328-2.504c.016-.08.052-.1453333.108-.196s.129333-.076.22-.076h.72v2.792h2.344v1.032h-2.344v4.864c0 .3413333.082667.5946667.248.76s.378667.248.64.248c.149333 0 .278667-.02.388-.06s.204-.084.284-.132.148-.092.204-.132.105333-.06.148-.06c.074667 0 .141333.0453333.2.136l.416.68c-.245333.2293333-.541333.4093333-.888.54s-.704.196-1.072.196z"/><filter id="ar" height="136.8%" width="176.5%" x="-38.2%" y="-18.4%"><feGaussianBlur in="SourceAlpha" result="shadowBlurInner1" stdDeviation="1.5"/><feOffset dx="0" dy="1" in="shadowBlurInner1" result="shadowOffsetInner1"/><feComposite in="shadowOffsetInner1" in2="SourceAlpha" k2="-1" k3="1" operator="arithmetic" result="shadowInnerInner1"/><feColorMatrix in="shadowInnerInner1" type="matrix" values="0 0 0 0 0   0 0 0 0 0   0 0 0 0 0  0 0 0 0.5 0"/></filter><path id="as" d="m211.928 29.438c0-.3306667-.046667-.6333333-.14-.908s-.229333-.512-.408-.712-.396-.3546667-.652-.464-.546667-.164-.872-.164c-.682667 0-1.222667.1986667-1.62.596s-.644.948-.74 1.652zm1.152 3.8c-.176.2133333-.386667.3986667-.632.556s-.508.2866667-.788.388-.569333.1773333-.868.228-.594667.076-.888.076c-.56 0-1.076-.0946667-1.548-.284s-.88-.4666667-1.224-.832-.612-.8173333-.804-1.356-.288-1.1573333-.288-1.856c0-.5653333.086667-1.0933333.26-1.584s.422667-.916.748-1.276.722667-.6426667 1.192-.848.997333-.308 1.584-.308c.485333 0 .934667.0813333 1.348.244s.770667.3973333 1.072.704.537333.6853333.708 1.136.256.964.256 1.54c0 .224-.024.3733333-.072.448s-.138667.112-.272.112h-5.416c.016.512.086667.9573333.212 1.336s.3.6946667.524.948.490667.4426667.8.568.656.188 1.04.188c.357333 0 .665333-.0413333.924-.124s.481333-.172.668-.268.342667-.1853333.468-.268.233333-.124.324-.124c.117333 0 .208.0453333.272.136z"/><filter id="at" height="147.9%" width="155.8%" x="-27.9%" y="-24%"><feGaussianBlur in="SourceAlpha" result="shadowBlurInner1" stdDeviation="1.5"/><feOffset dx="0" dy="1" in="shadowBlurInner1" result="shadowOffsetInner1"/><feComposite in="shadowOffsetInner1" in2="SourceAlpha" k2="-1" k3="1" operator="arithmetic" result="shadowInnerInner1"/><feColorMatrix in="shadowInnerInner1" type="matrix" values="0 0 0 0 0   0 0 0 0 0   0 0 0 0 0  0 0 0 0.5 0"/></filter><path id="au" d="m219.672 27.606c-.064.1173333-.162667.176-.296.176-.08 0-.170667-.0293333-.272-.088s-.225333-.124-.372-.196-.321333-.1386667-.524-.2-.442667-.092-.72-.092c-.24 0-.456.0306667-.648.092s-.356.1453333-.492.252-.24.2306667-.312.372-.108.2946667-.108.46c0 .208.06.3813333.18.52s.278667.2586667.476.36.421333.1906667.672.268.508.16.772.248.521333.1853333.772.292.474667.24.672.4.356.356.476.588.18.5106667.18.836c0 .3733333-.066667.7186667-.2 1.036s-.330667.592-.592.824-.581333.4146667-.96.548-.816.2-1.312.2c-.565333 0-1.077333-.092-1.536-.276s-.848-.42-1.168-.708l.336-.544c.042667-.0693333.093333-.1226667.152-.16s.133333-.056.224-.056c.096 0 .197333.0373333.304.112s.236.1573333.388.248.337333.1733333.556.248.490667.112.816.112c.277333 0 .52-.036.728-.108s.381333-.1693333.52-.292.241333-.264.308-.424.1-.3306667.1-.512c0-.224-.06-.4093333-.18-.556s-.278667-.272-.476-.376-.422667-.1946667-.676-.272-.512-.1586667-.776-.244-.522667-.1826667-.776-.292-.478667-.2466667-.676-.412-.356-.3693333-.476-.612-.18-.5373333-.18-.884c0-.3093333.064-.6066667.192-.892s.314667-.536.56-.752.546667-.388.904-.516.765333-.192 1.224-.192c.533333 0 1.012.084 1.436.252s.790667.3986667 1.1.692z"/><filter id="av" height="147.8%" width="169.3%" x="-34.7%" y="-23.9%"><feGaussianBlur in="SourceAlpha" result="shadowBlurInner1" stdDeviation="1.5"/><feOffset dx="0" dy="1" in="shadowBlurInner1" result="shadowOffsetInner1"/><feComposite in="shadowOffsetInner1" in2="SourceAlpha" k2="-1" k3="1" operator="arithmetic" result="shadowInnerInner1"/><feColorMatrix in="shadowInnerInner1" type="matrix" values="0 0 0 0 0   0 0 0 0 0   0 0 0 0 0  0 0 0 0.5 0"/></filter><mask id="aw" fill="#fff"><path d="m0 0h4v8h-4z" fill="#fff" fill-rule="evenodd"/></mask><mask id="ax" fill="#fff"><path d="m0 0h12v8h-12z" fill="#fff" fill-rule="evenodd"/></mask><mask id="ay" fill="#fff"><path d="m0 0h12v8h-12z" fill="#fff" fill-rule="evenodd"/></mask><mask id="az" fill="#fff"><path d="m0 0h12v8h-12z" fill="#fff" fill-rule="evenodd"/></mask><mask id="aA" fill="#fff"><path d="m0 0h12v8h-12z" fill="#fff" fill-rule="evenodd"/></mask><mask id="aB" fill="#fff"><path d="m0 0h12v8h-12z" fill="#fff" fill-rule="evenodd"/></mask><mask id="aC" fill="#fff"><path d="m0 0h12v8h-12z" fill="#fff" fill-rule="evenodd"/></mask><mask id="aD" fill="#fff"><path d="m0 0h12v8h-12z" fill="#fff" fill-rule="evenodd"/></mask><mask id="aE" fill="#fff"><path d="m0 0h12v8h-12z" fill="#fff" fill-rule="evenodd"/></mask><mask id="aF" fill="#fff"><path d="m0 0h12v8h-12z" fill="#fff" fill-rule="evenodd"/></mask><mask id="aG" fill="#fff"><path d="m0 0h12v8h-12z" fill="#fff" fill-rule="evenodd"/></mask><mask id="aH" fill="#fff"><path d="m0 0h12v8h-12z" fill="#fff" fill-rule="evenodd"/></mask></defs><g fill="none" fill-rule="evenodd" transform="translate(0 0)"><g fill-rule="nonzero"><use fill="#006993" xlink:href="#a"/><use fill="#000" filter="url(#b)" xlink:href="#a"/><use fill="#006993" xlink:href="#c"/><use fill="#000" filter="url(#d)" xlink:href="#c"/><use fill="#006993" xlink:href="#e"/><use fill="#000" filter="url(#f)" xlink:href="#e"/><use fill="#006993" xlink:href="#g"/><use fill="#000" filter="url(#h)" xlink:href="#g"/><use fill="#006993" xlink:href="#i"/><use fill="#000" filter="url(#j)" xlink:href="#i"/><use fill="#006993" xlink:href="#k"/><use fill="#000" filter="url(#l)" xlink:href="#k"/><use fill="#006993" xlink:href="#m"/><use fill="#000" filter="url(#n)" xlink:href="#m"/><use fill="#006993" xlink:href="#o"/><use fill="#000" filter="url(#p)" xlink:href="#o"/><use fill="#006993" xlink:href="#q"/><use fill="#000" filter="url(#r)" xlink:href="#q"/><use fill="#4a4a4a" xlink:href="#s"/><use fill="#000" filter="url(#t)" xlink:href="#s"/><use fill="#4a4a4a" xlink:href="#u"/><use fill="#000" filter="url(#v)" xlink:href="#u"/><use fill="#4a4a4a" xlink:href="#w"/><use fill="#000" filter="url(#x)" xlink:href="#w"/><use fill="#4a4a4a" xlink:href="#y"/><use fill="#000" filter="url(#z)" xlink:href="#y"/><use fill="#4a4a4a" xlink:href="#A"/><use fill="#000" filter="url(#B)" xlink:href="#A"/><use fill="#4a4a4a" xlink:href="#C"/><use fill="#000" filter="url(#D)" xlink:href="#C"/><use fill="#4a4a4a" xlink:href="#E"/><use fill="#000" filter="url(#F)" xlink:href="#E"/><use fill="#4a4a4a" xlink:href="#G"/><use fill="#000" filter="url(#H)" xlink:href="#G"/><use fill="#4a4a4a" xlink:href="#I"/><use fill="#000" filter="url(#J)" xlink:href="#I"/><use fill="#4a4a4a" xlink:href="#K"/><use fill="#000" filter="url(#L)" xlink:href="#K"/><use fill="#4a4a4a" xlink:href="#M"/><use fill="#000" filter="url(#N)" xlink:href="#M"/><use fill="#4a4a4a" xlink:href="#O"/><use fill="#000" filter="url(#P)" xlink:href="#O"/><use fill="#4a4a4a" xlink:href="#Q"/><use fill="#000" filter="url(#R)" xlink:href="#Q"/><use fill="#4a4a4a" xlink:href="#S"/><use fill="#000" filter="url(#T)" xlink:href="#S"/><use fill="#4a4a4a" xlink:href="#U"/><use fill="#000" filter="url(#V)" xlink:href="#U"/><use fill="#4a4a4a" xlink:href="#W"/><use fill="#000" filter="url(#X)" xlink:href="#W"/><use fill="#4a4a4a" xlink:href="#Y"/><use fill="#000" filter="url(#Z)" xlink:href="#Y"/><use fill="#4a4a4a" xlink:href="#aa"/><use fill="#000" filter="url(#ab)" xlink:href="#aa"/><use fill="#4a4a4a" xlink:href="#ac"/><use fill="#000" filter="url(#ad)" xlink:href="#ac"/><use fill="#4a4a4a" xlink:href="#ae"/><use fill="#000" filter="url(#af)" xlink:href="#ae"/><use fill="#4a4a4a" xlink:href="#ag"/><use fill="#000" filter="url(#ah)" xlink:href="#ag"/><use fill="#4a4a4a" xlink:href="#ai"/><use fill="#000" filter="url(#aj)" xlink:href="#ai"/><use fill="#4a4a4a" xlink:href="#ak"/><use fill="#000" filter="url(#al)" xlink:href="#ak"/><use fill="#4a4a4a" xlink:href="#am"/><use fill="#000" filter="url(#an)" xlink:href="#am"/><use fill="#4a4a4a" xlink:href="#ao"/><use fill="#000" filter="url(#ap)" xlink:href="#ao"/><use fill="#4a4a4a" xlink:href="#aq"/><use fill="#000" filter="url(#ar)" xlink:href="#aq"/><use fill="#4a4a4a" xlink:href="#as"/><use fill="#000" filter="url(#at)" xlink:href="#as"/><use fill="#4a4a4a" xlink:href="#au"/><use fill="#000" filter="url(#av)" xlink:href="#au"/></g><g fill="#e67700" transform="translate(37.970067 59.374)"><path d="m1.78154113 11.8550909 2.78712587-4.73914262c.17311197-.29526701.47791932-.47109483.81506883-.47109483.17159956 0 .34040699.04794223.51037781.15262997.21755334.13359583.37088773.34582643.43231455.59790976.06142683.25172643.02303506.51285096-.1079623.73495552l-2.78677685 4.7392616c-.260715.4455177-.82111844.6290782-1.32556298.3183459-.21755334-.1335958-.37112041-.3457074-.43219822-.5977908-.06142682-.2518454-.02338407-.5129699.10761329-.7350745m.01419332 1.9117409c.24838309.15263.53236582.2331682.82076942.2331682.55702962 0 1.08125174-.3029996 1.3680266-.7903924l2.78654418-4.73926167c.21976377-.37306904.28398273-.81156792.18102299-1.23436363-.10295973-.42267676-.36053358-.77909093-.74747605-1.0173745-.72793115-.44718321-1.75310764-.18225184-2.18891236.55734325l-2.78700953 4.73914265c-.2195311.373188-.28375006.8116869-.18079032 1.2343636.10295974.4227958.3608826.7794479.74782507 1.0173745"/><path d="m14.2198864 22.130306-2.7885657 4.7392732c-.2611151.4460058-.8210634.6288575-1.3264138.3184736-.44923917-.2758836-.59510511-.8738098-.32479329-1.332902l2.78856569-4.7393921c.1732231-.2951562.4782261-.4709889.8157084-.4709889.1717097 0 .3405091.0479436.5107054.1522773.4492392.2762405.5951051.8744047.3247933 1.3332589m-.0142024-1.9117936c-.7283984-.4469575-1.7545822-.1822568-2.190201.5572397l-2.78856568 4.7393921c-.45343005.7707848-.20861275 1.774982.56739872 2.2518002.24854256.1526342.53270756.2330556.82129626.2330556.5573872 0 1.0819458-.302889 1.3689047-.7904142l2.7885657-4.7392732c.45343-.7704278.2086127-1.7743871-.5673987-2.2518002"/><path d="m1.35298187.62325408c.05779509-.01127457.11548073-.0166382.17240014-.0166382.4260199 0 .79446362.30397565.87623055.7225579l.97496383 4.99408906c.09446433.48371207-.22220462.95417925-.72966306 1.05335172-.49082046.09577915-.95591773-.23129296-1.04863069-.7059197l-.97496384-4.99397959c-.09446433-.48382154.22220463-.95417926.72966307-1.05346119zm-.35016384 6.16357984c.13748227.70296423.75626194 1.21316608 1.47169516 1.21316608.09512109 0 .19166517-.00897587.31229053-.03261964.81219622-.1588292 1.34373595-.94826831 1.18523728-1.76025658l-.97496384-4.99408906c-.13748227-.70296423-.75626194-1.21305661-1.47169515-1.21305661-.09512109 0-.19166517.00886641-.31250946.03261964-.81197729.15871973-1.34340756.94826831-1.18490889 1.76025658z" mask="url(#aw)" transform="translate(8)"/><path d="m15.2188455 13.8272609c-.2453012.4565121-.8504635.6401016-1.3007296.3850695l-4.77340647-2.6945263c-.46210899-.2609155-.6308415-.8582716-.36337878-1.3551278.16849801-.31290657.49001611-.50754261.83967585-.50754261.16029003 0 .31952474.0422652.4610537.12223287l4.7730547 2.69452634c.4624608.2609155.6311933.858872.3637306 1.355368m-.0498342-1.9383155-4.7734065-2.69452636c-.75431288-.42577382-1.76565266-.13003752-2.19621957.67035963-.42775276.79475383-.14446036 1.79795183.63177956 2.23597293l4.77340651 2.6945264c.2373277.1338798.5051422.204722.7749501.204722.5860494 0 1.1258996-.3262345 1.4212695-.8747215.4275182-.7948738.1441086-1.7980719-.6317796-2.2363331"/><path d="m3.30189585 22.9519968c-.1174588.2053937-.30327987.3496648-.54493013.4118886-.44766928.1159676-.9130506-.187112-1.02149802-.6613345l-1.13729954-4.974491c-.11010469-.4819317.16904124-.9692598.64446974-1.0920554.06587637-.0169602.13341-.0256605.20073648-.0256605.39070072 0 .72826531.2825952.82076153.686995l1.13729955 4.974491c.05323971.2333668.0179192.4751035-.09953961.6801668zm-.4798824-5.798929c-.15536879-.6789554-.72215414-1.1530678-1.37863907-1.1530678-.1130049 0-.22590622.0142069-.35879833.0485676-.76058202.1966933-1.22927787 1.0145235-1.04418185 1.8237635l1.13719597 4.9744909c.15536879.6789555.72215414 1.153178 1.37863907 1.153178.11269416 0 .22590622-.014317.35848759-.0486777.36863835-.0950428.68010099-.3373302.87741935-.681929.19742194-.3442684.25677282-.7498795.16707324-1.1418345z"/><path d="m15.6981041 8.04800319c.1174589-.20539364.3032799-.34966479.5449302-.4118886.0658764-.01707025.13341-.02566044.2007365-.02566044.3908043 0 .7282653.28259523.8207615.68699495l1.1372995 4.974491c.1101047.4819317-.1690412.9692598-.6444697 1.0920554-.4512945.1150866-.9130506-.1877727-1.021498-.6616649l-1.1372996-4.97416056c-.0532397-.23336683-.0179192-.47510359.0995396-.68016685zm.4798825 5.79859861c.1553687.6792858.7221541 1.1533982 1.3789498 1.1533982.1126941 0 .2255954-.0142069.3584876-.0485676.760582-.1966933 1.2292778-1.0145235 1.0441818-1.8237635l-1.137196-4.97449094c-.1553688-.67895541-.7221541-1.15317796-1.378639-1.15317796-.1126942 0-.2259063.01431698-.3584876.04867774-.3686384.09504275-.680101.33733016-.8774194.68192894-.1974219.34415826-.2567728.74987955-.1670732 1.1418345z"/><path d="m4.77903853 18.1804611c-.14151905-.2032544-.20045808-.4532886-.16189169-.7292085.06427732-.4608337.44198829-.8086065.87831146-.8086065.04368679 0 .0879183.0031341.13247665.0104471l5.00927325.7925876c.4850214.0766122.8212245.5598492.7457259 1.1020544-.070814.506685-.5213.8745394-1.011006.7985077l-5.00905539-.7925877c-.23499353-.0370292-.44231513-.1695914-.58383418-.3731941m5.72460357 1.8195389c.7339599 0 1.3686712-.5836454 1.4801215-1.3831978.1206017-.8676908-.4437314-1.6788511-1.2580924-1.8075827l-5.00927323-.7925877c-.81828298-.1269904-1.57773587.4871838-1.70008066 1.3655538-.12092852.868039.44340457 1.6788511 1.25809237 1.807931l5.00905532.7925876c.0739734.0116079.1477289.0172958.2201771.0172958"/><path d="m22.382801 20.5481114c-.0707016.5066347-.5233446.8760777-1.0106303.7981963l-5.00914-.792509c-.2349822-.0371416-.4422938-.1696907-.583806-.3729249s-.2004484-.4532436-.1617749-.7290201c.0641653-.4611362.441858-.8085263.878269-.8085263.0435757 0 .0878051.0031339.1323613.01033l5.0091401.7921608c.4849979.0767207.8214026.5597937.7455808 1.1022932m-.6571221-1.7386914-5.00914-.7921608c-.817263-.1297634-1.5773328.4865551-1.6999985 1.3654183-.0587183.4203966.0400897.8399806.2774685 1.1814513.2375967.3414706.5857668.563856.980563.6260681l5.0088133.792509c.0742966.0116068.1482664.0172941.2211468.0172941.7332708 0 1.3677335-.5837035 1.4791785-1.3828284.1208137-.8678368-.4434921-1.6785684-1.2580316-1.8077516"/></g><g fill="#006993" transform="translate(20.970067 91.374)"><path d="m3.15988598 0-3.15988598 6.58352667 174.840114 21.41647333 3.159886-6.5835267z"/><path d="m81.7825899 22-6.7825899 6h13.5651798 13.5652552l-6.7825901-6-6.7826651-6z"/></g><g fill="#0b9f24"><g transform="translate(173.424 97.374)"><path d="m2.81500156 0c-1.2205099 0-2.07727085.53410021-2.47210838 1.03398805-.28734909.36432941-.39722897.7591272-.31780835 1.14178927.2398981 1.23164515 1.61572504 1.85095351 2.82289328 2.01827134 1.93479203.24181042 3.75429199 1.1545705 5.12810509 2.57070421.78237492.78623889 1.68205573 1.23526004 2.4716049 1.23526004.2865939 0 .5495253-.06016212.7814939-.17867892.3986135-.20256302.6544964-.58341765.7393292-1.10112174.1842659-1.12655509-.4740064-2.27131374-1.0936383-2.90934208-2.01786273-2.08062821-4.69324259-3.42226934-7.53312761-3.77743242-.17595883-.02220577-.35330218-.03343775-.52674373-.03343775m0 .3873098c.15619809 0 .31705316.00994095.48105485.03046837 2.75593327.34483482 5.35252183 1.64684124 7.31135399 3.66653272.8906186.91689138 1.0891072 1.95849653.988793 2.57173703-.063184.38550235-.2412826.66914222-.5354284.81864381-.1825038.09334166-.3900546.13801139-.6130869.13801139-.67677441 0-1.49716046-.4109357-2.2038907-1.12113276-1.4333471-1.47745776-3.33264528-2.42985254-5.34522168-2.6813457-1.02856625-.14253001-2.29992549-.66656016-2.50407802-1.71513688-.06947731-.33450656.0933916-.62924931.24178607-.81735277.34008639-.43043028 1.091121-.89042521 2.17871779-.89042521" mask="url(#ax)"/><path d="m8.92283617 6.05196134c-.09741943-.06963907-.25481222-.06920854-.35103814.00086107-.09622592.07006962-.09562917.18340803.0011935.25283184.62703497.44915592 1.36491624.69434575 2.00343867.69434575.2898712 0 .5604973-.0509108.7899477-.1562843l.0362525-.01775958c.1126366-.05478561.1247208-.1556385.050873-.23754783-.0744446-.08158644-.2445183-.09600937-.3589451-.0439146-.5234989.24217609-1.43757055.03325885-2.17172213-.49253235"/><path d="m10.8006411 5c.0506345 0 .1017489-.02117853.1406247-.06393269.0779916-.08564067.0784715-.22502187.00048-.31119201-1.79968491-1.99581168-4.18550622-3.28280445-6.71783166-3.62338167-.10714838-.01389841-.20889735.07068334-.22245588.19179805-.01319856.12058526.06467299.23005178.17374117.24487675 2.44425498.32866431 4.74680532 1.57052033 6.48421697 3.49710469.0389957.04328362.0901102.06472688.1412247.06472688"/></g><g transform="translate(178.424 76.374)"><path d="m2.81500156 0c-1.2205099 0-2.07727085.53410021-2.47210838 1.03398805-.28734909.36432941-.39722897.7591272-.31780835 1.14178927.2398981 1.23164515 1.61572504 1.85095351 2.82289328 2.01827134 1.93479203.24181042 3.75429199 1.1545705 5.12810509 2.57070421.78237492.78623889 1.68205573 1.23526004 2.4716049 1.23526004.2865939 0 .5495253-.06016212.7814939-.17867892.3986135-.20256302.6544964-.58341765.7393292-1.10112174.1842659-1.12655509-.4740064-2.27131374-1.0936383-2.90934208-2.01786273-2.08062821-4.69324259-3.42226934-7.53312761-3.77743242-.17595883-.02220577-.35330218-.03343775-.52674373-.03343775m0 .3873098c.15619809 0 .31705316.00994095.48105485.03046837 2.75593327.34483482 5.35252183 1.64684124 7.31135399 3.66653272.8906186.91689138 1.0891072 1.95849653.988793 2.57173703-.063184.38550235-.2412826.66914222-.5354284.81864381-.1825038.09334166-.3900546.13801139-.6130869.13801139-.67677441 0-1.49716046-.4109357-2.2038907-1.12113276-1.4333471-1.47745776-3.33264528-2.42985254-5.34522168-2.6813457-1.02856625-.14253001-2.29992549-.66656016-2.50407802-1.71513688-.06947731-.33450656.0933916-.62924931.24178607-.81735277.34008639-.43043028 1.091121-.89042521 2.17871779-.89042521" mask="url(#ay)"/><path d="m8.92283617 6.05196134c-.09741943-.06963907-.25481222-.06920854-.35103814.00086107-.09622592.07006962-.09562917.18340803.0011935.25283184.62703497.44915592 1.36491624.69434575 2.00343867.69434575.2898712 0 .5604973-.0509108.7899477-.1562843l.0362525-.01775958c.1126366-.05478561.1247208-.1556385.050873-.23754783-.0744446-.08158644-.2445183-.09600937-.3589451-.0439146-.5234989.24217609-1.43757055.03325885-2.17172213-.49253235"/><path d="m10.8006411 5c.0506345 0 .1017489-.02117853.1406247-.06393269.0779916-.08564067.0784715-.22502187.00048-.31119201-1.79968491-1.99581168-4.18550622-3.28280445-6.71783166-3.62338167-.10714838-.01389841-.20889735.07068334-.22245588.19179805-.01319856.12058526.06467299.23005178.17374117.24487675 2.44425498.32866431 4.74680532 1.57052033 6.48421697 3.49710469.0389957.04328362.0901102.06472688.1412247.06472688"/></g><g transform="translate(148.424 87.374)"><path d="m2.81500156 0c-1.2205099 0-2.07727085.53410021-2.47210838 1.03398805-.28734909.36432941-.39722897.7591272-.31780835 1.14178927.2398981 1.23164515 1.61572504 1.85095351 2.82289328 2.01827134 1.93479203.24181042 3.75429199 1.1545705 5.12810509 2.57070421.78237492.78623889 1.68205573 1.23526004 2.4716049 1.23526004.2865939 0 .5495253-.06016212.7814939-.17867892.3986135-.20256302.6544964-.58341765.7393292-1.10112174.1842659-1.12655509-.4740064-2.27131374-1.0936383-2.90934208-2.01786273-2.08062821-4.69324259-3.42226934-7.53312761-3.77743242-.17595883-.02220577-.35330218-.03343775-.52674373-.03343775m0 .3873098c.15619809 0 .31705316.00994095.48105485.03046837 2.75593327.34483482 5.35252183 1.64684124 7.31135399 3.66653272.8906186.91689138 1.0891072 1.95849653.988793 2.57173703-.063184.38550235-.2412826.66914222-.5354284.81864381-.1825038.09334166-.3900546.13801139-.6130869.13801139-.67677441 0-1.49716046-.4109357-2.2038907-1.12113276-1.4333471-1.47745776-3.33264528-2.42985254-5.34522168-2.6813457-1.02856625-.14253001-2.29992549-.66656016-2.50407802-1.71513688-.06947731-.33450656.0933916-.62924931.24178607-.81735277.34008639-.43043028 1.091121-.89042521 2.17871779-.89042521" mask="url(#az)"/><path d="m8.92283617 6.05196134c-.09741943-.06963907-.25481222-.06920854-.35103814.00086107-.09622592.07006962-.09562917.18340803.0011935.25283184.62703497.44915592 1.36491624.69434575 2.00343867.69434575.2898712 0 .5604973-.0509108.7899477-.1562843l.0362525-.01775958c.1126366-.05478561.1247208-.1556385.050873-.23754783-.0744446-.08158644-.2445183-.09600937-.3589451-.0439146-.5234989.24217609-1.43757055.03325885-2.17172213-.49253235"/><path d="m10.8006411 5c.0506345 0 .1017489-.02117853.1406247-.06393269.0779916-.08564067.0784715-.22502187.00048-.31119201-1.79968491-1.99581168-4.18550622-3.28280445-6.71783166-3.62338167-.10714838-.01389841-.20889735.07068334-.22245588.19179805-.01319856.12058526.06467299.23005178.17374117.24487675 2.44425498.32866431 4.74680532 1.57052033 6.48421697 3.49710469.0389957.04328362.0901102.06472688.1412247.06472688"/></g><g transform="matrix(0 1 -1 0 179.424 83.374)"><path d="m2.81500156 0c-1.2205099 0-2.07727085.53410021-2.47210838 1.03398805-.28734909.36432941-.39722897.7591272-.31780835 1.14178927.2398981 1.23164515 1.61572504 1.85095351 2.82289328 2.01827134 1.93479203.24181042 3.75429199 1.1545705 5.12810509 2.57070421.78237492.78623889 1.68205573 1.23526004 2.4716049 1.23526004.2865939 0 .5495253-.06016212.7814939-.17867892.3986135-.20256302.6544964-.58341765.7393292-1.10112174.1842659-1.12655509-.4740064-2.27131374-1.0936383-2.90934208-2.01786273-2.08062821-4.69324259-3.42226934-7.53312761-3.77743242-.17595883-.02220577-.35330218-.03343775-.52674373-.03343775m0 .3873098c.15619809 0 .31705316.00994095.48105485.03046837 2.75593327.34483482 5.35252183 1.64684124 7.31135399 3.66653272.8906186.91689138 1.0891072 1.95849653.988793 2.57173703-.063184.38550235-.2412826.66914222-.5354284.81864381-.1825038.09334166-.3900546.13801139-.6130869.13801139-.67677441 0-1.49716046-.4109357-2.2038907-1.12113276-1.4333471-1.47745776-3.33264528-2.42985254-5.34522168-2.6813457-1.02856625-.14253001-2.29992549-.66656016-2.50407802-1.71513688-.06947731-.33450656.0933916-.62924931.24178607-.81735277.34008639-.43043028 1.091121-.89042521 2.17871779-.89042521" mask="url(#aA)"/><path d="m8.92283617 6.05196134c-.09741943-.06963907-.25481222-.06920854-.35103814.00086107-.09622592.07006962-.09562917.18340803.0011935.25283184.62703497.44915592 1.36491624.69434575 2.00343867.69434575.2898712 0 .5604973-.0509108.7899477-.1562843l.0362525-.01775958c.1126366-.05478561.1247208-.1556385.050873-.23754783-.0744446-.08158644-.2445183-.09600937-.3589451-.0439146-.5234989.24217609-1.43757055.03325885-2.17172213-.49253235"/><path d="m10.8006411 5c.0506345 0 .1017489-.02117853.1406247-.06393269.0779916-.08564067.0784715-.22502187.00048-.31119201-1.79968491-1.99581168-4.18550622-3.28280445-6.71783166-3.62338167-.10714838-.01389841-.20889735.07068334-.22245588.19179805-.01319856.12058526.06467299.23005178.17374117.24487675 2.44425498.32866431 4.74680532 1.57052033 6.48421697 3.49710469.0389957.04328362.0901102.06472688.1412247.06472688"/></g><g transform="matrix(0 1 -1 0 184.424 62.374)"><path d="m2.81500156 0c-1.2205099 0-2.07727085.53410021-2.47210838 1.03398805-.28734909.36432941-.39722897.7591272-.31780835 1.14178927.2398981 1.23164515 1.61572504 1.85095351 2.82289328 2.01827134 1.93479203.24181042 3.75429199 1.1545705 5.12810509 2.57070421.78237492.78623889 1.68205573 1.23526004 2.4716049 1.23526004.2865939 0 .5495253-.06016212.7814939-.17867892.3986135-.20256302.6544964-.58341765.7393292-1.10112174.1842659-1.12655509-.4740064-2.27131374-1.0936383-2.90934208-2.01786273-2.08062821-4.69324259-3.42226934-7.53312761-3.77743242-.17595883-.02220577-.35330218-.03343775-.52674373-.03343775m0 .3873098c.15619809 0 .31705316.00994095.48105485.03046837 2.75593327.34483482 5.35252183 1.64684124 7.31135399 3.66653272.8906186.91689138 1.0891072 1.95849653.988793 2.57173703-.063184.38550235-.2412826.66914222-.5354284.81864381-.1825038.09334166-.3900546.13801139-.6130869.13801139-.67677441 0-1.49716046-.4109357-2.2038907-1.12113276-1.4333471-1.47745776-3.33264528-2.42985254-5.34522168-2.6813457-1.02856625-.14253001-2.29992549-.66656016-2.50407802-1.71513688-.06947731-.33450656.0933916-.62924931.24178607-.81735277.34008639-.43043028 1.091121-.89042521 2.17871779-.89042521" mask="url(#aB)"/><path d="m8.92283617 6.05196134c-.09741943-.06963907-.25481222-.06920854-.35103814.00086107-.09622592.07006962-.09562917.18340803.0011935.25283184.62703497.44915592 1.36491624.69434575 2.00343867.69434575.2898712 0 .5604973-.0509108.7899477-.1562843l.0362525-.01775958c.1126366-.05478561.1247208-.1556385.050873-.23754783-.0744446-.08158644-.2445183-.09600937-.3589451-.0439146-.5234989.24217609-1.43757055.03325885-2.17172213-.49253235"/><path d="m10.8006411 5c.0506345 0 .1017489-.02117853.1406247-.06393269.0779916-.08564067.0784715-.22502187.00048-.31119201-1.79968491-1.99581168-4.18550622-3.28280445-6.71783166-3.62338167-.10714838-.01389841-.20889735.07068334-.22245588.19179805-.01319856.12058526.06467299.23005178.17374117.24487675 2.44425498.32866431 4.74680532 1.57052033 6.48421697 3.49710469.0389957.04328362.0901102.06472688.1412247.06472688"/></g><g transform="matrix(0 1 -1 0 154.424 73.374)"><path d="m2.81500156 0c-1.2205099 0-2.07727085.53410021-2.47210838 1.03398805-.28734909.36432941-.39722897.7591272-.31780835 1.14178927.2398981 1.23164515 1.61572504 1.85095351 2.82289328 2.01827134 1.93479203.24181042 3.75429199 1.1545705 5.12810509 2.57070421.78237492.78623889 1.68205573 1.23526004 2.4716049 1.23526004.2865939 0 .5495253-.06016212.7814939-.17867892.3986135-.20256302.6544964-.58341765.7393292-1.10112174.1842659-1.12655509-.4740064-2.27131374-1.0936383-2.90934208-2.01786273-2.08062821-4.69324259-3.42226934-7.53312761-3.77743242-.17595883-.02220577-.35330218-.03343775-.52674373-.03343775m0 .3873098c.15619809 0 .31705316.00994095.48105485.03046837 2.75593327.34483482 5.35252183 1.64684124 7.31135399 3.66653272.8906186.91689138 1.0891072 1.95849653.988793 2.57173703-.063184.38550235-.2412826.66914222-.5354284.81864381-.1825038.09334166-.3900546.13801139-.6130869.13801139-.67677441 0-1.49716046-.4109357-2.2038907-1.12113276-1.4333471-1.47745776-3.33264528-2.42985254-5.34522168-2.6813457-1.02856625-.14253001-2.29992549-.66656016-2.50407802-1.71513688-.06947731-.33450656.0933916-.62924931.24178607-.81735277.34008639-.43043028 1.091121-.89042521 2.17871779-.89042521" mask="url(#aC)"/><path d="m8.92283617 6.05196134c-.09741943-.06963907-.25481222-.06920854-.35103814.00086107-.09622592.07006962-.09562917.18340803.0011935.25283184.62703497.44915592 1.36491624.69434575 2.00343867.69434575.2898712 0 .5604973-.0509108.7899477-.1562843l.0362525-.01775958c.1126366-.05478561.1247208-.1556385.050873-.23754783-.0744446-.08158644-.2445183-.09600937-.3589451-.0439146-.5234989.24217609-1.43757055.03325885-2.17172213-.49253235"/><path d="m10.8006411 5c.0506345 0 .1017489-.02117853.1406247-.06393269.0779916-.08564067.0784715-.22502187.00048-.31119201-1.79968491-1.99581168-4.18550622-3.28280445-6.71783166-3.62338167-.10714838-.01389841-.20889735.07068334-.22245588.19179805-.01319856.12058526.06467299.23005178.17374117.24487675 2.44425498.32866431 4.74680532 1.57052033 6.48421697 3.49710469.0389957.04328362.0901102.06472688.1412247.06472688"/></g><path d="m2.81500156 0c-1.2205099 0-2.07727085.53410021-2.47210838 1.03398805-.28734909.36432941-.39722897.7591272-.31780835 1.14178927.2398981 1.23164515 1.61572504 1.85095351 2.82289328 2.01827134 1.93479203.24181042 3.75429199 1.1545705 5.12810509 2.57070421.78237492.78623889 1.68205573 1.23526004 2.4716049 1.23526004.2865939 0 .5495253-.06016212.7814939-.17867892.3986135-.20256302.6544964-.58341765.7393292-1.10112174.1842659-1.12655509-.4740064-2.27131374-1.0936383-2.90934208-2.01786273-2.08062821-4.69324259-3.42226934-7.53312761-3.77743242-.17595883-.02220577-.35330218-.03343775-.52674373-.03343775m0 .3873098c.15619809 0 .31705316.00994095.48105485.03046837 2.75593327.34483482 5.35252183 1.64684124 7.31135399 3.66653272.8906186.91689138 1.0891072 1.95849653.988793 2.57173703-.063184.38550235-.2412826.66914222-.5354284.81864381-.1825038.09334166-.3900546.13801139-.6130869.13801139-.67677441 0-1.49716046-.4109357-2.2038907-1.12113276-1.4333471-1.47745776-3.33264528-2.42985254-5.34522168-2.6813457-1.02856625-.14253001-2.29992549-.66656016-2.50407802-1.71513688-.06947731-.33450656.0933916-.62924931.24178607-.81735277.34008639-.43043028 1.091121-.89042521 2.17871779-.89042521" mask="url(#aD)" transform="matrix(.46947156 .88294759 -.88294759 .46947156 167.138961 90.198428)"/><path d="m4.94197318 11.4330024c-.09741942-.069639-.25481221-.0692085-.35103813.0008611-.09622593.0700696-.09562918.183408.0011935.2528318.62703497.449156 1.36491624.6943458 2.00343865.6943458.28987127 0 .56049735-.0509108.78994769-.1562843l.03625256-.0177596c.11263655-.0547856.12472073-.1556385.05087293-.2375478-.07444455-.0815865-.24451828-.0960094-.35894507-.0439146-.52349886.2421761-1.43757054.0332588-2.17172213-.4925324" transform="matrix(.46947156 .88294759 -.88294759 .46947156 173.75904 91.187076)"/><path d="m11.2364157 10.0305216c.0506346 0 .101749-.0211785.1406248-.06393265.0779915-.08564068.0784715-.22502188.0004799-.31119202-1.79968482-1.99581168-4.18550614-3.28280444-6.71783157-3.62338167-.10714838-.01389841-.20889735.07068334-.22245588.19179806-.01319857.12058525.06467299.23005178.17374116.24487675 2.44425498.3286643 4.74680533 1.57052033 6.48421699 3.49710468.0389957.04328365.0901102.06472685.1412246.06472685" transform="matrix(.46947156 .88294759 -.88294759 .46947156 171.376064 87.451975)"/><path d="m2.81500156 0c-1.2205099 0-2.07727085.53410021-2.47210838 1.03398805-.28734909.36432941-.39722897.7591272-.31780835 1.14178927.2398981 1.23164515 1.61572504 1.85095351 2.82289328 2.01827134 1.93479203.24181042 3.75429199 1.1545705 5.12810509 2.57070421.78237492.78623889 1.68205573 1.23526004 2.4716049 1.23526004.2865939 0 .5495253-.06016212.7814939-.17867892.3986135-.20256302.6544964-.58341765.7393292-1.10112174.1842659-1.12655509-.4740064-2.27131374-1.0936383-2.90934208-2.01786273-2.08062821-4.69324259-3.42226934-7.53312761-3.77743242-.17595883-.02220577-.35330218-.03343775-.52674373-.03343775m0 .3873098c.15619809 0 .31705316.00994095.48105485.03046837 2.75593327.34483482 5.35252183 1.64684124 7.31135399 3.66653272.8906186.91689138 1.0891072 1.95849653.988793 2.57173703-.063184.38550235-.2412826.66914222-.5354284.81864381-.1825038.09334166-.3900546.13801139-.6130869.13801139-.67677441 0-1.49716046-.4109357-2.2038907-1.12113276-1.4333471-1.47745776-3.33264528-2.42985254-5.34522168-2.6813457-1.02856625-.14253001-2.29992549-.66656016-2.50407802-1.71513688-.06947731-.33450656.0933916-.62924931.24178607-.81735277.34008639-.43043028 1.091121-.89042521 2.17871779-.89042521" mask="url(#aE)" transform="matrix(.46947156 .88294759 -.88294759 .46947156 172.138961 69.198428)"/><path d="m4.94197318 11.4330024c-.09741942-.069639-.25481221-.0692085-.35103813.0008611-.09622593.0700696-.09562918.183408.0011935.2528318.62703497.449156 1.36491624.6943458 2.00343865.6943458.28987127 0 .56049735-.0509108.78994769-.1562843l.03625256-.0177596c.11263655-.0547856.12472073-.1556385.05087293-.2375478-.07444455-.0815865-.24451828-.0960094-.35894507-.0439146-.52349886.2421761-1.43757054.0332588-2.17172213-.4925324" transform="matrix(.46947156 .88294759 -.88294759 .46947156 178.75904 70.187076)"/><path d="m11.2364157 10.0305216c.0506346 0 .101749-.0211785.1406248-.06393265.0779915-.08564068.0784715-.22502188.0004799-.31119202-1.79968482-1.99581168-4.18550614-3.28280444-6.71783157-3.62338167-.10714838-.01389841-.20889735.07068334-.22245588.19179806-.01319857.12058525.06467299.23005178.17374116.24487675 2.44425498.3286643 4.74680533 1.57052033 6.48421699 3.49710468.0389957.04328365.0901102.06472685.1412246.06472685" transform="matrix(.46947156 .88294759 -.88294759 .46947156 176.376064 66.451975)"/><g transform="translate(159.424 82.374)"><path d="m2.81500156 0c-1.2205099 0-2.07727085.53410021-2.47210838 1.03398805-.28734909.36432941-.39722897.7591272-.31780835 1.14178927.2398981 1.23164515 1.61572504 1.85095351 2.82289328 2.01827134 1.93479203.24181042 3.75429199 1.1545705 5.12810509 2.57070421.78237492.78623889 1.68205573 1.23526004 2.4716049 1.23526004.2865939 0 .5495253-.06016212.7814939-.17867892.3986135-.20256302.6544964-.58341765.7393292-1.10112174.1842659-1.12655509-.4740064-2.27131374-1.0936383-2.90934208-2.01786273-2.08062821-4.69324259-3.42226934-7.53312761-3.77743242-.17595883-.02220577-.35330218-.03343775-.52674373-.03343775m0 .3873098c.15619809 0 .31705316.00994095.48105485.03046837 2.75593327.34483482 5.35252183 1.64684124 7.31135399 3.66653272.8906186.91689138 1.0891072 1.95849653.988793 2.57173703-.063184.38550235-.2412826.66914222-.5354284.81864381-.1825038.09334166-.3900546.13801139-.6130869.13801139-.67677441 0-1.49716046-.4109357-2.2038907-1.12113276-1.4333471-1.47745776-3.33264528-2.42985254-5.34522168-2.6813457-1.02856625-.14253001-2.29992549-.66656016-2.50407802-1.71513688-.06947731-.33450656.0933916-.62924931.24178607-.81735277.34008639-.43043028 1.091121-.89042521 2.17871779-.89042521" mask="url(#aF)"/><path d="m8.92283617 6.05196134c-.09741943-.06963907-.25481222-.06920854-.35103814.00086107-.09622592.07006962-.09562917.18340803.0011935.25283184.62703497.44915592 1.36491624.69434575 2.00343867.69434575.2898712 0 .5604973-.0509108.7899477-.1562843l.0362525-.01775958c.1126366-.05478561.1247208-.1556385.050873-.23754783-.0744446-.08158644-.2445183-.09600937-.3589451-.0439146-.5234989.24217609-1.43757055.03325885-2.17172213-.49253235"/><path d="m10.8006411 5c.0506345 0 .1017489-.02117853.1406247-.06393269.0779916-.08564067.0784715-.22502187.00048-.31119201-1.79968491-1.99581168-4.18550622-3.28280445-6.71783166-3.62338167-.10714838-.01389841-.20889735.07068334-.22245588.19179805-.01319856.12058526.06467299.23005178.17374117.24487675 2.44425498.32866431 4.74680532 1.57052033 6.48421697 3.49710469.0389957.04328362.0901102.06472688.1412247.06472688"/></g><g transform="translate(164.424 61.374)"><path d="m2.81500156 0c-1.2205099 0-2.07727085.53410021-2.47210838 1.03398805-.28734909.36432941-.39722897.7591272-.31780835 1.14178927.2398981 1.23164515 1.61572504 1.85095351 2.82289328 2.01827134 1.93479203.24181042 3.75429199 1.1545705 5.12810509 2.57070421.78237492.78623889 1.68205573 1.23526004 2.4716049 1.23526004.2865939 0 .5495253-.06016212.7814939-.17867892.3986135-.20256302.6544964-.58341765.7393292-1.10112174.1842659-1.12655509-.4740064-2.27131374-1.0936383-2.90934208-2.01786273-2.08062821-4.69324259-3.42226934-7.53312761-3.77743242-.17595883-.02220577-.35330218-.03343775-.52674373-.03343775m0 .3873098c.15619809 0 .31705316.00994095.48105485.03046837 2.75593327.34483482 5.35252183 1.64684124 7.31135399 3.66653272.8906186.91689138 1.0891072 1.95849653.988793 2.57173703-.063184.38550235-.2412826.66914222-.5354284.81864381-.1825038.09334166-.3900546.13801139-.6130869.13801139-.67677441 0-1.49716046-.4109357-2.2038907-1.12113276-1.4333471-1.47745776-3.33264528-2.42985254-5.34522168-2.6813457-1.02856625-.14253001-2.29992549-.66656016-2.50407802-1.71513688-.06947731-.33450656.0933916-.62924931.24178607-.81735277.34008639-.43043028 1.091121-.89042521 2.17871779-.89042521" mask="url(#aG)"/><path d="m8.92283617 6.05196134c-.09741943-.06963907-.25481222-.06920854-.35103814.00086107-.09622592.07006962-.09562917.18340803.0011935.25283184.62703497.44915592 1.36491624.69434575 2.00343867.69434575.2898712 0 .5604973-.0509108.7899477-.1562843l.0362525-.01775958c.1126366-.05478561.1247208-.1556385.050873-.23754783-.0744446-.08158644-.2445183-.09600937-.3589451-.0439146-.5234989.24217609-1.43757055.03325885-2.17172213-.49253235"/><path d="m10.8006411 5c.0506345 0 .1017489-.02117853.1406247-.06393269.0779916-.08564067.0784715-.22502187.00048-.31119201-1.79968491-1.99581168-4.18550622-3.28280445-6.71783166-3.62338167-.10714838-.01389841-.20889735.07068334-.22245588.19179805-.01319856.12058526.06467299.23005178.17374117.24487675 2.44425498.32866431 4.74680532 1.57052033 6.48421697 3.49710469.0389957.04328362.0901102.06472688.1412247.06472688"/></g><g transform="translate(153.424 68.374)"><path d="m2.81500156 0c-1.2205099 0-2.07727085.53410021-2.47210838 1.03398805-.28734909.36432941-.39722897.7591272-.31780835 1.14178927.2398981 1.23164515 1.61572504 1.85095351 2.82289328 2.01827134 1.93479203.24181042 3.75429199 1.1545705 5.12810509 2.57070421.78237492.78623889 1.68205573 1.23526004 2.4716049 1.23526004.2865939 0 .5495253-.06016212.7814939-.17867892.3986135-.20256302.6544964-.58341765.7393292-1.10112174.1842659-1.12655509-.4740064-2.27131374-1.0936383-2.90934208-2.01786273-2.08062821-4.69324259-3.42226934-7.53312761-3.77743242-.17595883-.02220577-.35330218-.03343775-.52674373-.03343775m0 .3873098c.15619809 0 .31705316.00994095.48105485.03046837 2.75593327.34483482 5.35252183 1.64684124 7.31135399 3.66653272.8906186.91689138 1.0891072 1.95849653.988793 2.57173703-.063184.38550235-.2412826.66914222-.5354284.81864381-.1825038.09334166-.3900546.13801139-.6130869.13801139-.67677441 0-1.49716046-.4109357-2.2038907-1.12113276-1.4333471-1.47745776-3.33264528-2.42985254-5.34522168-2.6813457-1.02856625-.14253001-2.29992549-.66656016-2.50407802-1.71513688-.06947731-.33450656.0933916-.62924931.24178607-.81735277.34008639-.43043028 1.091121-.89042521 2.17871779-.89042521" mask="url(#aH)"/><path d="m8.92283617 6.05196134c-.09741943-.06963907-.25481222-.06920854-.35103814.00086107-.09622592.07006962-.09562917.18340803.0011935.25283184.62703497.44915592 1.36491624.69434575 2.00343867.69434575.2898712 0 .5604973-.0509108.7899477-.1562843l.0362525-.01775958c.1126366-.05478561.1247208-.1556385.050873-.23754783-.0744446-.08158644-.2445183-.09600937-.3589451-.0439146-.5234989.24217609-1.43757055.03325885-2.17172213-.49253235"/><path d="m10.8006411 5c.0506345 0 .1017489-.02117853.1406247-.06393269.0779916-.08564067.0784715-.22502187.00048-.31119201-1.79968491-1.99581168-4.18550622-3.28280445-6.71783166-3.62338167-.10714838-.01389841-.20889735.07068334-.22245588.19179805-.01319856.12058526.06467299.23005178.17374117.24487675 2.44425498.32866431 4.74680532 1.57052033 6.48421697 3.49710469.0389957.04328362.0901102.06472688.1412247.06472688"/></g></g><g fill="#006993" transform="translate(14.970067 43.374)"><path d="m6 34h6v-34h-6z"/><path d="m9.00000825 30h-9.00000825l4.49998762 6.5000138 4.50002063 6.4999862 4.50000415-6.4999862 4.4999876-6.5000138z"/></g><g fill="#006993" transform="matrix(1 0 0 -1 189.970067 109.374)"><path d="m6 34h6v-34h-6z"/><path d="m9.00000825 30h-9.00000825l4.49998762 6.5000138 4.50002063 6.4999862 4.50000415-6.4999862 4.4999876-6.5000138z"/></g></g></svg>